# Aspose.3D Wavefront OBJ Exporter
# Copyright 2004-2022 Aspose Pty Ltd.
# File created: 06/23/2022 13:41:46


#
# object obj_1974710
#

v 8.61925506591796872 6.86793518066406256 -3.60457992553710936
v 11.30000305175781248 7.49485778808593752 -3.272918701171875
v 10.78570556640624992 6.92648315429687504 -4.8309440612792968
v 8.26994323730468752 6.28697204589843752 -5.1690521240234375
v 3.0185394287109375 4.97210693359375008 2.08633041381835938
v 3.22946929931640624 5.65725708007812496 0.58769226074218752
v -0.14316558837890624 4.79449462890624992 0.42970275878906248
v 0.09044647216796876 4.38607788085937504 1.73814392089843744
v 3.35328674316406248 5.1269989013671875 -5.95394515991210944
v 0.39073944091796872 4.48077392578125 -6.19372940063476564
v -0.0039520263671875 4.856689453125 -4.8118972778320312
v 3.385498046875 5.76091003417968752 -4.32897186279296876
v 3.30006408691406248 6.0205841064453125 -0.95912933349609376
v 3.35300445556640624 6.055328369140625 -2.60007095336914064
v -0.19527435302734376 5.1687469482421875 -2.95918655395507808
v -0.24233245849609376 5.1502532958984375 -1.21263885498046876
v -1.54237365722656248 4.1754302978515625 -4.99957656860351568
v -1.03786468505859375 3.8359375 -6.40241622924804688
v -1.21882629394531248 3.43257141113281248 -6.68281555175781248
v -2.29280090332031248 3.70651245117187504 -5.104339599609375
v -2.02304840087890625 4.40821838378906248 -1.25914001464843752
v -1.95750427246093744 4.42250061035156248 -3.10120773315429688
v -2.81942749023437504 3.91885375976562496 -3.17908096313476562
v -2.892822265625 3.91127014160156256 -1.29162979125976564
v -1.42584228515625 3.77430725097656256 1.90145111083984368
v -1.74601745605468752 4.138458251953125 0.52130126953125
v -2.5230712890625 3.68438720703125 0.56052017211914064
v -1.68410491943359376 3.36924743652343752 2.17737197875976562
v -0.1232757568359375 3.39082336425781248 3.28944396972656248
v -0.37959289550781248 2.97007751464843744 3.56508255004882816
v 2.47930908203125 3.35693359375 4.24661636352539064
v 2.66783142089843752 3.97373962402343744 3.53342819213867184
v 6.68502807617187504 4.55500793457031248 -7.65987777709960936
v 7.63911437988281248 5.32337951660156248 -6.7716140747070312
v 9.87586975097656256 5.95195007324218752 -6.49569702148437504
v 7.309417724609375 4.67713928222656248 -7.66659545898437504
v 0.56693267822265624 3.50315856933593752 -7.65931320190429688
v 3.26084899902343752 4.158905029296875 -7.46659088134765624
v 3.29193878173828124 3.58297729492187504 -8.198822021484375
v 0.41454315185546872 3.0980987548828125 -7.91814422607421872
v 6.270172119140625 4.29168701171875 4.18835067749023436
v 6.94414520263671872 4.39056396484375 4.29759597778320312
v 9.67894744873046872 5.66960144042968752 3.66956710815429688
v 7.31221771240234376 5.0819091796875 3.56172180175781248
v 7.93240356445312496 6.078277587890625 2.31827163696289064
v 10.44620513916015624 6.68138122558593752 2.50847244262695312
v 10.994384765625 7.32481384277343752 1.16417694091796876
v 8.36322784423828128 6.72367858886718752 0.9437255859375
v 8.60244750976562496 7.0169830322265625 -0.56276321411132816
v 11.31764984130859376 7.5872802734375 -0.34846878051757812
v 11.41876983642578128 7.64752197265625 -1.83982849121093744
v 8.68704223632812496 7.0665435791015625 -2.0824127197265625
v -1.15804290771484376 3.1636505126953125 -6.68309783935546872
v -2.26255035400390624 3.44125366210937504 -5.12619400024414062
v -2.78217315673828128 3.66224670410156248 -3.200927734375
v -2.8538894653320312 3.65664672851562496 -1.31068038940429688
v -2.46788787841796872 3.42695617675781248 0.5465126037597656
v -1.62163543701171872 3.09893798828125 2.16056442260742188
v -0.31880187988281248 2.67202758789062496 3.53931427001953128
v 2.53505706787109376 3.0927734375 4.22392272949218752
v 3.41098785400390624 3.35496520996093752 -8.151763916015625
v 0.53163909912109376 2.82582092285156256 -7.88005065917968752
v 9.76018524169921872 5.65138244628906248 3.76789093017578128
v 7.1071624755859375 4.41072082519531248 4.37715148925781248
v 10.55124664306640624 6.70182800292968752 2.57962417602539064
v 11.105316162109375 7.36123657226562496 1.21095657348632812
v 11.43278503417968752 7.63771057128906248 -0.32998275756835936
v 11.53586578369140624 7.69514465332031248 -1.83646392822265632
v 11.41653442382812496 7.53828430175781248 -3.30597305297851564
v 10.89774322509765632 6.95198059082031248 -4.88472747802734368
v 9.96804046630859376 5.94439697265624992 -6.58925628662109376
v 7.47440338134765624 4.70794677734375 -7.7276649475097656
v -1.2401123046875 2.9625244140625 -6.74920654296875008
v -2.38300323486328128 3.224151611328125 -5.17213058471679688
v -2.58104705810546872 3.20762634277343752 0.54259109497070312
v -1.70652008056640624 2.88575744628906256 2.18941497802734376
v 3.41714477539062496 3.2476806640625 -8.25708770751953124
v 0.51987457275390624 2.65718078613281248 -7.96100234985351568
v 7.67356872558593752 -8.89802551269531248 -1.84682846069335936
v 7.68618011474609376 -8.26887512207031248 -4.31412506103515624
v 12.037841796875 -8.73304748535156256 -3.76369094848632816
v 12.06893157958984375 -9.353790283203125 -1.16809844970703124
v 16.37380981445312496 -9.1655426025390625 -0.49216842651367184
v 16.34046936035156248 -8.57002258300781248 -3.14126205444335938
v 19.70583343505859376 -8.54228210449218752 -2.63900756835937504
v 19.77362823486328128 -9.08880615234375 -0.00448226928710937
v 19.85794067382812496 -9.058837890625 2.6387290954589844
v 19.92852783203124992 -8.19268798828125 5.16624832153320312
v 16.59958648681640624 -8.41343688964843752 4.62001228332519528
v 16.47492980957031248 -9.23136901855468752 2.12386703491210938
v 12.09638214111328124 -9.4210205078125 1.32804870605468752
v 12.26445770263671876 -8.71202087402343752 3.75864791870117184
v 7.78533935546875008 -8.47981262207031248 2.75749588012695312
v 7.67749786376953128 -9.04034423828125 0.51149749755859376
v 3.15579986572265624 -7.71929931640625 1.62693405151367184
v 0.198577880859375 -6.86940002441406256 0.8372764587402344
v -0.141204833984375 -6.66378784179687504 -0.67676925659179688
v 3.18605804443359376 -8.0545806884765625 -0.31205368041992188
v 3.16840362548828124 -7.77558898925781248 -2.50595092773437504
v -0.2801513671875 -6.30439758300781248 -2.7247276306152344
v -0.1244049072265625 -5.79347229003906256 -4.84635162353515632
v 3.28746032714843752 -7.1781005859375 -4.77520370483398432
v 7.72146606445312496 -7.1542816162109375 -6.89738845825195312
v 7.83407592773437504 -5.802978515625 -8.98931884765624992
v 12.10227203369140624 -6.067413330078125 -8.70248031616210936
v 12.003387451171875 -7.55764770507812496 -6.46180343627929688
v 16.40013885498046872 -7.46633911132812496 -5.82481002807617184
v 16.52619934082031248 -5.95704650878906256 -8.1055450439453125
v 19.56773376464843752 -5.77693176269531248 -7.52765655517578128
v 19.66269683837890624 -7.41226196289062496 -5.26625061035156248
v -3.57491302490234376 1.38067626953125 -6.19288635253906248
v -2.14490509033203124 1.36079406738281248 -8.1220703125
v -2.1594696044921875 -0.0625 -8.48174285888671872
v -3.65643310546875 -0.103118896484375 -6.50185775756835936
v 21.07758331298828125 2.72579956054687504 10.34498977661132812
v 17.96628570556640624 2.40170288085937504 9.9030704498291016
v 17.63714599609375 -0.70733642578125 9.96598815917968752
v 20.77224731445312496 -0.39305114746093752 10.51462936401367184
v 20.03076934814453125 -6.45986938476562496 7.59208297729492184
v 20.30472564697265624 -3.83346557617187504 9.38092994689941408
v 17.16234588623046876 -4.21864318847656248 8.77494430541992192
v 16.82537078857421872 -6.78927612304687504 6.99795150756835936
v -0.50676727294921872 -4.54496765136718752 2.88243103027343744
v -0.01935577392578125 -6.06854248046875 2.286895751953125
v 3.08185577392578125 -6.7666015625 3.30457305908203124
v 3.0608367919921875 -5.020050048828125 4.60909080505371096
v -0.75999450683593744 -0.35606384277343752 3.94072341918945312
v -0.73141479492187504 -2.35078430175781248 3.60990142822265624
v 3.0966949462890625 -2.47601318359375 5.53488349914550784
v 3.200897216796875 -0.1555023193359375 5.82004547119140624
v 14.055816650390625 1.92103576660156256 9.08867835998535156
v 9.1478424072265625 1.0605010986328125 7.74335098266601568
v 8.70161437988281248 -1.73648071289062496 7.5974082946777344
v 13.5347900390625 -1.139556884765625 9.06114578247070312
v 12.56922912597656248 -7.212554931640625 6.12425804138183594
v 12.9930419921875 -4.69119262695312496 7.89517402648925776
v 8.2923583984375 -4.96626281738281248 6.5021400451660156
v 7.98954772949218752 -7.21142578125 4.88808822631835936
v -3.97128295898437504 -2.27095031738281248 -4.34577941894531248
v -2.56060791015625 -4.08837890625 -4.57827758789062496
v -2.67797088623046872 -4.47886657714843752 -2.56197357177734376
v -4.0768890380859375 -2.57264709472656248 -2.32275390625
v -4.240753173828125 1.26472473144531248 -3.86957550048828128
v -4.35673522949218752 -0.34010314941406248 -4.15445709228515624
v -4.48053741455078128 -0.59022521972656248 -2.00986099243164062
v -4.36009216308593752 1.09466552734375 -1.72637939453124992
v -2.73259735107421872 0.38710021972656248 2.1294708251953125
v -3.93290710449218752 0.870849609375 0.239501953125
v -4.02814483642578125 -0.85328674316406256 -0.06162643432617188
v -2.77685546875 -1.44125366210937504 1.8115348815917968
v -1.85245513916015632 -5.09149169921875 0.79049682617187504
v -2.41157531738281248 -3.58836364746093752 1.28911209106445312
v -3.60265350341796872 -2.93345642089843744 -0.44679260253906248
v -2.30597686767578124 -4.86767578125 -0.65351867675781248
v 0.051513671875 1.203094482421875 -9.65992736816406248
v 3.85105895996093744 1.45323181152343752 -10.60365295410156248
v 3.74993896484375008 -0.19190979003906248 -11.13224029541015624
v 0.12602996826171876 -0.21430969238281248 -10.09691619873046876
v 9.26184844970703124 2.0633392333984375 -10.96696472167968752
v 13.84181213378906256 2.62216186523437504 -11.07425308227539062
v 13.19865417480468752 0.25657653808593752 -11.6826744079589844
v 8.70693206787109376 -0.051025390625 -11.58743286132812496
v 8.030731201171875 -4.20770263671875 -10.6044921875
v 8.317840576171875 -2.29084777832031248 -11.46810531616210936
v 12.69808197021484376 -2.1535797119140625 -11.47566604614257816
v 12.33027648925781248 -4.26008605957031248 -10.48208236694335936
v 16.69483184814453128 -4.032073974609375 -9.96134185791015632
v 16.90127563476562496 -1.79362487792968752 -11.04764175415039062
v 19.92404937744140624 -1.55078125 -10.59693145751953128
v 19.67222595214843752 -3.83599853515624992 -9.4520835876464844
v 21.22520446777343752 5.52281188964843752 8.87298774719238288
v 21.38655090332031248 7.54219055175781248 6.8685359954833984
v 18.41756439208984376 7.1357269287109375 6.69094085693359376
v 18.1430511474609375 5.104888916015625 8.59670448303222656
v 13.83452606201171872 8.66827392578125 -3.08523941040039062
v 15.49423217773437504 9.089569091796875 -3.164794921875
v 15.73933410644531248 8.353424072265625 -4.9088172912597656
v 13.48493194580078128 7.88926696777343744 -4.97380828857421872
v 18.0085906982421875 5.37939453125 -9.56692886352539064
v 18.42233276367187504 7.25227355957031248 -7.56687164306640624
v 21.257415771484375 7.63996887207031248 -7.46126937866210936
v 20.994384765625 5.79032897949218752 -9.40753936767578128
v 17.1601104736328125 0.74957275390624992 -11.37173843383789064
v 17.52650451660156248 3.1406707763671875 -10.87873077392578128
v 20.67504119873046872 3.52780151367187504 -10.55519104003906248
v 20.31789398193359376 1.08319091796875 -10.94820022583007808
v 24.113800048828125 8.0786285400390625 -7.24697494506835936
v 24.96536254882812496 8.36463928222656248 -7.16574478149414062
v 25.0177459716796875 6.56120300292968752 -8.97111511230468752
v 24.15216827392578124 6.28472900390625 -9.0587921142578125
v 21.45182800292968752 9.0727691650390625 -4.7225379943847656
v 18.72373199462890624 8.75286865234375008 -4.84579086303710944
v 18.38198852539062496 9.4898681640625 -3.07907485961914062
v 21.49972534179687504 9.66635131835937504 -1.74626922607421872
v 21.56275177001953128 8.78117370605468752 4.32560729980468752
v 21.59075927734375 9.48146057128906248 1.45466232299804688
v 18.98368835449218752 9.273895263671875 1.50228118896484376
v 18.8217849731445312 8.49375915527343752 4.20207595825195312
v 15.47714996337890624 9.23579406738281248 -1.9207839965820312
v 13.84965515136718752 8.82456970214843744 -1.76727676391601568
v 13.84349060058593744 8.75848388671875008 -0.17227554321289062
v 15.99256896972656256 9.19993591308593752 -0.56304168701171872
v 15.77632141113281248 8.0634918212890625 3.98526000976562496
v 16.0665130615234375 8.94615173339843744 1.7059288024902344
v 13.8132400512695312 8.47499084472656248 1.70116424560546872
v 13.40538787841796872 7.58815002441406248 3.62474822998046872
v -1.96394348144531248 -3.69621276855468752 -6.69374084472656248
v -3.28835296630859376 -2.0266876220703125 -6.51866912841796872
v -1.8160476684570312 -1.97962951660156256 -8.41675949096679688
v -1.283538818359375 -3.3404541015625 -8.23720169067382812
v 3.54881286621093752 -6.2657470703125 -7.11420059204101562
v 0.31986236572265624 -5.1214599609375 -7.03548812866210937
v 0.92465209960937504 -4.62255859375 -8.61423873901367184
v 3.72220611572265632 -5.1679534912109375 -8.96915435791015632
v 3.82697296142578128 -2.224456787109375 -11.06444931030273438
v 3.81828308105468752 -3.88304138183593744 -10.34258270263671876
v 0.97226715087890624 -3.49676513671875 -9.87422180175781248
v 0.44956207275390624 -2.133148193359375 -10.04565048217773438
v -0.34541320800781248 2.47930908203125 3.60682296752929688
v 2.587158203125 2.98016357421875008 4.33036804199218752
v -3.316650390625 2.23841857910156248 0.45155334472656248
v -2.279083251953125 1.89723205566406256 2.235076904296875
v -1.93789672851562496 2.731689453125 2.25608444213867188
v -2.86564636230468752 3.0182647705078125 0.55351638793945312
v -3.62337493896484376 2.54373168945312496 -3.48805236816406248
v -3.71329498291015624 2.48043823242187504 -1.47539138793945312
v -3.25193786621093752 3.262237548828125 -1.3428955078125
v -3.18134307861328124 3.26896667480468752 -3.27488327026367188
v -2.90599060058593744 3.44461059570312496 -3.23286056518554688
v -2.96929931640624992 3.43928527832031248 -1.32608795166015624
v -1.76786804199218752 2.28602600097656248 -7.33521652221679688
v -3.05165863037109375 2.43223571777343752 -5.58642578125
v -2.65192413330078128 3.0434722900390625 -5.24804306030273436
v -1.46617126464843752 2.81852722167968752 -6.87862014770507808
v 11.70029449462890624 7.076080322265625 3.12081527709960938
v 12.22635650634765624 7.85227966308593744 1.49751663208007816
v 11.30644226074218752 7.47386169433593752 1.32328414916992188
v 10.73500061035156256 6.7755126953125 2.75553894042968752
v 12.45520782470703128 8.1553802490234375 -0.22605895996093752
v 12.52804565429687504 8.218414306640625 -1.82358169555664064
v 11.73979187011718752 7.83042907714843744 -1.84514999389648432
v 11.63446807861328128 7.7696533203125 -0.28236007690429688
v 12.44793701171875 8.0435943603515625 -3.29336929321289064
v 11.96836090087890624 7.35844421386718752 -5.03431320190429687
v 11.086273193359375 7.03826904296875 -4.99873733520507808
v 11.62522125244140624 7.65789794921875 -3.36087417602539064
v 9.63888549804687504 3.42808532714843752 6.94304656982421872
v 12.61376190185546872 6.0987396240234375 5.58614730834960936
v 10.37028503417968752 4.82699584960937504 6.35283470153808592
v -0.46026611328125 2.3961181640625 3.7645301818847656
v 3.94657897949218752 3.20928955078125 5.09509658813476562
v 2.58519744873046872 2.94206237792968752 4.56511116027832032
v 9.91257476806640624 5.67239379882812496 4.00963211059570312
v 7.195404052734375 4.39140319824218752 4.61805343627929688
v 8.61421966552734376 4.6732177734375 5.17296981811523438
v 10.87562561035156256 5.81721496582031248 4.63401985168457032
v 12.80312347412109376 6.4951171875 -7.42737579345703128
v 9.98147583007812496 4.058624267578125 -9.60250091552734376
v 10.74592590332031248 5.26676940917968752 -8.7369346618652344
v 10.1285400390625 5.97660827636718752 -6.76265335083007808
v 11.08655548095703125 6.16595458984375 -7.05509567260742188
v 8.92963409423828128 5.036529541015625 -8.1526031494140625
v 7.55984497070312496 4.70960998535156248 -7.9234657287597656
v 0.22014617919921876 2.10870361328125 -8.73189163208007808
v 4.68300628662109376 3.55216979980468752 -8.72292709350585936
v 4.13622283935546876 2.71348571777343752 -9.47701263427734376
v 21.85043334960937504 -7.663818359375 5.40995216369628904
v 21.72578430175781248 -8.51986694335937504 2.88299179077148432
v 22.85690307617187504 -8.18373107910156248 2.95442199707031248
v 23.03253936767578125 -7.3453369140625 5.48558425903320312
v 21.7565841674804688 -8.71202087402343752 0.29356384277343752
v 21.73110198974609376 -8.27056884765625 -2.26588821411132812
v 22.92665100097656256 -8.019287109375 -2.084930419921875
v 22.93898010253906256 -8.43023681640625 0.4134559631347656
v 21.63697814941406248 -7.192108154296875 -4.7777214050292968
v 21.46666717529296872 -5.67160034179687504 -7.00887680053710937
v 22.58013916015625 -5.50213623046875 -6.71755218505859376
v 22.78743743896484368 -6.95875549316406256 -4.5205726623535156
v 21.31932830810546876 -3.68891906738281248 -8.98063659667968752
v 21.79972839355468752 -1.42388916015625 -10.1106414794921875
v 22.62831878662109376 -1.767578125 -9.76357650756835936
v 22.35408782958984376 -3.62506103515625 -8.68651580810546872
v 22.165283203125 -6.1430511474609375 7.8702430725097656
v 23.45719909667968752 -5.91476440429687504 7.95988273620605472
v 23.65271759033203128 -4.076324462890625 9.52023124694824216
v 22.38685607910156248 -3.59844970703125 9.6300678253173828
v 23.92919921875 -0.64151000976562496 10.54118537902832032
v 25.109344482421875 -0.28321838378906248 11.01035690307617187
v 25.48862457275390624 2.81153869628906256 10.57732009887695312
v 24.7266921997070312 3.27177429199218752 9.83278846740722656
v 23.60566711425781248 7.65310668945312496 6.75228691101074224
v 23.67765045166015624 5.70768737792968752 8.7529296875
v 24.82138824462890624 6.0718536376953125 8.16576957702636718
v 24.81297302246093744 7.56573486328125 6.52902984619140624
v 25.79927825927734368 7.86964416503906256 6.86909675598144528
v 24.99702453613281248 7.660400390625 6.5772113800048828
v 25.0084991455078125 6.168487548828125 8.1985454559326172
v 25.75614929199218752 5.77520751953124992 8.86489105224609376
v 23.27036285400390624 9.732177734375 -1.57651519775390624
v 24.29868316650390624 9.51002502441406248 -0.92691802978515632
v 24.04936981201171875 9.32598876953125 -4.45390701293945312
v 23.22161865234375 9.204986572265625 -4.52085113525390624
v 25.62560272216796872 9.0615692138671875 4.60348701477050784
v 25.37545776367187504 9.77391052246093744 1.84458923339843744
v 24.66675567626953128 9.34783935546875 2.26308822631835936
v 24.84126281738281248 8.7467041015625 4.38779449462890624
v 23.48772430419921872 8.80665588378906256 4.3684654235839844
v 24.65499114990234376 8.66435241699218752 4.30459976196289064
v 24.47823333740234376 9.27360534667968752 2.16224288940429688
v 23.353546142578125 9.50163269042968752 1.58211517333984376
v 14.55303192138671872 4.48635864257812496 7.97697067260742192
v 3.37317657470703128 1.94288635253906256 5.46009445190429688
v -0.59584045410156248 1.45268249511718752 3.87489700317382816
v 14.619140625 4.94407653808593744 -9.6526451110839844
v 22.8599853515625 -0.210113525390625 10.68177795410156248
v 23.33478546142578124 2.8826904296875 10.3861083984375
v 24.86900329589843744 9.54391479492187504 -4.38863372802734376
v 15.1269989013671875 6.53656005859375 6.27692222595214844
v 15.251373291015625 6.85562133789062496 -7.60049057006835936
v 23.293609619140625 3.79139709472656256 -10.09943389892578124
v 22.70002746582031248 1.261077880859375 -10.40168762207031248
v 23.248504638671875 7.91644287109375008 -7.31673049926757812
v 23.27848052978515624 6.1001434326171875 -9.17784500122070312
v 18.90300750732421872 9.47669982910156248 -1.40620040893554688
v 0.37673950195312496 2.59416198730468752 -8.16660690307617188
v 3.38774108886718752 3.23506164550781248 -8.50331497192382816
v 23.78549957275390624 0.90560913085937504 -10.08514785766601562
v 24.99113464355468752 10.010040283203125 -1.40003967285156248
v 24.17458343505859376 3.879638671875 -9.94284820556640624
# 329 vertices

vn -0.18521179258823396 0.94129240512847904 -0.28225010633468628
vn -0.19643771648406984 0.93269008398056032 -0.30249211192131044
vn -0.2462458461523056 0.89409607648849488 0.37410593032836912
vn -0.22267186641693116 0.918598473072052 0.32648757100105284
vn -0.17924855649471282 0.93513739109039312 -0.30559465289115904
vn -0.19384115934371948 0.91524600982666016 -0.35320007801055908
vn -0.24359774589538576 0.96979355812072752 0.01267480198293924
vn -0.23885199427604676 0.97104829549789424 0.003846614388749
vn -0.70319116115570072 0.59062981605529784 -0.39582630991935728
vn -0.43367755413055416 0.79060775041580208 -0.43227681517601016
vn -0.50372427701950072 0.86379152536392208 -0.01122613530606031
vn -0.49558341503143312 0.86841696500778192 -0.01578185707330703
vn -0.46482902765274048 0.82354569435119632 0.32512536644935608
vn -0.59173154830932616 0.6762171387672424 0.43884405493736264
vn -0.25940448045730592 0.63482826948165896 0.7278065085411072
vn -0.21301256120204924 0.76616400480270384 0.60631537437438968
vn -0.1661914736032486 0.82708585262298576 -0.53694438934326168
vn -0.16780608892440796 0.8285143971443176 -0.53423315286636352
vn -0.14455555379390716 0.77475625276565552 -0.61551302671432496
vn -0.174958735704422 0.57604354619979856 -0.7984755039215088
vn -0.21132814884185792 0.75603151321411136 0.61948102712631224
vn -0.21785020828247072 0.7664329409599304 0.60425311326980592
vn -0.24369557201862336 0.90976220369338992 0.33607321977615356
vn -0.23640859127044676 0.90593510866165168 0.35127294063568116
vn -0.20740936696529388 0.97792333364486688 0.02543888054788112
vn -0.2096993923187256 0.97755700349807744 0.02020781673491001
vn -0.21362315118312836 0.90834552049636848 0.35954642295837404
vn -0.22018714249134064 0.89848929643630976 0.37978217005729672
vn -0.18823491036891936 0.98188763856887824 0.02154392004013061
vn -0.18573179841041564 0.98248881101608272 0.01481044758111238
vn -0.17135211825370788 0.93545848131179808 -0.30912119150161744
vn -0.14573810994625092 0.92264926433563232 -0.3570416569709778
vn -0.15767547488212586 0.81264185905456544 -0.5610273480415344
vn -0.14005030691623688 0.83783388137817376 -0.52765554189682008
vn -0.22673200070858 0.83365279436111456 0.50360274314880368
vn -0.21803037822246552 0.82721292972564704 0.51786237955093384
vn -0.24755938351154328 0.94371098279953008 0.21937154233455656
vn -0.25152337551116944 0.94470113515853888 0.21041807532310484
vn -0.34044229984283448 0.8785573840141296 0.33501622080802916
vn -0.32655864953994752 0.89246487617492672 0.3112328350543976
vn -0.34665569663047792 0.87553548812866208 -0.33655229210853576
vn -0.34599721431732176 0.8756123185157776 -0.33702963590621948
vn -0.22868977487087248 0.95583474636077888 -0.18460993468761444
vn -0.22296556830406188 0.96028965711593632 -0.16772031784057618
vn -0.38989302515983584 0.9208598732948304 -0.00075438164640218
vn -0.38449290394783024 0.92310488224029536 -0.00652380287647247
vn -0.4033851325511932 0.5956246256828308 -0.69463062286376952
vn -0.38904234766960144 0.63709002733230592 -0.66540396213531496
vn -0.492990642786026 0.83977210521698 -0.22747087478637696
vn -0.47809442877769472 0.85149383544921872 -0.2153693586587906
vn -0.818601667881012 -0.0461869090795517 -0.57250165939331056
vn -0.82703369855880736 -0.186375230550766 -0.53035801649093624
vn -0.49154826998710632 0.84712272882461552 0.2018994837999344
vn -0.4861663281917572 0.84963095188140864 0.20437611639499664
vn -0.98822003602981568 -0.14826421439647674 -0.03793248161673546
vn -0.98933798074722288 -0.14030924439430236 -0.03903480619192123
vn -0.4272461235523224 0.67904639244079592 0.59695631265640256
vn -0.44456663727760312 0.66440528631210328 0.60077136754989624
vn -0.88044595718383792 -0.22928008437156676 0.41502475738525392
vn -0.8837097883224488 -0.21213479340076448 0.41720005869865416
vn -0.2134263664484024 -0.12824411690235138 0.96850532293319696
vn -0.21366986632347108 -0.12731990218162536 0.9685735702514648
vn -0.17967566847801208 0.76705992221832272 0.61590242385864256
vn -0.18215934932231904 0.74711656570434576 0.63924556970596312
vn -0.14755496382713318 0.82092928886413568 -0.55163633823394776
vn -0.10920067876577378 0.7790449261665344 -0.61738497018814088
vn -0.05605436488986015 -0.22979472577571868 -0.9716235399246216
vn -0.06263153254985809 -0.16465429961681366 -0.98436081409454352
vn -0.20303045213222504 0.8533180356025696 0.48023644089698792
vn 0.00804693531244993 -0.08390467613935471 0.99644130468368528
vn -0.22460727393627168 0.8033098578453064 0.55158388614654544
vn -0.23527155816555024 0.81235826015472416 0.53359282016754152
vn -0.23057515919208528 0.96583527326583856 0.11831090599298478
vn -0.21471384167671204 0.96450901031494144 0.15368914604187012
vn -0.19979721307754516 0.9759309887886048 -0.08740583062171936
vn -0.2123877853155136 0.970141053199768 -0.11712312698364258
vn -0.16823041439056396 0.88803017139434816 -0.4279029667377472
vn -0.18971385061740876 0.87263387441635136 -0.450020968914032
vn -0.74228417873382576 -0.20651121437549592 0.63746947050094608
vn -0.74176639318466192 -0.21100792288780212 0.63659894466400144
vn -0.961053729057312 -0.21543243527412416 0.17310290038585662
vn -0.97137975692749024 -0.16155548393726348 0.17412975430488586
vn -0.96197080612182624 -0.11871524155139924 -0.24600581824779512
vn -0.96319568157196048 -0.08894579112529755 -0.25365817546844484
vn -0.59046131372451784 -0.13262438774108886 -0.796094298362732
vn -0.60848242044448856 -0.36058640480041504 -0.70691341161727904
vn -0.37776970863342288 0.90586102008819584 -0.19158764183521272
vn -0.36853560805320736 0.90811228752136224 -0.19878010451793672
vn -0.3620237112045288 0.91166049242019648 0.19445821642875672
vn -0.3802606463432312 0.89889842271804816 0.21767711639404296
vn -0.28003284335136412 0.82507109642028816 0.49075388908386232
vn -0.27298566699028016 0.78483372926712032 -0.55634057521820072
vn -0.13013559579849244 0.87150889635086064 -0.47279682755470272
vn -0.13908480107784272 0.83792197704315184 -0.5277709364891052
vn -0.17368297278881072 0.97748708724975584 -0.119805246591568
vn -0.18161828815937044 0.96884286403656 -0.16839978098869324
vn -0.21119935810565948 0.965174913406372 0.15437687933444976
vn -0.19588728249073028 0.95659780502319328 0.2157515734434128
vn -0.19678939878940584 0.81067371368408208 0.55143636465072632
vn -0.21087922155857088 0.82774806022644048 0.51996457576751712
vn 0.18525339663028716 -0.1049284115433693 -0.97707277536392208
vn -0.14053447544574738 0.67883229255676272 -0.72071963548660272
vn -0.30657115578651428 0.85793280601501472 0.41226872801780704
vn -0.30688104033470152 0.85825031995773312 0.41137620806694032
vn -0.43449887633323672 0.80134189128875728 0.41117140650749208
vn -0.37655806541442872 0.8040538430213928 0.46011021733284
vn -0.3981196582317352 0.88004684448242192 0.25887891650199892
vn -0.36322295665740968 0.88833403587341312 0.280947744846344
vn -0.40966328978538512 0.9095264673233032 0.07026782631874084
vn -0.34610638022422792 0.93348115682601936 0.09393248707056046
vn -0.37699884176254272 0.926137924194336 0.01184824854135513
vn -0.40219399333000184 0.91552472114562992 0.00738400453701615
vn -0.36540672183036808 0.92831611633300784 -0.06860868632793427
vn -0.37416699528694152 0.92484009265899664 -0.06833634525537491
vn -0.31955316662788392 0.91926401853561408 -0.22986851632595064
vn -0.39217862486839296 0.89693325757980352 -0.20422203838825224
vn -0.29204007983207704 0.88636505603790288 -0.3592626452445984
vn -0.35525736212730408 0.87665784358978272 -0.3244430720806122
vn -0.29159000515937804 0.89560407400131232 -0.33595907688140868
vn -0.28267714381217956 0.89286035299301152 -0.35056260228157044
vn -0.68130886554718016 0.46407574415206912 -0.56608480215072632
vn -0.66591179370880128 0.48872607946395872 -0.56365621089935304
vn -0.7790374159812928 0.39319854974746704 0.48836007714271544
vn -0.78464633226394656 0.3788433074951172 0.4907217025756836
vn -0.21024261415004732 0.67872726917266848 -0.7036529183387756
vn -0.16365668177604676 0.43617114424705504 -0.884856641292572
vn -0.07186482101678848 -0.96639925241470336 -0.2467951327562332
vn -0.06492612510919571 -0.97069758176803584 -0.23136720061302184
vn 0.04081328585743904 -0.97472822666168208 -0.21963398158550264
vn 0.05134521424770355 -0.97759824991226192 -0.2041209787130356
vn 0.00958128180354833 -0.94603377580642704 0.32392659783363344
vn 0.00108186400029808 -0.95029866695404048 0.31133800745010376
vn -0.11313659697771072 -0.95169800519943232 0.28543126583099364
vn -0.12821337580680848 -0.96076929569244384 0.2459343820810318
vn -0.2574027180671692 -0.96353638172149664 -0.07308490574359894
vn -0.39526864886283872 -0.9061493277549744 0.15051920711994172
vn -0.3675274848937988 -0.89766359329223632 -0.2431533932685852
vn -0.35901403427124024 -0.89776104688644416 -0.25521388649940492
vn -0.01551157888025045 -0.83950912952423088 -0.54312419891357424
vn -0.02198749780654907 -0.83200973272323616 -0.5543251633644104
vn 0.15157309174537658 -0.82813489437103264 -0.53964644670486448
vn 0.11351542919874192 -0.802815854549408 -0.58532118797302248
vn -0.79262489080429072 0.15699200332164764 -0.58915132284164432
vn -0.7881479263305664 0.1666751503944397 -0.59248816967010496
vn -0.14413866400718688 0.03527227416634559 0.98892867565155024
vn -0.17883679270744324 0.07088392227888107 0.98132199048995968
vn -0.09165878593921662 -0.55401384830474856 0.82744622230529792
vn -0.09555602073669434 -0.55752265453338624 0.82464385032653808
vn -0.36778736114501952 -0.43824666738510128 0.82016605138778688
vn -0.4228516519069672 -0.54554373025894168 0.72358721494674688
vn -0.44797432422637936 -0.15252135694026948 0.88094055652618416
vn -0.42305937409400936 -0.09177859872579574 0.90144181251525872
vn -0.262982040643692 -0.00838415883481502 0.9647642970085144
vn -0.29429394006729124 0.04151042550802231 0.95481306314468384
vn -0.21042384207248688 -0.53795987367630008 0.81628489494323728
vn -0.21773771941661836 -0.5501816272735596 0.80615788698196416
vn -0.78954637050628656 -0.5922871232032776 -0.16066248714923858
vn -0.80715709924697872 -0.57627588510513304 -0.12807613611221314
vn -0.99559497833251952 0.08048835396766663 -0.04808594286441803
vn -0.99562788009643552 0.07944001257419586 -0.04913582652807236
vn -0.84848082065582272 -0.04522530734539032 0.52729022502899168
vn -0.8397663831710816 -0.07322385162115097 0.53798758983612064
vn -0.81129646301269536 -0.43232974410057064 0.3935594856739044
vn -0.81050109863281248 -0.56125849485397336 0.16756139695644378
vn -0.24834984540939332 0.31011947989463808 -0.91768628358840944
vn -0.26595547795295716 0.27121207118034364 -0.9250468611717224
vn -0.054610475897789 0.26261898875236512 -0.96335291862487792
vn -0.04019970074295997 0.29105177521705628 -0.95586234331130976
vn 0.01134362164884805 -0.4121569097042084 -0.91104227304458624
vn 0.02047299221158027 -0.42943313717842104 -0.90286654233932496
vn 0.16692730784416198 -0.44288831949234008 -0.8809002041816712
vn 0.17912915349006652 -0.45637783408164976 -0.87156873941421504
vn -0.13799621164798736 0.70327091217041016 0.6974002122879028
vn -0.15675802528858184 0.68701982498168944 0.70952862501144408
vn -0.24307891726493836 0.88094890117645264 -0.40600696206092832
vn -0.179570272564888 0.92069041728973392 -0.34653091430664064
vn -0.0755164623260498 0.73559522628784176 -0.67319899797439576
vn -0.06369360536336899 0.72768473625183104 -0.68294811248779296
vn 0.07721699774265289 0.18997073173522948 -0.97874850034713744
vn 0.1169639229774475 0.14095783233642578 -0.98308205604553216
vn -0.16677731275558472 0.69515329599380496 -0.69924765825271608
vn -0.15318596363067626 0.70060086250305176 -0.69691646099090576
vn -0.08907489478588104 0.91300779581069952 -0.39809852838516232
vn 0.02827944234013557 0.98020684719085696 -0.19594596326351164
vn -0.07285131514072418 0.96909785270690912 0.2356736660003662
vn -0.1124361976981163 0.95638173818588256 0.26961463689804076
vn -0.24130457639694212 0.96965569257736208 0.0392431877553463
vn -0.18359611928462984 0.97834843397140496 0.09553410857915878
vn -0.19368579983711244 0.9229154586791992 0.332735538482666
vn -0.2360640913248062 0.90053164958953856 0.36512523889541624
vn -0.68462044000625608 -0.48614835739135744 -0.54309719800949096
vn -0.81248152256011968 -0.37664926052093504 -0.4449820816516876
vn -0.31556159257888792 -0.86336904764175408 -0.39371919631958008
vn -0.22649018466472624 -0.82879430055618288 -0.51166611909866336
vn -0.200824573636055 -0.39005649089813232 -0.89862412214279168
vn -0.28687968850135804 -0.22697027027606964 -0.93069040775299072
vn -0.26705697178840636 0.35123080015182496 0.89739477634429936
vn -0.28707095980644228 0.5845288634300232 0.75889146327972416
vn -0.79422092437744144 0.3116024136543274 0.52164834737777712
vn -0.78060895204544064 0.38730633258819584 0.49055430293083192
vn -0.8593477606773376 0.5109039545059204 -0.02232651971280574
vn -0.84968930482864384 0.5264738202095032 -0.02921390905976295
vn -0.86676430702209472 0.49772793054580688 -0.03141063824295997
vn -0.88205426931381232 0.47031676769256592 -0.02797246910631656
vn -0.58518445491790768 0.65063107013702392 -0.48398178815841672
vn -0.52298086881637576 0.70590388774871824 -0.47769322991371152
vn -0.41017982363700864 0.86737072467803952 0.28181666135787964
vn -0.38002499938011168 0.88206589221954352 0.27846142649650572
vn -0.44189679622650144 0.89693641662597664 0.01524281036108732
vn -0.42569848895072936 0.90484166145324704 0.00649880897253751
vn -0.3385736048221588 0.9036245942115784 -0.2623557448387146
vn -0.40154230594635008 0.89248472452163696 -0.20551100373268128
vn 0.13649341464042664 0.32365933060646056 0.93627673387527472
vn -0.14114639163017272 0.98113083839416496 -0.13213667273521424
vn -0.32203316688537596 0.86540812253952032 0.38387954235076904
vn -0.35591435432434084 0.86739718914031984 0.34777456521987916
vn 0.28703954815864564 0.43120518326759336 -0.85537731647491456
vn -0.2846693992614746 0.88993024826049808 -0.35635292530059816
vn -0.27350392937660216 0.8896117806434632 -0.36576834321022032
vn -0.2348540872335434 0.73009920120239264 -0.64171540737152096
vn 0.2544270157814026 -0.9197049736976624 0.2990146279335022
vn 0.23142860829830168 -0.9281896352767944 0.29138451814651488
vn 0.22702157497406004 -0.95933789014816288 -0.16772601008415222
vn 0.24407650530338288 -0.95670402050018304 -0.15856893360614776
vn 0.26545438170433044 -0.78715741634368896 -0.55670207738876344
vn 0.28224384784698488 -0.78708899021148688 -0.54847919940948488
vn 0.16892032325267792 -0.46845921874046328 -0.86718624830245968
vn 0.26386874914169312 -0.51270127296447752 -0.81701326370239264
vn 0.06222935393452644 -0.64967292547225952 0.75766259431838992
vn -0.13841356337070466 -0.5551554560661316 0.82014882564544672
vn -0.40923568606376648 0.17544420063495636 0.89540243148803712
vn -0.59061473608016968 0.25872787833213808 0.764352023601532
vn 0.12664857506752014 0.71343296766281128 0.68918329477310184
vn 0.1752985268831253 0.72761684656143184 0.66320747137069704
vn -0.4015841782093048 0.67250490188598632 0.62166506052017208
vn -0.26803284883499144 0.66749829053878784 0.6946973204612732
vn 0.2516227960586548 0.96542215347290032 -0.06816171109676361
vn -0.12878072261810302 0.97651672363281248 -0.17271590232849122
vn -0.37802016735076904 0.88752704858779904 0.26343202590942384
vn -0.42280322313308712 0.86230337619781488 0.27869409322738648
vn 0.13088354468345642 0.95637583732604976 0.26117968559265136
vn 0.07358404994010925 0.96847033500671392 0.23801423609256744
vn -0.1390276849269867 0.43825128674507144 0.88803559541702272
vn -0.1718185693025589 0.46587955951690672 0.86800616979598992
vn -0.30795070528984068 0.4279272556304932 0.84973210096359248
vn -0.26540493965148924 0.35769063234329224 0.89533102512359616
vn -0.80259233713150032 0.2017725855112076 0.56136733293533328
vn -0.804947316646576 0.28175935149192812 0.52217948436737064
vn -0.377265989780426 0.06785258650779724 0.92361593246459968
vn -0.42882412672042848 0.18682129681110384 0.88385957479476928
vn -0.09016861021518708 0.5841325521469116 -0.80663418769836432
vn -0.1132398098707199 0.54610174894332888 -0.83002990484237664
vn -0.21186213195323944 0.7184197306632996 -0.66256141662597656
vn -0.23713020980358124 0.67674487829208376 -0.69698327779769896
vn -0.8971781134605408 0.4408898651599884 -0.02621845155954361
vn -0.90487384796142576 0.42535468935966488 -0.0166346188634634
vn -0.64152282476425168 0.59701865911483768 -0.4816817343235016
vn -0.5854318141937256 0.65029436349868776 -0.48413521051406864
vn 0.22590704262256624 -0.92345750331878656 0.31014859676361084
vn 0.21681270003318788 -0.92779946327209472 0.30361217260360716
vn 0.05504912137985229 -0.99811196327209472 -0.02724301442503929
vn 0.02103482000529766 -0.99972194433212288 0.0106637068092823
vn -0.07467456161975861 -0.99540460109710688 -0.05994562432169914
vn -0.0991777703166008 -0.99473774433135984 -0.02570119313895702
vn -0.20676979422569276 -0.9434176683425904 -0.25924763083457948
vn -0.20088230073451996 -0.9489938616752624 -0.2430162727832794
vn -0.04575703665614128 -0.91603666543960576 -0.39847588539123536
vn -0.0476788766682148 -0.91689831018447872 -0.39626282453536984
vn 0.07043115049600601 -0.96996760368347168 -0.23281390964984892
vn 0.0770086944103241 -0.97254610061645504 -0.21959896385669708
vn 0.08277542144060135 -0.91498380899429328 -0.39490854740142824
vn 0.06407972425222397 -0.92343628406524656 -0.37836393713951112
vn 0.1670575886964798 -0.9645296931266784 -0.20438760519027708
vn 0.20836015045642852 -0.96347129344940192 -0.16825315356254578
vn -0.02000703662633895 -0.82471728324890144 0.5651913285255432
vn -0.04162672907114029 -0.81218487024307248 0.58191317319869992
vn 0.00361651484854519 -0.95033043622970576 0.31122186779975892
vn -0.00943158566951751 -0.95977377891540528 0.28061574697494508
vn -0.1395900547504425 -0.844910740852356 0.51637238264083864
vn -0.1640838086605072 -0.8234748840332032 0.54310745000839232
vn -0.21535731852054596 -0.94499510526657104 0.2461818754673004
vn -0.2397596538066864 -0.95725727081298832 0.16178332269191742
vn -0.32798388600349428 -0.84689348936080928 0.41856664419174192
vn -0.35555768013000488 -0.81938970088958736 0.44964340329170224
vn -0.63593286275863648 -0.7675063610076904 0.08076728135347366
vn -0.65493327379226688 -0.75437331199646 0.04453412815928459
vn -0.36931386590003968 -0.91926056146621712 -0.13626177608966828
vn -0.3837639391422272 -0.91643536090850832 -0.11345231533050538
vn -0.57700031995773312 -0.79492241144180304 -0.18753415346145628
vn -0.59947717189788816 -0.76701694726943968 -0.228718563914299
vn -0.34770768880844116 -0.87420248985290528 -0.33892357349395752
vn -0.31774196028709412 -0.87079775333404544 -0.3751685619354248
vn -0.13338714838027954 -0.84737890958786016 -0.51396191120147704
vn -0.14794942736625672 -0.8270978927612304 -0.5422362685203552
vn 0.01170747634023428 -0.70232164859771728 -0.71176350116729736
vn 0.00312078953720629 -0.71166205406188968 -0.70251500606536864
vn 0.09472421556711196 -0.83083724975585936 -0.54839473962783816
vn 0.09633247554302216 -0.83249884843826288 -0.5455875396728516
vn 0.16505695879459382 -0.69889044761657712 -0.69592267274856568
vn 0.17417533695697784 -0.69130969047546384 -0.70125162601470944
vn 0.2020985037088394 -0.78955292701721184 -0.57944995164871216
vn 0.22743846476078032 -0.79653072357177728 -0.56018799543380736
vn -0.68325638771057128 -0.10900990664958954 0.7219955325126648
vn -0.69641238451004032 -0.12711599469184876 0.706294059753418
vn -0.6955528259277344 -0.44347223639488224 0.56527745723724368
vn -0.69656342267990112 -0.44563490152359008 0.5623246431350708
vn -0.95547378063201904 0.10954661667346954 -0.27398794889450072
vn -0.95625752210617072 0.11672424525022506 -0.26822939515113832
vn -0.77079927921295168 -0.55925494432449344 -0.3051268756389618
vn -0.75844734907150272 -0.56818735599517824 -0.31925034523010252
vn -0.55343419313430784 0.2186788022518158 -0.80367296934127808
vn -0.55063468217849728 0.2098069339990616 -0.80794954299926752
vn -0.7856677770614624 -0.16098669171333312 -0.59733521938323976
vn -0.7801920771598816 -0.14397165179252624 -0.60874664783477784
vn -0.08508437871932983 0.06241779401898384 0.99441671371459968
vn -0.02499838359653949 0.09893780946731568 0.99477952718734736
vn -0.03458723798394203 -0.5664323568344116 0.82338207960128784
vn -0.02455981448292732 -0.56101119518280032 0.82744383811950688
vn -0.21815145015716552 0.02836202643811702 0.9755027294158936
vn -0.20863518118858336 0.04186080396175384 0.97709721326828
vn -0.13489341735839844 -0.30188307166099548 0.94375336170196528
vn -0.14654681086540222 -0.29157054424285888 0.94525694847106928
vn -0.1109974980354309 -0.55523061752319336 0.82425636053085328
vn -0.11320149898529052 -0.55825358629226688 0.82191133499145504
vn -0.4476424157619476 -0.30021336674690248 0.84231120347976688
vn -0.43355077505111696 -0.32326713204383852 0.84114933013916016
vn -0.33191201090812684 -0.1003587543964386 0.93795657157897952
vn -0.30761197209358216 -0.00057240098249167 0.95151174068450928
vn -0.24577204883098604 -0.28322634100914 0.92702692747116096
vn -0.25965645909309388 -0.26523283123970032 0.92856341600418096
vn -0.28272101283073424 -0.53447216749191288 0.79649746417999264
vn -0.29817557334899904 -0.57349425554275512 0.76301747560501104
vn -0.97919607162475584 -0.186910480260849 -0.07899027317762375
vn -0.97909438610076912 -0.18768577277660368 -0.07841027528047562
vn -0.97269523143768304 0.03083137795329094 0.23002910614013672
vn -0.97666841745376592 0.01655313000082969 0.21411414444446564
vn -0.83863335847854608 -0.26014947891235352 0.47855660319328312
vn -0.83922982215881344 -0.2590990662574768 0.4780806303024292
vn -0.82152098417282112 -0.56139349937438968 0.09970267117023468
vn -0.80355316400527952 -0.59416878223419192 0.03557783737778663
vn -0.09568072855472564 0.30332639813423156 -0.94807088375091552
vn -0.09844004362821578 0.30989363789558412 -0.9456614255905152
vn -0.27421191334724428 -0.04243574291467666 -0.96073257923126224
vn -0.28984013199806212 -0.0743623822927475 -0.95418179035186768
vn -0.08798281848430634 -0.39713627099990848 -0.91353261470794672
vn -0.08746717125177383 -0.39827734231948856 -0.91308528184890752
vn 0.05275949835777283 0.19389455020427704 -0.9796026945114136
vn 0.01700587570667266 0.24471494555473328 -0.96944588422775264
vn -0.01548825576901435 -0.08237099647521973 -0.9964813590049744
vn -5.678108936990611E-05 -0.05319017171859741 -0.99858444929122928
vn 0.12823550403118134 -0.44130596518516544 -0.888146698474884
vn 0.12899841368198394 -0.4425522685050964 -0.88741588592529296
vn 0.14717638492584228 -0.15234120190143586 -0.97730815410614016
vn 0.15704771876335144 -0.14055772125720978 -0.97753751277923584
vn 0.25216495990753172 -0.45550951361656192 -0.85377043485641472
vn 0.28106287121772768 -0.47549411654472352 -0.83361202478408816
vn -0.3023075759410858 0.89961689710617072 -0.31511843204498292
vn -0.36584332585334776 0.89595872163772576 -0.25182685256004332
vn -0.2575247287750244 0.88006001710891728 -0.39896780252456664
vn -0.20776243507862092 0.89775067567825312 -0.3884307146072388
vn -0.01773302070796489 0.9805870056152344 -0.19528129696846008
vn -0.05348557606339455 0.98308980464935296 -0.17513935267925262
vn -0.01813051290810108 0.9713969230651856 0.23676827549934388
vn -0.02867927029728889 0.96955007314682 0.24320808053016664
vn 0.00068495707819238 0.71694439649581912 0.6971300840377808
vn -0.01845127344131469 0.70510107278823856 0.70886671543121336
vn -0.11306307464838028 0.87980318069458 0.46169587969779968
vn -0.14768590033054352 0.89310622215270992 0.42491209506988528
vn -0.21234399080276488 0.68379896879196168 0.69808954000473024
vn -0.23677356541156768 0.6585818529129028 0.7142886519432068
vn -0.27650836110115052 0.83405512571334832 0.47738373279571536
vn -0.24328336119651796 0.81725651025772096 0.52240312099456784
vn -0.25361248850822448 0.96028208732604976 -0.11635708063840866
vn -0.24951308965682984 0.96196389198303216 -0.1112140640616417
vn -0.08577726781368256 0.74207645654678352 -0.66480433940887448
vn -0.07746986299753189 0.7356849312782288 -0.67287898063659664
vn -0.1021999642252922 0.87583017349243168 -0.47167417407035824
vn -0.08316370099782944 0.88541048765182496 -0.45730966329574584
vn -0.11319567263126374 0.90901422500610352 -0.40109837055206296
vn -0.11419156193733216 0.90941387414932256 -0.39990830421447752
vn -0.16682080924510956 0.87411779165267952 -0.45616751909255984
vn -0.161142036318779 0.87664818763732912 -0.45334437489509584
vn -0.01492636185139417 0.45399832725524904 -0.89087754487991328
vn 0.02728878892958164 0.50099158287048336 -0.86502182483673088
vn 0.15676818788051606 0.13439761102199554 -0.97844827175140384
vn 0.21852177381515504 0.0650440901517868 -0.9736618995666504
vn -0.02677578665316105 0.71519869565963744 -0.69840812683105472
vn -0.05132274329662323 0.72737145423889168 -0.68432217836380008
vn -0.07841199636459351 0.9953439831733704 0.0560535192489624
vn -0.07476497441530228 0.99671506881713872 0.03113147616386413
vn -0.06338222324848175 0.9954484105110168 0.07116951793432236
vn -0.07813987880945206 0.99515300989151008 0.05970385670661926
vn -0.08870618045330048 0.95831453800201424 0.27159616351127624
vn -0.1552376002073288 0.92771184444427488 0.33948791027069092
vn -0.39897117018699648 0.91678714752197264 0.01798322610557079
vn -0.41788858175277712 0.90778481960296624 0.03599721565842628
vn -0.17380361258983612 0.97410672903060912 0.14459756016731262
vn -0.20354089140892028 0.97224420309066768 0.11537868529558182
vn -0.38140159845352176 0.867580771446228 0.31911817193031312
vn -0.35578730702400208 0.88277095556259152 0.30680739879608156
vn -0.51028090715408328 -0.76112276315689088 -0.40038174390792848
vn -0.52305024862289432 -0.73443621397018432 -0.4324601590633392
vn -0.22384490072727204 -0.7225594520568848 -0.65406519174575808
vn -0.2072289288043976 -0.70712107419967648 -0.67604428529739376
vn -0.5717220306396484 -0.314422607421875 -0.75780761241912848
vn -0.56696087121963504 -0.32190769910812376 -0.75824189186096192
vn -0.14524973928928376 0.68886917829513552 -0.71018433570861816
vn -0.28512966632843016 0.90582144260406496 -0.313350647687912
vn -0.41334787011146544 0.8008391857147216 0.43335917592048648
vn -0.40716502070426944 0.79888772964477536 0.44271335005760192
vn -0.38962754607200624 0.9057248830795288 0.16689181327819824
vn -0.37430760264396664 0.90331906080245968 0.20954364538192748
vn -0.68216025829315184 0.18090792000293732 0.7084698677062988
vn -0.6427235007286072 0.24451395869255064 0.7260298132896424
vn -0.62604308128356936 0.3439878523349762 0.69981604814529416
vn -0.63192552328109744 0.3324958086013794 0.70008331537246704
vn -0.2346564531326294 0.9198540449142456 0.3143325448036194
vn -0.21360278129577636 0.96458166837692256 0.15477724373340606
vn -0.8546141982078552 0.46368396282196048 0.23373427987098692
vn -0.85413461923599248 0.46436297893524168 0.23413898050785064
vn -0.865346908569336 0.44282728433609008 0.23468866944313048
vn -0.86558949947357184 0.44238999485969544 0.23461847007274628
vn -0.49376264214515688 0.76586061716079712 0.41189312934875488
vn -0.43633610010147096 0.81772994995117184 0.37540459632873536
vn -0.78334230184555056 0.55796903371810912 -0.27394396066665648
vn -0.74790388345718384 0.6201627254486084 -0.23672360181808472
vn -0.81396740674972528 0.51032865047454832 -0.27752774953842164
vn -0.81667786836624144 0.50547844171524048 -0.27844026684761048
vn -0.5360495448112488 0.84404528141021728 -0.01544064469635486
vn -0.53008538484573368 0.84778535366058352 -0.01641646586358547
vn -0.33945164084434508 0.71569162607192992 -0.61037540435791016
vn -0.3270075023174286 0.75980699062347408 -0.56192475557327272
vn -0.22122393548488616 0.96486943960189824 -0.14172857999801636
vn -0.20219232141971588 0.9789998531341552 -0.02602805569767952
vn -0.46841984987258912 0.4086827635765076 -0.78330153226852416
vn -0.458528995513916 0.4407484233379364 -0.77168124914169312
vn -0.33051106333732604 0.86275500059127808 -0.38264375925064088
vn -0.42234134674072264 0.8042629957199096 -0.41807740926742552
vn -0.4284310340881348 0.90017521381378176 0.07830366492271423
vn -0.3956162333488464 0.91206002235412592 0.1078621968626976
vn -0.55389922857284544 0.81381016969680784 0.1758083701133728
vn -0.5179898142814636 0.83357977867126464 0.19191458821296692
vn -0.41858375072479248 0.90536588430404656 -0.07141563296318054
vn -0.4382848143577576 0.89503556489944464 -0.08256952464580536
vn -0.55295109748840336 0.83319944143295296 -0.00486346846446394
vn -0.5465484261512756 0.83740955591201776 -0.00547154108062386
vn -0.28837332129478456 0.8814718127250672 -0.37396305799484256
vn -0.33026444911956788 0.86892241239547728 -0.36864531040191648
vn -0.490251749753952 0.85627526044845584 -0.16262201964855194
vn -0.52008140087127688 0.84224945306777952 -0.1418842226266861
vn -0.3720664978027344 0.91154909133911136 -0.17505674064159394
vn -0.37868002057075504 0.91202855110168464 -0.15749749541282654
vn -0.28539487719535828 0.49537336826324464 0.82046025991439824
vn -0.29818269610404968 0.38654783368110656 0.87273585796356208
vn -0.2909986972808838 0.91254389286041264 0.28737345337867736
vn -0.29090827703475952 0.9151570796966552 0.27903389930725096
vn -0.33883446455001832 0.85488694906234736 0.3928861618041992
vn -0.35059246420860292 0.85238039493560784 0.38798522949218752
vn -0.24758782982826232 0.8697549700737 -0.42688009142875672
vn -0.25578010082244872 0.87916529178619392 -0.40205088257789608
vn -0.27117127180099488 0.90341168642044064 -0.33213484287261964
vn -0.27606695890426636 0.90660613775253296 -0.31914299726486208
vn -0.2066127508878708 0.72522860765457152 -0.65677589178085328
vn -0.16357913613319396 0.64085704088211056 -0.75002950429916384
vn 0.2026754468679428 -0.86242175102233888 0.46384412050247192
vn 0.11496321111917496 -0.85148924589157104 0.51161462068557736
vn 0.22090731561183928 -0.97002589702606208 0.101240374147892
vn 0.27975299954414368 -0.9571881294250488 0.07435767352581024
vn 0.26692354679107668 -0.87791264057159424 -0.39751875400543216
vn 0.24557040631771088 -0.88737785816192624 -0.39019957184791568
vn 0.23709815740585328 -0.68941640853881832 -0.68446296453475952
vn 0.282050222158432 -0.66590267419815064 -0.69066721200942992
vn 0.21106456220149992 -0.20630288124084472 -0.95545321702957152
vn 0.30536553263664244 -0.20323486626148224 -0.93029427528381344
vn -0.02367404848337173 -0.28308597207069396 0.958802342414856
vn 0.00565632386133074 -0.29715529084205628 0.95481240749359136
vn 0.14401176571846008 0.89128530025482176 0.4299664497375488
vn 0.13241524994373322 0.89477288722991936 0.42643594741821288
vn -0.43543604016304016 0.79369825124740608 0.4247805178165436
vn -0.37585186958312992 0.80792814493179328 0.4538584053516388
vn 0.19721794128417968 0.49657300114631656 0.84529310464859008
vn 0.28895676136016844 0.45262137055397032 0.84358638525009152
vn -0.44658866524696352 0.65971475839614872 0.60442942380905152
vn -0.48546895384788512 0.64161938428878784 0.59383869171142576
vn -0.43334114551544192 0.47444584965705872 0.7662354111671448
vn -0.44980514049530032 0.47692224383354184 0.75512945652008064
vn -0.53440302610397336 0.83876913785934448 0.10430556535720826
vn -0.45930284261703488 0.8803438544273376 0.11847151815891266
vn -0.47615718841552736 0.83512645959854128 0.27538713812828064
vn -0.4890049695968628 0.82756716012954704 0.27569317817687988
vn 0.16562420129776 0.98399931192398064 0.06568092852830887
vn 0.16989222168922424 0.98316293954849248 0.06728585809469223
vn -0.40756249427795408 0.90840774774551392 0.093210868537426
vn -0.3864386677742004 0.48142710328102112 0.78669762611389168
vn -0.51570433378219608 0.75231778621673584 0.40995970368385312
vn -0.4997422695159912 0.76200318336486816 0.41183596849441528
vn -0.24719732999801636 0.8706288933753968 -0.4253219962120056
vn -0.2890367805957794 0.9049655199050904 0.31224220991134644
vn -0.5105164051055908 0.83284795284271248 -0.21386277675628664
vn -0.45586732029914856 0.84997403621673584 -0.26406294107437132
vn -0.55357825756073 0.83164352178573616 -0.04381915554404258
vn -0.5081176161766052 0.85923707485198976 -0.05939721316099167
vn -0.50768667459487912 0.86028802394866944 0.04646236449480057
vn -0.55363869667053224 0.83178967237472528 0.04012634605169296
vn -0.02437544800341129 0.96044206619262688 -0.27741080522537232
vn -0.24582995474338532 0.83235633373260496 -0.4967399537563324
vn -0.49741590023040768 0.83667081594467168 -0.22925834357738496
vn -0.4983550310134888 0.8361099362373352 -0.22926510870456696
vn -0.52784091234207152 0.8225524425506592 0.2116398811340332
vn -0.53538340330123904 0.81700605154037472 0.21416302025318144
vn -0.34683150053024292 0.75919318199157712 0.55075722932815552
vn -0.16374388337135314 0.91675668954849248 0.3643420338630676
vn -0.57292193174362184 0.76480102539062496 0.29468607902526856
vn -0.58115422725677488 0.7610194087028504 0.28828686475753784
vn -0.31442373991012572 0.9404471516609192 -0.12921656668186188
vn -0.33772414922714232 0.94121193885803216 -0.00790646951645612
vn -0.2997247278690338 0.94209474325180048 0.1504080444574356
vn -0.29671499133110048 0.93710529804229744 0.18383102118968964
vn -0.47698131203651432 -0.64637321233749392 -0.59555894136428832
vn -0.37676969170570376 0.91676092147827152 0.13264258205890656
vn -0.39964604377746584 0.91039907932281488 0.10703503340482712
vn -0.10638455301523208 0.99170750379562384 0.07210154831409454
vn -0.06158817559480667 0.99169260263442992 0.1129278540611267
vn 0.12326013296842576 0.36859792470932008 -0.9213808178901672
vn 0.02891845256090164 0.44893532991409304 -0.89309626817703248
vn -0.10724703222513198 0.875596821308136 -0.47098645567893984
vn -0.10472594946622848 0.87696307897567744 -0.4690077006816864
vn -0.13293224573135376 0.98413509130477904 -0.11750371754169464
vn -0.21418291330337524 0.87166172266006464 0.44083052873611448
vn -0.15572677552700042 0.84183138608932496 0.51678740978240968
vn -0.02209957130253315 0.8994973301887512 0.43636691570281984
vn -0.02162793278694152 0.8993520736694336 0.43668991327285768
vn -0.04412178695201874 0.99629062414169312 0.0738801434636116
vn -0.0156234111636877 0.9981884956359864 0.05810123309493065
vn -0.0951850488781929 0.903717577457428 -0.41741383075714112
vn -0.0134827122092247 0.8863794803619384 -0.46276304125785824
vn -0.29045656323432924 0.8741940259933472 -0.38912704586982728
vn -0.25817492604255676 0.8690322637557984 -0.42205286026000976
vn -0.38052746653556824 0.80399334430694576 0.45693945884704592
vn -0.37753897905349728 0.80255883932113648 0.4619130492210388
vn 0.23215568065643312 -0.1626048982143402 -0.95899075269699104
vn 0.25840657949447632 -0.1893324851989746 -0.94730097055435184
vn 0.09067073464393616 -0.10390109568834304 -0.99044603109359744
vn 0.11194650083780288 -0.136822909116745 -0.98424971103668208
vn -0.0903502181172371 -0.03661815077066421 -0.99523663520812992
vn -0.09000850468873978 -0.0373859591782093 -0.99523895978927616
vn -0.95425963401794432 -0.2304575741291046 0.19046753644943236
vn -0.95396304130554192 -0.22545869648456572 0.19779488444328308
vn -0.30052658915519716 -0.27193364500999452 0.91418588161468512
vn -0.31945136189460756 -0.32007008790969848 0.8919114470481872
vn -0.17610016465187072 -0.29476740956306456 0.93920224905014032
vn -0.1669631004333496 -0.2844524085521698 0.94403928518295296
vn -0.05115341395139694 -0.28952962160110472 0.95580118894577024
vn -0.07955119013786316 -0.30220997333526612 0.9499161839485168
vn -0.58452850580215456 -0.13184553384780884 -0.8005893230438232
vn -0.57828813791275024 -0.11906745284795762 -0.80709713697433472
vn -0.93713152408599856 -0.156154066324234 -0.31209030747413636
vn -0.93811559677124016 -0.1769089251756668 -0.29772886633872984
vn -0.69546973705291752 -0.28927919268608092 0.65775322914123536
vn -0.70105159282684328 -0.278951495885849 0.65628701448440552
vn 0.2559020221233368 -0.68754917383193968 -0.67955148220062256
vn 0.22849410772323608 -0.67790716886520384 -0.6987361907958984
vn 0.12027619779109954 -0.70418947935104368 -0.69975048303604128
vn 0.11317814886569976 -0.69471424818038944 -0.71032577753067016
vn -0.0982431247830391 -0.72327649593353264 -0.68353450298309328
vn -0.11159567534923554 -0.70020484924316408 -0.7051663398742676
vn -0.56341212987899784 -0.7507807612419128 -0.34481152892112732
vn -0.53708446025848392 -0.78921586275100704 -0.2977895438671112
vn -0.636450469493866 -0.765903890132904 -0.09122539311647416
vn -0.6070449352264404 -0.79348516464233392 -0.043332040309906
vn -0.628412127494812 -0.71701282262802128 0.30164676904678344
vn -0.24033473432064056 -0.82377827167510992 0.51344776153564456
vn -0.25354310870170592 -0.84591150283813472 0.46920108795166016
vn -0.03424100577831268 -0.82376688718795776 0.5658937096595764
vn -0.0492389053106308 -0.84071278572082512 0.53923797607421872
vn 0.19683425128459932 -0.8994818329811096 -0.39011362195014952
vn 0.19304616749286652 -0.89895743131637568 -0.3932030498981476
vn 0.07678621262311935 -0.91371703147888176 -0.39903020858764648
vn 0.0894850492477417 -0.9218246936798096 -0.3771362006664276
vn -0.18258446455001832 -0.90183550119400032 -0.391606479883194
vn -0.17443615198135376 -0.91059690713882448 -0.37468010187149048
vn -0.23332068324089052 -0.97065734863281248 -0.05818787962198257
vn -0.19131697714328764 -0.97387838363647456 -0.12230581790208816
vn 0.04815248772501945 -0.99847537279129024 -0.02698558196425438
vn 0.04796747118234634 -0.99847251176834112 -0.02741996757686138
vn 0.2674691081047058 -0.96068429946899408 0.07447099685668945
vn 0.1859136074781418 -0.98255228996276848 0.00520978029817342
vn 0.0588444210588932 -0.8524926900863648 0.51941651105880736
vn 0.14986838400363922 -0.80750739574432368 0.57050102949142456
vn -0.85115230083465584 0.47652232646942136 -0.220150426030159
vn -0.8028875589370728 0.5422935485839844 -0.24756674468517304
vn -0.384850949048996 0.68392264842987064 -0.61978983879089352
vn -0.36904585361480712 0.697813093662262 -0.61389094591140744
vn -0.1713477075099945 0.67789089679718016 -0.71491533517837528
vn -0.12010865658521652 0.58954375982284544 -0.7987565398216248
vn -0.02606880664825439 0.50956189632415768 -0.86003905534744256
vn -0.04709074273705482 0.53300130367279056 -0.84480291604995728
vn -0.68300443887710568 0.08837352693080902 0.72504824399948128
vn -0.64066845178604128 0.13960206508636474 0.75501996278762816
vn -0.23431746661663056 0.42443788051605224 0.87461298704147344
vn -0.22550317645072936 0.4358287453651428 0.87132173776626592
vn -0.33657175302505492 0.18598009645938872 0.9231094121932984
vn -0.29486671090126036 0.3603099286556244 0.88500303030014032
vn -0.39556324481964112 0.91256791353225712 -0.10367972403764724
vn -0.4123603403568268 0.90700858831405632 -0.0854066014289856
vn -0.8998616337776184 0.36957901716232296 0.2316468358039856
vn -0.89601898193359376 0.37520763278007504 0.2374219447374344
vn 0.00469630490988492 0.5000649690628052 0.86597514152526848
vn -0.04855406656861305 0.46717554330825808 0.88283038139343264
vn -0.06898770481348038 0.99718606472015376 0.02933584526181221
vn -0.62475168704986576 0.77498078346252448 -0.09534132480621338
vn -0.25440505146980284 0.96655309200286864 -0.03245097771286964
vn 0.36105898022651672 0.03366329148411751 0.9319351315498352
vn 0.183908149600029 0.13867732882499694 0.9731116890907288
vn -0.20433136820793152 0.62085723876953128 0.75682562589645392
vn -0.27180907130241396 0.9048354625701904 0.32770836353302
vn 0.29330077767372132 0.04526641219854355 -0.95494800806045536
vn 0.17256294190883636 0.02453909069299698 -0.9846928119659424
vn 0.12678730487823486 0.36845311522483824 -0.92096000909805296
vn 0.054807398468256 0.3449392020702362 -0.9370235204696656
vn -0.05578374117612839 0.71410721540451048 -0.69781023263931272
vn -0.07603552937507629 0.7077491283416748 -0.70236015319824216
vn -0.13505399227142334 0.89937448501586912 -0.415795624256134
vn -0.09971601516008378 0.90767312049865728 -0.40765932202339176
vn -0.288078635931015 0.65775322914123536 0.69596791267395016
vn -0.3023236393928528 0.67745852470397952 0.67055976390838624
vn -0.38317161798477176 0.1614546924829483 0.90945696830749504
vn -0.33164402842521668 0.39684030413627624 0.8558796644210816
vn -0.15565072000026702 0.74627262353897088 -0.64718621969223024
vn -0.15006105601787568 0.74944531917572016 -0.64483588933944704
vn -0.23035624623298644 0.76886385679244992 -0.59647667407989504
vn -0.28135475516319276 0.87236595153808592 -0.3997714817523956
# 632 vertex normals

g obj_1974710
s 1
f 1//1 2//1 3//1
f 1//2 3//2 4//2
f 5//3 6//3 7//3
f 5//4 7//4 8//4
f 9//5 10//5 11//5
f 9//6 11//6 12//6
f 13//7 14//7 15//7
f 13//8 15//8 16//8
f 17//9 18//9 19//9
f 17//10 19//10 20//10
f 21//11 22//11 23//11
f 21//12 23//12 24//12
f 25//13 26//13 27//13
f 25//14 27//14 28//14
f 29//15 30//15 31//15
f 29//16 31//16 32//16
f 33//17 34//17 35//17
f 33//18 35//18 36//18
f 37//19 38//19 39//19
f 37//20 39//20 40//20
f 41//21 42//21 43//21
f 41//22 43//22 44//22
f 45//23 46//23 47//23
f 45//24 47//24 48//24
f 49//25 50//25 51//25
f 49//26 51//26 52//26
f 45//27 48//27 6//27
f 45//28 6//28 5//28
f 49//29 52//29 14//29
f 49//30 14//30 13//30
f 1//31 4//31 9//31
f 1//32 9//32 12//32
f 38//33 37//33 10//33
f 38//34 10//34 9//34
f 5//35 8//35 29//35
f 5//36 29//36 32//36
f 13//37 16//37 7//37
f 13//38 7//38 6//38
f 8//39 7//39 26//39
f 8//40 26//40 25//40
f 18//41 17//41 11//41
f 18//42 11//42 10//42
f 12//43 11//43 15//43
f 12//44 15//44 14//44
f 16//45 15//45 22//45
f 16//46 22//46 21//46
f 37//47 40//47 19//47
f 37//48 19//48 18//48
f 17//49 20//49 23//49
f 17//50 23//50 22//50
f 53//51 54//51 20//51
f 53//52 20//52 19//52
f 21//53 24//53 27//53
f 21//54 27//54 26//54
f 55//55 56//55 24//55
f 55//56 24//56 23//56
f 25//57 28//57 30//57
f 25//58 30//58 29//58
f 57//59 58//59 28//59
f 57//60 28//60 27//60
f 59//61 60//61 31//61
f 59//62 31//62 30//62
f 32//63 31//63 41//63
f 32//64 41//64 44//64
f 34//65 33//65 39//65
f 34//66 39//66 38//66
f 40//67 39//67 61//67
f 40//68 61//68 62//68
f 42//69 41//69 31//69
f 42//70 31//70 60//70
f 44//71 43//71 46//71
f 44//72 46//72 45//72
f 48//73 47//73 50//73
f 48//74 50//74 49//74
f 52//75 51//75 2//75
f 52//76 2//76 1//76
f 4//77 3//77 35//77
f 4//78 35//78 34//78
f 58//79 59//79 30//79
f 58//80 30//80 28//80
f 56//81 57//81 27//81
f 56//82 27//82 24//82
f 54//83 55//83 23//83
f 54//84 23//84 20//84
f 62//85 53//85 19//85
f 62//86 19//86 40//86
f 15//87 11//87 17//87
f 15//88 17//88 22//88
f 21//89 26//89 7//89
f 21//90 7//90 16//90
f 8//91 25//91 29//91
f 10//92 37//92 18//92
f 9//93 4//93 34//93
f 9//94 34//94 38//94
f 14//95 52//95 1//95
f 14//96 1//96 12//96
f 6//97 48//97 49//97
f 6//98 49//98 13//98
f 32//99 44//99 45//99
f 32//100 45//100 5//100
f 61//101 39//101 33//101
f 61//102 33//102 36//102
f 63//103 43//103 42//103
f 63//104 42//104 64//104
f 65//105 46//105 43//105
f 65//106 43//106 63//106
f 66//107 47//107 46//107
f 66//108 46//108 65//108
f 67//109 50//109 47//109
f 67//110 47//110 66//110
f 68//111 51//111 50//111
f 68//112 50//112 67//112
f 69//113 2//113 51//113
f 69//114 51//114 68//114
f 70//115 3//115 2//115
f 70//116 2//116 69//116
f 71//117 35//117 3//117
f 71//118 3//118 70//118
f 72//119 36//119 35//119
f 72//120 35//120 71//120
f 54//121 53//121 73//121
f 54//122 73//122 74//122
f 58//123 57//123 75//123
f 58//124 75//124 76//124
f 61//125 77//125 78//125
f 61//126 78//126 62//126
f 79//127 80//127 81//127
f 79//128 81//128 82//128
f 83//129 84//129 85//129
f 83//130 85//130 86//130
f 87//131 88//131 89//131
f 87//132 89//132 90//132
f 91//133 92//133 93//133
f 91//134 93//134 94//134
f 95//135 96//135 97//135
f 95//136 97//136 98//136
f 99//137 100//137 101//137
f 99//138 101//138 102//138
f 103//139 104//139 105//139
f 103//140 105//140 106//140
f 107//141 108//141 109//141
f 107//142 109//142 110//142
f 111//143 112//143 113//143
f 111//144 113//144 114//144
f 115//145 116//145 117//145
f 115//146 117//146 118//146
f 119//147 120//147 121//147
f 119//148 121//148 122//148
f 123//149 124//149 125//149
f 123//150 125//150 126//150
f 127//151 128//151 129//151
f 127//152 129//152 130//152
f 131//153 132//153 133//153
f 131//154 133//154 134//154
f 135//155 136//155 137//155
f 135//156 137//156 138//156
f 139//157 140//157 141//157
f 139//158 141//158 142//158
f 143//159 144//159 145//159
f 143//160 145//160 146//160
f 147//161 148//161 149//161
f 147//162 149//162 150//162
f 151//163 152//163 153//163
f 151//164 153//164 154//164
f 155//165 156//165 157//165
f 155//166 157//166 158//166
f 159//167 160//167 161//167
f 159//168 161//168 162//168
f 163//169 164//169 165//169
f 163//170 165//170 166//170
f 167//171 168//171 169//171
f 167//172 169//172 170//172
f 171//173 172//173 173//173
f 171//174 173//174 174//174
f 175//175 176//175 177//175
f 175//176 177//176 178//176
f 179//177 180//177 181//177
f 179//178 181//178 182//178
f 183//179 184//179 185//179
f 183//180 185//180 186//180
f 187//181 188//181 189//181
f 187//182 189//182 190//182
f 191//183 192//183 193//183
f 191//184 193//184 194//184
f 195//185 196//185 197//185
f 195//186 197//186 198//186
f 199//187 200//187 201//187
f 199//188 201//188 202//188
f 203//189 204//189 205//189
f 203//190 205//190 206//190
f 207//191 208//191 209//191
f 207//192 209//192 210//192
f 211//193 212//193 213//193
f 211//194 213//194 214//194
f 215//195 216//195 217//195
f 215//196 217//196 218//196
f 60//197 59//197 219//197
f 60//198 219//198 220//198
f 221//199 222//199 223//199
f 221//200 223//200 224//200
f 225//201 226//201 227//201
f 225//202 227//202 228//202
f 56//203 55//203 229//203
f 56//204 229//204 230//204
f 231//205 232//205 233//205
f 231//206 233//206 234//206
f 235//207 236//207 237//207
f 235//208 237//208 238//208
f 239//209 240//209 241//209
f 239//210 241//210 242//210
f 243//211 244//211 245//211
f 243//212 245//212 246//212
f 247//213 248//213 249//213
f 250//214 251//214 252//214
f 253//215 254//215 255//215
f 253//216 255//216 256//216
f 257//217 258//217 259//217
f 260//218 261//218 262//218
f 260//219 262//219 263//219
f 264//220 265//220 266//220
f 267//221 268//221 269//221
f 267//222 269//222 270//222
f 271//223 272//223 273//223
f 271//224 273//224 274//224
f 275//225 276//225 277//225
f 275//226 277//226 278//226
f 279//227 280//227 281//227
f 279//228 281//228 282//228
f 283//229 284//229 285//229
f 283//230 285//230 286//230
f 287//231 288//231 289//231
f 287//232 289//232 290//232
f 291//233 292//233 293//233
f 291//234 293//234 294//234
f 295//235 296//235 297//235
f 295//236 297//236 298//236
f 299//237 300//237 301//237
f 299//238 301//238 302//238
f 303//239 304//239 305//239
f 303//240 305//240 306//240
f 307//241 308//241 309//241
f 307//242 309//242 310//242
f 171//243 174//243 116//243
f 171//244 116//244 115//244
f 132//245 131//245 311//245
f 132//246 311//246 247//246
f 148//247 147//247 222//247
f 148//248 222//248 221//248
f 312//249 313//249 127//249
f 312//250 127//250 130//250
f 160//251 159//251 258//251
f 160//252 258//252 314//252
f 156//253 155//253 264//253
f 156//254 264//254 266//254
f 226//255 225//255 143//255
f 226//256 143//256 146//256
f 112//257 111//257 232//257
f 112//258 232//258 231//258
f 88//259 87//259 268//259
f 88//260 268//260 267//260
f 87//261 90//261 83//261
f 87//262 83//262 86//262
f 91//263 94//263 79//263
f 91//264 79//264 82//264
f 99//265 102//265 80//265
f 99//266 80//266 79//266
f 103//267 106//267 81//267
f 103//268 81//268 80//268
f 82//269 81//269 84//269
f 82//270 84//270 83//270
f 107//271 110//271 85//271
f 107//272 85//272 84//272
f 86//273 85//273 272//273
f 86//274 272//274 271//274
f 119//275 122//275 89//275
f 119//276 89//276 88//276
f 90//277 89//277 92//277
f 90//278 92//278 91//278
f 135//279 138//279 93//279
f 135//280 93//280 92//280
f 94//281 93//281 95//281
f 94//282 95//282 98//282
f 125//283 124//283 96//283
f 125//284 96//284 95//284
f 151//285 154//285 97//285
f 151//286 97//286 96//286
f 98//287 97//287 100//287
f 98//288 100//288 99//288
f 141//289 140//289 101//289
f 141//290 101//290 100//290
f 102//291 101//291 212//291
f 102//292 212//292 211//292
f 211//293 214//293 104//293
f 211//294 104//294 103//294
f 163//295 166//295 105//295
f 163//296 105//296 104//296
f 106//297 105//297 108//297
f 106//298 108//298 107//298
f 167//299 170//299 109//299
f 167//300 109//300 108//300
f 110//301 109//301 276//301
f 110//302 276//302 275//302
f 147//303 150//303 128//303
f 147//304 128//304 127//304
f 124//305 123//305 152//305
f 124//306 152//306 151//306
f 111//307 114//307 144//307
f 111//308 144//308 143//308
f 140//309 139//309 208//309
f 140//310 208//310 207//310
f 155//311 158//311 113//311
f 155//312 113//312 112//312
f 114//313 113//313 209//313
f 114//314 209//314 208//314
f 115//315 118//315 315//315
f 115//316 315//316 316//316
f 283//317 286//317 120//317
f 283//318 120//318 119//318
f 131//319 134//319 117//319
f 131//320 117//320 116//320
f 118//321 117//321 121//321
f 118//322 121//322 120//322
f 122//323 121//323 136//323
f 122//324 136//324 135//324
f 123//325 126//325 129//325
f 123//326 129//326 128//326
f 130//327 129//327 133//327
f 130//328 133//328 132//328
f 134//329 133//329 137//329
f 134//330 137//330 136//330
f 138//331 137//331 126//331
f 138//332 126//332 125//332
f 139//333 142//333 145//333
f 139//334 145//334 144//334
f 146//335 145//335 149//335
f 146//336 149//336 148//336
f 150//337 149//337 153//337
f 150//338 153//338 152//338
f 154//339 153//339 142//339
f 154//340 142//340 141//340
f 159//341 162//341 157//341
f 159//342 157//342 156//342
f 158//343 157//343 215//343
f 158//344 215//344 218//344
f 216//345 215//345 164//345
f 216//346 164//346 163//346
f 184//347 183//347 161//347
f 184//348 161//348 160//348
f 162//349 161//349 165//349
f 162//350 165//350 164//350
f 166//351 165//351 168//351
f 166//352 168//352 167//352
f 183//353 186//353 169//353
f 183//354 169//354 168//354
f 170//355 169//355 280//355
f 170//356 280//356 279//356
f 175//357 178//357 244//357
f 175//358 244//358 243//358
f 188//359 187//359 301//359
f 188//360 301//360 317//360
f 191//361 194//361 299//361
f 191//362 299//362 302//362
f 196//363 195//363 307//363
f 196//364 307//364 310//364
f 292//365 291//365 172//365
f 292//366 172//366 171//366
f 195//367 198//367 173//367
f 195//368 173//368 172//368
f 174//369 173//369 318//369
f 174//370 318//370 311//370
f 248//371 318//371 203//371
f 248//372 203//372 206//372
f 200//373 199//373 176//373
f 200//374 176//374 175//374
f 314//375 319//375 180//375
f 314//376 180//376 179//376
f 181//377 180//377 192//377
f 181//378 192//378 191//378
f 193//379 192//379 177//379
f 193//380 177//380 176//380
f 178//381 177//381 319//381
f 178//382 319//382 257//382
f 179//383 182//383 185//383
f 179//384 185//384 184//384
f 186//385 185//385 320//385
f 186//386 320//386 321//386
f 322//387 323//387 182//387
f 322//388 182//388 181//388
f 199//389 202//389 324//389
f 199//390 324//390 193//390
f 194//391 324//391 197//391
f 194//392 197//392 196//392
f 198//393 197//393 204//393
f 198//394 204//394 203//394
f 240//395 239//395 201//395
f 240//396 201//396 200//396
f 202//397 201//397 205//397
f 202//398 205//398 204//398
f 206//399 205//399 236//399
f 206//400 236//400 235//400
f 207//401 210//401 213//401
f 207//402 213//402 212//402
f 214//403 213//403 217//403
f 214//404 217//404 216//404
f 218//405 217//405 210//405
f 218//406 210//406 209//406
f 77//407 61//407 36//407
f 77//408 36//408 72//408
f 235//409 238//409 253//409
f 235//410 253//410 256//410
f 254//411 253//411 63//411
f 254//412 63//412 64//412
f 313//413 250//413 223//413
f 313//414 223//414 222//414
f 58//415 76//415 219//415
f 58//416 219//416 59//416
f 220//417 219//417 250//417
f 220//418 250//418 252//418
f 221//419 224//419 227//419
f 221//420 227//420 226//420
f 56//421 230//421 75//421
f 56//422 75//422 57//422
f 76//423 75//423 224//423
f 76//424 224//424 223//424
f 225//425 228//425 233//425
f 225//426 233//426 232//426
f 54//427 74//427 229//427
f 54//428 229//428 55//428
f 230//429 229//429 228//429
f 230//430 228//430 227//430
f 231//431 234//431 325//431
f 231//432 325//432 264//432
f 326//433 325//433 78//433
f 326//434 78//434 77//434
f 62//435 78//435 73//435
f 62//436 73//436 53//436
f 74//437 73//437 234//437
f 74//438 234//438 233//438
f 239//439 242//439 237//439
f 239//440 237//440 236//440
f 238//441 237//441 66//441
f 238//442 66//442 65//442
f 243//443 246//443 241//443
f 243//444 241//444 240//444
f 242//445 241//445 68//445
f 242//446 68//446 67//446
f 261//447 260//447 245//447
f 261//448 245//448 244//448
f 246//449 245//449 70//449
f 246//450 70//450 69//450
f 72//451 71//451 260//451
f 72//452 260//452 263//452
f 247//453 249//453 251//453
f 247//454 251//454 312//454
f 252//455 251//455 255//455
f 252//456 255//456 254//456
f 256//457 255//457 249//457
f 256//458 249//458 248//458
f 257//459 259//459 262//459
f 257//460 262//460 261//460
f 263//461 262//461 265//461
f 263//462 265//462 326//462
f 266//463 265//463 259//463
f 266//464 259//464 258//464
f 267//465 270//465 284//465
f 267//466 284//466 283//466
f 271//467 274//467 269//467
f 271//468 269//468 268//468
f 275//469 278//469 273//469
f 275//470 273//470 272//470
f 279//471 282//471 277//471
f 279//472 277//472 276//472
f 321//473 327//473 281//473
f 321//474 281//474 280//474
f 286//475 285//475 287//475
f 286//476 287//476 315//476
f 291//477 294//477 308//477
f 291//478 308//478 307//478
f 303//479 306//479 296//479
f 303//480 296//480 295//480
f 316//481 290//481 293//481
f 316//482 293//482 292//482
f 294//483 293//483 297//483
f 294//484 297//484 296//484
f 298//485 297//485 290//485
f 298//486 290//486 289//486
f 328//487 300//487 305//487
f 328//488 305//488 304//488
f 306//489 305//489 309//489
f 306//490 309//490 308//490
f 310//491 309//491 300//491
f 310//492 300//492 299//492
f 309//493 305//493 300//493
f 297//494 293//494 290//494
f 296//495 306//495 308//495
f 296//496 308//496 294//496
f 265//497 262//497 259//497
f 255//498 251//498 249//498
f 71//499 70//499 245//499
f 71//500 245//500 260//500
f 69//501 68//501 241//501
f 69//502 241//502 246//502
f 67//503 66//503 237//503
f 67//504 237//504 242//504
f 73//505 78//505 325//505
f 73//506 325//506 234//506
f 229//507 74//507 233//507
f 229//508 233//508 228//508
f 75//509 230//509 227//509
f 75//510 227//510 224//510
f 219//511 76//511 223//511
f 219//512 223//512 250//512
f 65//513 63//513 253//513
f 65//514 253//514 238//514
f 72//515 263//515 326//515
f 72//516 326//516 77//516
f 64//517 220//517 252//517
f 64//518 252//518 254//518
f 217//519 213//519 210//519
f 236//520 205//520 201//520
f 236//521 201//521 239//521
f 204//522 197//522 324//522
f 204//523 324//523 202//523
f 323//524 320//524 185//524
f 323//525 185//525 182//525
f 177//526 192//526 180//526
f 177//527 180//527 319//527
f 199//528 193//528 176//528
f 318//529 173//529 198//529
f 318//530 198//530 203//530
f 172//531 291//531 307//531
f 172//532 307//532 195//532
f 310//533 299//533 194//533
f 310//534 194//534 196//534
f 302//535 322//535 181//535
f 302//536 181//536 191//536
f 261//537 244//537 178//537
f 261//538 178//538 257//538
f 256//539 248//539 206//539
f 256//540 206//540 235//540
f 169//541 186//541 321//541
f 169//542 321//542 280//542
f 165//543 161//543 183//543
f 165//544 183//544 168//544
f 215//545 157//545 162//545
f 215//546 162//546 164//546
f 153//547 149//547 145//547
f 153//548 145//548 142//548
f 137//549 133//549 129//549
f 137//550 129//550 126//550
f 121//551 117//551 134//551
f 121//552 134//552 136//552
f 286//553 315//553 118//553
f 286//554 118//554 120//554
f 218//555 209//555 113//555
f 218//556 113//556 158//556
f 208//557 139//557 144//557
f 208//558 144//558 114//558
f 152//559 123//559 128//559
f 152//560 128//560 150//560
f 109//561 170//561 279//561
f 109//562 279//562 276//562
f 105//563 166//563 167//563
f 105//564 167//564 108//564
f 214//565 216//565 163//565
f 214//566 163//566 104//566
f 212//567 101//567 140//567
f 212//568 140//568 207//568
f 100//569 97//569 154//569
f 100//570 154//570 141//570
f 124//571 151//571 96//571
f 93//572 138//572 125//572
f 93//573 125//573 95//573
f 89//574 122//574 135//574
f 89//575 135//575 92//575
f 85//576 110//576 275//576
f 85//577 275//577 272//577
f 81//578 106//578 107//578
f 81//579 107//579 84//579
f 103//580 80//580 102//580
f 103//581 102//581 211//581
f 99//582 79//582 94//582
f 99//583 94//583 98//583
f 83//584 90//584 91//584
f 83//585 91//585 82//585
f 271//586 268//586 87//586
f 271//587 87//587 86//587
f 267//588 283//588 119//588
f 267//589 119//589 88//589
f 111//590 143//590 225//590
f 111//591 225//591 232//591
f 155//592 112//592 231//592
f 155//593 231//593 264//593
f 156//594 266//594 258//594
f 156//595 258//595 159//595
f 179//596 184//596 160//596
f 179//597 160//597 314//597
f 127//598 313//598 222//598
f 127//599 222//599 147//599
f 311//600 131//600 116//600
f 311//601 116//601 174//601
f 312//602 130//602 132//602
f 312//603 132//603 247//603
f 200//604 175//604 243//604
f 200//605 243//605 240//605
f 148//606 221//606 226//606
f 148//607 226//607 146//607
f 316//608 292//608 171//608
f 316//609 171//609 115//609
f 193//610 324//610 194//610
f 300//611 328//611 317//611
f 300//612 317//612 301//612
f 290//613 316//613 315//613
f 290//614 315//614 287//614
f 60//615 220//615 64//615
f 60//616 64//616 42//616
f 327//617 321//617 320//617
f 327//618 320//618 329//618
f 329//619 320//619 323//619
f 329//620 323//620 190//620
f 190//621 323//621 322//621
f 190//622 322//622 187//622
f 187//623 322//623 302//623
f 187//624 302//624 301//624
f 247//625 311//625 318//625
f 247//626 318//626 248//626
f 250//627 313//627 312//627
f 250//628 312//628 251//628
f 257//629 319//629 314//629
f 257//630 314//630 258//630
f 264//631 325//631 326//631
f 264//632 326//632 265//632
#632 polygons

