# Aspose.3D Wavefront OBJ Exporter
# Copyright 2004-2022 Aspose Pty Ltd.
# File created: 06/23/2022 13:47:12


#
# object obj_44386091
#

v 16.93386077880859376 10.20085144042968752 -1.61880493164062496
v 17.10501480102539062 10.24931335449218752 -1.61600494384765624
v 17.62071609497070312 9.19273376464843752 -3.89337921142578128
v 17.45488357543945312 9.141448974609375 -3.88637542724609376
v 18.1089630126953125 7.86354064941406256 -6.00351715087890625
v 17.939208984375 7.82685852050781248 -5.9780349731445312
v 18.60169219970703128 6.282562255859375 -7.9595947265625
v 18.42549896240234376 6.26939392089843752 -7.91730499267578128
v 19.04008102416992187 4.90997314453124992 -9.29520416259765624
v 16.76046752929687504 10.56277465820312496 0.28012847900390624
v 20.51406860351562496 10.25297546386718752 -3.99337768554687504
v 20.72920227050781248 10.346527099609375 -3.93540191650390624
v 21.36031341552734376 9.0885162353515625 -6.46656036376953128
v 21.13901901245117188 8.96469116210937504 -6.49456787109375
v 20.00284957885742187 11.069244384765625 -1.44400787353515624
v 20.23395156860351564 11.110687255859375 -1.3543701171875
v 19.43645095825195312 11.210693359375 0.81935882568359376
v 19.73337554931640624 11.153289794921875 1.0151519775390625
v 14.54808044433593752 4.70071411132812496 6.92792510986328128
v 10.52696228027343752 4.73460388183593744 6.34415435791015624
v 10.15860366821289062 2.1087646484375 7.40469360351562496
v 13.96318817138671872 2.0639495849609375 7.78033447265624992
v 12.97492599487304688 -3.47569274902343752 7.28395843505859376
v 13.42564392089843752 -0.85040283203124992 7.89517974853515632
v 9.90789413452148432 -0.77310180664062496 7.70330047607421872
v 9.6322593688964844 -3.45048522949218752 7.196563720703125
v 10.97487258911132816 -2.72834777832031248 -10.09635162353515624
v 15.44418334960937504 -2.9720458984375 -10.1733856201171875
v 14.62259292602539064 -5.14801025390625 -8.99575805664062496
v 10.31518936157226564 -4.80178833007812496 -8.98399353027343744
v 10.03647232055664062 -7.68449401855468752 -5.03318023681640625
v 10.0762481689453125 -6.48641967773437504 -7.0696563720703125
v 13.99764633178710944 -7.0671234130859375 -7.0102691650390625
v 13.97047424316406256 -8.45817565917968752 -4.92169952392578128
v 12.62477493286132816 -5.81442260742187504 5.9578781127929688
v 9.330291748046875 -5.92086791992187504 5.88139343261718752
v 9.30899810791015624 -7.56571960449218752 4.50741577148437504
v 12.76259613037109376 -7.58729553222656248 4.60517120361328128
v 10.20426177978515624 -8.40299987792968752 -2.8787841796875
v 14.41306304931640624 -9.1598968505859375 -2.76618194580078128
v 14.36600112915039064 -9.41143798828125 -0.64202880859375
v 10.13956069946289062 -8.76911926269531248 -0.76332092285156256
v 9.56895446777343752 -8.38394165039062496 3.0687103271484375
v 9.84487152099609376 -8.78593444824218752 1.31096649169921876
v 13.81108474731445312 -9.22991943359375 1.44963073730468752
v 13.27045440673828124 -8.6307373046875 3.1961669921875
v 19.27173995971679688 6.36744689941406248 6.61559295654296872
v 18.42465972900390624 8.209228515625 5.25757598876953124
v 18.14986419677734376 6.51029968261718752 6.30718231201171876
v 19.38406753540039064 8.53276062011718752 -6.39540863037109376
v 18.85324096679687504 9.94680786132812496 -4.08890533447265625
v 18.37283706665039064 10.97819519042968752 -1.66642761230468752
v 17.91567993164062496 11.43255615234375 -0.0484619140625
v 18.38375854492187504 11.024139404296875 2.07961273193359375
v 17.95377731323242192 11.297821044921875 1.25325775146484376
v 16.6741905212402344 10.43728637695312496 1.76280212402343744
v 17.49073791503906248 9.92913818359375008 3.0900115966796875
v 15.10019683837890624 6.98564147949218752 5.33516693115234376
v 11.51438522338867184 8.81202697753906256 2.47514343261718752
v 11.01520919799804687 7.10302734375 4.52253723144531248
v 14.80915069580078128 10.1171112060546875 0.41009521484375
v 15.10327911376953124 10.02606201171875 -1.70984649658203128
v 12.49284362792968752 9.8507080078125 -1.98799896240234368
v 12.02223968505859375 9.85939025878906256 0.19944763183593752
v 15.61953735351562496 8.99299621582031248 -3.89366149902343744
v 16.06044769287109375 7.81398010253906256 -5.89090728759765632
v 13.15448760986328124 7.56997680664062496 -5.96766662597656256
v 12.93010711669921872 8.79438781738281248 -4.08133697509765625
v 13.17129135131835938 6.18479919433593752 -7.64866638183593752
v 16.35653305053710936 6.49822998046875 -7.68788146972656248
v 16.28594589233398436 4.75450134277343744 -9.09940338134765624
v 13.03347396850585937 4.36288452148437504 -9.00640106201171875
v 16.36830139160156248 -0.41595458984375 -10.55435180664062496
v 12.05389404296875 -0.261322021484375 -10.40279388427734376
v 12.74187088012695312 2.10400390625 -10.0408935546875
v 17.25823974609375 1.4625244140625 -10.70056915283203128
v 21.19812393188476564 4.42311096191406248 -10.61709594726562496
v 22.97884368896484368 3.1104888916015625 -11.146240234375
v 21.97965621948242192 1.46308898925781248 -11.1610870361328125
v 20.116302490234375 3.41609191894531248 -10.53921508789062496
v 19.96559906005859376 6.73915100097656256 -8.54728698730468752
v 20.25608062744140624 5.56039428710937504 -9.78457641601562496
v 19.51628494262695312 11.29193115234375 -1.46333312988281248
v 19.11991500854492188 11.64376831054687504 0.27732086181640624
v 16.5506553649902344 -8.1366119384765625 3.30905914306640624
v 17.1775665283203125 -8.79096984863281248 1.61489105224609376
v 18.9703292846679688 -8.20719909667968752 1.65438842773437504
v 18.36835479736328128 -7.58673095703125 3.3006591796875
v 19.88016128540039056 -7.69822692871093752 3.61579132080078128
v 18.71794128417968752 -7.56517028808593752 3.33202362060546876
v 19.30647277832031248 -8.0948638916015625 1.70088958740234376
v 20.52527618408203128 -8.1192474365234375 1.93955230712890624
v 19.41936111450195312 -7.1234130859375 4.77997589111328128
v 19.17985916137695312 -5.98921203613281248 6.033782958984375
v 18.11932754516601562 -5.68893432617187504 5.73041534423828128
v 18.26359176635742188 -6.85757446289062496 4.4715576171875
v 16.01282882690429687 -7.235748291015625 4.60713195800781248
v 17.8812255859375 -6.81613159179687504 4.49227905273437504
v 17.72520065307617184 -5.57884216308593752 5.76906585693359376
v 15.78956985473632816 -5.72898864746093744 5.93181610107421872
v 19.1734161376953125 -4.28944396972656248 7.38284301757812496
v 19.1451263427734375 -2.25830078125 8.07697296142578125
v 18.6263465881347656 -2.1560516357421875 8.009185791015625
v 18.27507400512695312 -4.0390167236328125 7.11139678955078124
v 15.93635177612304688 -3.61126708984375 7.27667236328125
v 17.89299392700195312 -3.85972595214843744 7.12429046630859376
v 18.27227401733398436 -1.90870666503906256 8.015625
v 16.75150299072265632 -1.1669464111328125 8.0114288330078125
v 19.7364578247070312 4.02001953125 7.79489898681640624
v 19.70676422119140624 1.1641998291015625 8.20947265625
v 20.01209640502929687 1.064208984375 8.26633453369140624
v 21.78973388671875008 -8.494873046875 -2.348236083984375
v 21.37879943847656248 -8.38394165039062496 -0.239501953125
v 20.06980133056640625 -8.43409729003906248 -0.41541290283203128
v 20.48941802978515624 -8.56771850585937504 -2.440673828125
v 17.88682556152343744 -9.20750427246093752 -0.48543548583984376
v 18.15181732177734376 -9.22908020019531248 -2.57681274414062496
v 20.12694549560546876 -8.78564453125 -2.47653198242187504
v 19.72105026245117184 -8.66239929199218752 -0.43810272216796872
v 22.21047592163085936 -7.8427734375 -6.11585235595703124
v 21.76144409179687504 -8.47161865234375 -4.34101104736328124
v 20.53144073486328128 -8.5167236328125 -4.37518310546875
v 21.39280700683593752 -7.83941650390624992 -6.09539794921875
v 24.97469711303710944 -2.68519592285156248 -10.31456756591796876
v 24.4427490234375 -5.42420959472656248 -8.52207946777343752
v 23.74749374389648432 -5.81582641601562496 -8.48902130126953128
v 17.98262786865234368 -8.86492919921875008 -4.65614318847656248
v 18.81486511230468752 -7.80549621582031248 -6.74863433837890624
v 20.99363708496093744 -7.87471008300781248 -6.19288635253906248
v 20.14571380615234376 -8.59854125976562496 -4.45333099365234376
v 5.7856559753417968 -8.34529113769531248 1.25017547607421876
v 5.6820106506347656 -8.00775146484375 2.94462585449218752
v 3.49819564819335936 -7.66236877441406248 2.83677673339843744
v 3.51612472534179688 -7.94921875 1.21824645996093752
v 5.48340988159179688 -7.29150390625 4.29256439208984376
v 5.56687927246093752 -5.780517578125 5.64917755126953128
v 3.44553375244140624 -5.63821411132812496 5.39539337158203128
v 3.32424545288085936 -7.030975341796875 4.08554840087890625
v 5.87949371337890624 -3.5177001953125 7.01448822021484375
v 6.18370437622070312 -0.92381286621093744 7.47276306152343752
v 4.14359283447265624 -0.98234558105468752 7.16827392578125
v 3.81529235839843744 -3.49894714355468752 6.7534103393554688
v 1.54212188720703128 -4.223907470703125 7.19123840332031248
v 3.46738815307617184 -3.54067993164062496 6.76042175292968752
v 3.8096885681152344 -1.01904296875 7.17078399658203124
v 1.93008804321289056 -1.65406799316406248 7.60330200195312496
v 5.79545974731445312 -8.29682922363281248 -0.79666137695312496
v 3.37998580932617184 -7.89176940917968752 -0.771728515625
v 3.47046661376953128 -7.42425537109375 -2.81743621826171872
v 5.8738975524902344 -7.8570556640625 -2.88494110107421872
v 6.47755050659179688 2.0121307373046875 7.02371978759765625
v 6.6926841735839844 4.66036987304687504 5.83686065673828128
v 4.68030548095703128 4.214996337890625 5.90773010253906256
v 4.47917938232421872 1.94461059570312496 6.83100128173828128
v 2.29760360717773436 1.36869812011718752 7.02317047119140625
v 4.16124343872070312 1.90008544921875008 6.82344055175781248
v 4.37301254272460936 4.17156982421875 5.89540863037109376
v 2.55447769165039064 4.063995361328125 5.76823425292968752
v 6.01815414428710937 -7.0256500244140625 -5.01749420166015625
v 3.77719879150390624 -6.54412841796875 -4.9298171997070312
v 4.14191055297851562 -5.72030639648437504 -6.59765625
v 6.28426742553710936 -5.93600463867187504 -7.025115966796875
v 9.22020721435546876 8.25459289550781248 -4.64521789550781248
v 9.65186691284179688 7.1685791015625 -6.42426300048828128
v 7.75741958618164064 6.73634338378906256 -6.51809692382812496
v 7.23695755004882812 7.72880554199218752 -4.82225036621093744
v 4.67525863647460936 7.60360717773437504 -4.80628967285156256
v 6.94114685058593744 7.68902587890625 -4.8583908081054688
v 7.46021270751953128 6.703857421875 -6.553955078125
v 5.13493728637695312 6.59600830078125 -6.53546142578125
v 9.7885704040527344 5.91110229492187504 -7.96127319335937504
v 9.74794769287109376 4.19511413574218752 -9.15402984619140624
v 7.95574188232421872 3.98640441894531248 -8.99407958984375008
v 7.9400596618652344 5.58786010742187504 -7.93887329101562496
v 5.32541656494140624 5.37608337402343752 -8.0290679931640625
v 7.63864517211914064 5.56124877929687504 -7.95652008056640624
v 7.6473350524902344 3.96624755859375008 -9.00079345703125
v 5.44839096069335936 3.7281494140625 -9.158233642578125
v 3.37606811523437504 8.0008087158203125 1.64542388916015624
v 3.0340423583984375 6.50889587402343752 3.79954528808593744
v 4.72148132324218752 6.55986022949218752 3.91831970214843744
v 5.20636749267578124 8.23078918457031248 1.0227203369140625
v 3.94246673583984368 8.39662170410156248 -2.83676147460937504
v 3.53769302368164064 8.53834533691406248 -0.69441223144531248
v 5.50721740722656248 8.73052978515624992 -1.216552734375
v 6.09743118286132812 8.50025939941406248 -2.89951324462890624
v 8.49833679199218752 9.1669464111328125 -2.62107849121093752
v 6.39603424072265624 8.5352783203125 -2.87178802490234368
v 5.81198883056640624 8.76272583007812496 -1.19694519042968752
v 7.84005355834960944 9.254058837890625 -0.47003173828125
v 7.4800987243652344 -2.73336791992187504 -9.98233795166015632
v 6.65094757080078128 -4.61326599121093752 -8.89911651611328128
v 4.59626770019531248 -4.57797241210937504 -8.44840240478515624
v 5.91030883789062496 -2.3353271484375 -9.96665191650390624
v 9.54374313354492184 2.021087646484375 -9.9943771362304688
v 8.78910064697265632 -0.289886474609375 -10.26918029785156248
v 7.29661941528320312 0.0591278076171875 -9.98373413085937504
v 7.81288528442382816 1.91294860839843744 -9.71482849121093752
v 5.35959243774414064 1.64070129394531248 -9.92575836181640624
v 7.5162353515625 1.89952087402343744 -9.71202087402343752
v 7.00362014770507812 0.04541015625 -9.98037719726562496
v 4.7382888793945312 -0.61091613769531248 -10.20111083984375
v 20.56953430175781248 9.0106353759765625 -6.54891204833984376
v 20.014617919921875 10.40480041503906248 -4.09590911865234376
v 24.54835510253906248 0.36529541015625 -10.96388244628906256
v 22.01607513427734375 -0.72294616699218752 -10.86275482177734368
v 24.15982818603515624 2.33734130859375 -11.20618438720703124
v 21.18159484863281248 7.1153564453125 -8.84197235107421872
v 21.97601699829101568 6.99349975585937504 -9.1797943115234375
v 22.40123748779296872 5.65985107421875 -10.15937042236328124
v 21.79814147949218752 5.57666015625 -10.31988525390625
v 21.75948333740234368 -3.61408996582031248 -10.27226257324218752
v 18.278717041015625 4.304901123046875 7.53634643554687504
v 20.61827850341796872 -4.26814270019531248 7.61141967773437504
v 20.4202308654785156 -2.238128662109375 8.26885986328125
v 17.92996597290039056 1.87290954589843744 8.1147918701171875
v -0.8909988403320312 3.144378662109375 6.19989776611328124
v -1.0854034423828125 0.36952209472656248 7.45763397216796872
v 20.68998336791992184 -6.00152587890625 -8.89407348632812496
v 23.99483871459960944 -7.1533966064453125 -6.20381164550781248
v 23.58698272705078128 -7.91110229492187504 -4.39507293701171872
v 21.30148696899414064 -7.1631927490234375 5.0956573486328125
v 20.92612838745117184 -6.08221435546875 6.342193603515625
v 23.67270278930664064 -8.0674285888671875 -2.340118408203125
v 23.29314041137695312 -8.0315704345703125 -0.16918182373046876
v 22.41384124755859376 -7.80859375 2.1275177001953125
v 21.74323654174804688 -7.50999450683593752 3.87966156005859376
v 19.0958251953125 9.50758361816406248 4.254180908203125
v 19.61152648925781248 10.45184326171875 3.18804931640625
v 15.97220993041992192 8.50389099121093752 4.03961181640625
v 14.73184204101562496 9.27647399902343752 2.46646118164062496
v 7.22238922119140624 8.54228210449218752 1.80341339111328128
v 6.8310623168945312 7.0156402587890625 3.90682983398437504
v 1.4432411193847656 -1.1070098876953125 -10.19915008544921876
v 2.59089279174804688 1.19390869140625 -9.8756179809570312
v 2.7738075256347656 3.248016357421875 -9.053466796875
v 2.6012535095214844 4.90577697753906256 -7.85959625244140624
v 2.27211380004882812 6.20466613769531248 -6.29344940185546876
v 1.87574768066406256 7.237762451171875 -4.55978393554687504
v 1.37741088867187504 8.0024871826171875 -2.65916442871093752
v 1.20177841186523436 8.1055755615234375 -0.50896453857421872
v 0.33256149291992188 5.83969116210937504 4.1502532958984375
v 1.01998138427734375 7.4859619140625 1.92022705078124992
v 0.05440521240234375 7.0038604736328125 1.97148895263671872
v -0.63328933715820312 5.61923217773437504 4.2852783203125
v 16.17669677734375 2.79617309570312496 -10.0980377197265625
v 3.1141510009765625 -7.71475219726562496 2.8474197387695312
v 3.12984085083007812 -8.003265380859375 1.22749328613281248
v 3.07549667358398438 -5.69200134277343752 5.40743255615234376
v 2.9505653381347656 -7.0833587646484375 4.09563446044921876
v 2.9934196472167968 -7.94219970703124992 -0.7708816528320312
v 3.09006118774414062 -7.46572875976562496 -2.8236083984375
v 3.40884017944335936 -6.56877136230468752 -4.93653869628906256
v 3.77972030639648432 -5.74018859863281248 -6.607177734375
v 3.48587417602539064 -3.044586181640625 -9.9677734375
v 22.0720977783203125 7.1388702392578125 -9.12853240966796876
v 22.49619674682617184 5.837158203125 -10.1123199462890625
v 23.30854415893554688 3.69927978515625 -10.96780395507812496
v -1.63359451293945312 -2.77960205078124992 8.10079193115234376
v -0.93637847900390624 -3.51295471191406248 -10.06890106201171875
v 2.44186401367187504 -4.91242980957031248 -8.9612960815429688
v 1.55472564697265624 0.912109375 -9.61202239990234376
v 1.55556488037109376 2.84855651855468752 -8.68846893310546872
v 1.40513992309570312 4.47467041015625 -7.50888824462890624
v 1.05331039428710938 5.77133178710937504 -5.96346282958984368
v 0.67935180664062496 6.79853820800781248 -4.24184417724609376
v 0.29138565063476564 7.50639343261718752 -2.4482421875
v 0.14572525024414062 7.55793762207031248 -0.44931030273437504
# 268 vertices

vn -0.23609763383865356 0.85997211933135984 -0.45244425535202024
vn -0.28019189834594728 0.84341198205947872 -0.45841979980468752
vn -0.266740083694458 0.78643876314163216 -0.55710297822952272
vn -0.2544492781162262 0.79116559028625488 -0.55615878105163576
vn -0.25263091921806336 0.72040987014770504 -0.64590030908584592
vn -0.2095066010951996 0.73605966567993168 -0.64367938041687008
vn -0.22398035228252412 0.6419822573661804 -0.733274519443512
vn -0.26363354921340944 0.94285398721694944 -0.20377388596534728
vn -0.23819249868392944 0.8447461128234864 -0.4792373776435852
vn -0.37504318356513976 0.78263288736343376 -0.49681830406188968
vn -0.05727707222104073 0.95423865318298336 -0.29350963234901428
vn -0.29475563764572144 0.89131593704223632 -0.34449228644371032
vn 0.17720897495746612 0.98397517204284672 0.01974521391093731
vn -0.13932141661643982 0.98553830385208128 -0.09645580500364304
vn -0.12928764522075654 0.38689130544662472 0.91301685571670528
vn -0.08916491270065308 0.32423150539398192 0.94176614284515376
vn -0.05792028829455376 -0.21693193912506104 0.97446691989898688
vn -0.02707451768219471 -0.18320444226264952 0.98270189762115472
vn -0.04053892567753792 -0.46369111537933352 -0.88506907224655152
vn -0.03959903493523597 -0.4625621438026428 -0.88570207357406624
vn -0.11892896890640258 -0.85477286577224736 -0.50519222021102904
vn -0.1461753398180008 -0.82247596979141232 -0.5496962666511536
vn 0.00289706513285636 -0.64110320806503296 0.76744914054870608
vn -0.02626380883157253 -0.6076757907867432 0.79375082254409792
vn -0.1726263016462326 -0.97769892215728752 -0.1196032539010048
vn -0.14312954246997834 -0.97446191310882576 -0.1730259507894516
vn -0.11594972014427186 -0.972057580947876 0.2041069120168686
vn -0.07378430664539337 -0.95009529590606688 0.30310857295989992
vn -0.15923738479614258 0.53739690780639648 0.82815945148468016
vn -0.51533991098403928 0.66630208492279056 -0.53894925117492672
vn -0.50146037340164184 0.68138957023620608 -0.53314709663391112
vn -0.49205783009529112 0.84009599685668944 -0.22829343378543852
vn -0.62370443344116208 0.68873691558837888 -0.36964076757431032
vn -0.36337342858314512 0.81140249967575072 0.457805335521698
vn -0.36198547482490536 0.77424669265747072 0.51914215087890624
vn -0.10159780830144882 0.77577161788940432 0.62278109788894656
vn -0.06148767843842506 0.99678647518157952 -0.05134192109107971
vn -0.09030510485172272 0.99563968181610112 -0.02337992377579212
vn -0.05805465206503868 0.854032814502716 -0.516969621181488
vn -0.02370880171656608 0.83726352453231808 -0.54628545045852664
vn -0.07145276665687561 0.62931758165359496 -0.77385652065277104
vn -0.0949036329984665 0.59945493936538696 -0.79476231336593632
vn -0.02895114198327064 0.15940174460411072 -0.9867891669273376
vn -0.14563868939876556 -0.00800868775695562 -0.98930537700653072
vn -0.19522885978221892 0.12717519700527192 -0.97247737646102912
vn -0.18990537524223328 0.12873664498329162 -0.97332566976547248
vn -0.47839707136154176 0.57697474956512448 -0.66199421882629392
vn -0.53863739967346192 0.49288293719291688 -0.6833272576332092
vn 0.41743147373199464 0.90446031093597408 -0.08776324242353439
vn 0.71179646253585816 0.6892806887626648 0.13504771888256072
vn 0.27056443691253664 -0.86015695333480832 0.43234813213348392
vn 0.26413565874099732 -0.86666780710220336 0.42322486639022824
vn -0.16983067989349366 -0.95365047454833984 0.2484111487865448
vn -0.06262921541929245 -0.9734001755714416 0.22038528323173524
vn -0.3713659942150116 -0.72274506092071536 0.58286100625991824
vn -0.3293650448322296 -0.71051090955734256 0.62184625864028928
vn 0.1980382949113846 -0.69169914722442624 0.69450205564498904
vn 0.11358054727315902 -0.6464543342590332 0.75445091724395744
vn -0.18451547622680664 -0.32012882828712464 0.92923176288604736
vn -0.35850927233695984 -0.34643584489822388 0.8668640851974488
vn 0.01760698482394218 -0.41830915212631224 0.90813404321670528
vn -0.12346017360687256 -0.24768428504467012 0.96094232797622688
vn -0.1354958862066269 0.14371688663959504 0.98029905557632448
vn 0.03038311190903187 -0.9978300333023072 0.05841236561536789
vn 0.05037478357553482 -0.99582391977310176 0.07613898068666458
vn 0.21708595752716064 -0.9754291772842408 0.03756939619779587
vn 0.28034132719039916 -0.95317238569259648 0.11345166712999344
vn 0.04365415871143341 -0.94511151313781744 -0.32381868362426756
vn -0.01311640627682209 -0.92813718318939216 -0.37200701236724856
vn 0.28025025129318236 -0.56316238641738888 -0.77737247943878176
vn 0.07972182333469391 -0.9017469882965088 -0.42484915256500248
vn 0.145244300365448 -0.93658715486526496 -0.31891769170761108
vn -0.16239066421985626 -0.96956902742385872 0.18320806324481964
vn -0.17173579335212708 -0.97035169601440432 0.17007176578044892
vn -0.13281051814556122 -0.6580829620361328 0.74113976955413824
vn -0.1505497694015503 -0.67029309272766112 0.72666484117507936
vn -0.14142276346683502 -0.15612441301345826 0.97756057977676384
vn -0.1254456341266632 -0.1454172134399414 0.9813852906227112
vn 0.27840325236320496 -0.19097357988357544 0.94128668308258064
vn 0.28155732154846192 -0.19321413338184356 0.93989032506942752
vn -0.16335535049438476 -0.96017754077911376 -0.22665849328041076
vn -0.17899243533611298 -0.96135681867599488 -0.20917652547359468
vn -0.05922305583953857 0.41225942969322208 0.90913963317871088
vn -0.10148908197879792 0.38245826959609984 0.91838204860687248
vn -0.00886184722185134 0.37890282273292544 0.92539399862289424
vn -0.08820278942584991 0.4273439049720764 0.8997763991355896
vn -0.20304419100284576 -0.85955584049224848 -0.46897426247596744
vn -0.18323422968387604 -0.85362458229064944 -0.4875963926315308
vn -0.16124637424945832 0.82448285818099968 -0.54242765903472904
vn -0.17124958336353302 0.82650285959243776 -0.53625237941741944
vn -0.04411176592111587 0.8578790426254272 -0.51195478439331056
vn -0.0438675582408905 0.85806620121002192 -0.51166200637817384
vn -0.1385221779346466 0.56745678186416624 -0.81166768074035648
vn -0.10561590641736984 0.54640620946884152 -0.83083426952362064
vn -0.01759789325296878 0.5476073622703552 -0.83655035495758064
vn -0.00212318310514092 0.56513112783432008 -0.82499831914901728
vn -0.06442569196224213 0.82513636350631712 0.56124800443649288
vn 0.06442417949438095 0.85962754487991328 0.50684320926666256
vn -0.11983966827392578 0.9888801574707032 -0.088060162961483
vn -0.05192096158862114 0.98682552576065056 -0.15323066711425782
vn -0.2569880187511444 0.94162356853485104 -0.21749062836170196
vn -0.20002666115760804 0.9746036529541016 -0.10068320482969284
vn -0.20125390589237212 -0.42089593410491944 -0.88450187444686896
vn -0.1352965533733368 -0.49986904859542848 -0.85546821355819696
vn -0.14809086918830872 0.1643250584602356 -0.97522628307342528
vn -0.1680109053850174 0.18718038499355316 -0.9678511023521424
vn 0.08363202959299088 0.12005608528852462 -0.98923820257186896
vn 0.06688754260540009 0.1029096394777298 -0.9924392700195312
vn 0.341023325920105 0.84833562374114992 -0.40500584244728088
vn 0.11342940479516984 0.89452004432678224 -0.43239748477935792
vn 0.01840703189373016 -0.1348944753408432 -0.99068897962570192
vn 0.02630159445106983 -0.1168026253581047 -0.99280685186386112
vn -0.26793393492698668 0.5133860111236572 -0.81525838375091552
vn 0.08870869874954224 0.708247184753418 -0.70036894083023072
vn -0.13564291596412658 0.621442437171936 0.77162837982177728
vn -0.11154722422361374 0.58627891540527344 0.80239278078079216
vn -0.03956440091133117 -0.1332908719778061 -0.99028688669204704
vn -0.02329291962087154 -0.11319518834352494 -0.9932997226715088
vn 0.04756441339850426 -0.20159216225147248 -0.9783139824867248
vn 0.04601674899458885 -0.20381751656532288 -0.97792690992355344
vn -0.07388237118721008 0.43597164750099184 0.89692258834838864
vn -0.1775214970111847 0.47116935253143312 0.86399400234222416
vn -0.02662890590727329 -0.46722477674484256 0.88373738527297968
vn -0.00428089313209056 -0.49274820089340208 0.87016141414642336
vn -0.1783243864774704 -0.94583201408386224 -0.27129721641540528
vn -0.16098704934120178 -0.93995547294616704 -0.300943523645401
vn -0.13621552288532258 -0.31723591685295104 0.93851304054260256
vn -0.14331251382827758 -0.32182982563972472 0.93588835000991824
vn -0.06429711729288101 0.3198522925376892 0.94528323411941536
vn -0.13038025796413422 0.24707521498203276 0.96018475294113152
vn -0.05922083929181099 -0.26920309662818908 0.9612609148025512
vn -0.00792458653450012 -0.22545799612998964 0.97422063350677488
vn -0.10446012765169144 0.41379162669181824 0.90435862541198736
vn -0.12830787897109986 0.38682162761688232 0.9131845831871032
vn -0.09635670483112336 0.11087440699338912 0.98915231227874752
vn -0.05332264676690102 0.04913827031850815 0.99736756086349488
vn -0.05349763855338097 -0.18037810921669008 0.98214137554168704
vn -0.04475106671452522 -0.16871432960033416 0.98464858531951904
vn -0.00506449351087212 0.413122683763504 0.91066128015518192
vn 0.00094172515673562 0.42201888561248776 0.90658658742904656
vn -0.04426013678312301 -0.46131083369255064 -0.88613390922546384
vn -0.02772361226379871 -0.48986083269119264 -0.87135976552963264
vn -0.1311110407114029 -0.8639148473739624 -0.48627251386642456
vn -0.14166197180747986 -0.85200291872024544 -0.50400674343109128
vn -0.05304427817463875 -0.48131337761878968 -0.87494218349456784
vn -0.06038891896605492 -0.45736399292945864 -0.88722681999206544
vn -0.05886520445346832 -0.70845371484756472 -0.70329809188842776
vn -0.0996374562382698 -0.74077439308166496 -0.66432350873947144
vn -0.09687008708715438 -0.82779818773269648 -0.55259960889816288
vn -0.05826712772250175 -0.8811208009719848 -0.469287782907486
vn 0.33999621868133544 -0.91020911931991584 -0.236478328704834
vn 0.26943930983543396 -0.9083757400512696 -0.3197748064994812
vn -0.1252090036869049 -0.74753862619400032 0.65231031179428104
vn -0.15069203078746796 -0.7688784003257752 0.62138384580612184
vn 0.0646483302116394 -0.60214513540267944 0.7957648634910584
vn 0.02396226674318313 -0.6580780744552612 0.75256824493408208
vn -0.08926009386777878 -0.66267198324203488 0.74357140064239504
vn -0.07109124958515167 -0.63891953229904176 0.765981674194336
vn -0.01935458555817604 -0.87059110403060912 0.49162635207176208
vn -0.07411111891269684 -0.8140093684196472 0.57610434293746952
vn -0.10514865815639496 -0.97934430837631232 -0.17270930111408234
vn -0.12203077971935272 -0.97028952836990352 -0.20891815423965456
vn -0.1087789386510849 -0.97616487741470336 0.1878013014793396
vn -0.10078825801610946 -0.97318959236145024 0.20674571394920348
vn 0.05703946202993393 -0.99821799993515008 0.01752551645040512
vn -0.01240434218198061 -0.992952823638916 -0.11785979568958282
vn -0.1513722836971283 -0.98742759227752688 0.04553202912211418
vn -0.1103959009051323 -0.99360418319702144 -0.02373832836747169
vn 0.10406504571437836 -0.9304198026657104 0.35141077637672424
vn 0.12334776669740676 -0.90951949357986448 0.3969378173351288
vn 0.17913351953029632 -0.98267495632171632 0.04755056276917458
vn 0.2200089991092682 -0.97096300125122064 0.09395187348127366
vn 0.12752941250801086 -0.94925111532211296 0.28750392794609068
vn 0.07136628031730652 -0.97839206457138064 0.19405125081539156
vn -0.24146360158920288 0.75708168745040896 0.60706067085266112
vn -0.18058839440345764 0.77801764011383056 0.60172772407531736
vn -0.3234867751598358 0.53464877605438232 0.7807093858718872
vn -0.12257874011993408 0.68401944637298584 0.7190909385681152
vn 0.20478206872940064 0.8195297122001648 0.53519660234451296
vn 0.12963278591632844 0.95944827795028688 0.25030851364135744
vn 0.3277180790901184 0.91234612464904784 -0.24540887773036956
vn 0.41424584388732912 0.88765990734100336 -0.20114734768867492
vn -0.21684856712818144 0.94608819484710688 -0.24061143398284912
vn -0.0879528671503067 0.95228177309036256 -0.2922731339931488
vn -0.376338005065918 0.76633077859878544 -0.52067917585372928
vn -0.30978378653526308 0.77717286348342896 -0.54775583744049072
vn -0.09702558815479278 -0.03146585077047348 -0.99478441476821904
vn -0.06138572841882706 -0.13596732914447784 -0.98880970478057856
vn -0.47612988948822024 0.62142682075500488 -0.62219691276550296
vn -0.50392252206802368 0.59163177013397216 -0.6293122172355652
vn -0.06691262871026993 0.85268193483352656 -0.51812762022018432
vn -0.03068025223910808 0.8430525660514832 -0.53695547580718992
vn -0.51632243394851688 0.72624105215072624 -0.45385581254959104
vn -0.4641481041908264 0.7780587077140808 -0.4233098030090332
vn -0.22668996453285216 0.97121500968933104 -0.07316442579030991
vn -0.08368372917175293 0.97743880748748784 -0.19393411278724672
vn -0.59508907794952392 0.80296820402145392 0.03333204612135887
vn -0.5265986919403076 0.84388071298599248 0.10275821387767792
vn -0.304643452167511 0.81176447868347168 0.49822768568992616
vn -0.31020992994308472 0.73347437381744384 0.60480177402496336
vn -0.11412569135427474 0.91190093755722048 0.39422330260276792
vn -0.13170276582241058 0.91930353641510016 0.37085762619972232
vn -0.14475665986537934 0.77668935060501104 0.6130245923995972
vn -0.10116861760616302 0.81400668621063232 0.57197737693786624
vn -0.03386802598834038 0.88939940929412848 -0.45587468147277832
vn -0.01476160902529955 0.90250569581985472 -0.43042498826980592
vn -0.1626017540693283 0.98592478036880496 -0.03889515623450279
vn -0.1302531510591507 0.98825740814208992 -0.07988342642784119
vn -0.08344333618879318 0.76864343881607056 -0.63421171903610232
vn -0.05158561840653419 0.80169492959976192 -0.59550327062606808
vn -0.02471888810396194 0.83718788623809808 -0.54635655879974368
vn -0.04311680793762207 0.8480534553527832 -0.52815377712249752
vn -0.01763896644115448 0.12373969703912734 -0.99215787649154656
vn -0.04176812246441841 0.1629701405763626 -0.98574650287628176
vn 0.00553878769278526 0.597267746925354 -0.80202281475067136
vn 0.02975858189165592 0.57002246379852296 -0.82108998298645024
vn -0.04375368356704712 0.16047468781471252 -0.98606967926025392
vn -0.01966702006757259 0.12670829892158508 -0.99174505472183232
vn -0.14838555455207824 0.56770956516265872 -0.80974537134170528
vn -0.13159546256065368 0.55362325906753544 -0.82230406999588016
vn -0.15561212599277496 0.83252578973770144 -0.53168195486068728
vn -0.15868009626865386 0.83413648605346672 -0.52823954820632936
vn -0.186590239405632 0.98046386241912848 -0.06224803999066353
vn -0.1575980931520462 0.98294222354888912 -0.0948014110326767
vn -0.37310710549354552 0.79766088724136352 0.473844051361084
vn -0.13085326552391052 0.86736536026000976 0.48016107082366944
vn -0.09002552926540375 0.68860614299774168 -0.71952545642852784
vn -0.01651572622358799 0.62949794530868528 -0.77682662010192864
vn -0.08028879016637802 0.45636972784996032 -0.88616043329238896
vn -0.10060485452413558 0.4249733090400696 -0.89959788322448736
vn -0.13729341328144074 0.1792069524526596 -0.97418439388275152
vn -0.0910598561167717 0.34774592518806456 -0.93315643072128288
vn 0.36282673478126528 0.7271419167518616 -0.5827705264091492
vn -0.32536491751670836 0.15669217705726624 -0.93251550197601312
vn -0.26549717783927916 0.61040532588958744 -0.74626845121383664
vn -0.361570417881012 0.63117921352386472 -0.6862066984176636
vn -0.468533992767334 0.23525349795818328 -0.85154658555984496
vn -0.4174436628818512 0.38478612899780272 -0.82321351766586304
vn -0.3070577383041382 -0.85852366685867312 0.41067335009574888
vn -0.19458857178688048 -0.90791100263595584 0.3712584674358368
vn 0.2354910373687744 -0.76937377452850336 0.5938080549240112
vn 0.2086482346057892 -0.76084512472152704 0.6144758462905884
vn 0.26520818471908568 -0.91800206899642944 0.29485049843788148
vn 0.2916691303253174 -0.91465419530868528 0.27988693118095396
vn 0.23566657304763792 -0.87781482934951776 0.41701614856719968
vn 0.02986346371471882 -0.94746738672256464 0.31845515966415404
vn -0.04746736213564873 -0.98881655931472784 0.1413816660642624
vn 0.02071431651711464 -0.99148643016815184 0.12855158746242524
vn -0.3792462646961212 -0.57258117198944088 0.72685837745666496
vn -0.37149444222450256 -0.57804244756698608 0.72653889656066896
vn -0.13970698416233062 -0.7336249947547912 0.66503858566284176
vn -0.04049428924918174 -0.7200065851211548 0.69278472661972048
vn 0.1133904755115509 -0.62189829349517824 0.77484524250030512
vn -0.00231029954738914 -0.53596967458724976 0.84423410892486576
vn -0.18300399184226988 0.0002458580129314214 0.98311203718185424
vn -0.1337151974439621 -0.02157690934836864 0.99078488349914544
vn -0.24837131798267364 -0.37875178456306456 0.89154845476150512
vn -0.15062448382377624 -0.38642844557762144 0.90993690490722656
vn -0.0272651594132185 -0.05025176331400871 0.99836426973342896
vn -0.05779660865664482 -0.01153745409101247 0.99826169013977056
vn 0.05769157782196999 -0.99801999330520624 -0.02505521476268768
vn 0.03698134422302246 -0.99924165010452272 -0.01218549720942974
vn 0.13021889328956604 -0.98718899488449104 -0.09220071136951446
vn 0.22421380877494812 -0.95666742324829104 -0.18578384816646576
vn 0.49836435914039608 -0.8537424802780152 0.15085314214229584
vn 0.53264570236206056 -0.83007347583770752 0.16512562334537506
vn -0.01952104270458221 -0.75397121906280512 -0.65661734342575072
vn 0.43375408649444584 -0.80434167385101312 -0.4060688614845276
vn 0.12526515126228332 -0.80862390995025632 -0.57483571767807008
vn 0.1209111213684082 -0.80930072069168096 -0.5748155117034912
vn 0.15905888378620148 -0.9366086721420288 -0.31219294667243956
vn 0.24837258458137512 -0.93725740909576416 -0.24466204643249512
vn -0.17166703939437866 -0.98501360416412352 -0.01669258065521717
vn -0.16557858884334564 -0.98590123653411872 -0.02413575537502765
vn -0.1486634761095047 -0.8906829953193664 0.429631233215332
vn -0.1613098829984665 -0.8811598420143128 0.44445073604583744
vn 0.1378197818994522 -0.97499585151672368 0.1743239164352417
vn 0.140533909201622 -0.97450107336044304 0.174922376871109
vn -0.1119149774312973 -0.51871192455291752 0.8475924134254456
vn -0.13586893677711486 -0.49799537658691408 0.85646963119506832
vn 0.12299512326717376 -0.68555140495300296 0.7175593972206116
vn 0.11565417796373368 -0.68687278032302856 0.71751648187637328
vn -0.09942638874053956 0.1251479834318161 0.98714357614517216
vn -0.15021912753582 0.16414736211299896 0.97493064403533936
vn 0.02563905343413353 -0.16585725545883178 0.9858164191246032
vn 0.03974086046218872 -0.16574972867965698 0.98536682128906256
vn 0.19335685670375824 0.09293213486671448 0.9767173528671264
vn 0.05334668606519699 0.181953102350235 0.98185902833938592
vn 0.10925467312335968 -0.96939235925674432 -0.21986791491508484
vn 0.12585030496120452 -0.96830993890762336 -0.21572555601596832
vn -0.1732938438653946 -0.8999293446540832 -0.40012046694755552
vn -0.20910154283046724 -0.90623158216476448 -0.36745175719261168
vn -0.1346883475780487 0.64242428541183472 0.75442034006118768
vn -0.11330407857894898 0.63371860980987552 0.76522082090377808
vn -0.09086555242538452 0.38204002380371096 0.91966778039932256
vn -0.07555117458105087 0.38315683603286744 0.9205883145332336
vn -0.09121391922235488 0.6428824067115784 0.76051449775695808
vn -0.0733310878276825 0.63417023420333864 0.76970815658569328
vn 0.06075187399983406 -0.89951574802398688 -0.43264374136924744
vn 0.0680752694606781 -0.90033876895904544 -0.42983224987983704
vn -0.19147251546382904 -0.81350910663604736 -0.54912769794464112
vn -0.14291758835315704 -0.7952086925506592 -0.5892518162727356
vn 0.11969784647226334 0.81775003671646112 -0.56298971176147464
vn -0.16494132578372956 0.73816794157028192 -0.65414249897003176
vn -0.19224637746810912 0.87484782934188848 -0.44461530447006224
vn -0.20425212383270264 0.86310589313507088 -0.46187591552734376
vn -0.05566323548555374 0.91377156972885136 -0.40239679813385008
vn -0.04362041503190994 0.92101788520812992 -0.38707002997398376
vn -0.14075160026550292 0.76102596521377568 -0.63326823711395264
vn -0.14196175336837768 0.75991219282150272 -0.6343345642089844
vn -0.03202696889638901 0.85830652713775632 -0.51213693618774416
vn -0.0524129793047905 0.85640400648117072 -0.513638973236084
vn -0.04085469990968704 0.77209639549255376 -0.63419079780578616
vn -0.04180972650647163 0.77119886875152592 -0.63521987199783328
vn -0.1705872118473053 0.33398941159248352 -0.92701190710067744
vn -0.12507840991020202 0.3679101467132568 -0.92141056060791008
vn -0.01776948012411594 0.54999667406082152 -0.83497786521911616
vn 0.00062122836243361 0.5477615594863892 -0.83663421869277952
vn 0.03269632905721664 0.3233739733695984 -0.94570612907409664
vn 0.0518372505903244 0.34269034862518312 -0.938017189502716
vn -0.05086415633559227 0.97615826129913328 0.211016446352005
vn -0.03640665486454963 0.97451180219650272 0.22136230766773224
vn -0.09295638650655746 0.98158144950866704 -0.1669042706489563
vn -0.09943556785583496 0.98078185319900512 -0.1678672581911087
vn -0.28317680954933168 0.94730359315872192 0.14975570142269134
vn -0.2354998141527176 0.94389182329177856 0.23153422772884368
vn -0.01029010955244302 -0.00117605435661971 -0.99994635581970208
vn -0.19077298045158388 -0.01302537694573402 -0.98154777288436896
vn -0.01828120648860931 0.1485128104686737 -0.98874151706695552
vn -0.01603911817073822 0.14756688475608826 -0.98892194032669072
vn 0.11339115351438522 -0.05779113620519638 -0.99186825752258304
vn 0.03333338350057602 -0.11237193644046784 -0.99310696125030512
vn -0.44331163167953488 0.44404572248458864 -0.7786515355110168
vn -0.31569144129753112 0.4942684471607208 -0.80996149778366096
vn 0.1730578988790512 0.44284382462501528 -0.87973880767822272
vn -0.02934497222304344 0.3049185276031494 -0.95192629098892208
vn -0.13788287341594696 0.32236158847808836 -0.93652087450027472
vn -0.01143229287117719 -0.0005146840121597 -0.99993449449539184
vn -0.11571278423070908 0.97262632846832272 0.20151570439338684
vn -0.00068581907544285 0.3254418969154358 -0.94556170701980592
vn -0.02385647781193256 0.32970911264419556 -0.94378113746643072
vn -0.00840516109019517 0.77474385499954224 -0.63221937417984008
vn -0.03152147680521011 0.77532011270523072 -0.63078135251998904
vn -0.06903522461652756 0.91084116697311408 -0.4069427251815796
vn -0.07260005921125412 0.91024082899093632 -0.40766522288322448
vn -0.32489842176437376 0.71948283910751344 -0.61382848024368288
vn -0.5557357668876648 0.57801675796508792 -0.59754019975662232
vn 0.06048646196722984 -0.85596787929534912 -0.51347869634628296
vn -0.12123408913612366 0.64341020584106448 0.75586086511611936
vn 0.10664331167936326 -0.92322057485580448 -0.36917603015899656
vn 0.06863453984260559 -0.92200565338134768 -0.38104453682899472
vn -0.00559456320479512 0.11881772428750992 0.99290031194686896
vn -0.0402483120560646 0.11893254518508912 0.99208629131317136
vn 0.1060485988855362 -0.54314661026000976 0.83291381597518928
vn 0.08210656046867371 -0.54420566558837888 0.83492439985275264
vn 0.13245326280593872 -0.87737214565277104 0.4611662030220032
vn 0.13533826172351838 -0.87648564577102656 0.46201354265213016
vn 0.13757267594337464 -0.98976302146911616 -0.03798551857471466
vn 0.12917782366275788 -0.9908503890037536 -0.03909653797745704
vn 0.19879621267318724 -0.8361022472381592 -0.5112857222557068
vn 0.22402207553386688 -0.97044497728347776 -0.0897253006696701
vn 0.51605731248855592 -0.85647863149642944 -0.01136716920882463
vn -0.01948502846062183 -0.05388322472572327 0.99835711717605584
vn -0.09348823130130768 -0.6107341647148132 0.7862974405288696
vn -0.25873652100563048 -0.60550761222839352 0.7526060938835144
vn 0.27594491839408876 -0.92852944135665888 0.24836944043636324
vn 0.49679011106491088 -0.7937650084495544 0.35090839862823488
vn 0.00295877153985202 -0.83915871381759648 0.5438785552978516
vn -0.06563172489404678 -0.8592256307601928 0.50736945867538456
vn -0.16951486468315124 0.45519945025444032 -0.87410426139831536
vn -0.09037511050701142 0.5980438590049744 -0.79635161161422736
vn -0.16192638874053956 0.96413207054138176 0.21030744910240172
vn -0.18204353749752044 0.95596134662628176 0.23021310567855836
vn -0.15339948236942292 0.90215891599655152 -0.40320950746536256
vn -0.1661653071641922 0.89176458120346064 -0.42088600993156432
vn -0.16837432980537414 0.74105936288833616 -0.64998543262481688
vn -0.15702587366104126 0.754981517791748 -0.63666760921478272
vn -0.07746134698390961 0.37640991806983944 -0.92320930957794192
vn -0.09884311258792878 0.3471088707447052 -0.93260139226913456
vn 0.01973799429833889 0.41419085860252384 -0.9099760055541992
vn -0.02294623665511608 0.36232155561447144 -0.93177068233489984
vn -0.00553457858040928 0.7717053890228272 -0.63595610857009888
vn -0.00407106475904583 0.77379238605499264 -0.63342618942260744
vn -0.07798606157302856 0.8834092617034912 -0.46206751465797424
vn -0.06578098237514496 0.90069794654846192 -0.42943695187568664
vn -0.11882951110601426 0.91177779436111456 0.39311689138412472
vn -0.1777481734752655 0.95186412334442144 0.2497205436229706
vn -0.50070190429687504 0.86449909210205072 0.04403220489621162
vn -0.18397115170955656 0.91224616765975952 0.36600759625434872
vn -0.07065629214048386 0.89513838291168208 -0.44015341997146608
vn -0.06417360901832581 0.89839565753936768 -0.43447312712669376
vn 0.02422180585563183 0.80850112438201904 -0.58799600601196288
vn -0.03457755222916603 0.77496391534805296 -0.6310588717460632
vn -0.35500687360763548 0.67185354232788088 -0.65006381273269656
vn -0.36379313468933104 0.66481298208236696 -0.65244024991989136
vn -0.19068568944931032 0.91876465082168576 -0.34570294618606568
vn -0.33437025547027588 0.8414034843444824 -0.42454287409782408
vn -0.19969275593757628 0.974035918712616 0.10666244477033616
vn -0.26333466172218324 0.67144793272018432 0.6926850080490112
vn -0.27475705742836 0.71847599744796752 0.63898426294326784
vn 0.15586468577384948 0.93742394447326656 0.31135606765747072
vn 0.06041626632213593 0.97886759042739872 0.19536648690700532
vn 0.17134900391101838 -0.96774798631668096 0.18467077612876892
vn 0.14582836627960206 -0.97775572538375856 0.15075698494911194
vn 0.05308672413229942 -0.99353945255279536 0.10030529648065568
vn 0.11468813568353652 -0.96632128953933712 0.23036879301071168
vn -0.10786928981542588 -0.99387413263320928 -0.02404811605811119
vn -0.10754501074552536 -0.99392628669738768 -0.02333592064678669
vn -0.08951325714588165 -0.87262976169586176 0.48010894656181336
vn -0.10015688836574554 -0.8846725821495056 0.45532736182212832
vn 0.08631918579339981 -0.80136620998382576 0.5919132232666016
vn 0.09677547216415406 -0.78285759687423712 0.61462873220443728
vn -0.0627695694565773 -0.96554070711135872 0.25256893038749696
vn 0.0262763537466526 -0.8921809792518616 0.4509131610393524
vn 0.28043964505195616 -0.79459011554718016 -0.53849816322326664
vn -0.08698111027479172 -0.70247727632522584 -0.70637112855911256
vn -0.07499320805072784 -0.72998070716857904 -0.67934095859527584
vn -0.05520927533507347 -0.81061810255050656 -0.58296674489974976
vn -0.11500747501850128 -0.73856633901596064 -0.6642988920211792
vn 0.07300407439470291 0.17941009998321534 0.98106193542480464
vn 0.077825628221035 0.18647345900535584 0.97937273979187008
vn -0.10520029813051224 0.11154256761074066 0.98817569017410272
vn -0.06735930591821671 0.1574295461177826 0.98523020744323728
vn -0.08407802879810333 -0.00128760025836527 0.99645841121673584
vn -0.03061874210834503 0.04499592632055282 0.9985178709030152
vn -0.14851631224155426 -0.01759895496070385 0.98875337839126592
vn -0.07709698379039764 -0.95260256528854368 -0.29428625106811524
vn -0.00952972657978534 -0.9850956201553344 -0.17174337804317474
vn -0.15184897184371948 -0.9173738360404968 -0.367922842502594
vn -0.11866286396980286 -0.94466841220855712 -0.30581164360046388
vn -0.03453304246068001 -0.4663570821285248 0.88392227888107296
vn -0.07190827280282974 -0.5079752802848816 0.85836493968963616
vn -0.0224070381373167 -0.534843385219574 0.84465402364730832
vn 0.02052609622478485 -0.49545761942863464 0.86838954687118528
vn -0.11860472708940506 -0.58266085386276248 0.80401438474655152
vn -0.16894607245922088 -0.61312502622604368 0.7717090249061584
vn 0.29017394781112672 -0.95322543382644656 -0.08461888134479523
vn 0.22140957415103912 -0.97507280111312864 -0.01452163979411125
vn 0.03468115627765655 -0.11305368691682816 -0.99298340082168576
vn 0.00885964650660753 -0.06279008090496063 -0.99798744916915888
vn -0.02973311208188534 0.61355870962142944 0.78908914327621456
vn -0.02942393347620964 -0.13693554699420928 -0.99014276266098016
vn -0.06401024013757706 -0.19424363970756532 -0.9788626432418824
vn -0.03225452452898025 -0.10929867625236512 -0.99348551034927376
vn -0.03987153619527817 -0.09540198743343354 -0.99463999271392816
vn -0.11350830644369126 0.63371098041534424 0.7651968598365784
vn -0.12678758800029754 0.62102925777435304 0.7734647393226624
vn -0.20136007666587828 0.46786147356033328 0.86055785417556768
vn -0.07041329145431519 0.58182412385940552 0.81026083230972288
vn -0.03207895532250404 0.02846062742173671 -0.99908012151718144
vn 0.1044183373451233 0.2344350814819336 -0.96650761365890496
vn -0.33324411511421204 0.71542376279830936 0.61409860849380496
vn -0.1094292774796486 0.76982599496841424 0.62880307435989376
vn -0.08628866821527481 0.35123029351234436 -0.93230444192886352
vn 0.14263518154621124 -0.54198610782623288 -0.82819455862045296
vn 0.14517571032047272 -0.54025208950042728 -0.82888585329055792
vn -0.12240733206272126 0.2462327480316162 0.96144992113113408
vn 0.00454894825816154 0.14361433684825898 0.98962324857711792
vn -0.17243264615535736 0.81215667724609376 0.55737644433975216
vn -0.30064404010772704 0.84699505567550656 0.43842059373855592
vn 0.27298203110694884 -0.57012134790420536 -0.77488225698471072
vn 0.18238765001296996 -0.62224549055099488 -0.761278748512268
vn -0.32757964730262756 0.40684244036674496 -0.85274314880371088
vn -0.37638509273529056 0.37295761704444888 -0.84807842969894416
vn -0.3965260088443756 0.5147279500961304 -0.76014614105224608
vn -0.40557229518890384 0.50600129365921024 -0.76123172044754032
vn -0.41976803541183472 0.6459883451461792 -0.63756871223449704
vn -0.40581426024436952 0.65977114439010624 -0.63246887922286984
vn -0.40785643458366392 0.74237847328186032 -0.53153306245803832
vn -0.4127961993217468 0.73782736063003536 -0.53405064344406128
vn -0.40837830305099488 0.81547057628631584 -0.41016456484794616
vn -0.44279226660728456 0.78558957576751712 -0.4321851134300232
vn -0.42357695102691648 0.90423834323883056 -0.05418223515152931
vn -0.46243637800216672 0.88302618265151984 -0.08010817319154739
vn -0.44429254531860352 0.87679892778396608 0.18392331898212432
vn -0.43011507391929624 0.88195276260375984 0.19277042150497436
vn -0.07281126827001572 0.63413274288177488 0.76978832483291632
vn -0.05169012024998665 0.6192618012428284 0.78348135948181152
vn -0.1328568309545517 0.82454669475555424 0.5499743223190308
vn -0.11203102767467498 0.8156465888023376 0.56759995222091672
# 480 vertex normals

g obj_44386091
s 1
f 1//1 2//1 3//1
f 1//2 3//2 4//2
f 4//3 3//3 5//3
f 4//4 5//4 6//4
f 6//5 5//5 7//5
f 6//6 7//6 8//6
f 8//7 7//7 9//7
f 2//8 1//8 10//8
f 11//9 12//9 13//9
f 11//10 13//10 14//10
f 15//11 16//11 12//11
f 15//12 12//12 11//12
f 17//13 18//13 16//13
f 17//14 16//14 15//14
f 19//15 20//15 21//15
f 19//16 21//16 22//16
f 23//17 24//17 25//17
f 23//18 25//18 26//18
f 27//19 28//19 29//19
f 27//20 29//20 30//20
f 31//21 32//21 33//21
f 31//22 33//22 34//22
f 35//23 36//23 37//23
f 35//24 37//24 38//24
f 39//25 40//25 41//25
f 39//26 41//26 42//26
f 43//27 44//27 45//27
f 43//28 45//28 46//28
f 47//29 48//29 49//29
f 50//30 5//30 3//30
f 50//31 3//31 51//31
f 52//32 2//32 10//32
f 52//33 10//33 53//33
f 54//34 55//34 56//34
f 54//35 56//35 57//35
f 58//36 59//36 60//36
f 61//37 62//37 63//37
f 61//38 63//38 64//38
f 65//39 66//39 67//39
f 65//40 67//40 68//40
f 69//41 70//41 71//41
f 69//42 71//42 72//42
f 73//43 74//43 75//43
f 73//44 75//44 76//44
f 77//45 78//45 79//45
f 77//46 79//46 80//46
f 7//47 81//47 82//47
f 7//48 82//48 9//48
f 15//49 83//49 84//49
f 15//50 84//50 17//50
f 85//51 86//51 87//51
f 85//52 87//52 88//52
f 89//53 90//53 91//53
f 89//54 91//54 92//54
f 93//55 94//55 95//55
f 93//56 95//56 96//56
f 97//57 98//57 99//57
f 97//58 99//58 100//58
f 101//59 102//59 103//59
f 101//60 103//60 104//60
f 105//61 106//61 107//61
f 105//62 107//62 108//62
f 109//63 110//63 111//63
f 112//64 113//64 114//64
f 112//65 114//65 115//65
f 116//66 117//66 118//66
f 116//67 118//67 119//67
f 120//68 121//68 122//68
f 120//69 122//69 123//69
f 124//70 125//70 126//70
f 127//71 128//71 129//71
f 127//72 129//72 130//72
f 131//73 132//73 133//73
f 131//74 133//74 134//74
f 135//75 136//75 137//75
f 135//76 137//76 138//76
f 139//77 140//77 141//77
f 139//78 141//78 142//78
f 143//79 144//79 145//79
f 143//80 145//80 146//80
f 147//81 148//81 149//81
f 147//82 149//82 150//82
f 151//83 152//83 153//83
f 151//84 153//84 154//84
f 155//85 156//85 157//85
f 155//86 157//86 158//86
f 159//87 160//87 161//87
f 159//88 161//88 162//88
f 163//89 164//89 165//89
f 163//90 165//90 166//90
f 167//91 168//91 169//91
f 167//92 169//92 170//92
f 171//93 172//93 173//93
f 171//94 173//94 174//94
f 175//95 176//95 177//95
f 175//96 177//96 178//96
f 179//97 180//97 181//97
f 179//98 181//98 182//98
f 183//99 184//99 185//99
f 183//100 185//100 186//100
f 187//101 188//101 189//101
f 187//102 189//102 190//102
f 191//103 192//103 193//103
f 191//104 193//104 194//104
f 195//105 196//105 197//105
f 195//106 197//106 198//106
f 199//107 200//107 201//107
f 199//108 201//108 202//108
f 203//109 204//109 11//109
f 203//110 11//110 14//110
f 205//111 206//111 79//111
f 205//112 79//112 207//112
f 208//113 209//113 210//113
f 208//114 210//114 211//114
f 58//115 60//115 20//115
f 58//116 20//116 19//116
f 74//117 73//117 28//117
f 74//118 28//118 27//118
f 206//119 205//119 124//119
f 206//120 124//120 212//120
f 213//121 109//121 47//121
f 213//122 47//122 49//122
f 23//123 26//123 36//123
f 23//124 36//124 35//124
f 31//125 34//125 40//125
f 31//126 40//126 39//126
f 214//127 215//127 102//127
f 214//128 102//128 101//128
f 19//129 22//129 216//129
f 19//130 216//130 213//130
f 105//131 108//131 24//131
f 105//132 24//132 23//132
f 152//133 151//133 21//133
f 152//134 21//134 20//134
f 22//135 21//135 25//135
f 22//136 25//136 24//136
f 26//137 25//137 140//137
f 26//138 140//138 139//138
f 217//139 218//139 155//139
f 217//140 155//140 158//140
f 27//141 30//141 192//141
f 27//142 192//142 191//142
f 159//143 162//143 32//143
f 159//144 32//144 31//144
f 212//145 219//145 29//145
f 212//146 29//146 28//146
f 30//147 29//147 33//147
f 30//148 33//148 32//148
f 34//149 33//149 128//149
f 34//150 128//150 127//150
f 121//151 120//151 220//151
f 121//152 220//152 221//152
f 94//153 93//153 222//153
f 94//154 222//154 223//154
f 35//155 38//155 97//155
f 35//156 97//156 100//156
f 136//157 135//157 37//157
f 136//158 37//158 36//158
f 38//159 37//159 43//159
f 38//160 43//160 46//160
f 39//161 42//161 147//161
f 39//162 147//162 150//162
f 132//163 131//163 44//163
f 132//164 44//164 43//164
f 117//165 116//165 41//165
f 117//166 41//166 40//166
f 42//167 41//167 45//167
f 42//168 45//168 44//168
f 46//169 45//169 86//169
f 46//170 86//170 85//170
f 224//171 225//171 113//171
f 224//172 113//172 112//172
f 89//173 92//173 226//173
f 89//174 226//174 227//174
f 54//175 57//175 228//175
f 54//176 228//176 229//176
f 49//177 48//177 230//177
f 49//178 230//178 58//178
f 17//179 84//179 55//179
f 17//180 55//180 54//180
f 11//181 204//181 83//181
f 11//182 83//182 15//182
f 84//183 83//183 52//183
f 84//184 52//184 53//184
f 204//185 203//185 50//185
f 204//186 50//186 51//186
f 73//187 76//187 79//187
f 73//188 79//188 206//188
f 81//189 7//189 5//189
f 81//190 5//190 50//190
f 66//191 65//191 4//191
f 66//192 4//192 6//192
f 51//193 3//193 2//193
f 51//194 2//194 52//194
f 62//195 61//195 10//195
f 62//196 10//196 1//196
f 53//197 10//197 56//197
f 53//198 56//198 55//198
f 57//199 56//199 231//199
f 57//200 231//200 230//200
f 61//201 64//201 59//201
f 61//202 59//202 231//202
f 60//203 59//203 232//203
f 60//204 232//204 233//204
f 65//205 68//205 63//205
f 65//206 63//206 62//206
f 64//207 63//207 187//207
f 64//208 187//208 190//208
f 70//209 69//209 67//209
f 70//210 67//210 66//210
f 68//211 67//211 164//211
f 68//212 164//212 163//212
f 196//213 195//213 75//213
f 196//214 75//214 74//214
f 69//215 72//215 172//215
f 69//216 172//216 171//216
f 234//217 235//217 199//217
f 234//218 199//218 202//218
f 236//219 237//219 175//219
f 236//220 175//220 178//220
f 238//221 239//221 167//221
f 238//222 167//222 170//222
f 240//223 241//223 184//223
f 240//224 184//224 183//224
f 242//225 243//225 244//225
f 242//226 244//226 245//226
f 8//227 9//227 71//227
f 8//228 71//228 70//228
f 72//229 71//229 246//229
f 72//230 246//230 75//230
f 246//231 80//231 79//231
f 246//232 79//232 76//232
f 78//233 77//233 82//233
f 78//234 82//234 211//234
f 208//235 211//235 82//235
f 208//236 82//236 81//236
f 9//237 82//237 77//237
f 9//238 77//238 80//238
f 93//239 96//239 90//239
f 93//240 90//240 89//240
f 85//241 88//241 98//241
f 85//242 98//242 97//242
f 116//243 119//243 87//243
f 116//244 87//244 86//244
f 88//245 87//245 91//245
f 88//246 91//246 90//246
f 92//247 91//247 114//247
f 92//248 114//248 113//248
f 101//249 104//249 95//249
f 101//250 95//250 94//250
f 96//251 95//251 99//251
f 96//252 99//252 98//252
f 100//253 99//253 106//253
f 100//254 106//254 105//254
f 111//255 110//255 103//255
f 111//256 103//256 102//256
f 104//257 103//257 107//257
f 104//258 107//258 106//258
f 108//259 107//259 110//259
f 108//260 110//260 216//260
f 112//261 115//261 122//261
f 112//262 122//262 121//262
f 127//263 130//263 118//263
f 127//264 118//264 117//264
f 119//265 118//265 115//265
f 119//266 115//266 114//266
f 120//267 123//267 126//267
f 120//268 126//268 125//268
f 219//269 126//269 129//269
f 219//270 129//270 128//270
f 130//271 129//271 123//271
f 130//272 123//272 122//272
f 131//273 134//273 148//273
f 131//274 148//274 147//274
f 135//275 138//275 133//275
f 135//276 133//276 132//276
f 134//277 133//277 247//277
f 134//278 247//278 248//278
f 139//279 142//279 137//279
f 139//280 137//280 136//280
f 138//281 137//281 249//281
f 138//282 249//282 250//282
f 151//283 154//283 141//283
f 151//284 141//284 140//284
f 142//285 141//285 145//285
f 142//286 145//286 144//286
f 146//287 145//287 156//287
f 146//288 156//288 155//288
f 251//289 252//289 149//289
f 251//290 149//290 148//290
f 150//291 149//291 160//291
f 150//292 160//292 159//292
f 233//293 181//293 153//293
f 233//294 153//294 152//294
f 154//295 153//295 157//295
f 154//296 157//296 156//296
f 158//297 157//297 181//297
f 158//298 181//298 180//298
f 253//299 254//299 161//299
f 253//300 161//300 160//300
f 162//301 161//301 193//301
f 162//302 193//302 192//302
f 203//303 14//303 209//303
f 203//304 209//304 208//304
f 163//305 166//305 188//305
f 163//306 188//306 187//306
f 183//307 186//307 168//307
f 183//308 168//308 167//308
f 171//309 174//309 165//309
f 171//310 165//310 164//310
f 166//311 165//311 169//311
f 166//312 169//312 168//312
f 170//313 169//313 176//313
f 170//314 176//314 175//314
f 195//315 198//315 173//315
f 195//316 173//316 172//316
f 174//317 173//317 177//317
f 174//318 177//318 176//318
f 178//319 177//319 200//319
f 178//320 200//320 199//320
f 179//321 182//321 185//321
f 179//322 185//322 184//322
f 186//323 185//323 189//323
f 186//324 189//324 188//324
f 190//325 189//325 182//325
f 190//326 182//326 232//326
f 191//327 194//327 197//327
f 191//328 197//328 196//328
f 198//329 197//329 201//329
f 198//330 201//330 200//330
f 202//331 201//331 194//331
f 202//332 194//332 255//332
f 256//333 257//333 210//333
f 256//334 210//334 209//334
f 211//335 210//335 258//335
f 211//336 258//336 78//336
f 210//337 257//337 258//337
f 201//338 197//338 194//338
f 189//339 185//339 182//339
f 200//340 177//340 173//340
f 200//341 173//341 198//341
f 176//342 169//342 165//342
f 176//343 165//343 174//343
f 168//344 186//344 188//344
f 168//345 188//345 166//345
f 14//346 13//346 256//346
f 14//347 256//347 209//347
f 161//348 254//348 193//348
f 157//349 153//349 181//349
f 160//350 149//350 252//350
f 160//351 252//351 253//351
f 156//352 145//352 141//352
f 156//353 141//353 154//353
f 144//354 249//354 137//354
f 144//355 137//355 142//355
f 250//356 247//356 133//356
f 250//357 133//357 138//357
f 148//358 134//358 248//358
f 148//359 248//359 251//359
f 129//360 126//360 123//360
f 118//361 130//361 122//361
f 118//362 122//362 115//362
f 107//363 103//363 110//363
f 106//364 99//364 95//364
f 106//365 95//365 104//365
f 114//366 91//366 87//366
f 114//367 87//367 119//367
f 98//368 88//368 90//368
f 98//369 90//369 96//369
f 80//370 246//370 71//370
f 80//371 71//371 9//371
f 179//372 184//372 241//372
f 179//373 241//373 243//373
f 167//374 239//374 240//374
f 167//375 240//375 183//375
f 175//376 237//376 238//376
f 175//377 238//377 170//377
f 199//378 235//378 236//378
f 199//379 236//379 178//379
f 172//380 72//380 75//380
f 172//381 75//381 195//381
f 164//382 67//382 69//382
f 164//383 69//383 171//383
f 187//384 63//384 68//384
f 187//385 68//385 163//385
f 232//386 59//386 64//386
f 232//387 64//387 190//387
f 231//388 56//388 10//388
f 231//389 10//389 61//389
f 4//390 65//390 62//390
f 4//391 62//391 1//391
f 8//392 70//392 66//392
f 8//393 66//393 6//393
f 50//394 203//394 208//394
f 50//395 208//395 81//395
f 52//396 83//396 204//396
f 52//397 204//397 51//397
f 55//398 84//398 53//398
f 230//399 48//399 228//399
f 230//400 228//400 57//400
f 54//401 229//401 18//401
f 54//402 18//402 17//402
f 92//403 113//403 225//403
f 92//404 225//404 226//404
f 45//405 41//405 116//405
f 45//406 116//406 86//406
f 131//407 147//407 42//407
f 131//408 42//408 44//408
f 43//409 37//409 135//409
f 43//410 135//410 132//410
f 85//411 97//411 38//411
f 85//412 38//412 46//412
f 227//413 222//413 93//413
f 227//414 93//414 89//414
f 220//415 120//415 125//415
f 33//416 29//416 219//416
f 33//417 219//417 128//417
f 162//418 192//418 30//418
f 162//419 30//419 32//419
f 146//420 155//420 218//420
f 146//421 218//421 259//421
f 25//422 21//422 151//422
f 25//423 151//423 140//423
f 108//424 216//424 22//424
f 108//425 22//425 24//425
f 102//426 215//426 111//426
f 40//427 34//427 127//427
f 40//428 127//428 117//428
f 150//429 159//429 31//429
f 150//430 31//430 39//430
f 36//431 26//431 139//431
f 36//432 139//432 136//432
f 100//433 105//433 23//433
f 100//434 23//434 35//434
f 223//435 214//435 101//435
f 223//436 101//436 94//436
f 121//437 221//437 224//437
f 121//438 224//438 112//438
f 202//439 255//439 260//439
f 202//440 260//440 234//440
f 245//441 217//441 242//441
f 212//442 28//442 73//442
f 212//443 73//443 206//443
f 74//444 27//444 191//444
f 74//445 191//445 196//445
f 233//446 152//446 20//446
f 233//447 20//447 60//447
f 213//448 49//448 58//448
f 213//449 58//449 19//449
f 207//450 79//450 78//450
f 207//451 78//451 258//451
f 58//452 230//452 231//452
f 58//453 231//453 59//453
f 75//454 246//454 76//454
f 126//455 219//455 212//455
f 126//456 212//456 124//456
f 109//457 213//457 216//457
f 109//458 216//458 110//458
f 181//459 233//459 232//459
f 181//460 232//460 182//460
f 193//461 261//461 255//461
f 193//462 255//462 194//462
f 235//463 262//463 263//463
f 235//464 263//464 236//464
f 236//465 263//465 264//465
f 236//466 264//466 237//466
f 237//467 264//467 265//467
f 237//468 265//468 238//468
f 238//469 265//469 266//469
f 238//470 266//470 239//470
f 239//471 266//471 267//471
f 239//472 267//472 240//472
f 240//473 267//473 268//473
f 240//474 268//474 241//474
f 241//475 268//475 244//475
f 241//476 244//476 243//476
f 217//477 158//477 180//477
f 217//478 180//478 242//478
f 242//479 180//479 179//479
f 242//480 179//480 243//480
#480 polygons

