# Aspose.3D Wavefront OBJ Exporter
# Copyright 2004-2022 Aspose Pty Ltd.
# File created: 06/23/2022 13:47:35


#
# object obj_53412310
#

v 2.18044281005859376 1.25146484375 -2.35188293457031248
v 1.96726989746093744 2.18342590332031248 -0.50841522216796872
v 5.1065673828125 2.59352111816406248 -1.23280334472656248
v 5.33150482177734376 1.80107116699218752 -2.83004760742187504
v 9.44478607177734376 3.1475982666015625 -2.32022857666015624
v 11.66445922851562496 3.28681945800781248 -2.78382873535156256
v 11.71823120117187504 2.94563293457031248 -3.42781829833984376
v 9.55935668945312496 2.65542602539062496 -3.28020477294921876
v 0.82774353027343744 2.77783203125 3.02809906005859375
v 0.43585205078125 2.55487060546875 1.72133636474609376
v -0.321868896484375 2.28399658203125 1.92049407958984368
v 0.61737060546875 2.51087951660156248 3.34127044677734376
v 0.033599853515625 1.91114807128906256 -0.1476287841796875
v 0.10279083251953124 0.99066162109375008 -1.85663604736328128
v -0.86362457275390624 0.6839599609375 -1.49947357177734376
v -0.86250305175781248 1.59628295898437504 0.14789581298828124
v 0.64482116699218752 -0.21356201171875 -3.40821075439453128
v 1.20786285400390624 -1.14215087890625 -4.40011596679687504
v 0.90281677246093744 -1.47605895996093752 -4.273223876953125
v -0.31626892089843752 -0.45054626464843752 -3.02053070068359375
v 2.165313720703125 2.55793762207031248 4.10235595703125
v 1.9541015625 2.27362060546875 4.41860961914062496
v 3.8844070434570312 2.42938232421875 4.45838928222656248
v 3.89505004882812496 2.69044494628906248 4.00011444091796875
v 3.13144683837890624 -2.0853118896484375 -5.35589599609375
v 4.81439971923828128 -1.96514892578124992 -5.66989898681640624
v 4.77687072753906256 -2.37469482421875 -5.7564620971679688
v 2.80230712890624992 -2.39009094238281248 -5.25672912597656248
v 11.47173309326171872 3.50950622558593752 -2.0011749267578125
v 9.51341247558593752 3.53781127929687504 -0.78769683837890624
v 11.102813720703125 3.57563781738281248 -0.6414794921875
v 2.101165771484375 2.73190307617187504 1.551025390625
v 2.35523223876953124 2.91117858886718752 2.94882202148437504
v 4.0821685791015625 3.0414276123046875 2.84909820556640624
v 4.79255676269531248 3.15740966796875 1.70957183837890624
v 4.98191833496093744 -0.93569946289062496 -5.33487701416015624
v 3.30204010009765624 -1.0600738525390625 -5.01778411865234375
v 2.73451995849609376 -0.0687408447265625 -3.9877853393554688
v 5.39900970458984376 -0.0768585205078125 -4.81134033203124992
v 7.89235687255859376 -1.0600738525390625 -5.75001525878906256
v 10.37618255615234376 0.283660888671875 -5.36512756347656248
v 10.4781494140625 0.25788879394531248 -5.4267578125
v 8.49237823486328128 -1.0160980224609375 -5.84638214111328128
v 7.74838256835937504 3.30279541015625 2.62164306640625
v 8.15819549560546876 3.1543121337890625 2.89979553222656256
v 10.55125427246093752 3.47645568847656248 1.33785247802734376
v 9.21004486083984376 3.53219604492187504 1.53421783447265624
v 9.63666534423828128 1.97502136230468752 -4.0858306884765625
v 11.63644409179687504 2.47698974609375 -3.93568420410156256
v 11.19496917724609376 1.60273742675781248 -4.57799530029296872
v 9.63638305664062496 1.33607482910156248 -4.68471527099609376
v 5.54916381835937504 0.61027526855468752 -4.1998291015625
v 5.05054473876953125 3.030517578125 0.57144927978515624
v -0.173126220703125 1.92544555664062496 2.145721435546875
v 0.77199554443359376 2.135528564453125 3.56732940673828128
v -0.71599578857421872 0.32763671875 -1.277069091796875
v -0.72299957275390624 1.23101806640625 0.37816619873046872
v 1.04651641845703125 -1.77018737792968752 -4.1110382080078125
v -0.15856170654296876 -0.79061889648437504 -2.82024383544921872
v 2.11153411865234376 1.85765075683593744 4.63990020751953128
v 4.0412750244140625 1.99575805664062496 4.67996215820312496
v 7.92793273925781248 -0.64859008789062496 -5.66317749023437504
v 4.84634399414062496 -2.57635498046875 -5.683349609375
v 2.89698791503906256 -2.62342834472656248 -5.152801513671875
v 9.23441314697265624 0.21025085449218752 -5.41358947753906248
v 4.71804046630859376 1.96492004394531248 4.7177734375
v 8.44952392578125 3.0492706298828125 3.10820770263671876
v 5.42955017089843752 -2.52203369140625 -5.76934814453124992
v 10.64369964599609376 3.51483154296875 1.40704345703125
v 11.20758056640625 3.62435913085937504 -0.61066436767578128
v 11.57144927978515624 3.57170104980468752 -1.98492431640624992
v 11.75492858886718752 3.35797119140625 -2.78578948974609376
v 11.80563354492187504 2.99717712402343744 -3.47488403320312496
v 11.7356033325195312 2.50135803222656248 -3.99787139892578128
v 11.2935791015625 1.59489440917968752 -4.64550018310546872
v 23.18549728393554688 7.41775512695312496 -2.48914337158203128
v 23.4544105529785156 7.50065612792968752 -2.43816375732421872
v 23.84237670898437504 6.79280090332031248 -4.23176574707031248
v 23.5745811462402344 6.70176696777343752 -4.25921630859375
v 24.21633529663085936 5.76559448242187504 -5.95338439941406256
v 23.9471435546875 5.71180725097656248 -5.91445159912109376
v 24.56816482543945312 4.46893310546875 -7.49880981445312496
v 24.30037689208984376 4.41401672363281248 -7.4595947265625
v 24.71858978271484376 2.84281921386718752 -8.67839050292968752
v 24.45051956176757816 2.79129028320312496 -8.64113616943359376
v 23.0205078125 7.47349548339843752 -0.41289520263671872
v 23.30875015258789064 7.55220031738281248 -0.43923187255859376
v 23.21743011474609376 6.99812316894531248 1.9815673828125
v 24.71775054931640624 0.9063720703125 -9.60194396972656248
v -0.80311584472656256 0.050323486328125 -1.11655426025390624
v -0.8115158081054688 0.96630859375 0.58040618896484376
v 22.27202606201171876 3.138641357421875 6.20997619628906248
v 18.23577880859375 2.276702880859375 6.69878387451171872
v 18.08115386962890625 -0.38107299804687504 7.8948898315429688
v 22.0776214599609375 0.36378479003906248 7.46771240234375
v 21.11737060546875 -5.28678894042968752 7.72345733642578128
v 21.52943038940429688 -2.78533935546875008 8.110870361328125
v 17.60298919677734376 -3.43829345703125 8.51619720458984376
v 17.2041015625 -5.80839538574218752 8.122344970703125
v 2.35523223876953124 -0.244659423828125 6.68954467773437504
v 2.62554931640625 -1.68222045898437504 7.15201568603515624
v 5.54832458496093752 -1.63180541992187504 7.85176086425781248
v 5.33795166015625 -0.013275146484375 7.29039764404296876
v 13.60764312744140624 1.3170166015625 7.21784973144531248
v 9.30472564697265624 0.55732727050781248 7.41448974609375
v 9.34197998046875 -1.43403625488281248 8.29294586181640624
v 13.52752685546875 -1.0208587646484375 8.31003570556640624
v 12.96141052246093744 -5.95152282714843744 8.38426208496093752
v 13.26673889160156248 -3.76322937011718752 8.81228637695312496
v 9.2901611328125 -3.8416748046875 8.66297912597656248
v 9.12880706787109376 -5.77981567382812496 8.25289154052734376
v 0.35630035400390624 -0.1065673828125 5.60575866699218752
v -1.035614013671875 -0.31105041503906248 4.1370849609375
v -0.89527893066406256 -1.72901916503906256 4.84999084472656256
v 0.57451629638671872 -1.55616760253906248 6.19596099853515624
v -1.82331085205078128 -0.85334777832031248 2.27793884277343752
v -1.97402191162109376 -1.72955322265624992 0.31737518310546876
v -2.0193939208984375 -2.9920654296875 1.21543884277343752
v -1.77877044677734368 -2.19737243652343752 3.11128997802734376
v 8.0282135009765625 -5.319854736328125 -7.0741424560546875
v 12.21180725097656248 -5.0338592529296875 -8.16184234619140624
v 11.77313995361328128 -6.69917297363281248 -7.42456817626953128
v 7.68087005615234376 -6.69554138183593752 -6.38924407958984376
v 17.39205932617187504 -4.1472930908203125 -9.44563293457031248
v 22.22664642333984376 -3.51869201660156248 -10.0588226318359375
v 21.20981597900390624 -5.42182922363281248 -9.1358184814453125
v 16.63938140869140624 -5.99020385742187504 -8.61452484130859376
v 15.57492065429687504 -8.95050048828124992 -5.022552490234375
v 15.92843627929687504 -7.62077331542968752 -7.0357666015625
v 20.32659149169921876 -6.94204711914062496 -7.42485046386718752
v 19.86187744140624992 -8.25047302246093752 -5.34915924072265624
v 16.87972259521484368 -7.49667358398437504 6.70915222167968752
v 16.58811950683593752 -8.86421203613281248 5.23040008544921876
v 20.57225799560546872 -8.48381042480468752 4.82450103759765632
v 20.7938308715820312 -7.110107421875 6.29961395263671876
v 12.61489868164062496 -7.59695434570312496 7.01979827880859375
v 8.85540771484375008 -7.24736022949218752 7.05957794189453125
v 8.53523254394531248 -8.54124450683593752 5.7659912109375
v 12.26306915283203124 -8.9757080078125 5.61107635498046872
v 8.16239166259765624 -9.65724182128906248 4.37295532226562496
v 7.82905578613281248 -10.19255065917968752 2.68074798583984376
v 11.60086822509765624 -10.63934326171875 2.38437652587890624
v 11.90956115722656256 -10.0939483642578125 4.16229248046875
v 15.57520294189453128 -9.97431945800781248 -2.57542419433593752
v 19.819580078125 -9.35469055175781248 -2.9110031127929688
v 19.95123291015624992 -9.8939208984375 -0.63587188720703128
v 15.72759246826171872 -10.47238159179687504 -0.28739929199218752
v 16.318359375 -9.90570068359375008 3.67965698242187504
v 16.034881591796875 -10.4432373046875 1.83955383300781248
v 20.24983978271484376 -9.87432861328124992 1.47650909423828128
v 20.45796966552734376 -9.40428161621093752 3.29532623291015624
v 22.52973556518554688 5.61349487304687504 4.29535675048828124
v 21.41542053222656248 6.77542114257812496 2.35328674316406248
v 18.174713134765625 5.95411682128906256 2.92781066894531248
v 18.0640716552734375 4.53419494628906248 4.92506408691406256
v 22.15522003173828124 6.69728088378906248 -4.23625183105468752
v 22.49052047729492184 5.70368957519531248 -5.89792633056640624
v 23.48746871948242184 -1.24580383300781248 -10.18711090087890624
v 18.18115997314453124 -2.091766357421875 -9.52183532714843752
v 18.7960205078125 -0.1471710205078125 -9.14478302001953124
v 22.54374313354492184 0.57077026367187504 -9.60558319091796872
v 13.09222412109375 -1.72479248046875008 -7.89349365234375008
v 12.76055908203124992 -3.29795837402343752 -8.230194091796875
v 8.48621368408203128 -3.937744140625 -7.16910552978515624
v 9.23049163818359376 -2.79991149902343744 -7.11615753173828124
v 9.169708251953125 2.1310272216796875 6.0236968994140625
v 13.50456237792968752 3.24957275390625 5.53600311279296872
v 13.37767028808593752 4.32914733886718752 3.98414611816406256
v 9.68540954589843752 3.12744140625 4.8822021484375
v 5.70658874511718752 -5.30278015136718752 7.72906494140624992
v 5.68837738037109376 -3.69010925292968752 8.06856536865234375
v 2.92611694335937504 -3.53129577636718752 7.34193420410156248
v 3.38243103027343752 -4.83160400390624992 7.31952667236328124
v 5.40517425537109376 -7.57231140136718752 5.69063568115234376
v 5.61358642578125 -6.46919250488281248 6.83436584472656256
v 3.37374877929687504 -5.84341430664062496 6.57244873046875
v 2.83676147460937504 -6.39665222167968752 5.62171936035156248
v -0.41346740722656248 -3.43913269042968752 5.31919097900390624
v 0.82830047607421872 -4.99661254882812496 5.57718658447265624
v 1.53083801269531248 -4.60330200195312496 6.52958679199218752
v 1.005615234375 -3.337738037109375 6.49654388427734376
v 4.72392272949218752 -9.118560791015625 2.7000732421875
v 5.087799072265625 -8.6146240234375 4.29815673828125
v 2.38184356689453128 -7.23670959472656248 4.229248046875
v 2.01461029052734375 -7.76026916503906256 2.68157958984375
v -1.34038543701171876 -3.83830261230468752 3.81214904785156256
v -1.63871002197265624 -4.52180480957031248 2.1544036865234375
v -0.29805755615234376 -6.1106414794921875 2.64292907714843752
v 0.04732513427734375 -5.51622009277343752 4.18750762939453124
v 1.73588562011718752 -7.96699523925781248 0.97621917724609376
v 1.8162841796875 -8.12890625 -0.20925140380859376
v 4.034271240234375 -8.88438415527343744 -0.66387939453125
v 4.31439208984375 -9.0908355712890625 0.8933029174804688
v 11.336151123046875 -10.61552429199218752 0.28599548339843752
v 7.53240966796875 -10.1505279541015625 0.68994140625
v 7.37469482421875 -9.858642578125 -1.25689697265625
v 11.22522735595703124 -10.225311279296875 -1.90145111083984368
v 2.93984222412109376 -2.87358093261718752 -5.179412841796875
v 13.51436614990234376 4.0910491943359375 -3.041259765625
v 13.66366577148437504 3.57589721679687504 -4.008514404296875
v 11.85353088378906256 3.092681884765625 -3.57265472412109376
v 11.8115158081054688 3.50025939941406248 -2.81015777587890624
v 1.01682281494140625 -2.069915771484375 -4.07798004150390625
v -0.22830963134765624 -1.0945281982421875 -2.72276306152343744
v -1.51126098632812496 -0.74075317382812496 -0.54315948486328128
v -1.47008514404296872 0.197113037109375 1.32048034667968752
v -1.132537841796875 0.80299377441406256 0.75379943847656256
v -1.11797332763671876 -0.146331787109375 -1.02075958251953125
v 2.121337890625 0.7867431640625 5.95534515380859376
v 5.50041961669921872 1.96604919433593744 5.48307037353515624
v 4.73625183105468752 1.83802795410156256 5.179412841796875
v 2.04962158203125 1.38703918457031248 5.38137817382812496
v -0.83785247802734368 0.81979370117187504 3.18299865722656248
v 0.35966491699218752 1.0142059326171875 4.72898101806640624
v 0.48375701904296872 1.66856384277343752 4.1359710693359375
v -0.57733917236328128 1.47471618652343752 2.59530639648437504
v -0.25828552246093752 1.65428161621093752 2.37065124511718752
v 0.72773742675781248 1.85260009765624992 3.83232116699218752
v 2.14318084716796876 1.56211853027343752 4.96176147460937504
v 24.16367340087890624 -8.81687927246093744 1.31208038330078124
v 26.29286575317382812 -8.009002685546875 1.23757171630859376
v 26.27717590332031248 -7.72048950195312496 2.85749816894531248
v 24.22978210449218752 -8.46475219726562496 3.03173828125
v 24.163116455078125 -7.71434020996093752 4.41328430175781248
v 26.11359024047851562 -7.0890960693359375 4.105712890625
v 26.23852157592773436 -5.69773864746093752 5.41751098632812496
v 24.32782745361328124 -6.31260681152343752 5.80155944824218752
v 23.98159790039062496 -8.78408813476562496 -0.7479171752929688
v 23.99588394165039056 -8.282684326171875 -2.89924621582031248
v 26.25308609008789064 -7.47146606445312496 -2.81352996826171872
v 26.15644454956054688 -7.94793701171875008 -0.76080322265624992
v 24.22081756591796876 -7.315704345703125 -5.1348724365234375
v 24.7597694396972656 -6.19944763183593752 -7.15174102783203124
v 26.9427452087402344 -5.74592590332031248 -6.59709930419921872
v 26.57186508178710936 -6.57450866699218752 -4.92646026611328128
v 6.11107635498046876 -3.0699462890625 -6.31922912597656248
v 5.34046936035156248 -4.008056640625 -6.34134674072265624
v 3.1179962158203125 -3.65904235839843752 -5.56065368652343752
v -0.95381927490234368 -1.98782348632812496 -2.40483093261718752
v -0.53420257568359376 -1.37269592285156248 -2.72892761230468752
v 0.81541442871093744 -2.36767578125 -4.17125701904296876
v 0.90169525146484368 -2.90913391113281248 -4.35557556152343752
v 4.35612487792968752 -5.97926330566406256 -5.53321075439453128
v 2.58633422851562496 -4.45260620117187504 -5.38053894042968752
v 4.8337326049804688 -4.9954833984375 -6.18980407714843752
v -0.58714294433593752 -3.90806579589843744 -3.21745300292968752
v -0.210662841796875 -4.68229675292968752 -3.18663787841796876
v -0.57089996337890624 -5.27336120605468752 -2.1527252197265625
v -1.60790252685546872 -4.1133880615234375 -0.83111572265624992
v -0.20030212402343752 -6.78152465820312496 0.94651794433593744
v -1.31657409667968752 -5.49942016601562496 0.34566497802734376
v -0.36612701416015624 -6.40280151367187504 -0.9893798828125
v 0.0655364990234375 -7.17620849609375 -0.2347412109375
v 1.08573150634765625 -6.47311401367187504 -2.75218200683593744
v 1.49106597900390624 -6.0624542236328125 -3.65052032470703128
v 3.91242218017578128 -6.95182800292968752 -4.36790466308593752
v 3.11100006103515624 -7.41598510742187504 -3.41045379638671872
v 1.59330749511718752 -7.83280944824218752 -1.22943878173828124
v 1.202545166015625 -7.242889404296875 -1.8513107299804688
v 3.18438720703125 -8.00396728515625 -2.64236450195312496
v 3.88076782226562496 -8.50901794433593752 -1.97737121582031248
v 11.44539642333984376 -8.28996276855468752 -6.02313232421875
v 6.74050903320312496 -8.73255920410156256 -4.111602783203125
v 7.44081115722656248 -8.066436767578125 -5.1222686767578125
v 21.51234436035156248 7.40907287597656248 -0.26695251464843752
v 21.78742218017578128 7.3824462890625 -2.44319915771484376
v 18.86408996582031248 6.59474182128906248 -2.22975921630859376
v 17.74501037597656256 6.50173950195312496 -0.69329833984375
v 13.35133361816406248 4.39497375488281248 -1.93646240234375008
v 11.66165161132812496 3.72660827636718752 -1.88380432128906256
v 11.30197906494140624 3.78096008300781248 -0.3848876953125
v 13.0546875 4.49021911621093752 -0.64091491699218752
v 9.34141540527343752 3.18653869628906248 3.83791351318359376
v 12.46699523925781248 4.36360168457031248 1.49527740478515624
v 10.7299728393554688 3.66275024414062496 1.69052124023437504
v 8.54167938232421872 3.0170745849609375 3.54323577880859376
v 11.36528778076171872 1.5089111328125 -4.88613128662109376
v 11.79386901855468752 2.49716186523437504 -4.1785430908203125
v 13.67879486083984376 2.72770690917968752 -4.89340972900390624
v 13.31211853027343752 1.90777587890624992 -5.47550201416015624
v 9.22041320800781248 -1.60043334960937504 -6.41922760009765624
v 12.51825714111328128 0.49234008789062496 -6.31362152099609376
v 13.20091247558593752 -0.31719970703125 -7.15032958984375
v 22.73338317871093744 2.69548034667968752 -8.61367797851562496
v 19.14952850341796876 1.68089294433593752 -8.30611419677734376
v 18.542236328125 2.69241333007812496 -7.41841125488281248
v 5.0600738525390625 1.16156005859375 6.38756561279296872
v -0.02074432373046875 -2.97273254394531248 -3.77097320556640624
v -1.486328125 -2.945556640625 -1.74710845947265632
v 24.70514678955078128 -4.229644775390625 7.20131683349609376
v 25.09311294555664062 -1.65980529785156248 7.61338043212890624
v 11.26332092285156248 -9.46534729003906248 -4.18135070800781248
v 26.64889907836914064 -3.050323486328125 -9.95769500732421872
v 25.60488891601562496 -4.91816711425781248 -8.95121765136718752
v 18.38900756835937504 6.5308837890625 0.73699188232421872
v 22.79136657714843744 4.38880920410156248 -7.42989349365234376
v 19.177825927734375 6.0387115478515625 -3.85416412353515632
v 19.43105316162109376 5.15185546875 -5.36961364746093752
v 13.22808074951171876 4.5616455078125 2.55581665039062496
v 7.36349487304687504 -9.31494140625 -3.15555572509765624
v 5.53347015380859376 -2.781982421875 -5.97074890136718752
v 8.62767791748046872 -1.301544189453125 -6.06235504150390625
v 2.93003845214843744 -3.134918212890625 -5.3421630859375
v 26.63041305541992184 -3.54641723632812496 6.7705001831054688
v 27.75929260253906256 -4.58370971679687504 -8.43832397460937504
v 1.65969848632812496 -4.51591491699218752 -4.79312896728515632
v 2.03897857666015625 -5.28822326660156248 -4.76512145996093744
v 10.57254791259765624 0.130157470703125 -5.70156097412109376
v 19.60585021972656248 3.91905212402343744 -6.76433563232421872
v 24.6062660217285156 -1.1127471923828125 -10.18907165527343752
v 25.7539176940917968 1.18817138671875 -9.86553955078124992
# 311 vertices

vn -0.21860916912555696 0.8604408502578736 -0.46027329564094544
vn -0.21975246071815492 0.86123603582382208 -0.45823732018470768
vn -0.1531391441822052 0.86787581443786624 -0.47258856892585752
vn -0.14910197257995606 0.87257951498031616 -0.4651596248149872
vn -0.34889766573905944 0.93554604053497312 -0.05499136075377464
vn -0.58347141742706296 0.76836341619491584 0.26301875710487364
vn -0.41599285602569584 0.79348510503768928 -0.44422000646591184
vn -0.42322483658790592 0.79271811246871952 -0.43872392177581784
vn -0.65006202459335328 0.33460515737533568 -0.68224537372589112
vn -0.42727777361869816 0.44997954368591312 -0.78418880701065056
vn -0.07496456056833267 0.76594012975692752 0.6385265588760376
vn -0.0373464860022068 0.86866945028305056 0.49398228526115416
vn -0.19407299160957336 0.21985468268394472 -0.9560332298278808
vn -0.2446599155664444 -0.05083538219332695 -0.9682754278182984
vn -0.01882372982800006 0.99838149547576912 -0.05366569012403488
vn -0.08117753267288208 0.99035704135894768 -0.11226402968168258
vn -0.15633517503738404 0.98769932985305792 0.00306859100237488
vn -0.18675926327705384 0.65439200401306152 -0.73272913694381712
vn -0.23742209374904632 0.58707934617996216 -0.77393060922622688
vn -0.2534581422805786 0.66871523857116696 -0.69898414611816408
vn -0.17192000150680542 0.53946906328201296 -0.82426744699478144
vn 0.10158486664295196 0.93202513456344608 0.34786441922187804
vn 0.08528489619493484 0.94554936885833744 0.31410655379295348
vn -0.09740381687879562 0.62073928117752072 -0.77794301509857184
vn -0.06689941883087158 0.68234717845916752 -0.72796070575714112
vn -0.0933270901441574 0.98571556806564336 -0.14019566774368286
vn -0.1157940924167633 0.98764133453369136 -0.1056237667798996
vn -0.21775272488594056 0.86065351963043216 -0.46028178930282592
vn -0.20849698781967164 0.85751897096633904 -0.47030854225158688
vn -0.24254921078681944 0.62876248359680176 -0.73880147933959968
vn -0.24726995825767516 0.63335925340652464 -0.73328953981399536
vn -0.19864286482334136 0.33237537741661072 -0.9219911098480224
vn -0.19588054716587068 0.33637225627899168 -0.92113214731216432
vn -0.2251698523759842 0.7173132300376892 -0.65936350822448728
vn -0.22323372960090636 0.72022402286529544 -0.65684401988983152
vn -0.17542578279972076 0.95556765794754032 -0.23688893020153044
vn -0.18041238188743592 0.9533150792121888 -0.24216048419475556
vn -0.22470533847808836 0.85993045568466192 -0.45828714966773984
vn -0.22265927493572236 0.85648137331008912 -0.46568506956100464
vn -0.05663682520389557 0.95751410722732544 0.28277018666267396
vn -0.05579903721809387 0.95721793174743648 0.28393730521202088
vn -0.269301176071167 0.81469845771789552 0.5135594010353088
vn -0.2903287410736084 0.79990321397781376 0.52522754669189456
vn -0.38879448175430296 0.89272606372833248 -0.22776977717876436
vn -0.38019105792045592 0.89662081003189088 -0.2269931733608246
vn -0.83422017097473152 0.00031615974148735404 0.55143147706985472
vn -0.83212292194366448 -0.00882509350776672 0.55452096462249752
vn -0.41657352447509768 0.65048897266387936 -0.63508307933807376
vn -0.43715107440948488 0.630110502243042 -0.64176291227340696
vn -0.94329321384429936 -0.2901286482810974 0.16131715476512908
vn -0.95131981372833248 -0.27221110463142396 0.14453993737697602
vn -0.40165325999259952 0.13924773037433624 -0.9051434993743896
vn -0.42627561092376712 0.04611214250326157 -0.9034172892570496
vn -0.77735042572021488 -0.54906791448593136 -0.30700305104255676
vn -0.77795708179473872 -0.54495936632156376 -0.31273305416107176
vn -0.05010432377457619 0.44001394510269168 0.89659208059310912
vn -0.05486946925520897 0.45269027352333072 0.8899779915809632
vn 0.03337978571653366 0.86808508634567264 0.49529191851615904
vn 0.01874797046184539 0.8932328820228576 0.4492032527923584
vn -0.08784548938274384 0.21295481920242308 -0.97310501337051392
vn -0.08827304840087891 0.21372412145137788 -0.97289764881134032
vn -0.22204415500164032 -0.39903831481933592 -0.88964307308197024
vn -0.22117085754871368 -0.47027188539505008 -0.85435807704925536
vn -0.08009923249483109 0.99160355329513552 0.10152097791433334
vn -0.06731757521629333 0.99596166610717776 0.05940369144082069
vn -0.08895017206668854 0.98748171329498288 -0.13025987148284912
vn -0.11679846048355102 0.99307239055633552 -0.01285860408097505
vn -0.16887615621089936 0.57152318954467776 -0.80302059650421136
vn -0.14288647472858428 0.4704231023788452 -0.87079596519470208
vn -0.20199447870254516 0.66981422901153568 -0.71452575922012328
vn -0.20571324229240416 0.67528796195983888 -0.70828545093536376
vn -0.17838555574417114 0.93396252393722528 -0.30966520309448244
vn -0.1107274666428566 0.96429520845413216 -0.24057035148143768
vn 0.00577654642984271 0.82308107614517216 0.56789451837539672
vn -0.03450964391231537 0.87224143743515008 0.48785653710365296
vn -0.17273566126823426 0.30338111519813536 -0.93708175420761104
vn -0.16609875857830048 0.29226309061050416 -0.9418032765388488
vn -0.1443181037902832 0.73869723081588752 -0.65840619802474976
vn -0.13966578245162964 0.74984872341156 -0.64669960737228392
vn 0.05080510675907135 0.99664956331253056 0.06409832835197449
vn -0.02372972480952739 0.99971818923950192 -0.00068270310293883
vn -0.03195498138666153 0.52672022581100464 -0.84943789243698128
vn 0.00070384435821324 0.54328417778015136 -0.83954858779907232
vn -0.16866114735603332 0.57740467786788944 -0.7988474369049072
vn 0.12802352011203766 -0.29876193404197692 -0.94570153951644896
vn 0.21862275898456572 0.50556701421737672 0.83462935686111456
vn -0.58506286144256592 -0.591672956943512 -0.5546391010284424
vn -0.576391875743866 -0.51607924699783328 -0.63358867168426512
vn -0.91446214914321904 -0.4028445482254028 -0.03840728849172592
vn -0.90517765283584592 -0.42494285106658936 -0.00877930875867605
vn -0.92231386899948128 -0.1623222529888153 0.3506973087787628
vn -0.93016284704208368 -0.14173763990402222 0.33868515491485596
vn -0.58805835247039792 0.19502252340316772 0.78495448827743536
vn -0.58646327257156376 0.22672365605831148 0.77759706974029536
vn -0.05066077411174774 0.95755767822265632 0.28375494480133056
vn -0.1812676042318344 0.95449608564376832 -0.23681077361106872
vn -0.18017439544200896 0.95511978864669792 -0.23512430489063264
vn -0.22142077982425688 0.71826595067977904 -0.65959602594375608
vn -0.21696220338344572 0.73542368412017824 -0.64193403720855712
vn -0.13605649769306182 0.32653552293777464 -0.93534117937088016
vn -0.2781270742416382 0.34226304292678832 -0.89749729633331296
vn -0.2461562603712082 0.71181392669677736 -0.65782070159912112
vn -0.22951972484588624 0.72842675447463984 -0.64553469419479368
vn -0.06892465800046921 0.95701920986175536 0.28171542286872864
vn -0.1274164468050003 0.96047025918960576 -0.2475116103887558
vn -0.18546228110790252 0.94069153070449824 -0.2840832769870758
vn 0.0797453373670578 0.930499255657196 0.35750773549079896
vn -0.25174370408058168 0.94896441698074336 -0.18997806310653688
vn 0.05423895642161369 0.20169217884540556 -0.9779460430145264
vn 0.02653074823319912 0.22963277995586396 -0.9729157090187072
vn -0.21599335968494416 0.67502713203430176 -0.70546811819076536
vn -0.14638461172580718 0.97893559932708736 -0.14232619106769562
vn -0.40445944666862488 0.91209822893142704 -0.06700220704078674
vn -0.3522886037826538 0.93467426300048832 -0.04771558940410614
vn -0.49995765089988712 0.84779351949691776 -0.1768852174282074
vn -0.38436195254325864 0.91299754381179808 -0.13675287365913392
vn -0.58334368467330936 0.732022762298584 -0.35192745923995972
vn -0.46150988340377808 0.82509356737136848 -0.32592830061912536
vn -0.61672878265380856 0.67311811447143552 -0.40811458230018616
vn -0.56822025775909424 0.71107947826385496 -0.41411563754081728
vn -0.50437599420547488 0.67355179786682128 -0.54030799865722656
vn -0.62336862087249752 0.60742032527923584 -0.49239423871040344
vn -0.38526803255081176 0.66477864980697632 -0.64002954959869384
vn -0.51179546117782592 0.65050208568573 -0.561170756816864
vn -0.28752461075782776 0.61607670783996584 -0.73333418369293216
vn -0.40274056792259216 0.63233089447021488 -0.66178363561630248
vn -0.20085708796977996 0.89561301469802864 -0.39690530300140384
vn -0.25553569197654724 0.87542784214019776 -0.4102773368358612
vn -0.22232614457607268 0.815259337425232 -0.53471791744232176
vn -0.23930321633815764 0.80861222743988032 -0.53747582435607912
vn -0.24263678491115572 0.71482408046722416 -0.65586119890213016
vn -0.2380090355873108 0.7166950702667236 -0.65551489591598512
vn -0.23106521368026732 0.55719333887100216 -0.79758667945861824
vn -0.21879348158836364 0.56104797124862672 -0.79834491014480592
vn -0.28586262464523316 0.95704698562622064 -0.04840965569019318
vn -0.26691231131553648 0.96270328760147088 -0.04427380114793777
vn -0.23991718888282776 0.94825160503387456 0.20798721909523012
vn -0.20382274687290192 0.42151430249214176 -0.883618712425232
vn -0.96496111154556272 0.22887594997882844 -0.12831920385360718
vn -0.96584063768386848 0.22572417557239532 -0.12728072702884674
vn 0.0230898056179285 0.40916836261749264 0.91216671466827392
vn 0.02068938687443733 0.41154247522354128 0.91115570068359376
vn 0.12949508428573608 -0.17255957424640656 0.97644984722137456
vn 0.12379477173089982 -0.18290618062019348 0.9753051400184632
vn -0.2291192263364792 0.2587939202785492 0.93836569786071776
vn -0.21063980460166932 0.29578247666358948 0.93174219131469728
vn -0.02934288419783115 0.4029735624790192 0.91474115848541264
vn -0.04555831849575043 0.42410179972648624 0.90446794033050544
vn -0.03316376730799675 -0.1873954087495804 0.98172456026077264
vn -0.04264204576611519 -0.2034176141023636 0.9781630039215088
vn -0.71944540739059448 0.25383636355400084 0.64650243520736696
vn -0.6752039194107056 0.18869087100028992 0.71308869123458864
vn -0.99658900499343872 0.06852521747350693 0.04598413035273552
vn -0.99317127466201776 0.03591194748878479 0.11100097745656968
vn -0.21355940401554108 -0.34790101647377016 -0.91288405656814576
vn -0.22640764713287352 -0.38769680261611936 -0.89354950189590448
vn -0.06241532042622566 -0.40833184123039248 -0.91069722175598144
vn -0.05610170215368271 -0.3913264572620392 -0.9185402393341064
vn 0.0816393569111824 -0.83816510438919072 -0.53927206993103024
vn 0.0998726561665535 -0.85166043043136592 -0.51449000835418704
vn 0.13771617412567138 -0.74056982994079584 0.65771621465682984
vn 0.14196580648422242 -0.73494732379913328 0.66309738159179688
vn -0.05742811411619186 -0.6987159252166748 0.71309059858322144
vn -0.05309151858091354 -0.7069992423057556 0.7052186131477356
vn -0.08708015084266663 -0.94475007057189936 0.31601324677467348
vn -0.0931473970413208 -0.94722324609756464 0.3067437708377838
vn 0.12212853133678436 -0.96415048837661744 -0.23558105528354644
vn 0.11468536406755448 -0.96905529499053952 -0.21858441829681396
vn 0.15091118216514588 -0.95490455627441408 0.2557009756565094
vn 0.13822676241397858 -0.9626135230064392 0.23295606672763824
vn -0.11018958687782288 0.82378578186035152 0.55608922243118288
vn -0.11583155393600464 0.81255525350570672 0.571259081363678
vn -0.01104260515421629 0.85707062482833856 -0.5150805115699768
vn -0.01061731483787298 0.85727632045745856 -0.51474714279174808
vn -0.15781790018081666 0.23582765460014344 -0.95889455080032352
vn -0.16109417378902436 0.224006786942482 -0.96118140220642096
vn -0.26878300309181212 0.255436509847641 -0.9287130236625672
vn -0.24795347452163696 0.20623864233493804 -0.94656473398208624
vn -0.14372099936008454 0.80682963132858272 0.57303595542907712
vn -0.09804275631904602 0.7712516784667968 0.628934383392334
vn -0.26000291109085084 -0.20173080265522004 0.94430041313171392
vn -0.18928475677967072 -0.08328524231910706 0.9783837795257568
vn -0.267913818359375 -0.66860204935073856 0.69368112087249752
vn -0.34337538480758668 -0.71441918611526488 0.60967087745666504
vn -0.64597409963607792 -0.40817582607269288 0.64506596326828
vn -0.61087405681610104 -0.2337695360183716 0.75642883777618416
vn -0.43074116110801696 -0.82793056964874272 0.35915592312812804
vn -0.41689532995224 -0.82640588283538816 0.378485769033432
vn -0.76491618156433104 -0.53525179624557496 0.35834157466888428
vn -0.75361204147338864 -0.5391555428504944 0.3760055601596832
vn -0.30040106177330016 -0.94755935668945312 0.10904402285814286
vn -0.40039423108100888 -0.91501659154891968 -0.04928626865148544
vn -0.13445691764354706 -0.98150587081909184 -0.13626264035701752
vn -0.12133342772722244 -0.97823101282119744 -0.168351411819458
vn 0.01229449082165956 -0.88093811273574832 -0.47307166457176208
vn -0.26346969604492188 0.05730490386486053 -0.96296405792236336
vn -0.33252081274986268 0.81014347076416016 -0.48280176520347592
vn -0.34626930952072144 0.8192893266677856 -0.4570148587226868
vn -0.73693591356277472 -0.0015472158556804 -0.67596089839935304
vn -0.74600541591644288 -0.0419696569442749 -0.66461604833602904
vn -0.91855895519256592 0.36087122559547424 -0.16131149232387542
vn -0.88595175743103024 0.40587463974952696 -0.22439974546432496
vn -0.27489155530929564 0.91089332103729248 0.307746559381485
vn -0.06065098196268082 0.68601149320602416 0.72505843639373776
vn -0.69091373682022096 0.5530085563659668 0.46563899517059328
vn -0.68002766370773312 0.62069493532180784 0.39025661349296568
vn -0.71809107065200808 0.56387603282928464 0.40790823101997376
vn -0.74824577569961552 0.51208561658859256 0.42177790403366088
vn -0.06644955277442932 0.73170065879821776 0.67837935686111448
vn -0.01754778623580932 0.59768593311309816 0.80153822898864752
vn 0.35486453771591188 -0.91983401775360112 0.16726191341876984
vn 0.34949326515197752 -0.9204431176185608 0.17503969371318818
vn 0.31962102651596068 -0.66505002975463864 0.67494505643844608
vn 0.34848424792289732 -0.67993086576461792 0.6451765298843384
vn 0.33766311407089232 -0.9171918630599976 -0.21152488887310028
vn 0.35088214278221132 -0.9156727194786072 -0.19602304697036744
vn 0.28353047370910644 -0.8691232204437256 -0.40525954961776736
vn 0.30914542078971864 -0.87751924991607664 -0.36659109592437744
vn -0.28446671366691588 0.25545951724052428 -0.92402333021163936
vn -0.69286298751831056 0.09612052142620086 -0.71463394165039064
vn -0.68554943799972536 0.1343313455581665 -0.71552574634552
vn -0.39264929294586184 -0.37102615833282472 -0.84152609109878544
vn -0.77317893505096432 -0.39569395780563352 -0.49560123682022096
vn -0.8611769676208496 -0.318918377161026 -0.39580979943275448
vn -0.7362681031227112 -0.67320054769515992 -0.06863225251436234
vn -0.86231315135955808 -0.50575405359268192 -0.02507765404880047
vn -0.426232635974884 -0.73448204994201664 -0.52807384729385376
vn -0.4803389608860016 -0.5611368417739868 -0.67409193515777584
vn -0.46881428360939024 -0.7688781023025512 -0.43478676676750184
vn -0.35863906145095824 -0.88508838415145872 -0.29664230346679688
vn -0.18319474160671236 -0.75771641731262208 -0.62634313106536864
vn -0.2629747986793518 0.96375119686126704 -0.04503163695335388
vn -0.22188055515289308 0.969627559185028 -0.10291467607021332
vn -0.3683674335479736 0.92166548967361456 -0.1218118593096733
vn -0.39002060890197752 0.9074918627738952 -0.15602090954780578
vn -0.37765580415725712 0.9251224994659424 -0.03904397413134575
vn -0.23020975291728972 0.97087007761001584 0.06644340604543686
vn -0.33957746624946596 0.64046931266784664 -0.68882960081100464
vn -0.3397109806537628 0.64072448015213016 -0.68852645158767704
vn -0.31710219383239748 0.53907245397567752 -0.78028655052185056
vn -0.22728389501571656 0.56168609857559208 -0.79551917314529424
vn -0.95955443382263184 0.27703845500946044 -0.05005046725273132
vn -0.93788772821426384 0.31778794527053832 -0.1392030119895935
vn -0.67722058296203616 0.45461544394493104 0.57853007316589352
vn -0.70292192697525024 0.52644896507263184 0.47828042507171632
vn -0.20480552315711976 0.56550300121307376 0.79891246557235712
vn -0.18950092792510988 0.54052996635437008 0.81970530748367312
vn -0.12662573158740998 0.01425943244248628 -0.99184805154800416
vn -0.1273684948682785 0.0121284956112504 -0.99178135395050048
vn -0.78187835216522224 0.11035942286252976 -0.6135854721069336
vn -0.82712286710739136 0.07761931419372559 -0.55663543939590456
vn -0.03778520971536636 0.61559659242630008 0.78715503215789792
vn -0.03557306155562401 0.61382162570953368 0.78864282369613648
vn -0.08063536137342453 0.65189296007156376 0.75401163101196288
vn -0.08480133861303329 0.65573918819427488 0.75020980834960944
vn -0.25269448757171632 0.01726900413632393 -0.96739202737808224
vn -0.24634210765361784 0.03974366188049316 -0.96836769580841072
vn -0.05050423741340637 -0.63118654489517208 0.77398496866226192
vn -0.05467204377055168 -0.62379527091979984 0.77967327833175664
vn 0.16237856447696686 -0.65151023864746096 0.74105840921401984
vn 0.14203763008117676 -0.62477004528045656 0.76778101921081536
vn 0.06620880961418152 -0.73903888463974 0.670401394367218
vn 0.07909590005874634 -0.7222319841384888 0.68711334466934208
vn 0.11676733195781708 -0.90546178817749024 -0.40804928541183472
vn 0.10359901189804078 -0.91754800081253056 -0.3838917315006256
vn -0.38841912150382992 0.29672604799270628 0.87240141630172736
vn -0.45729520916938784 0.1932702362537384 0.86805975437164304
vn 0.1925659328699112 -0.18363672494888304 0.96394801139831536
vn 0.19372080266475676 -0.1812376379966736 0.96417069435119632
vn 0.02324442192912101 0.42249184846878048 0.90606862306594848
vn 0.01738960295915603 0.4094915986061096 0.9121481776237488
vn 0.06963783502578735 0.18820063769817352 0.97965860366821296
vn 0.06988320499658585 0.18792182207107544 0.97969472408294672
vn 0.08021412044763565 -0.17652170360088348 0.981022834777832
vn 0.06710275262594223 -0.20053668320178984 0.97738546133041376
vn -0.24893115460872652 0.08468718826770782 0.96481162309646608
vn -0.23339439928531648 0.06173357367515564 0.97042047977447504
vn -0.12576183676719666 0.31045326590538024 0.94223278760910032
vn -0.08618064224720001 0.40075522661209104 0.912122905254364
vn -0.01906715519726276 0.1522810161113739 0.988153338432312
vn -0.04050052538514137 0.18372569978237152 0.9821428656578064
vn -0.16764922440052032 -0.19069667160511016 0.96722728013992304
vn -0.17591886222362518 -0.20469430088996888 0.96288776397705072
vn -0.8927642703056336 0.21567040681838988 0.39554804563522336
vn -0.9262193441390992 0.09212200343608856 0.36555626988410952
vn -0.67605859041213992 0.01166760083287954 0.73675549030303952
vn -0.63729828596115112 -0.02425898797810077 0.77023524045944208
vn -0.69500064849853512 -0.46299561858177184 0.5500991940498352
vn -0.6958511471748352 -0.45034873485565184 0.55944365262985232
vn -0.98342424631118768 -0.03687012568116188 -0.17753121256828308
vn -0.97984075546264656 -0.0912182480096817 -0.17773962020874024
vn -0.97482746839523312 -0.13254441320896148 0.1792854368686676
vn -0.95913583040237424 -0.1551891565322876 0.23658998310565948
vn -0.30477592349052428 -0.36169743537902832 -0.88107126951217648
vn -0.2810039520263672 -0.43464735150337216 -0.8556392192840576
vn -0.17537480592727662 -0.34432086348533632 -0.92232686281204224
vn -0.16525888442993164 -0.3625352680683136 -0.91720110177993776
vn -0.19174128770828248 -0.62623453140258792 -0.7556888461112976
vn -0.20174452662467956 -0.64548105001449584 -0.73665010929107664
vn 0.00441467110067606 -0.84315770864486688 -0.53764826059341432
vn -0.00816266145557165 -0.83373016119003296 -0.55211180448532104
vn 0.0945950672030449 -0.51269304752349856 -0.85334485769271856
vn 0.06944280862808228 -0.46511739492416384 -0.88252115249633792
vn 0.01839464344084262 -0.75211822986602784 -0.65877157449722288
vn 0.04623506590723991 -0.7051885724067688 -0.70751070976257328
vn 0.17304794490337372 -0.85020852088928224 -0.49719196557998656
vn 0.20946326851844788 -0.8781662583351136 -0.43005701899528504
vn 0.14977556467056274 -0.85200083255767824 0.50165921449661256
vn 0.13419929146766662 -0.83329123258590704 0.53629881143569944
vn 0.23005852103233336 -0.72917866706848144 0.64449322223663328
vn 0.2518145442008972 -0.69578850269317624 0.67265725135803224
vn -0.3721535801887512 -0.70037764310836792 0.60907548666000368
vn -0.35583224892616272 -0.74423778057098384 0.56523746252059936
vn -0.22725781798362732 -0.67991644144058224 0.69718539714813232
vn -0.20941956341266632 -0.66494542360305784 0.71693170070648192
vn -0.06344266980886459 -0.7705134749412536 0.63425868749618528
vn -0.05654744058847427 -0.78363400697708128 0.61864382028579712
vn -0.30926352739334108 -0.88748091459274288 0.3416632115840912
vn -0.30440494418144228 -0.88637602329254144 0.3488198220729828
vn 0.00404196185991168 -0.97705334424972528 -0.21295627951622008
vn 0.0293425191193819 -0.98377668857574464 -0.1769813597202301
vn -0.12092556059360504 -0.99265360832214352 0.00398738868534565
vn -0.11789554357528686 -0.99302023649215696 -0.00339367007836699
vn 0.07674960047006607 -0.95686751604080208 0.2802037000656128
vn 0.07052785158157349 -0.9603639245033264 0.26967927813529968
vn 0.25346508622169496 -0.942466139793396 -0.21797460317611696
vn 0.24216982722282408 -0.94084185361862176 -0.23700295388698576
vn 0.13488452136516572 -0.99081206321716304 -0.0098775615915656
vn 0.13327856361865998 -0.99106234312057488 -0.0056753703393042
vn 0.26317349076271056 -0.94092917442321776 0.21305420994758604
vn 0.24968869984149932 -0.95048421621322624 0.18502786755561828
vn -0.19344644248485564 0.95327574014663696 0.23204268515110016
vn -0.20211738348007204 0.9536036849021912 0.22313328087329864
vn -0.14935512840747834 0.80976915359497072 0.56742125749588016
vn -0.15026810765266418 0.8057764172554016 0.57283854484558104
vn -0.03586480766534805 0.92367076873779296 -0.38150507211685184
vn -0.00875075533986091 0.93348807096481328 -0.3585016131401062
vn -0.02550202794373035 0.75609689950942992 -0.6539625525474548
vn -0.01157343946397304 0.76438057422637936 -0.64466136693954464
vn -0.33701246976852416 0.78695172071456912 -0.5168457627296448
vn -0.34600308537483216 0.80490332841873168 -0.48209187388420104
vn -0.27420690655708312 0.2561955153942108 -0.9269166588783264
vn -0.27921515703201292 0.26712161302566528 -0.92232578992843632
vn -0.1921033263206482 0.43966647982597352 -0.87737655639648432
vn -0.1971280127763748 0.4291071593761444 -0.88148027658462528
vn -0.29922443628311156 0.47748410701751712 -0.826119601726532
vn -0.30233886837959288 0.4631919860839844 -0.8330932259559632
vn -0.25964677333831788 0.23536738753318788 -0.93658190965652464
vn -0.25320079922676088 0.20957210659980772 -0.94444108009338384
vn -0.12610313296318054 0.774869441986084 0.61941534280776976
vn -0.12662166357040406 0.77100521326065056 0.62411379814147952
vn -0.28617560863494872 0.94670271873474128 0.14784248173236846
vn -0.26405721902847292 0.94721096754074096 0.1818383038043976
vn -0.25350791215896608 -0.57317650318145752 0.77923184633255008
vn -0.25191494822502136 -0.57627004384994504 0.77746492624282832
vn -0.44584509730339048 -0.6409680247306824 0.62480556964874264
vn -0.46306836605072024 -0.64496868848800656 0.6079333424568176
vn -0.4032756984233856 -0.14376850426197052 0.90371412038803104
vn -0.41115483641624448 -0.15975098311901092 0.89745819568634032
vn -0.44192671775817872 -0.8790535926818848 0.1787887066602707
vn -0.3963496387004852 -0.9149653315544128 0.07579806447029114
vn -0.52136772871017456 -0.8495107293128968 0.08066663891077042
vn -0.47204166650772096 -0.8625895977020264 0.18197803199291228
vn -0.78277748823165888 -0.59280169010162352 0.1893290728330612
vn -0.7783823013305664 -0.5997489094734192 0.18553197383880616
vn -0.53543668985366824 -0.74115836620330816 0.40495899319648744
vn -0.55275249481201168 -0.74076390266418464 0.38175046443939208
vn -0.34223133325576784 -0.91325789690017696 -0.22099295258522032
vn -0.35115095973014832 -0.9169650673866272 -0.189388707280159
vn -0.29131507873535156 -0.95375722646713264 -0.07404468953609467
vn -0.31726008653640748 -0.9412881135940552 -0.11542387306690216
vn -0.13624119758605958 -0.95260804891586304 -0.27198579907417296
vn -0.11935989558696746 -0.9413015842437744 -0.31576046347618104
vn -0.3482448160648346 0.89607036113739008 -0.275287926197052
vn -0.35926663875579832 0.88489896059036256 -0.2964477241039276
vn -0.24725939333438872 0.9617418050765992 0.1179644912481308
vn -0.22964730858802796 0.95755481719970704 0.17421519756317138
vn -0.2586877942085266 0.48913156986236576 -0.8329651951789856
vn -0.2570059895515442 0.48699536919593808 -0.83473551273345952
vn -0.26649492979049684 0.51669722795486448 -0.81363654136657712
vn -0.26575359702110292 0.52180129289627072 -0.81061607599258416
vn -0.49456131458282472 0.00773146422579884 -0.86910843849182128
vn -0.5057257413864136 -0.04491924494504928 -0.86152404546737664
vn -0.3290477693080902 0.68946450948715208 -0.64526450634002688
vn -0.33812341094017028 0.67650634050369264 -0.6542260646820068
vn -0.94222623109817504 0.27106368541717528 -0.19681020081043244
vn -0.91601502895355232 0.323723167181015 -0.23689624667167664
vn -0.8675847053527832 0.21295222640037536 -0.4493864178657532
vn -0.8268150091171264 0.3204738199710846 -0.4622483551502228
vn -0.43622225522994992 0.49633458256721496 -0.75057452917098992
vn -0.4136905074119568 0.51500725746154784 -0.75075143575668336
vn -0.9171432852745056 0.08563242852687836 -0.38924959301948544
vn -0.921514630317688 0.06821410357952118 -0.38230565190315248
vn -0.88826441764831536 0.44724947214126584 0.1046619713306427
vn -0.82830554246902464 0.55187487602233888 0.09666480123996734
vn -0.57595998048782352 0.71883976459503176 -0.38928070664405824
vn -0.5701788067817688 0.72174388170242304 -0.39240518212318424
vn -0.9076062440872192 0.40026116371154784 0.12665663659572602
vn -0.91051322221755984 0.39287319779396056 0.1289040744304657
vn -0.43148159980773928 0.59597563743591312 0.67722725868225096
vn -0.36901512742042544 0.66157597303390504 0.65279781818389896
vn -0.43259635567665104 0.88198834657669072 0.18696795403957368
vn -0.40300789475440976 0.90292727947235104 0.14935511350631714
vn -0.37867164611816408 0.66355031728744504 0.6452199816703796
vn -0.37956339120864872 0.66257661581039432 0.64569640159606936
vn -0.11055614799261094 0.925752341747284 0.36160758137702944
vn -0.1399156004190445 0.95332759618759152 0.26756337285041808
vn 0.35808002948760988 -0.93218940496444704 -0.05293026566505432
vn 0.35296443104743956 -0.93450164794921872 -0.04607265070080757
vn 0.33769822120666504 -0.82134789228439328 0.459725558757782
vn 0.33596280217170716 -0.8207679986953736 0.46202683448791504
vn 0.33026230335235596 -0.54488360881805416 0.7707325220108032
vn 0.36578717827796936 -0.56384909152984616 0.7404552102088928
vn 0.31027865409851076 -0.89100164175033568 -0.33142611384391784
vn 0.32885396480560304 -0.87838256359100336 -0.34684154391288756
vn 0.23915918171405792 -0.86545008420944208 -0.4402261972427368
vn 0.29119214415550232 -0.83861488103866576 -0.46036088466644288
vn -0.60038268566131592 -0.32140356302261352 -0.7322843670845032
vn -0.60045784711837768 -0.32112851738929748 -0.73234331607818608
vn -0.42430883646011352 -0.63254177570343016 -0.64796060323715208
vn -0.40721812844276432 -0.61894559860229496 -0.67162472009658816
vn -0.40606150031089784 0.2237398624420166 -0.88603305816650384
vn -0.4035674333572388 0.23656088113784792 -0.8838395476341248
vn -0.53411108255386352 -0.02173815108835697 -0.84513473510742192
vn -0.53420341014862064 -0.0219704695045948 -0.84507042169570928
vn -0.33629560470581056 0.01157329883426427 -0.941685438156128
vn -0.32805290818214416 0.0234187338501215 -0.9443690180778504
vn -0.61301791667938232 -0.57656824588775632 -0.54016476869583128
vn -0.61351001262664792 -0.5742663145065308 -0.54205495119094848
vn -0.85187309980392464 -0.44270882010459896 -0.27985894680023192
vn -0.84557569026947024 -0.43748959898948672 -0.30594855546951292
vn -0.59143978357315064 -0.70751827955245968 -0.38680315017700192
vn -0.55644422769546512 -0.74860775470733648 -0.36049431562423704
vn -0.49375098943710328 -0.71263635158538816 -0.49835675954818728
vn -0.48025986552238464 -0.69662475585937504 -0.53297704458236696
vn -0.320528507232666 -0.88535702228546144 -0.33675578236579896
vn -0.31813842058181764 -0.88751387596130368 -0.33332726359367372
vn -0.36333340406417848 -0.64215683937072752 -0.67499881982803344
vn -0.35314005613327028 -0.69109189510345456 -0.63062185049057008
vn -0.32637691497802736 0.93655091524124144 0.12786965072154998
vn -0.33555755019187928 0.93975222110748288 0.06532139331102371
vn -0.39078468084335328 0.9071374535560608 -0.15616978704929352
vn -0.37175428867340088 0.9028241634368896 -0.2161186933517456
vn -0.67746949195861816 0.70599043369293216 -0.20642824470996856
vn -0.77984094619750976 0.590223491191864 -0.20852866768836976
vn -0.38117659091949464 0.92301130294799808 -0.05248431861400604
vn -0.37847864627838136 0.92429405450820928 -0.04933883249759674
vn -0.48467001318931576 0.82725423574447632 -0.2841573655605316
vn -0.13113176822662354 0.98623031377792352 0.10076871514320374
vn -0.68574428558349608 0.59625756740570072 -0.4174107313156128
vn -0.77888554334640496 0.56871134042739872 -0.2643950879573822
vn -0.3926149010658264 0.77505373954772944 -0.49512153863906864
vn -0.22729739546775816 0.51677161455154416 -0.8253987431526184
vn -0.34129515290260316 0.6132309436798096 -0.71236610412597656
vn -0.33846595883369444 0.61553925275802616 -0.71172481775283816
vn -0.33531498908996584 0.52544814348220824 -0.78196418285369872
vn -0.32516595721244812 0.50592380762100216 -0.79894185066223152
vn -0.34706789255142212 0.65752667188644408 -0.6687321066856384
vn -0.34522846341133116 0.64103418588638304 -0.68548709154129032
vn -0.35393810272216796 0.6154882907867432 -0.70420312881469728
vn -0.57933586835861208 0.6447328329086304 -0.49868789315223696
vn -0.6572731137275696 0.62605839967727664 -0.41957461833953856
vn -0.69810974597930912 0.699548065662384 -0.15256252884864808
vn -0.7212515473365784 0.67272239923477176 -0.16504780948162078
vn -0.39408186078071592 0.91748553514480592 -0.05403503403067589
vn -0.37724322080612184 -0.75242543220520016 -0.53994768857955936
vn -0.60578608512878416 -0.62149757146835328 -0.496753454208374
vn -0.62402623891830448 -0.63218593597412112 -0.45927354693412784
vn -0.44915553927421568 0.0993916541337967 -0.88790798187255856
vn -0.5828363299369812 -0.5045416951179504 -0.63697683811187744
vn -0.1517576426267624 0.89461702108383184 0.42027375102043152
vn -0.11952891945838928 0.925463318824768 0.35948634147644044
vn -0.5160939693450928 0.84076082706451424 -0.16360995173454284
vn -0.55519700050354 0.82115429639816288 -0.13214348256587982
vn -0.52616506814956664 0.59213459491729736 -0.61034983396530152
vn -0.5463285446166992 0.58067947626113888 -0.6036028861999512
vn -0.94122135639190672 0.28258314728736876 -0.18506528437137604
vn -0.85905253887176512 0.42393994331359864 -0.28688621520996092
vn -0.2893706262111664 0.45888978242874144 -0.84005045890808112
vn -0.26335427165031432 0.51706892251968384 -0.81442266702651984
vn -0.27494817972183228 0.5177582502365112 -0.810141921043396
vn -0.26343923807144164 0.4995388388633728 -0.82526397705078128
vn -0.22895842790603636 0.96601194143295296 0.11999577283859252
vn -0.178452730178833 0.94693750143051152 0.26732736825942992
vn -0.90525376796722416 0.31031304597854616 -0.29020929336547852
vn -0.74520474672317504 0.60991221666336056 -0.26958659291267396
vn -0.30966809391975404 -0.92319363355636592 -0.22763794660568236
vn -0.30055689811706544 -0.9173778295516968 -0.26092797517776488
vn -0.50255584716796872 -0.81347239017486576 0.2927459180355072
vn -0.57220876216888424 -0.79774153232574464 0.1902252584695816
vn -0.38479197025299072 -0.54611462354660032 0.74410611391067504
vn -0.24681304395198824 0.9595287442207336 0.13560216128826142
vn -0.25569352507591248 0.48407542705535888 -0.83683437108993536
vn -0.31260833144187928 0.4453648030757904 -0.83900314569473264
vn -0.3101385235786438 0.46248576045036312 -0.8306148648262024
vn -0.3392914831638336 0.68331021070480344 -0.6465047001838684
vn -0.34198689460754396 0.6754645109176636 -0.65329366922378544
vn -0.36186218261718752 0.85835635662078864 -0.36370319128036496
vn -0.34835311770439148 0.88937789201736448 -0.2960694134235382
vn -0.26903173327445984 0.93754881620407104 0.2205089032649994
vn -0.29335057735443116 0.93823933601379392 0.18344584107398988
vn 0.26464277505874632 -0.96392619609832768 -0.02846959605813026
vn 0.25914040207862856 -0.96508133411407472 -0.03826666623353958
vn 0.03059164620935917 -0.99941635131835936 -0.01520371902734041
vn 0.04506351053714752 -0.99895834922790528 0.00717759551480412
vn -0.24004459381103516 -0.7252603769302368 0.64527195692062376
vn -0.2664329409599304 -0.74151235818862912 0.615770161151886
vn 0.23606517910957336 -0.84908008575439456 0.47258460521698
vn 0.24301069974899292 -0.83899432420730592 0.48686179518699648
vn 0.11468242108821868 -0.77127391099929808 -0.62608659267425536
vn 0.17232687771320344 -0.8388556241989136 -0.51635712385177616
vn -0.0906069204211235 -0.64774298667907712 -0.75645184516906736
vn -0.06358157098293304 -0.67974644899368288 -0.73068612813949584
vn -0.31733253598213196 -0.66512995958328248 -0.67594534158706664
vn -0.34445273876190184 -0.60394716262817384 -0.7187490463256836
vn -0.96227139234542848 -0.26807081699371336 -0.04660152643918991
vn -0.96976810693740848 -0.24023281037807464 -0.04287067428231239
vn -0.8725992441177368 -0.11564737558364868 0.47454848885536192
vn -0.85137420892715456 -0.00341007951647043 0.52454763650894168
vn -0.1220342069864273 0.1533377319574356 0.98060959577560432
vn -0.1583269089460373 0.09276999533176422 0.98301899433135984
vn 0.06273534893989563 0.18933072686195372 0.97990727424621584
vn 0.05402137339115143 0.17491252720355988 0.98310089111328128
vn -0.4002656936645508 0.02901287749409675 0.91593974828720096
vn -0.41932922601699832 0.05145370960235596 0.90637493133544928
vn 0.2109229862689972 -0.89180994033813472 -0.40023303031921384
vn 0.23231033980846404 -0.90101295709609984 -0.36634349822998048
vn 0.05169913917779922 -0.94767373800277712 -0.31502637267112732
vn -0.00657024187967181 -0.92249655723571776 -0.38594940304756168
vn -0.31116870045661928 -0.94999033212661744 0.02631383948028087
vn -0.32596820592880248 -0.9435123801231384 0.05940704420208931
vn -0.47093540430068968 -0.86942315101623536 -0.14940959215164184
vn 0.06868609040975571 -0.64808112382888792 0.75846761465072624
vn 0.070571668446064 -0.64549744129180912 0.76049500703811648
vn 0.28032791614532472 -0.56986516714096072 0.77244412899017328
vn 0.24530498683452608 -0.62333673238754272 0.7424801588058472
vn -0.49156993627548216 -0.68822121620178224 0.533582866191864
vn -0.4974132478237152 -0.66131442785263064 0.5614652633666992
vn -0.19716511666774748 -0.59613281488418576 0.77830034494400032
vn -0.201805979013443 -0.585921049118042 0.78483808040618896
vn 0.09511224925518036 -0.83396857976913456 0.54355323314666752
vn 0.07321727275848389 -0.7980589270591736 0.59811460971832272
vn -0.2548087239265442 0.01800858229398727 -0.96682375669479376
vn -0.26776885986328124 -0.01044319756329059 -0.96342653036117552
vn -0.05098563432693481 0.6540789604187012 0.75470602512359616
vn -0.06732416898012161 0.6132434606552124 0.78701961040496832
vn -0.59098833799362184 -0.11465992033481598 -0.79848974943161008
vn -0.23952302336692812 0.0375172309577465 -0.97016555070877072
vn -0.24978552758693696 0.06006301566958427 -0.9664365649223328
vn -0.08818792551755905 0.65538060665130616 0.75013273954391472
vn -0.10979466885328292 0.58919352293014528 0.80049747228622432
vn -0.47556409239768984 0.43601912260055544 0.76401978731155392
vn -0.35857394337654112 0.57585006952285768 0.73472547531127936
vn -0.84762096405029296 0.48374000191688536 0.2180234342813492
vn -0.92155879735946656 0.33156588673591612 0.20197379589080812
vn -0.898133397102356 0.25180846452713012 -0.3604843616485596
vn -0.92565071582794192 0.12128599733114242 -0.35841366648674012
vn -0.24278065562248228 0.96593153476715088 0.08963122963905334
vn -0.2471619099378586 0.61401712894439696 -0.74959582090377808
vn -0.22700026631355284 0.5632121562957764 -0.794520616531372
vn -0.18745417892932892 0.77750945091247552 0.60028320550918576
vn -0.3179844319820404 0.94670093059539792 0.05141261965036392
vn -0.23151656985282896 0.52146160602569584 -0.8212659358978272
vn -0.34098812937736512 0.5748717188835144 -0.7438074946403504
vn -0.2615821361541748 0.28996044397354124 -0.92059642076492304
vn -0.30032816529273988 0.42871558666229248 -0.85205984115600592
vn -0.88971596956253056 -0.22078539431095124 -0.39957395195961
vn -0.48244106769561768 0.5203285813331604 -0.70463377237319944
vn -0.0001298984861932695 0.8581057786941528 0.51347297430038456
vn -0.07934447377920151 0.97649806737899776 0.20038935542106628
vn -0.0188404880464077 0.97196871042251584 0.23435400426387788
vn -0.04559633508324623 0.9984963536262512 -0.03042962774634361
vn -0.02575278468430042 0.9995484352111816 -0.01548472698777914
vn -0.02573203854262829 0.58686828613281248 -0.80927342176437376
vn -0.04507514461874962 0.57341408729553224 -0.81802481412887568
vn -0.03934377059340477 0.44935360550880432 -0.8924871683120728
vn -0.06438309699296951 0.42685118317604064 -0.90202718973159792
vn -0.04232985153794288 0.28459542989730836 -0.95771270990371712
vn -0.242696613073349 0.7115651965141296 -0.6593734622001648
vn -0.2422315925359726 0.71220594644546512 -0.65885233879089352
vn -0.23776379227638244 0.82048130035400384 -0.51988339424133304
vn -0.247365802526474 0.80879783630371088 -0.53353190422058104
vn -0.24514566361904144 0.90175223350524896 -0.35601502656936644
vn -0.2659611403942108 0.88103038072586064 -0.39121633768081664
vn 0.00530102010816335 -0.05928337574005127 -0.9982271194458008
vn -0.03507982194423675 0.2808324098587036 -0.95911562442779536
vn -0.30773216485977172 0.28129673004150392 -0.90894067287445072
vn -0.36379069089889528 -0.21155445277690888 -0.90713894367218016
vn -0.4555567800998688 -0.45137652754783632 -0.7672856450080872
vn -0.17425251007080078 -0.82216924428939824 -0.5419166684150696
vn -0.10656652599573136 -0.8785011172294616 -0.4657030403614044
# 591 vertex normals

g obj_53412310
s 1
f 1//1 2//1 3//1
f 1//2 3//2 4//2
f 5//3 6//3 7//3
f 5//4 7//4 8//4
f 9//5 10//5 11//5
f 9//6 11//6 12//6
f 13//7 14//7 15//7
f 13//8 15//8 16//8
f 17//9 18//9 19//9
f 17//10 19//10 20//10
f 21//11 22//11 23//11
f 21//12 23//12 24//12
f 25//13 26//13 27//13
f 25//14 27//14 28//14
f 29//15 30//15 31//15
f 32//16 33//16 34//16
f 32//17 34//17 35//17
f 36//18 37//18 38//18
f 36//19 38//19 39//19
f 40//20 41//20 42//20
f 40//21 42//21 43//21
f 44//22 45//22 46//22
f 44//23 46//23 47//23
f 48//24 49//24 50//24
f 48//25 50//25 51//25
f 10//26 9//26 33//26
f 10//27 33//27 32//27
f 2//28 1//28 14//28
f 2//29 14//29 13//29
f 38//30 37//30 18//30
f 38//31 18//31 17//31
f 37//32 36//32 26//32
f 37//33 26//33 25//33
f 1//34 4//34 52//34
f 1//35 52//35 38//35
f 32//36 53//36 3//36
f 32//37 3//37 2//37
f 4//38 3//38 5//38
f 4//39 5//39 8//39
f 21//40 24//40 34//40
f 21//41 34//41 33//41
f 9//42 12//42 22//42
f 9//43 22//43 21//43
f 13//44 16//44 11//44
f 13//45 11//45 10//45
f 12//46 11//46 54//46
f 12//47 54//47 55//47
f 17//48 20//48 15//48
f 17//49 15//49 14//49
f 16//50 15//50 56//50
f 16//51 56//51 57//51
f 25//52 28//52 19//52
f 25//53 19//53 18//53
f 20//54 19//54 58//54
f 20//55 58//55 59//55
f 60//56 61//56 23//56
f 60//57 23//57 22//57
f 24//58 23//58 45//58
f 24//59 45//59 44//59
f 62//60 40//60 27//60
f 62//61 27//61 26//61
f 28//62 27//62 63//62
f 28//63 63//63 64//63
f 44//64 47//64 35//64
f 44//65 35//65 34//65
f 53//66 35//66 47//66
f 53//67 47//67 30//67
f 36//68 39//68 65//68
f 36//69 65//69 62//69
f 48//70 51//70 39//70
f 48//71 39//71 52//71
f 30//72 29//72 6//72
f 30//73 6//73 5//73
f 61//74 66//74 67//74
f 61//75 67//75 45//75
f 40//76 43//76 68//76
f 40//77 68//77 63//77
f 8//78 7//78 49//78
f 8//79 49//79 48//79
f 47//80 46//80 31//80
f 47//81 31//81 30//81
f 51//82 50//82 41//82
f 51//83 41//83 65//83
f 51//84 65//84 39//84
f 63//85 27//85 40//85
f 23//86 61//86 45//86
f 64//87 58//87 19//87
f 64//88 19//88 28//88
f 59//89 56//89 15//89
f 59//90 15//90 20//90
f 57//91 54//91 11//91
f 57//92 11//92 16//92
f 55//93 60//93 22//93
f 55//94 22//94 12//94
f 24//95 44//95 34//95
f 5//96 3//96 53//96
f 5//97 53//97 30//97
f 48//98 52//98 4//98
f 48//99 4//99 8//99
f 62//100 26//100 36//100
f 25//101 18//101 37//101
f 14//102 1//102 38//102
f 14//103 38//103 17//103
f 21//104 33//104 9//104
f 10//105 32//105 2//105
f 10//106 2//106 13//106
f 45//107 67//107 69//107
f 45//108 69//108 46//108
f 40//109 62//109 65//109
f 40//110 65//110 41//110
f 38//111 52//111 39//111
f 35//112 53//112 32//112
f 70//113 31//113 46//113
f 70//114 46//114 69//114
f 71//115 29//115 31//115
f 71//116 31//116 70//116
f 72//117 6//117 29//117
f 72//118 29//118 71//118
f 73//119 7//119 6//119
f 73//120 6//120 72//120
f 74//121 49//121 7//121
f 74//122 7//122 73//122
f 75//123 50//123 49//123
f 75//124 49//124 74//124
f 42//125 41//125 50//125
f 42//126 50//126 75//126
f 76//127 77//127 78//127
f 76//128 78//128 79//128
f 79//129 78//129 80//129
f 79//130 80//130 81//130
f 82//131 83//131 81//131
f 82//132 81//132 80//132
f 83//133 82//133 84//133
f 83//134 84//134 85//134
f 77//135 76//135 86//135
f 77//136 86//136 87//136
f 87//137 86//137 88//137
f 85//138 84//138 89//138
f 56//139 90//139 91//139
f 56//140 91//140 57//140
f 92//141 93//141 94//141
f 92//142 94//142 95//142
f 96//143 97//143 98//143
f 96//144 98//144 99//144
f 100//145 101//145 102//145
f 100//146 102//146 103//146
f 104//147 105//147 106//147
f 104//148 106//148 107//148
f 108//149 109//149 110//149
f 108//150 110//150 111//150
f 112//151 113//151 114//151
f 112//152 114//152 115//152
f 116//153 117//153 118//153
f 116//154 118//154 119//154
f 120//155 121//155 122//155
f 120//156 122//156 123//156
f 124//157 125//157 126//157
f 124//158 126//158 127//158
f 128//159 129//159 130//159
f 128//160 130//160 131//160
f 132//161 133//161 134//161
f 132//162 134//162 135//162
f 136//163 137//163 138//163
f 136//164 138//164 139//164
f 140//165 141//165 142//165
f 140//166 142//166 143//166
f 144//167 145//167 146//167
f 144//168 146//168 147//168
f 148//169 149//169 150//169
f 148//170 150//170 151//170
f 152//171 153//171 154//171
f 152//172 154//172 155//172
f 156//173 79//173 81//173
f 156//174 81//174 157//174
f 158//175 159//175 160//175
f 158//176 160//176 161//176
f 162//177 163//177 164//177
f 162//178 164//178 165//178
f 166//179 167//179 168//179
f 166//180 168//180 169//180
f 170//181 171//181 172//181
f 170//182 172//182 173//182
f 174//183 175//183 176//183
f 174//184 176//184 177//184
f 178//185 179//185 180//185
f 178//186 180//186 181//186
f 182//187 183//187 184//187
f 182//188 184//188 185//188
f 186//189 187//189 188//189
f 186//190 188//190 189//190
f 190//191 191//191 192//191
f 190//192 192//192 193//192
f 194//193 195//193 196//193
f 194//194 196//194 197//194
f 63//195 68//195 198//195
f 63//196 198//196 64//196
f 199//197 200//197 201//197
f 199//198 201//198 202//198
f 58//199 203//199 204//199
f 58//200 204//200 59//200
f 205//201 206//201 207//201
f 205//202 207//202 208//202
f 209//203 210//203 211//203
f 209//204 211//204 212//204
f 213//205 214//205 215//205
f 213//206 215//206 216//206
f 54//207 217//207 218//207
f 54//208 218//208 55//208
f 61//209 60//209 219//209
f 61//210 219//210 66//210
f 220//211 221//211 222//211
f 220//212 222//212 223//212
f 224//213 225//213 226//213
f 224//214 226//214 227//214
f 228//215 229//215 230//215
f 228//216 230//216 231//216
f 232//217 233//217 234//217
f 232//218 234//218 235//218
f 236//219 237//219 238//219
f 239//220 240//220 241//220
f 239//221 241//221 242//221
f 243//222 244//222 245//222
f 246//223 247//223 248//223
f 246//224 248//224 249//224
f 250//225 251//225 252//225
f 250//226 252//226 253//226
f 254//227 255//227 256//227
f 254//228 256//228 257//228
f 258//229 259//229 260//229
f 258//230 260//230 261//230
f 262//231 263//231 264//231
f 265//232 266//232 267//232
f 265//233 267//233 268//233
f 269//234 270//234 271//234
f 269//235 271//235 272//235
f 273//236 274//236 275//236
f 273//237 275//237 276//237
f 277//238 278//238 279//238
f 277//239 279//239 280//239
f 281//240 282//240 283//240
f 284//241 285//241 286//241
f 117//242 116//242 206//242
f 117//243 206//243 205//243
f 113//244 112//244 214//244
f 113//245 214//245 213//245
f 100//246 103//246 287//246
f 100//247 287//247 209//247
f 159//248 158//248 125//248
f 159//249 125//249 124//249
f 239//250 288//250 246//250
f 239//251 246//251 289//251
f 152//252 155//252 93//252
f 152//253 93//253 92//253
f 105//254 104//254 167//254
f 105//255 167//255 166//255
f 121//256 120//256 164//256
f 121//257 164//257 163//257
f 137//258 136//258 108//258
f 137//259 108//259 111//259
f 96//260 99//260 132//260
f 96//261 132//261 135//261
f 133//262 132//262 136//262
f 133//263 136//263 139//263
f 128//264 131//264 145//264
f 128//265 145//265 144//265
f 112//266 115//266 101//266
f 112//267 101//267 100//267
f 290//268 291//268 97//268
f 290//269 97//269 96//269
f 104//270 107//270 94//270
f 104//271 94//271 93//271
f 95//272 94//272 98//272
f 95//273 98//273 97//273
f 99//274 98//274 109//274
f 99//275 109//275 108//275
f 172//276 171//276 102//276
f 172//277 102//277 101//277
f 103//278 102//278 106//278
f 103//279 106//279 105//279
f 107//280 106//280 110//280
f 107//281 110//281 109//281
f 111//282 110//282 171//282
f 111//283 171//283 170//283
f 116//284 119//284 114//284
f 116//285 114//285 113//285
f 115//286 114//286 178//286
f 115//287 178//287 181//287
f 179//288 178//288 186//288
f 179//289 186//289 189//289
f 289//290 249//290 118//290
f 289//291 118//291 117//291
f 119//292 118//292 187//292
f 119//293 187//293 186//293
f 120//294 123//294 243//294
f 120//295 243//295 245//295
f 124//296 127//296 122//296
f 124//297 122//297 121//297
f 123//298 122//298 262//298
f 123//299 262//299 264//299
f 292//300 262//300 129//300
f 292//301 129//301 128//301
f 293//302 294//302 126//302
f 293//303 126//303 125//303
f 127//304 126//304 130//304
f 127//305 130//305 129//305
f 131//306 130//306 233//306
f 131//307 233//307 232//307
f 148//308 151//308 134//308
f 148//309 134//309 133//309
f 135//310 134//310 224//310
f 135//311 224//311 227//311
f 184//312 183//312 174//312
f 184//313 174//313 177//313
f 175//314 174//314 138//314
f 175//315 138//315 137//315
f 139//316 138//316 140//316
f 139//317 140//317 143//317
f 141//318 140//318 183//318
f 141//319 183//319 182//319
f 144//320 147//320 194//320
f 144//321 194//321 197//321
f 195//322 194//322 142//322
f 195//323 142//323 141//323
f 143//324 142//324 149//324
f 143//325 149//325 148//325
f 229//326 228//326 146//326
f 229//327 146//327 145//327
f 147//328 146//328 150//328
f 147//329 150//329 149//329
f 151//330 150//330 220//330
f 151//331 220//331 223//331
f 265//332 295//332 154//332
f 265//333 154//333 153//333
f 155//334 154//334 168//334
f 155//335 168//335 167//335
f 266//336 76//336 79//336
f 266//337 79//337 156//337
f 83//338 296//338 157//338
f 83//339 157//339 81//339
f 297//340 298//340 200//340
f 297//341 200//341 199//341
f 163//342 162//342 160//342
f 163//343 160//343 159//343
f 161//344 160//344 285//344
f 161//345 285//345 284//345
f 162//346 165//346 281//346
f 162//347 281//347 283//347
f 237//348 236//348 165//348
f 237//349 165//349 164//349
f 166//350 169//350 210//350
f 166//351 210//351 287//351
f 299//352 273//352 169//352
f 299//353 169//353 168//353
f 170//354 173//354 176//354
f 170//355 176//355 175//355
f 177//356 176//356 180//356
f 177//357 180//357 179//357
f 181//358 180//358 173//358
f 181//359 173//359 172//359
f 182//360 185//360 190//360
f 182//361 190//361 193//361
f 191//362 190//362 250//362
f 191//363 250//363 253//363
f 251//364 250//364 188//364
f 251//365 188//365 187//365
f 189//366 188//366 185//366
f 189//367 185//367 184//367
f 258//368 261//368 192//368
f 258//369 192//369 191//369
f 193//370 192//370 196//370
f 193//371 196//371 195//371
f 197//372 196//372 300//372
f 197//373 300//373 292//373
f 199//374 202//374 270//374
f 199//375 270//375 269//375
f 273//376 276//376 211//376
f 273//377 211//377 210//377
f 236//378 301//378 302//378
f 236//379 302//379 281//379
f 301//380 303//380 198//380
f 301//381 198//381 68//381
f 64//382 198//382 203//382
f 64//383 203//383 58//383
f 279//384 278//384 201//384
f 279//385 201//385 200//385
f 202//386 201//386 73//386
f 202//387 73//387 72//387
f 205//388 208//388 240//388
f 205//389 240//389 239//389
f 241//390 240//390 204//390
f 241//391 204//391 203//391
f 59//392 204//392 90//392
f 59//393 90//393 56//393
f 213//394 216//394 207//394
f 213//395 207//395 206//395
f 208//396 207//396 91//396
f 208//397 91//397 90//397
f 57//398 91//398 217//398
f 57//399 217//399 54//399
f 209//400 212//400 215//400
f 209//401 215//401 214//401
f 216//402 215//402 218//402
f 216//403 218//403 217//403
f 55//404 218//404 219//404
f 55//405 219//405 60//405
f 66//406 219//406 212//406
f 66//407 212//407 211//407
f 228//408 231//408 221//408
f 228//409 221//409 220//409
f 223//410 222//410 225//410
f 223//411 225//411 224//411
f 227//412 226//412 304//412
f 227//413 304//413 290//413
f 232//414 235//414 230//414
f 232//415 230//415 229//415
f 294//416 305//416 234//416
f 294//417 234//417 233//417
f 306//418 307//418 247//418
f 306//419 247//419 246//419
f 256//420 255//420 307//420
f 256//421 307//421 243//421
f 303//422 238//422 242//422
f 303//423 242//423 241//423
f 288//424 242//424 244//424
f 288//425 244//425 306//425
f 245//426 244//426 238//426
f 245//427 238//427 237//427
f 255//428 254//428 248//428
f 255//429 248//429 247//429
f 249//430 248//430 252//430
f 249//431 252//431 251//431
f 253//432 252//432 259//432
f 253//433 259//433 258//433
f 254//434 257//434 260//434
f 254//435 260//435 259//435
f 261//436 260//436 263//436
f 261//437 263//437 300//437
f 264//438 263//438 257//438
f 264//439 257//439 256//439
f 295//440 268//440 274//440
f 295//441 274//441 299//441
f 269//442 272//442 268//442
f 269//443 268//443 267//443
f 71//444 70//444 271//444
f 71//445 271//445 270//445
f 272//446 271//446 275//446
f 272//447 275//447 274//447
f 276//448 275//448 69//448
f 276//449 69//449 67//449
f 278//450 277//450 75//450
f 278//451 75//451 74//451
f 43//452 42//452 308//452
f 43//453 308//453 302//453
f 277//454 280//454 282//454
f 277//455 282//455 308//455
f 283//456 282//456 286//456
f 283//457 286//457 285//457
f 309//458 286//458 280//458
f 309//459 280//459 279//459
f 286//460 282//460 280//460
f 308//461 42//461 75//461
f 308//462 75//462 277//462
f 69//463 275//463 271//463
f 69//464 271//464 70//464
f 272//465 274//465 268//465
f 263//466 260//466 257//466
f 259//467 252//467 248//467
f 259//468 248//468 254//468
f 244//469 242//469 238//469
f 255//470 247//470 307//470
f 219//471 218//471 215//471
f 219//472 215//472 212//472
f 217//473 91//473 207//473
f 217//474 207//474 216//474
f 90//475 204//475 240//475
f 90//476 240//476 208//476
f 73//477 201//477 278//477
f 73//478 278//478 74//478
f 241//479 203//479 198//479
f 241//480 198//480 303//480
f 301//481 68//481 43//481
f 301//482 43//482 302//482
f 276//483 67//483 66//483
f 276//484 66//484 211//484
f 202//485 72//485 71//485
f 202//486 71//486 270//486
f 196//487 192//487 261//487
f 196//488 261//488 300//488
f 188//489 250//489 190//489
f 188//490 190//490 185//490
f 180//491 176//491 173//491
f 273//492 210//492 169//492
f 236//493 281//493 165//493
f 283//494 285//494 160//494
f 283//495 160//495 162//495
f 200//496 298//496 309//496
f 200//497 309//497 279//497
f 269//498 267//498 297//498
f 269//499 297//499 199//499
f 168//500 154//500 295//500
f 168//501 295//501 299//501
f 150//502 146//502 228//502
f 150//503 228//503 220//503
f 142//504 194//504 147//504
f 142//505 147//505 149//505
f 140//506 138//506 174//506
f 140//507 174//507 183//507
f 223//508 224//508 134//508
f 223//509 134//509 151//509
f 130//510 126//510 294//510
f 130//511 294//511 233//511
f 262//512 122//512 127//512
f 262//513 127//513 129//513
f 256//514 243//514 123//514
f 256//515 123//515 264//515
f 187//516 118//516 249//516
f 187//517 249//517 251//517
f 178//518 114//518 119//518
f 178//519 119//519 186//519
f 110//520 106//520 102//520
f 110//521 102//521 171//521
f 98//522 94//522 107//522
f 98//523 107//523 109//523
f 181//524 172//524 101//524
f 181//525 101//525 115//525
f 145//526 131//526 232//526
f 145//527 232//527 229//527
f 197//528 292//528 128//528
f 197//529 128//529 144//529
f 193//530 195//530 141//530
f 193//531 141//531 182//531
f 191//532 253//532 258//532
f 132//533 99//533 108//533
f 132//534 108//534 136//534
f 227//535 290//535 96//535
f 227//536 96//536 135//536
f 177//537 179//537 189//537
f 177//538 189//538 184//538
f 175//539 137//539 111//539
f 175//540 111//540 170//540
f 143//541 148//541 133//541
f 143//542 133//542 139//542
f 237//543 164//543 120//543
f 237//544 120//544 245//544
f 167//545 104//545 93//545
f 167//546 93//546 155//546
f 246//547 288//547 306//547
f 121//548 163//548 159//548
f 121//549 159//549 124//549
f 105//550 166//550 287//550
f 105//551 287//551 103//551
f 100//552 209//552 214//552
f 100//553 214//553 112//553
f 206//554 116//554 113//554
f 206//555 113//555 213//555
f 239//556 289//556 117//556
f 239//557 117//557 205//557
f 268//558 295//558 265//558
f 286//559 309//559 296//559
f 286//560 296//560 284//560
f 209//561 287//561 210//561
f 273//562 299//562 274//562
f 281//563 302//563 308//563
f 281//564 308//564 282//564
f 238//565 303//565 301//565
f 238//566 301//566 236//566
f 249//567 289//567 246//567
f 242//568 288//568 239//568
f 152//569 88//569 153//569
f 153//570 88//570 86//570
f 153//571 86//571 265//571
f 265//572 86//572 76//572
f 265//573 76//573 266//573
f 296//574 83//574 85//574
f 296//575 85//575 284//575
f 284//576 85//576 89//576
f 284//577 89//577 161//577
f 161//578 89//578 158//578
f 296//579 309//579 298//579
f 296//580 298//580 157//580
f 157//581 298//581 297//581
f 157//582 297//582 156//582
f 156//583 297//583 267//583
f 156//584 267//584 266//584
f 125//585 158//585 310//585
f 310//586 158//586 89//586
f 310//587 89//587 311//587
f 243//588 307//588 306//588
f 243//589 306//589 244//589
f 262//590 292//590 300//590
f 262//591 300//591 263//591
#591 polygons

