# Aspose.3D Wavefront OBJ Exporter
# Copyright 2004-2022 Aspose Pty Ltd.
# File created: 06/23/2022 13:49:07


#
# object obj_23843797
#

v 9.85910797119140624 4.337646484375 -5.57130432128906248
v 10.02523040771484375 5.028411865234375 -3.69842529296875
v 12.37907409667968752 5.28753662109375 -3.88694763183593744
v 12.1350860595703125 4.52981567382812496 -5.77887725830078128
v 9.64762115478515624 3.0454559326171875 -7.13716888427734376
v 11.80287170410156256 3.130889892578125 -7.30748748779296876
v 11.39164733886718752 1.88687133789062496 -8.33271789550781248
v 9.41316223144531248 1.81938171386718752 -8.23075866699218752
v 5.29932403564453124 2.88467407226562496 -6.90999603271484368
v 5.40296936035156248 1.63169860839843752 -8.1781005859375
v 2.81606292724609376 1.62077331542968752 -7.94364166259765632
v 2.29924774169921876 2.55722045898437504 -6.71839141845703128
v 5.27467346191406248 3.9869384765625 -5.20350646972656248
v 2.0502166748046875 3.57627868652343752 -4.95028686523437504
v 1.96309661865234368 4.1082305908203125 -2.95106506347656256
v 5.26739501953125 4.57014465332031248 -3.257232666015625
v 5.17354583740234376 4.1082305908203125 1.108428955078125
v 5.27299499511718752 4.63429260253906248 -1.0773468017578125
v 2.038726806640625 4.150238037109375 -0.7232742309570312
v 2.37039184570312496 3.88133239746093744 1.11095428466796876
v 0.89836120605468752 3.39561462402343752 1.42720031738281248
v 0.43952178955078128 3.67068481445312496 -0.45464324951171872
v -0.35321044921875 3.30513000488281248 -0.25687408447265624
v 0.68883514404296872 3.01324462890625 1.90481567382812496
v 0.11487579345703124 3.64407348632812496 -2.7799148559570312
v 0.18517303466796876 3.11016845703125 -4.81778717041015632
v -0.73585510253906256 2.75357055664062496 -4.66511535644531248
v -0.80027770996093744 3.29364013671875 -2.61603546142578128
v 0.65018463134765624 2.060272216796875 -6.56461334228515624
v 1.27288818359375 1.1129150390625 -7.77584075927734368
v 1.12274169921875 0.62802124023437504 -7.82430267333984368
v -0.1548919677734375 1.68827819824218752 -6.40465545654296872
v 2.52053833007812496 2.77262878417968752 3.42753601074218752
v 2.31913757324218752 2.42274475097656248 3.87124633789062496
v 4.29481506347656248 2.309295654296875 4.53933715820312496
v 4.96401977539062496 2.99250793457031248 3.29393005371093752
v 8.52182006835937504 -0.1313934326171875 -9.15459442138671876
v 9.1534881591796875 0.665283203125 -8.8529052734375
v 10.90508270263671872 0.78797912597656256 -8.86943817138671872
v 9.07225799560546875 -0.19273376464843752 -9.18569183349609376
v 3.218597412109375 0.092987060546875 -8.87448120117187504
v 5.58589172363281248 0.22576904296875 -9.00725555419921875
v 5.17551422119140624 -0.68965148925781248 -9.41342926025390624
v 3.097869873046875 -0.41877746582031248 -8.92462158203124992
v 7.79239654541015632 2.78410339355468752 3.58525085449218752
v 8.23946380615234376 2.82220458984375008 3.55303192138671872
v 10.70590972900390624 3.75163269042968752 2.1406707763671875
v 8.82155609130859376 3.47486877441406248 2.47065734863281248
v 10.14483642578125 5.1211395263671875 -1.51348876953125
v 9.74202728271484368 4.60488891601562496 0.54342651367187504
v 11.98018646240234368 4.89537048339843744 0.357147216796875
v 12.53621673583984376 5.40350341796875 -1.640380859375
v -0.33724212646484376 3.05218505859375 -0.12409210205078124
v 0.7098388671875 2.78718566894531248 1.98716735839843744
v -0.70671844482421872 2.5157470703125 -4.49844360351562496
v -0.77870941162109376 3.0547027587890625 -2.46141815185546872
v 1.19641876220703124 0.3431396484375 -7.66379547119140624
v -0.11818695068359376 1.43504333496093752 -6.23798370361328124
v 2.35499572753906248 2.25494384765625 3.8804931640625
v 4.33879852294921876 2.1734466552734375 4.51188659667968752
v 5.52510070800781248 -1.084625244140625 -9.269439697265625
v 3.23876190185546876 -0.76080322265624992 -8.76663208007812496
v 4.91079711914062496 2.20146179199218752 4.46202087402343752
v 8.374755859375 2.8331298828125 3.61634826660156248
v 12.23004913330078124 4.55166625976562496 -5.80099487304687504
v 12.47263336181640624 5.32171630859375 -3.90206909179687504
v 11.90679168701171872 3.1474151611328125 -7.34222412109375
v 12.64350128173828128 5.46290588378906248 -1.63141632080078128
v 11.50424957275390624 1.88156127929687504 -8.39210510253906248
v 11.00368499755859375 0.72465515136718752 -8.93526458740234368
v 12.0745849609375 4.93487548828124992 0.41793060302734376
v 10.78435516357421872 3.75639343261718752 2.23478698730468752
v 9.11736297607421876 -0.292449951171875 -9.25123596191406248
v 5.84359741210937504 -1.1709136962890625 -9.34843444824218752
v 25.07018280029296875 4.96624755859375008 -5.38195037841796872
v 25.31136322021484376 4.98556518554687504 -5.37213897705078128
v 25.21051788330078124 3.2779541015625 -8.43749237060546872
v 24.97184753417968752 3.26841735839843752 -8.43216705322265624
v 25.00994873046875 1.50114440917968752 -10.52942657470703128
v 24.76008605957031248 1.51431274414062496 -10.51850128173828128
v 25.0841827392578125 5.76625061035156256 -2.30931091308593752
v 24.3822021484375 -0.30924987792968752 -11.69976806640625
v -0.51735687255859376 2.83059692382812496 0.08907318115234375
v 0.56866455078125 2.59222412109375 2.20510101318359376
v -0.86470794677734368 2.28240966796875 -4.42588806152343752
v -0.95014190673828128 2.83621215820312496 -2.323883056640625
v 3.20711517333984376 -1.017120361328125 -8.78119659423828128
v 20.59386444091796872 -0.261077880859375 6.87918090820312496
v 17.15847015380859376 0.00335693359375 6.76628875732421872
v 16.54893493652343752 -1.85104370117187504 6.76516723632812496
v 19.87899780273437504 -2.12640380859375 6.71642303466796872
v 13.42727661132812496 0.29132080078125 6.62202453613281248
v 9.56218719482421872 0.23248291015625 6.26515960693359376
v 9.38794708251953128 -1.50508117675781248 6.58589172363281248
v 12.98133850097656256 -1.51600646972656248 6.90102386474609376
v 5.56935882568359376 -0.05322265625 6.02452850341796875
v 2.413818359375 -0.299163818359375 5.10881805419921876
v 2.79057312011718752 -1.9625244140625 5.25811767578125
v 5.77805328369140624 -1.67202758789062496 6.18784332275390624
v 0.08826446533203125 -0.50897216796875 3.51746368408203128
v -1.46669006347656248 -0.73448181152343744 1.32916259765625
v -1.20561981201171876 -2.76731872558593744 1.6793212890625
v 0.42776489257812496 -2.37400817871093752 3.79029846191406256
v -2.25213623046875 -0.97706604003906256 -1.45942687988281248
v -2.31349182128906248 -1.42050170898437504 -3.95529174804687504
v -2.23505401611328124 -3.57713317871093752 -3.5421142578125
v -2.10675811767578124 -3.1460418701171875 -1.06221771240234375
v -1.65800476074218752 -2.0625152587890625 -6.151153564453125
v -0.26244354248046876 -2.90455627441406256 -7.93887329101562496
v -0.26468658447265624 -4.74241638183593744 -7.48368835449218752
v -1.59610748291015624 -4.064544677734375 -5.75478363037109376
v 1.88298034667968752 -3.93962097167968752 -9.31510925292968752
v 5.1791534423828125 -4.52198791503906248 -10.37844085693359376
v 4.96401977539062496 -6.222869873046875 -9.7120361328125
v 1.75861358642578128 -5.61024475097656248 -8.72348785400390624
v 19.24004364013671876 -3.70683288574218752 6.05814361572265625
v 15.93267059326171872 -3.41018676757812496 6.21865081787109376
v 15.30772399902343752 -4.9287109375 5.23515319824218752
v 18.74423217773437504 -5.2841796875 4.99508666992187504
v 12.39615631103515624 -3.1412811279296875 6.498779296875
v 9.08458709716796875 -3.21156311035156248 6.322021484375
v 8.81679534912109376 -4.87716674804687504 5.60659027099609376
v 11.77821350097656256 -4.79257202148437504 5.60239410400390624
v 5.998779296875 -3.45191955566406248 5.93965148925781248
v 3.34184265136718752 -3.78302001953124992 5.09705352783203124
v 4.33095550537109376 -5.078857421875 4.82197570800781248
v 6.42176055908203128 -5.0690460205078125 5.220306396484375
v 1.95609283447265632 -7.48507690429687504 -7.66323852539062496
v 4.9561843872070312 -8.0145111083984375 -8.47895050048828128
v 5.57692718505859376 -9.311737060546875 -6.85060882568359376
v 2.89253234863281248 -8.80865478515624992 -6.59850311279296872
v 18.29267883300781248 -6.77665710449218752 3.58132171630859376
v 14.67437744140625 -6.40745544433593752 3.8880615234375
v 14.31189727783203124 -7.70161437988281248 2.329193115234375
v 18.05682373046875 -8.0660552978515625 1.98016357421875008
v 14.23066711425781248 -8.79771423339843744 0.54846954345703128
v 14.56456756591796872 -9.75350952148437504 -1.75859069824218752
v 18.289886474609375 -9.9610595703125 -2.16196441650390624
v 18.04561614990234375 -9.1428375244140625 0.18094635009765624
v 9.79524993896484368 -10.51177978515625 -3.7645339965820312
v 9.58068084716796872 -10.31346130371093752 -5.47438812255859376
v 12.46058654785156248 -10.3154296875 -6.0948486328125
v 11.96197509765624992 -10.42578125 -3.89675140380859376
v 18.78877258300781248 -10.47395324707031248 -4.9866943359375
v 15.22957611083984376 -10.41542053222656248 -4.56343841552734376
v 15.58028411865234376 -10.180389404296875 -6.75901031494140624
v 18.98681640625 -10.1719970703125 -7.15734100341796876
v 9.35265350341796876 -6.55816650390625 -10.41765594482421872
v 9.63585662841796872 -4.63990783691406248 -11.1061859130859375
v 13.46286010742187504 -4.44465637207031248 -11.48015594482421872
v 13.10654449462890624 -6.44975280761718752 -10.7935791015625
v 9.35797882080078124 -9.61959838867187504 -7.42317199707031248
v 9.28375244140625 -8.36018371582031248 -9.05458831787109375
v 12.93679046630859376 -8.25205993652343752 -9.41426086425781248
v 12.72389984130859376 -9.5447998046875 -7.85400390625
v 18.9165115356445312 -9.130218505859375 -8.785400390625
v 15.67636108398437504 -9.1739349365234375 -8.44673919677734376
v 15.9304275512695312 -7.823486328125 -9.92352294921875008
v 18.97617340087890624 -7.59434509277343752 -10.21905517578125
v 19.8487472534179688 -3.80178833007812496 -12.0762481689453125
v 19.320159912109375 -5.68138122558593752 -11.40283966064453128
v 16.24668884277343752 -6.0074462890625 -11.20255279541015624
v 16.68031311035156248 -4.0701446533203125 -11.89697265625
v 21.36363220214843752 1.93394470214843744 6.50381469726562496
v 21.71798706054687504 3.69842529296875 5.14803314208984376
v 18.252899169921875 3.93763732910156256 4.68724060058593752
v 17.75344848632812496 2.1529998779296875 6.174957275390625
v 21.78353118896484368 5.13348388671875 2.9462966918945312
v 21.98269653320312496 5.92733764648437504 0.40756988525390624
v 18.9764480590820312 6.1009979248046875 -0.08544158935546875
v 18.64395141601562496 5.348052978515625 2.43479919433593752
v 22.31575775146484376 6.0855865478515625 -2.62471771240234376
v 22.43368530273437504 5.35980224609375 -5.58951568603515624
v 19.27646636962890624 5.48362731933593752 -5.76542663574218752
v 19.24872589111328124 6.19093322753906248 -3.01352691650390625
v 20.46865081787109376 -1.885498046875 -12.27708435058593752
v 17.23410797119140624 -2.0367584228515625 -12.02469635009765625
v 17.83944702148437504 -0.0145721435546875 -11.51460266113281248
v 21.13869476318359376 0.0420074462890625 -11.80340576171875008
v 22.30091094970703124 3.79084777832031248 -8.46689605712890624
v 21.8541259765625 2.0204925537109375 -10.56611633300781248
v 18.49941253662109376 2.0515899658203125 -10.27367401123046876
v 18.97309112548828128 3.89814758300781248 -8.33524322509765624
v 15.0164031982421875 1.88156127929687504 -9.9058761596679688
v 12.85443115234375008 1.83926391601562496 -9.43555450439453128
v 13.1409912109375 3.50820922851562496 -7.96549224853515632
v 15.33937072753906248 3.68162536621093752 -8.21086883544921876
v 15.47803497314453128 5.132354736328125 -6.03070068359375
v 13.26844787597656248 4.89173889160156256 -6.0595550537109375
v 13.35193634033203124 5.61695861816406248 -3.79450225830078128
v 15.50604248046875 5.85954284667968752 -3.54940032958984376
v 15.0105133056640625 5.21217346191406248 1.71685028076171872
v 15.42369079589843752 5.86177062988281248 -0.77901458740234368
v 13.40038299560546872 5.68305969238281248 -1.17230987548828124
v 12.91270446777343744 5.0981597900390625 1.225799560546875
v 1.11853790283203124 -4.19842529296875 3.80010223388671872
v -0.43192291259765624 -4.65138244628906248 1.85942840576171872
v 1.53311920166015624 -6.1315460205078125 2.02806854248046875
v 2.17655181884765624 -5.49679565429687504 3.61325836181640624
v 0.28041839599609376 -6.80299377441406256 -6.65256500244140624
v 1.38941955566406248 -8.217041015625 -5.70127868652343752
v 1.1095733642578125 -7.9822998046875 -4.28807067871093752
v -0.85602569580078128 -6.19065856933593752 -5.11386871337890624
v -1.31037902832031248 -5.1387939453125 -0.7252273559570312
v -1.45100402832031248 -5.65029907226562496 -3.0496673583984375
v 0.47146606445312496 -7.42234802246093752 -2.4415283203125
v 0.61319732666015624 -6.80439758300781248 -0.336151123046875
v 10.80535888671875008 -7.85205078125 2.86366271972656256
v 11.11881256103515624 -6.44612121582031248 4.37798309326171872
v 8.57756805419921872 -6.50607299804687504 4.43036651611328128
v 8.67280578613281248 -7.7265625 3.27683258056640624
v 5.39344787597656248 -6.44247436523437504 3.63230895996093752
v 4.69398498535156248 -7.2049560546875 2.19081115722656248
v 6.84978485107421872 -7.98426818847656256 2.093048095703125
v 5.76264190673828128 -9.04730224609375 0.15322113037109376
v 3.66286468505859376 -8.1399993896484375 0.10700225830078124
v 3.53261566162109376 -8.88652038574218752 -1.7154541015625
v 5.68196868896484376 -9.5885009765625 -0.96529388427734368
v 8.76188659667968752 -8.90696716308593744 1.37705993652343752
v 8.0344085693359375 -9.23695373535156248 0.59609222412109376
v 7.9537429809570312 -9.77842712402343744 -0.52243041992187504
v 8.9820556640625 -10.008392333984375 -1.22299957275390624
v 4.64580535888671872 -9.67169189453125 -4.54354858398437504
v 6.51589202880859376 -10.14202880859375 -2.38270568847656248
v 4.302947998046875 -9.44145202636718752 -3.2740478515625
v 22.33985137939453124 -9.0428466796875 -8.80108642578124992
v 22.34937286376953124 -7.65931701660156248 -10.172271728515625
v 24.48948669433593752 -7.48033142089843752 -10.0481719970703125
v 24.48052215576171872 -8.76214599609375008 -8.74562072753906256
v 22.50007629394531248 -10.27508544921875 -5.12451171875
v 22.54125213623046872 -9.94117736816406256 -7.22233581542968752
v 24.7253494262695312 -9.51119995117187504 -7.1629486083984375
v 24.77101135253906256 -9.83949279785156256 -5.1315155029296875
v 22.21855163574218752 -10.003936767578125 -2.41323852539062496
v 24.60769653320312496 -9.68206787109375 -2.53677368164062496
v 24.50321197509765624 -9.1352691650390625 -0.25154876708984376
v 22.05496978759765625 -9.37393188476562496 -0.08768463134765625
v 22.0115509033203125 -8.40499877929687504 1.84346771240234368
v 24.43486022949218752 -8.2027587890625 1.72273254394531248
v 24.50993347167968752 -6.98703002929687504 3.43902587890625
v 22.1336822509765625 -7.1677093505859375 3.51885986328125
v 22.85667419433593744 -4.09619140625 6.26235198974609376
v 22.42752838134765624 -5.67495727539062496 5.06175994873046875
v 24.7253494262695312 -5.49285888671875 5.010498046875
v 25.1217193603515625 -3.81661987304687504 6.0959625244140625
v 27.0531463623046875 0.1223907470703125 -12.00201416015625
v 27.16351318359375 -1.82975769042968752 -12.40370941162109376
v 25.61136627197265624 -2.36981201171875 -12.35552978515625
v 22.56590270996093752 -5.72761535644531248 -11.2745361328125
v 22.97403717041015632 -3.78273010253906256 -12.0294647216796875
v 24.95980834960937504 -4.1298065185546875 -11.77595520019531248
v 24.7452392578125 -5.64582824707031248 -11.08209991455078125
v 26.73268890380859376 2.49053955078125 6.78337860107421872
v 24.20124816894531248 1.85551452636718752 6.63042449951171872
v 25.71977996826171872 1.93338012695312496 6.73519134521484368
v 23.42671203613281248 -2.40707397460937504 6.87777709960937504
v 25.54974365234375 -1.92637634277343744 6.71558380126953128
v 25.62677764892578128 -0.342041015625 7.106353759765625
v 23.942138671875 -0.37228393554687504 7.04976654052734375
v -1.21485900878906248 1.44989013671875 0.80814361572265632
v 0.10422515869140624 1.39945983886718752 2.99362945556640624
v 0.26390075683593752 2.43115234375 2.55524444580078128
v -0.90000152587890624 2.63984680175781248 0.39356994628906248
v 12.3577880859375 5.0323333740234375 0.90730285644531248
v 12.91690063476562496 5.59175109863281248 -1.30592346191406248
v 12.6524658203125 5.49986267089843752 -1.46110534667968752
v 12.0647735595703125 4.96371459960937504 0.62942504882812496
v 12.82838439941406256 5.47801208496093752 -3.81131744384765632
v 12.65303039550781248 4.70404052734375 -5.92845153808593744
v 12.29615783691406248 4.58610534667968752 -5.83658599853515632
v 12.52642059326171872 5.36961364746093752 -3.8443603515625
v 12.38690948486328128 3.27095031738281248 -7.65567779541015624
v 11.99615478515624992 1.77146911621093744 -8.89352416992187504
v 11.52974700927734376 1.77987670898437504 -8.53076934814453128
v 11.95973205566406256 3.14544677734375 -7.43773651123046872
v -1.68965911865234376 0.81906127929687504 -4.28667449951171876
v -1.7459640502929688 1.36557006835937504 -1.916015625
v -1.31373596191406248 2.63760375976562496 -2.20650482177734376
v -1.20533752441406248 2.055511474609375 -4.44466400146484376
v 1.09809112548828124 0.0694732666015625 -7.66464233398437504
v -0.25993347167968752 1.1703338623046875 -6.21109771728515624
v 14.26707458496093752 3.93118286132812496 3.98470306396484368
v 11.89138031005859376 3.86061096191406256 3.40261077880859376
v 10.07256317138671875 2.99726867675781248 4.67631530761718752
v 2.17235565185546876 2.0165863037109375 4.28302001953125
v 5.72370910644531248 2.2496337890625 4.88471984863281248
v 4.87326049804687504 2.1448822021484375 4.69088745117187504
v 10.76614379882812496 3.76171875 2.42499542236328128
v 8.36916351318359376 2.8236083984375 3.7816085815429688
v 9.22688293457031248 2.951904296875 3.9793777465820312
v 11.143463134765625 3.80654907226562496 2.83229064941406256
v 12.40288543701171872 -0.113739013671875 -10.47032165527343752
v 14.5133056640625 -0.24201965332031248 -11.09610748291015624
v 10.04651641845703125 -1.37063598632812496 -10.75660705566406256
v 10.99724578857421872 0.48234558105468752 -9.12154388427734376
v 11.48073577880859376 0.19523620605468752 -9.64649200439453128
v 9.38964080810546872 -0.919921875 -9.96189880371093744
v 9.07366180419921875 -0.54623413085937504 -9.44367980957031248
v 26.71728515625 6.36851501464843752 -2.72528839111328128
v 27.02176666259765625 5.580810546875 -5.35196685791015624
v 27.19740295410156248 3.88497924804687504 -8.56438446044921872
v 27.19152069091796876 2.0594329833984375 -10.78461456298828128
v 5.78645324707031248 -1.93142700195312496 -10.30001068115234376
v 5.60605621337890624 -2.91354370117187504 -10.47760009765625
v 2.32697296142578124 -2.46757507324218752 -9.43667602539062496
v 2.95809173583984368 -1.84066772460937504 -9.64088439941406248
v 5.75367736816406256 -1.31236267089843752 -9.50531005859375
v 5.72734832763671872 -1.58212280273437504 -9.83864593505859376
v 3.19366455078125 -1.54206848144531248 -9.34787750244140624
v 3.0034637451171875 -1.19276428222656248 -8.96495056152343744
v -1.04510498046875 -0.18292236328125 -6.30382537841796876
v 0.97904205322265632 -0.57928466796875 -8.201904296875
v 0.29247283935546876 -1.27874755859375 -8.01871490478515625
v 10.12859344482421876 -2.59867858886718752 -11.124114990234375
v 13.99703979492187504 -2.33619689941406248 -11.60312652587890624
v 5.37720489501953128 1.41067504882812496 5.44020080566406248
v 2.20932769775390624 1.20843505859375 4.64606475830078128
v 13.73876953125 2.29277038574218752 5.72396087646484368
v 9.60700225830078128 2.0045166015625 5.38249969482421872
v 7.0497894287109375 -6.52146911621093752 4.03316497802734375
v 6.82065582275390624 -10.1162567138671875 -4.82758331298828128
v 7.54644775390625 -10.37088012695312496 -3.08048248291015625
v 11.22385406494140624 -9.87086486816406256 -1.25241851806640624
v 10.838134765625 -9.013702392578125 1.0028228759765625
v 26.65565490722656248 5.61387634277343752 3.51296997070312496
v 24.53823089599609376 5.1693267822265625 3.244903564453125
v 24.44802856445312496 3.69953918457031248 5.31947326660156248
v 26.56461334228515624 4.23063659667968752 5.54832458496093752
v 24.74215698242187504 5.97186279296875008 0.68348693847656248
v 23.68666076660156248 -1.97233581542968752 -12.40650177001953128
v 7.57726287841796872 -7.65371704101562496 2.8768310546875
v 25.29539489746093752 -7.49237060546875 -10.03865814208984375
v 25.26514434814453124 -8.77336120605468752 -8.72041320800781248
v 25.47494506835937504 -9.51847839355468752 -7.11505126953125
v 25.49624633789062496 -9.83108520507812496 -5.0424346923828125
v 25.31275939941406248 -9.7005615234375 -2.44348907470703128
v 25.19287109375 -9.1632843017578125 -0.153228759765625
v 25.12227630615234376 -8.18705749511718752 1.8238601684570312
v 25.18558502197265624 -6.96658325195312496 3.5345458984375
v 25.38111114501953128 -5.49708557128906248 5.02787017822265625
v 25.75227355957031248 -3.76144409179687504 6.110809326171875
v 25.78756713867187504 -4.142974853515625 -11.78968811035156256
v 25.57186889648437504 -5.65927124023437504 -11.092742919921875
v 26.05899810791015625 -1.84010314941406256 6.7477951049804688
v 26.14415740966796876 -0.220458984375 7.1480865478515625
v 2.30708312988281248 2.122467041015625 4.01747894287109375
v -0.5770263671875 0.89524841308593744 -6.32371520996093752
v 0.82413482666015632 -0.18910217285156248 -7.83047485351562496
v 26.52987670898437504 6.26936340332031248 0.40504455566406248
# 349 vertices

vn -0.12948961555957794 0.9339948892593384 -0.33299547433853148
vn -0.11087966710329056 0.92744481563568112 -0.3571438491344452
vn -0.08542986214160919 0.65032333135604856 -0.75483858585357664
vn -0.06097155064344406 0.6708663702011108 -0.73906749486923216
vn -0.0667949765920639 0.7070139050483704 -0.70403820276260376
vn -0.1237841323018074 0.7625265717506408 -0.63500440120697024
vn -0.1420707255601883 0.95501774549484256 -0.26030164957046508
vn -0.15850426256656646 0.94564497470855712 -0.2839578092098236
vn -0.11977750062942504 0.96646475791931152 0.2271544337272644
vn -0.07951612025499344 0.9841268658638 0.15865524113178254
vn -0.36247634887695312 0.90547621250152592 0.2207345813512802
vn -0.5454459190368652 0.75458198785781856 0.36482155323028568
vn -0.38516825437545776 0.88937300443649296 -0.24629463255405428
vn -0.38475263118743896 0.88948613405227664 -0.24653561413288116
vn -0.73992991447448736 0.28978985548019408 -0.60706311464309696
vn -0.39413872361183168 0.53020417690277096 -0.750691831111908
vn -0.14656482636928558 0.80802094936370848 0.5706321597099304
vn -0.0548563189804554 0.88755536079406736 0.4574236273765564
vn -0.03522546961903572 0.37822857499122616 -0.92504179477691648
vn -0.0160369724035263 0.3338937759399414 -0.94247424602508544
vn -0.07464683800935745 0.43220901489257816 -0.89867866039276128
vn -0.20879794657230376 0.14402757585048676 -0.9672948718070984
vn -0.03733795508742332 0.86346983909606928 0.50301659107208248
vn -0.03957944735884666 0.8652865290641784 0.49971252679824832
vn -0.10727813839912414 0.96907812356948848 0.22221359610557556
vn -0.10300932824611664 0.97045439481735232 0.21819142997264864
vn -0.09864601492881774 0.93645292520523072 -0.33663782477378844
vn -0.11807674169540406 0.95109516382217408 -0.28543978929519652
vn -0.12545666098594666 0.85180562734603888 -0.508613646030426
vn -0.14793851971626282 0.82978594303131104 -0.53811657428741456
vn -0.04107042029500007 0.6694375276565552 -0.7417321801185608
vn -0.06293760985136032 0.70735049247741696 -0.70405548810958864
vn -0.07652149349451065 0.50400054454803464 -0.8603068590164184
vn -0.08033236116170883 0.49857562780380248 -0.86311590671539312
vn -0.29937037825584412 0.69295215606689456 -0.65589231252670288
vn -0.26979535818099976 0.68626463413238528 -0.67546379566192624
vn -0.07702494412660599 0.970141351222992 0.22998447716236116
vn -0.07651912420988083 0.97050940990448 0.22859638929367064
vn -0.07228212803602219 0.8978251814842224 0.43437916040420536
vn -0.05562391132116318 0.89142173528671264 0.44974797964096072
vn -0.25762706995010376 0.93248242139816288 -0.2531893253326416
vn -0.25146716833114624 0.932543396949768 -0.25908884406089784
vn -0.1396978348493576 0.99009621143341072 -0.01392682269215583
vn -0.15102609992027282 0.98811334371566768 -0.02868943847715854
vn -0.25362297892570496 0.94943732023239136 0.18505160510540008
vn -0.26725488901138304 0.94203102588653568 0.2028605043888092
vn -0.31702902913093568 0.80336487293243408 0.50408083200454712
vn -0.30560922622680664 0.8102079033851624 0.50016611814498904
vn -0.34734341502189636 0.93573457002639776 0.06126515939831734
vn -0.40868291258811952 0.91148459911346432 0.04662743583321571
vn -0.87654292583465584 0.17917348444461822 0.44673192501068112
vn -0.88875460624694832 0.08173331618309021 0.45103755593299864
vn -0.43505588173866272 0.69584065675735472 -0.57142984867095944
vn -0.37938621640205384 0.74495422840118416 -0.54873442649841312
vn -0.99263858795166016 -0.12111232429742814 0.0007128594443202
vn -0.99531954526901248 -0.09614623337984086 -0.00973746087402105
vn -0.40271449089050296 0.18287356197834016 -0.89687138795852656
vn -0.39417389035224912 0.21144267916679384 -0.8943819403648376
vn -0.8063691854476928 -0.43456274271011352 -0.40115335583686832
vn -0.805665910243988 -0.40270641446113584 -0.43443068861961368
vn -0.30149146914482116 -0.28167834877967836 0.91091167926788336
vn -0.32114213705062868 -0.01644718833267688 0.94688820838928224
vn 0.01421786099672317 0.8734092116355896 0.48677942156791688
vn 0.00761669827625155 0.84681022167205808 0.53184056282043456
vn 0.01533922925591468 0.34344115853309632 -0.93904888629913328
vn -0.01100453455001115 0.40966463088989256 -0.91216987371444704
vn -0.25917723774909972 -0.5249449610710144 -0.81071579456329344
vn -0.2528609037399292 -0.48962074518203736 -0.83446568250656128
vn -0.0649157389998436 0.96769887208938592 0.24360771477222444
vn 0.25468987226486208 -0.1116366684436798 0.96055728197097776
vn 0.09039955586194992 -0.2695041596889496 -0.95874679088592528
vn -0.00260806712321937 0.4334582090377808 -0.90116983652114864
vn -0.03367253020405769 0.85206395387649536 0.52235347032547
vn -0.07381883263587952 0.87527632713317872 0.47795608639717104
vn -0.11939560621976852 0.99192160367965696 -0.04285108298063278
vn -0.1122022494673729 0.99303299188613888 -0.03600176051259041
vn -0.12269727140665054 0.74526977539062496 -0.65537655353546144
vn -0.08030921965837479 0.7740944623947144 -0.62795543670654296
vn -0.06133892759680748 0.45984065532684328 -0.88588041067123408
vn -0.04198499396443367 0.48140376806259152 -0.87549287080764768
vn -0.60516870021820072 -0.50380325317382816 -0.61640334129333496
vn -0.60930311679840088 -0.52534586191177368 -0.59393727779388424
vn -0.95513981580734256 -0.23929858207702636 -0.17448216676712036
vn -0.95427429676055904 -0.24808469414711 -0.1667771190404892
vn -0.98200368881225584 0.03539206460118294 0.18551610410213472
vn -0.98204898834228512 0.03167956694960594 0.18594656884670256
vn -0.76620870828628544 -0.12904578447341918 0.62950080633163456
vn -0.732377290725708 0.17195908725261688 0.65882736444473264
vn -0.28849637508392332 0.95744538307189936 -0.0082596680149436
vn -0.2415403425693512 0.97012704610824592 0.02262046933174133
vn -0.19698779284954072 0.87931013107299808 0.4336006045341492
vn -0.0334332063794136 0.869049608707428 0.49359384179115296
vn -0.0146384285762906 0.89112329483032224 0.45352497696876528
vn -0.243443101644516 0.45707112550735472 -0.85546565055847168
vn -0.03398182615637779 0.48015844821929928 -0.87652325630187984
vn -0.02495022490620613 0.50542408227920536 -0.8625102639198304
vn -0.28773832321166992 0.78510421514511104 -0.5484687685966492
vn -0.24249826371669768 0.8253697752952576 -0.50986206531524656
vn -0.10925095528364182 0.77386474609375008 -0.62385696172714232
vn -0.05931897088885307 0.83813428878784176 -0.54222887754440304
vn -0.10260997712612152 0.99404925107955936 -0.036569993942976
vn -0.09850016236305236 0.99471384286880496 -0.02901860699057579
vn 0.01912602223455906 0.7618871927261352 0.64742732048034664
vn -0.13464310765266418 0.98385083675384528 0.11793569475412368
vn -0.28328582644462584 0.90234035253524784 -0.32485550642013548
vn -0.36999168992042544 0.87644219398498528 -0.30814799666404724
vn -0.3176535964012146 0.73287177085876464 -0.6016603112220764
vn -0.30965492129325868 0.73429650068283088 -0.6040881276130676
vn -0.34648877382278444 0.93774271011352544 -0.02416970767080784
vn -0.48316055536270144 0.87534523010253904 -0.0180710032582283
vn -0.32446950674057008 0.6631401181221008 -0.67451071739196776
vn -0.33009612560272216 0.66258519887924192 -0.67232239246368408
vn -0.22895765304565428 0.50718832015991208 -0.83086603879928592
vn -0.37836411595344544 0.52245759963989256 -0.764119565486908
vn -0.48807176947593688 0.86864417791366576 0.08510721474885941
vn -0.44163769483566288 0.89079982042312624 0.10691915452480316
vn -0.4848778545856476 0.8514967560768128 0.19961632788181304
vn -0.39544636011123656 0.87300896644592288 0.28544279932975768
vn -0.26104503870010376 0.95032745599746704 0.16950881481170654
vn -0.20370106399059296 0.94019180536270144 0.27302986383438112
vn -0.1231808364391327 0.50558179616928104 -0.8539400100708008
vn -0.1718568354845047 0.56863081455230712 -0.80444031953811648
vn -0.09462995827198028 0.45928919315338136 -0.88323193788528448
vn -0.11156048625707626 0.51011520624160768 -0.85284036397933952
vn -0.05021846666932106 0.87319493293762208 -0.4847770631313324
vn -0.04571698233485222 0.87347191572189328 -0.48472341895103456
vn -0.04488289728760719 0.7635302543640136 -0.64421039819717408
vn 0.01213652081787586 0.7647550702095032 -0.644206702709198
vn -0.06712785363197327 0.965628445148468 -0.25110852718353272
vn -0.00795093737542629 0.54482054710388184 -0.83851498365402224
vn -0.52650588750839232 0.77152216434478752 0.35713455080986024
vn -0.52145546674728392 0.77548784017562864 0.35595339536666872
vn -0.83975237607955936 0.51683616638183592 -0.16642224788665772
vn -0.82509481906890864 0.537187933921814 -0.1750648021697998
vn -0.19960853457450868 0.14974412322044372 -0.968366265296936
vn -0.20319415628910064 0.08053608983755112 -0.97582066059112544
vn -0.03207787126302719 0.00993943959474563 0.9994359612464904
vn 0.00716548273339867 -0.08964692056179047 0.99594783782958992
vn -0.09313267469406128 0.18975552916526796 0.97740429639816288
vn -0.08553076535463333 0.17258429527282714 0.98127424716949456
vn -0.28025084733963012 0.02265949919819832 0.95965927839279168
vn -0.30172428488731384 0.05711357668042183 0.95168298482894896
vn -0.81491678953170784 -0.00482738902792334 0.5795578956604004
vn -0.78502750396728512 -0.05260879918932915 0.61722290515899656
vn -0.99908185005187984 -0.03059049136936664 0.02999528124928474
vn -0.99657529592514032 -0.05558529496192932 0.06121983751654625
vn -0.81136316061019904 -0.1395951360464096 -0.56762933731079104
vn -0.81012362241744992 -0.13786189258098602 -0.56981903314590456
vn -0.34078752994537352 -0.30528193712234496 -0.88919448852539056
vn -0.3324430286884308 -0.2927449941635132 -0.89653897285461424
vn -0.00775210326537489 -0.5413450002670288 0.84076476097106928
vn 0.00011625311890384182 -0.55890113115310672 0.82923430204391472
vn -0.04087724164128303 -0.38877978920936584 0.92042338848114016
vn 0.01499196607619524 -0.48135352134704592 0.87639838457107536
vn -0.23811566829681396 -0.37218707799911496 0.89709401130676272
vn -0.16637621819972992 -0.43677067756652832 0.88405328989028928
vn -0.28482899069786072 -0.79971444606781008 -0.52851611375808712
vn -0.19522848725318908 -0.6948861479759216 -0.69211202859878544
vn -0.02379582822322845 -0.76646465063095088 0.64184546470642088
vn -0.01707473210990429 -0.77751088142395024 0.62863767147064208
vn -0.01019265688955783 -0.92432683706283568 0.38146549463272096
vn -0.05420928448438644 -0.94444149732589728 0.32417845726013184
vn -0.02483086846768856 -0.99338638782501216 -0.11210250854492188
vn 0.03708328306674957 -0.99844115972518928 -0.04171307757496834
vn -0.02954339422285557 -0.99337476491928096 -0.11105767637491226
vn -0.01381464954465627 -0.99019527435302736 -0.13900534808635712
vn -0.07536950707435608 -0.32699510455131532 -0.94201570749282832
vn -0.08592478930950165 -0.30905190110206604 -0.94715565443038944
vn -0.03658517450094223 -0.79184710979461664 -0.60962259769439696
vn -0.06518492102622986 -0.7640069723129272 -0.64190673828125
vn -0.06113148480653763 -0.73132753372192384 -0.67928129434585568
vn -0.01965872012078762 -0.68182218074798584 -0.73125374317169184
vn -0.02640813216567039 -0.33057263493537904 -0.94341099262237552
vn -0.02520108595490455 -0.33231446146965028 -0.94283193349838256
vn -0.0619225762784481 0.61590433120727536 0.78538358211517328
vn -0.03041489422321319 0.6450282335281372 0.76355320215225216
vn 0.00611022766679525 0.95427185297012336 0.29887786507606508
vn 0.01843397505581379 0.95732051134109504 0.28844022750854492
vn 0.0511871799826622 0.97051417827606208 -0.23554639518260956
vn 0.06461671739816666 0.9666533470153808 -0.24780231714248656
vn -0.0874016135931015 0.2681705355644226 -0.95939856767654416
vn -0.08858248591423035 0.26664066314697264 -0.9597166180610656
vn -0.04848143085837364 0.76860868930816656 -0.63787949085235592
vn -0.00390583300031721 0.7245280742645264 -0.68923419713974
vn -0.17070752382278442 0.66762083768844608 -0.72466641664505008
vn -0.13376820087432862 0.69199687242507936 -0.70939862728118896
vn -0.09939292818307876 0.94871711730957024 -0.30009463429450988
vn -0.07596518099308014 0.95709609985351568 -0.27963617444038392
vn -0.12982219457626342 0.96459668874740608 0.22956356406211852
vn -0.10328733175992966 0.97095662355422976 0.21581225097179412
vn -0.52577453851699832 -0.63331031799316408 0.56787240505218504
vn -0.63726067543029784 -0.59054297208786008 0.49513417482376096
vn -0.77042007446289056 -0.63580560684204104 -0.04694948717951775
vn -0.62737804651260376 -0.762081265449524 -0.16009064018726348
vn -0.69735485315322872 -0.68996572494506832 0.19401945173740388
vn -0.66211199760437008 -0.70585441589355472 0.2517482340335846
vn 0.03130288049578666 -0.73571121692657472 0.67657154798507688
vn 0.10087843984365464 -0.67921781539916992 0.72697097063064576
vn -0.26238992810249328 -0.79453980922698976 0.5475929379463196
vn -0.37475547194480896 -0.84823495149612432 0.3742403984069824
vn -0.4110088646411896 -0.80864447355270384 0.42091056704521176
vn -0.06421244889497757 -0.89639794826507568 0.4385744035243988
vn 0.06322315335273743 -0.91701310873031616 0.39381444454193112
vn -0.33043381571769716 -0.9403213262557984 0.08129794150590897
vn 0.09957081079483032 -0.7007784843444824 -0.70639592409133912
vn 0.11098623275756836 -0.70873588323593136 -0.69668895006179808
vn 0.1948978453874588 -0.9692169427871704 -0.1504436433315277
vn 0.18544720113277436 -0.96940338611602784 -0.16083034873008728
vn 0.14172783493995666 -0.9612436890602112 0.23648224771022796
vn 0.11119302362203598 -0.95722180604934688 0.26713788509368896
vn 0.09647395461797714 -0.81419903039932256 0.57251435518264768
vn 0.08094177395105362 -0.8045868277549744 0.58829283714294432
vn 0.066287562251091 -0.61533921957015992 0.78547036647796624
vn 0.1292605847120285 -0.56034213304519656 0.81811273097991936
vn -0.09822308272123336 0.19524298608303072 -0.97582393884658816
vn 0.05349433422088623 -0.37107470631599424 -0.92706090211868288
vn 0.0954313650727272 -0.4254015386104584 -0.89995908737182624
vn -0.07094936072826385 0.0427950844168663 0.99656146764755248
vn 0.12855029106140136 -0.24337016046047212 0.96137702465057376
vn -0.03210913389921188 -0.076102115213871 0.99658292531967168
vn -0.8036257028579712 0.33375272154808044 0.49274227023124696
vn -0.80075955390930176 0.37469032406806944 0.46732363104820248
vn -0.39302203059196472 0.91018259525299072 0.13077232241630554
vn -0.34924644231796264 0.9265949130058288 0.13945868611335754
vn -0.3670857846736908 0.8830313682556152 -0.29240998625755312
vn -0.28860220313072204 0.90191096067428592 -0.32134932279586792
vn -0.46875917911529544 0.631783664226532 -0.61734461784362792
vn -0.49117743968963624 0.6333327889442444 -0.598025381565094
vn -0.94902801513671872 0.30145543813705444 -0.09203474968671798
vn -0.92832589149475104 0.34637278318405152 -0.13504403829574584
vn -0.62088418006896976 0.22540545463562012 -0.750796377658844
vn -0.6090746521949768 0.24968844652175904 -0.75278401374816896
vn -0.13011212646961212 0.89708554744720464 0.42226570844650272
vn 0.0718676745891571 0.71096533536911008 -0.69954514503479
vn -0.20561407506465912 0.93643963336944576 0.28425991535186768
vn -0.3075038492679596 0.93396526575088496 0.18207229673862456
vn -0.20321477949619292 0.56338030099868776 -0.8008161187171936
vn -0.28076031804084776 0.70933485031127928 -0.64654284715652464
vn -0.26273190975189208 0.69948661327362064 -0.66459798812866208
vn -0.39700061082839968 0.86546152830123904 -0.30555975437164308
vn -0.315003901720047 0.91383099555969232 -0.25629168748855592
vn -0.2670961022377014 0.74697387218475344 -0.60884290933609008
vn -0.26246687769889832 0.74568212032318112 -0.61242902278900144
vn -0.26805844902992248 0.218887060880661 -0.9382073879241944
vn -0.22873185575008392 -0.08560694754123688 -0.96971815824508672
vn -0.10785815119743348 0.77695387601852416 -0.62024939060211184
vn -0.10645318776369094 0.70770567655563352 -0.69844138622283936
vn -0.58757418394088744 0.3912391662597656 -0.70829975605010984
vn -0.07380814105272293 -0.08030311763286591 -0.9940341114997864
vn -0.05233854055404663 -0.04839903116226196 -0.997455894947052
vn -0.0979984700679779 0.01491585001349449 -0.99507480859756464
vn -0.12102264910936356 -0.02721086330711841 -0.992276668548584
vn -0.97788256406784064 0.20874738693237304 -0.01304856687784195
vn -0.96315473318099968 0.25616487860679628 -0.08192943036556244
vn -0.83346474170684816 0.21727226674556732 0.50806427001953128
vn -0.81231236457824704 0.16068333387374878 0.56065094470977784
vn -0.28690266609191896 0.3224114775657654 0.90207409858703616
vn -0.25041541457176208 0.25288429856300356 0.9345275163650512
vn -0.10456357896327972 0.44552990794181824 0.88913977146148688
vn -0.08979303389787674 0.41932871937751768 0.90338283777236944
vn -0.0188812967389822 0.1749606430530548 0.9843943119049072
vn -0.07000286877155304 0.282546728849411 0.9566958546638488
vn -0.70311266183853152 0.206570103764534 -0.68041265010833744
vn -0.73056024312973024 0.18482725322246552 -0.65735894441604616
vn -0.30485865473747252 0.01330557744950056 -0.95230466127395632
vn -0.2999272048473358 0.02080774679780006 -0.9537351727485656
vn -0.05066109076142311 -0.06752759218215942 0.99643033742904656
vn -0.05309722572565079 -0.07074321061372757 0.9960803389549256
vn 0.05081325024366379 0.14010947942733764 0.98883128166198736
vn -0.03772381320595741 0.01179537735879421 0.99921864271163936
vn -0.01313192956149578 -0.326135516166687 0.94523179531097408
vn 0.00993589032441377 -0.38790106773376464 0.92164748907089232
vn -0.1130984053015709 0.08528824150562286 0.9899165034294128
vn -0.07248615473508835 0.18806780874729156 0.97947752475738528
vn -0.08695092797279358 -0.13711923360824584 0.98673087358474736
vn -0.04720686748623848 -0.2239283174276352 0.97346168756484992
vn -0.53091204166412352 0.02726114727556705 0.84698837995529168
vn -0.56068986654281616 -0.05282709002494812 0.82633894681930544
vn -0.27801567316055296 -0.16786377131938934 0.94579541683197024
vn -0.2791636884212494 -0.16648973524570466 0.9457001090049744
vn -0.94971746206283568 -0.00632744329050183 0.31304430961608888
vn -0.95807319879531856 -0.07542891800403595 0.27641671895980836
vn -0.74384886026382448 -0.2460608184337616 0.62140399217605592
vn -0.72072994709014896 -0.26945540308952332 0.63870352506637576
vn -0.96219772100448608 -0.08121659606695175 -0.25996065139770508
vn -0.96128791570663456 -0.08516791462898254 -0.26205331087112428
vn -0.9381490349769592 -0.329657644033432 0.10584039241075516
vn -0.92790323495864864 -0.34836816787719728 0.13279692828655242
vn -0.57889199256896976 -0.23356631398200988 -0.78123670816421504
vn -0.59399646520614624 -0.19271689653396608 -0.78104317188262944
vn -0.79613918066024784 -0.3953760862350464 -0.45808309316635128
vn -0.80406290292739872 -0.40975096821784976 -0.43079814314842224
vn -0.17396238446235656 -0.30982857942581176 -0.93474239110946656
vn -0.16023226082324982 -0.34245020151138304 -0.92577189207077024
vn -0.34073689579963684 -0.53200638294219968 -0.77515649795532224
vn -0.30821338295936584 -0.49268186092376712 -0.81379920244216912
vn -0.07262097299098969 -0.5416027307510376 0.83749192953109744
vn -0.10822781920433044 -0.582954466342926 0.80526447296142576
vn 0.0708911269903183 -0.49623993039131168 0.86528623104095456
vn 0.02424626424908638 -0.55046170949935912 0.83450824022293088
vn -0.01733607612550258 -0.66926389932632448 0.74282252788543696
vn -0.00838173925876617 -0.68634146451950072 0.7272311449050904
vn -0.11039908230304718 -0.427911639213562 0.89705276489257808
vn -0.08431108295917511 -0.38178545236587528 0.92039746046066288
vn 0.01791643165051937 -0.5870565176010132 0.80934768915176384
vn 0.03065498918294906 -0.60267645120620728 0.79739660024642944
vn -0.3782397210597992 -0.42645666003227232 0.82162606716156
vn -0.38125869631767272 -0.46110543608665464 0.801263689994812
vn -0.12912744283676148 -0.707126259803772 0.69519674777984616
vn -0.2044895589351654 -0.67097145318984984 0.71272808313369752
vn -0.54017531871795656 -0.72538614273071296 -0.42664456367492672
vn -0.54969215393066408 -0.71816802024841312 -0.42670038342475888
vn -0.15470334887504578 -0.78543502092361456 -0.59929853677749632
vn -0.14147567749023438 -0.79985731840133664 -0.58327788114547728
vn -0.20110139250755312 -0.94640582799911504 -0.25273358821868896
vn -0.22208632528781892 -0.95206338167190544 -0.21036380529403688
vn -0.04461458697915077 -0.77485847473144528 0.63055843114852904
vn -0.07174061238765717 -0.79983657598495488 0.59591490030288696
vn 0.13227578997612 -0.73991179466247552 0.65957075357437136
vn 0.0942675992846489 -0.77664554119110112 0.62284457683563232
vn -0.03382851555943489 -0.85042369365692144 0.52500969171524048
vn -0.02812324464321136 -0.85765397548675536 0.51345759630203248
vn -0.0934177041053772 -0.99027085304260256 -0.10313421487808228
vn -0.09526628255844116 -0.98993068933486944 -0.10469689965248108
vn 0.05203524976968765 -0.97433841228485104 0.21899084746837616
vn 0.06261111050844193 -0.97501158714294432 0.21314825117588044
vn 0.08814161270856857 -0.92602229118347168 0.36703366041183472
vn 0.11086007952690124 -0.91238391399383552 0.39403757452964784
vn 0.0470699742436409 -0.9866167902946472 -0.15611468255519866
vn 0.06183169409632683 -0.989321768283844 -0.13198207318782806
vn 0.00517186801880598 -0.98373830318450928 0.17953339219093322
vn -0.03016298078000545 -0.97439849376678464 0.22279511392116548
vn 0.01085169240832328 -0.94367557764053344 0.33069413900375368
vn -0.0382932648062706 -0.96517747640609744 0.25877809524536132
vn -0.03153484687209129 -0.91376715898513792 -0.40501245856285096
vn -0.07116857916116714 -0.94222122430801392 -0.3273441195487976
vn 0.03420174121856689 -0.99851638078689568 -0.0423704944550991
vn -0.01917962357401847 -0.9938074350357056 -0.10944853723049164
vn -0.05796487629413605 -0.85597884654998784 -0.5137512683868408
vn -0.04477016627788543 -0.84234553575515744 -0.53707498311996456
vn -0.0030025546438992 -0.68229681253433224 -0.73106908798217776
vn 0.01471143960952758 -0.70390599966049192 -0.71014088392257688
vn 0.03151014074683189 -0.36741679906845096 -0.92952245473861696
vn 0.01614963822066784 -0.3412582278251648 -0.9398308396339416
vn -0.06224293261766434 -0.60286915302276608 -0.79540842771530144
vn -0.06071037426590919 -0.60067754983901976 -0.7971829175949096
vn 0.00174569385126233 -0.77014815807342528 -0.63786262273788456
vn -0.04404250904917717 -0.733466386795044 -0.6782972812652588
vn -0.03659702092409134 -0.57116353511810304 -0.8200200200080872
vn 0.0004200840776320547 -0.52627062797546384 -0.85031706094741824
vn -0.07772805541753769 -0.3209417164325714 -0.9439039826393128
vn -0.08674384653568268 -0.308898001909256 -0.94713127613067632
vn -0.23763778805732728 0.79743838310241696 0.55463528633117672
vn -0.25959137082099916 0.8040831089019776 0.53484839200973512
vn -0.05114910379052162 0.58319908380508424 0.8107172846794128
vn -0.01839291118085384 0.61150091886520384 0.79102993011474608
vn -0.04493747651576996 0.9543088674545288 0.2954237461090088
vn -0.04439453035593033 0.95447206497192384 0.29497832059860228
vn 0.1621457189321518 0.95475023984909056 -0.249320849776268
vn 0.13736853003501892 0.96335911750793456 -0.23036693036556244
vn 0.0549677275121212 0.22022475302219392 -0.97389918565750128
vn -0.02604236640036106 0.40017735958099368 -0.91606760025024416
vn -0.18336972594261168 0.5777442455291748 -0.79535341262817376
vn -0.23098668456077576 0.52950334548950192 -0.81625443696975712
vn 0.1413244903087616 0.75062412023544304 -0.64543843269348144
vn 0.15310212969779968 0.73913460969924928 -0.65592670440673832
vn -0.02781399898231029 0.849388599395752 0.52703446149826048
vn -0.01472206320613622 0.8378692865371704 0.54567229747772216
vn -0.13200682401657104 0.6562490463256836 0.74290740489959712
vn -0.05043952539563179 0.73456919193267824 0.67665642499923704
vn 0.03006905876100063 0.99898701906204224 0.03347967192530632
vn 0.04820135235786438 0.99719065427780144 0.05733569711446762
vn -0.11707691848278046 0.9556943774223328 0.27007642388343812
vn -0.08323089778423309 0.96767348051071168 0.2380772829055786
vn 0.0066345534287393 0.85068953037261968 -0.52562654018402096
vn 0.06106708571314812 0.87513732910156256 -0.4800056517124176
vn -0.07193151861429214 0.96583664417266848 -0.24896888434886932
vn -0.04473617672920227 0.95881336927413936 -0.2804918885231018
vn -0.1381939947605133 0.26510435342788696 -0.95426523685455328
vn -0.14959543943405152 0.28370383381843568 -0.94717121124267584
vn -0.08287214487791061 0.53242081403732296 -0.84241336584091184
vn -0.06769989430904388 0.54649299383163456 -0.8347227573394776
vn -0.10673554241657258 0.73281675577163696 -0.67200231552124024
vn -0.06579457968473434 0.69028872251510624 -0.72053629159927368
vn -0.14997860789299012 0.88808602094650272 0.43452233076095584
vn -0.13709700107574462 0.88105154037475584 0.45271700620651248
vn -0.2190319001674652 0.49587118625640872 -0.84031951427459712
vn -0.19192640483379364 0.51404267549514768 -0.8360169529914856
vn -0.45605009794235232 0.63422828912734984 -0.6243178844451904
vn -0.448539674282074 0.63289064168930056 -0.63107961416244504
vn -0.12803372740745544 0.80665266513824464 -0.57699126005172728
vn -0.08344778418540955 0.83206462860107424 -0.54836571216583248
vn -0.23379360139369964 0.9192630052566528 -0.3166954815387726
vn -0.33373668789863588 0.90127485990524288 -0.2762669026851654
vn -0.10928957164287568 0.99374306201934816 -0.02303139492869377
vn -0.08732786029577255 0.99617373943328864 -0.00339694786816835
vn -0.23167869448661804 0.95488715171813968 0.1857832819223404
vn -0.22050058841705324 0.9574302434921264 0.18629764020442964
vn -0.63909685611724856 -0.63760459423065184 0.43013447523117064
vn -0.58461672067642208 -0.73764139413833616 0.33779934048652648
vn -0.30684009194374084 -0.83403396606445312 0.45851561427116392
vn -0.23991504311561584 -0.80518907308578496 0.54232043027877808
vn -0.273518443107605 -0.81975328922271728 0.50318205356597904
vn -0.3313206732273102 -0.73675173521041872 0.58942639827728272
vn -0.42773455381393432 -0.90261936187744144 0.04818194732069969
vn -0.426293671131134 -0.90221416950225824 0.06544696539640427
vn -0.67188262939453128 -0.74061870574951168 -0.00759392976760864
vn -0.67730259895324704 -0.73569983243942256 -0.00263443286530673
vn -0.46733558177948 -0.83929890394210816 0.27780351042747496
vn -0.4172895550727844 -0.83010667562484736 0.36985450983047488
vn 0.05260634794831276 -0.84710890054702752 0.52880930900573728
vn 0.05191111192107201 -0.84672480821609504 0.5294924974441528
vn -0.19759412109851836 -0.82338583469390864 0.53197032213211056
vn -0.19874037802219392 -0.82329773902893072 0.53167945146560672
vn -0.2713899314403534 -0.74666780233383184 0.60731762647628784
vn -0.17726477980613708 -0.68328338861465456 0.70830857753753664
vn -0.15954302251338958 -0.88407433032989504 0.43927061557769776
vn -0.15946577489376068 -0.8840023875236512 0.43944320082664488
vn -0.05751705169677734 -0.97049856185913088 0.23414593935012816
vn -0.05730286240577698 -0.9706177115440368 0.23370416462421416
vn -0.35356178879737856 -0.92291283607482912 0.1524006873369217
vn -0.35468176007270812 -0.92236649990081792 0.15310440957546234
vn 0.09479187428951264 -0.49877554178237912 -0.86153209209442144
vn 0.09181525558233262 -0.50125890970230104 -0.86041235923767088
vn 0.12793691456317902 -0.88865143060684208 -0.44037568569183352
vn 0.18002928793430328 -0.844897210597992 -0.50372433662414552
vn 0.0121307959780097 -0.7172542214393616 -0.69670587778091432
vn -0.00236716913059353 -0.71274739503860472 -0.70141673088073728
vn 0.18811090290546416 -0.97955852746963504 0.07127036899328232
vn 0.13838833570480346 -0.98393666744232176 0.1127709522843361
vn 0.0298052541911602 -0.9883314967155456 -0.14937351644039154
vn 0.00060941756237298 -0.98718965053558352 -0.15954998135566712
vn -0.07145185768604279 -0.97190612554550176 0.22426129877567292
vn -0.05590546876192093 -0.97160136699676512 0.22992447018623352
vn 0.11601052433252334 -0.89654904603958128 0.4274824857711792
vn 0.09649787843227386 -0.88876229524612432 0.44809570908546448
vn -0.05760737508535385 -0.81169730424880976 0.58123052120208744
vn -0.06656507402658463 -0.81283432245254512 0.5786792039871216
vn 0.0782291367650032 -0.72781842947006224 0.68129330873489376
vn 0.07266046106815338 -0.72366988658905024 0.68631058931350712
vn 0.1097974255681038 -0.33197063207626344 0.93687778711318976
vn 0.1565263569355011 -0.38431945443153384 0.90983408689498896
vn 0.02675524540245533 -0.53327566385269168 0.84551829099655152
vn -0.02577693201601505 -0.53906518220901488 0.84186947345733648
vn -0.03676630556583404 -0.30026480555534364 -0.95314705371856688
vn 0.08271035552024841 -0.23428891599178316 -0.96864217519760128
vn -0.02167980559170246 -0.41352850198745728 -0.91023308038711552
vn -0.01846467703580856 -0.41539210081100464 -0.90945506095886224
vn -0.02219854854047298 -0.23876947164535524 0.97082257270812992
vn -0.02101637795567512 -0.23845326900482176 0.97092652320861824
vn -0.03603653982281685 0.16232039034366608 0.98607987165451056
vn -0.07738490402698517 0.19311352074146272 0.97811996936798096
vn -0.94172447919845584 0.30129292607307436 0.14959108829498292
vn -0.92089629173278816 0.35143053531646728 0.1686612069606781
vn -0.73704165220260624 0.662483274936676 0.13373661041259766
vn -0.70234167575836184 0.69922673702239992 0.13340942561626434
vn -0.60222637653350832 0.30405038595199584 0.73815768957138064
vn -0.54379975795745848 0.39808857440948488 0.73878777027130128
vn -0.2435675710439682 0.94406759738922112 0.22228625416755676
vn -0.270383358001709 0.93140012025833136 0.24369366466999052
vn -0.31617072224617004 0.7996243834495544 0.5105261206626892
vn -0.4072768688201904 0.72356426715850832 0.55729734897613528
vn -0.0851021483540535 0.93961614370346064 0.33148035407066344
vn -0.08035162836313248 0.97062671184539792 0.22677634656429292
vn -0.4430425465106964 0.85948896408081056 0.2549351453781128
vn -0.41404369473457336 0.863312304019928 0.28854778409004212
vn -0.39465555548667904 0.916635811328888 -0.06344949454069138
vn -0.33595365285873412 0.94090372323989872 0.04284168779850006
vn -0.33439788222312928 0.94182622432708736 -0.03378684818744659
vn -0.31119504570961 0.94980299472808832 -0.03212422877550125
vn -0.81459963321685792 0.57423669099807736 -0.08172959089279175
vn -0.85738581418991088 0.5031331777572632 -0.10838142782449722
vn -0.4766224920749664 0.7009596228599548 -0.53055316209793088
vn -0.38630819320678712 0.73822170495986944 -0.55298703908920288
vn -0.54977256059646608 0.79704999923706048 -0.24992311000823976
vn -0.44717383384704592 0.84732753038406368 -0.2864815890789032
vn -0.46894347667694088 0.5181275010108948 -0.71528732776641848
vn -0.52587008476257328 0.5004862546920776 -0.68773114681243896
vn -0.55385661125183104 0.61958783864974976 -0.556195855140686
vn -0.71581804752349856 0.56637984514236448 -0.40843418240547184
vn -0.19426657259464264 0.60110735893249512 -0.7751970291137696
vn -0.20022223889827728 0.6136454343795776 -0.76377367973327632
vn -0.09105996042490006 0.76835030317306512 -0.63351863622665408
vn -0.0924188420176506 0.76526927947998048 -0.6370413303375244
vn -0.42325055599212648 0.10340278595685958 -0.90009266138076784
vn -0.406372994184494 0.14879852533340454 -0.90150982141494752
vn -0.84822225570678704 0.27436375617980956 -0.45303803682327272
vn -0.82722955942153936 0.35104149580001832 -0.43870395421981808
vn -0.28930774331092836 0.62891906499862672 -0.72163826227188112
vn -0.20939980447292328 0.67536228895187376 -0.70713329315185544
vn -0.78520774841308592 0.37003302574157712 -0.4965122044086456
vn -0.78222054243087776 0.37491449713706968 -0.49756425619125368
vn -0.5296496152877808 0.81467622518539424 -0.2361648827791214
vn -0.52367085218429568 0.81797212362289424 -0.23809760808944704
vn -0.06459937244653702 0.59837579727172848 0.798607051372528
vn -0.06891374289989471 0.570385217666626 0.8184813261032104
vn -0.15550394356250762 0.97559142112731936 0.15504823625087738
vn -0.16742630302906036 0.98184221982955936 0.08918716013431549
vn -0.26136863231658936 0.93051153421401984 0.25658282637596132
vn -0.26240941882133484 0.93039870262146 0.25592890381813048
vn -0.29719319939613344 0.70406585931777952 -0.64495539665222168
vn -0.29922732710838316 0.7336542010307312 -0.6100937724113464
vn -0.15763667225837708 0.75287044048309328 -0.63901239633560184
vn -0.16697600483894348 0.77283459901809696 -0.61224639415740968
vn -0.1303606927394867 0.19955603778362276 -0.97117632627487184
vn -0.15476024150848388 0.27373853325843812 -0.94927161931991584
vn -0.16083920001983642 0.98674368858337408 0.02162536233663559
vn -0.3676186203956604 0.92397409677505488 -0.10549170523881912
vn -0.28710204362869264 0.84054034948348992 -0.45941725373268128
vn -0.2862612009048462 0.84101003408432 -0.45908239483833312
vn -0.1287834346294403 0.74446004629135136 -0.65512895584106448
vn -0.1054949015378952 0.78627109527587888 -0.60880905389785768
vn -0.03659091889858246 0.72918683290481568 -0.68333572149276736
vn -0.0740826278924942 0.6720057129859924 -0.73683106899261472
vn -0.4682113230228424 0.2366124391555786 -0.85134768486022944
vn -0.47762462496757504 0.20234391093254088 -0.854945421218872
vn -0.0469665415585041 0.71824997663497928 -0.69419825077056888
vn -0.16095377504825592 0.77684336900711056 -0.60877603292465208
vn -0.16719399392604828 0.79189932346344 -0.58731728792190552
vn -0.16175642609596252 0.97787761688232416 0.1326279491186142
vn -0.40765684843063352 0.70666378736495968 -0.57830977439880368
vn -0.43181037902832032 0.69575119018554688 -0.5739948749542236
vn 0.0041597643867135 0.72056603431701664 -0.6933738589286804
vn -0.11727572232484818 0.621181845664978 -0.77484166622161872
vn -0.67257320880889896 0.53234946727752688 -0.51405197381973264
vn -0.53946435451507568 0.52215039730072024 -0.6605582237243652
vn -0.69281369447708128 0.60237550735473632 -0.3964252173900604
vn -0.59348136186599728 0.65300583839416504 -0.47049251198768616
vn -0.66141974925994872 0.74999183416366576 -0.00600728206336498
vn -0.98607188463211056 -0.14403769373893738 0.08315876126289368
vn -0.73737317323684688 0.669550895690918 -0.08934465050697327
vn -0.75995981693267824 0.63836008310317992 -0.1223011314868927
vn -0.1025833711028099 0.93458247184753424 0.34063512086868288
vn -0.0926164910197258 0.9401661157608032 0.3278871178627014
vn -0.4566737115383148 0.8856626152992248 0.08396951109170914
vn -0.40428167581558224 0.91242456436157232 0.06354380398988724
vn -0.12701188027858734 0.6131232976913452 -0.77971011400222784
vn -0.1919414848089218 0.7810563445091248 -0.59423017501831056
vn -0.16708050668239594 0.98461943864822384 0.05107497423887253
vn -0.13118354976177216 0.96718460321426384 0.2175884395837784
vn -0.11766378581523896 0.16455481946468354 0.97932469844818112
vn -0.02065687999129295 -0.30580779910087584 -0.95186918973922736
vn -0.00691592693328857 -0.31368598341941832 0.949501633644104
vn 0.00497928634285926 -0.31250545382499696 0.94990295171737664
vn -0.07619575411081314 -0.71736288070678712 0.69252055883407592
vn -0.02320002950727939 -0.71105802059173584 0.70275044441223144
vn -0.09682001918554306 -0.90125358104705808 0.4223361611366272
vn -0.04440608620643615 -0.89639461040496832 0.44102701544761656
vn -0.03251570463180542 -0.99832552671432496 0.04784206673502922
vn 0.00410131178796291 -0.99814057350158688 0.06081607565283775
vn 0.01822478137910366 -0.9059962034225464 -0.42289337515830992
vn 0.00082787551218643 -0.9038277864456176 -0.42789560556411744
vn 0.00278020300902426 -0.49880298972129824 -0.8667109608650208
vn -0.01917923055589199 -0.48886883258819584 -0.87214642763137824
vn -0.13574804365634918 -0.94732481241226192 0.29008308053016664
vn -0.23930050432682036 -0.8297042846679688 0.50430756807327272
vn -0.44311970472335816 -0.8888713717460632 0.11641605198383332
vn -0.4478177726268768 -0.88904154300689696 0.09520680457353592
vn -0.31565162539482116 -0.87319946289062496 0.371331125497818
vn -0.40319231152534488 -0.74371081590652464 0.53322625160217288
vn -0.17980076372623444 0.98346871137619024 -0.02146966382861137
vn -0.25531092286109924 0.96623086929321296 -0.03484441712498665
vn -0.44136586785316464 0.7399474382400512 -0.50761604309082032
vn -0.34844839572906496 0.74704170227050784 -0.56613820791244504
vn -0.47719693183898928 0.50095492601394656 -0.72202992439270016
vn -0.49189859628677368 0.4936979413032532 -0.7171457409858704
vn -0.32750576734542848 0.87915736436843872 0.34615343809127808
vn -0.31213968992233276 0.87822890281677248 0.36232972145080568
vn -0.11445017904043198 0.53809970617294312 -0.83507466316223152
vn -0.1416296809911728 0.50931674242019656 -0.84884488582611088
vn -0.04245705530047416 0.85252308845520016 -0.52096235752105712
vn -0.06842460483312607 0.83257913589477536 -0.54966354370117184
vn -0.07181765884160995 0.9971302151679992 0.02394836395978927
vn -0.08771373331546783 0.99613994359970096 -0.00340839079581201
vn -0.09247870743274688 0.8510625958442688 0.51685601472854616
vn -0.123264878988266 0.88082116842269904 0.4571212828159332
vn 0.10531745105981826 0.5251890420913696 -0.84444344043731696
vn 0.0823088139295578 0.50686156749725344 -0.85808891057968144
vn 0.16634707152843476 0.8592973351478576 -0.48367011547088624
vn 0.17463196814060212 0.86106276512146 -0.47757145762443544
vn -0.00913867074996233 0.99753469228744512 -0.06957734376192093
vn 0.10720892995595932 0.9922030568122864 0.06355669349431992
vn -0.03654535487294197 0.81617248058319088 0.5766515135765076
vn -0.0697740763425827 0.83666682243347168 0.5432497262954712
vn -0.17494378983974456 -0.81881123781204224 0.54675656557083128
vn -0.05833468586206436 -0.56802624464035032 -0.82094049453735344
vn -0.01807773858308792 -0.60657763481140136 -0.79481875896453856
vn 0.00249424879439175 -0.4958176910877228 -0.86842304468154912
vn 0.02597871795296669 -0.5294122099876404 -0.84796690940856928
vn -0.0723985880613327 -0.85480564832687376 -0.51387327909469608
vn 0.03562243282794952 -0.91733354330062864 -0.39652258157730104
vn 0.05952692776918411 -0.98026686906814576 0.18850293755531312
vn -0.00452530989423394 -0.9950726628303528 0.09904523193836212
vn 0.04753618687391281 -0.97482669353485104 0.21783746778964996
vn 0.07109279185533524 -0.96690452098846432 0.24503365159034728
vn -0.0026163903530687 -0.98109996318817136 0.19348379969596864
vn 0.11517659574747086 -0.84827011823654176 0.51688700914382936
vn 0.12410955131053924 -0.84073770046234128 0.52702659368515016
vn -0.06107436493039131 -0.89268600940704352 0.4465216100215912
vn -0.01504228357225656 -0.85793226957321168 0.51354271173477176
vn 0.01901254430413246 -0.84178835153579712 -0.53947281837463376
vn 0.04709387198090553 -0.86558723449707024 -0.49853873252868656
vn -0.12255457043647766 -0.9457871913909912 -0.30077713727951048
vn -0.14143581688404084 -0.93759459257125856 -0.31766688823699952
vn -0.39208963513374328 -0.91849994659423824 -0.05122223123908043
vn -0.21923917531967164 -0.73280501365661616 0.64415132999420168
vn -0.08516428619623184 -0.5750442743301392 0.81367748975753792
vn -0.18090488016605376 -0.6681246757507324 0.72172212600708
vn 0.04933427274227142 -0.68407785892486576 0.7277386784553528
vn 0.11369989067316056 -0.62011694908142088 0.77622634172439568
vn -0.08775659650564194 -0.70751297473907472 0.70123034715652464
vn -0.05704346299171448 -0.6774330735206604 0.7333692908287048
vn -0.17312511801719666 -0.55786985158920288 -0.81167048215866096
vn -0.15254269540309906 -0.59249126911163328 -0.79100239276885984
vn -0.59860032796859744 -0.43076029419898984 -0.67536902427673336
vn -0.58834177255630496 -0.444111168384552 -0.67573601007461544
vn -0.90596038103103632 -0.38464045524597168 -0.1768823117017746
vn -0.91442656517028816 -0.36866503953933712 -0.16706332564353942
vn -0.88223135471344 -0.33020910620689392 0.33560356497764588
vn -0.88670051097869872 -0.29401937127113344 0.35681188106536864
vn -0.4863232374191284 -0.22203306853771208 0.84509831666946416
vn -0.47174072265625 -0.17396865785121918 0.86440473794937136
vn -0.1117234081029892 -0.1324286162853241 0.98487591743469232
vn -0.1015220582485199 -0.14973123371601104 0.98350083827972416
vn 0.04778813570737839 -0.34718182682991028 0.93657940626144416
vn 0.01391436252743005 -0.2449394315481186 0.96943861246109008
vn -0.0872652530670166 -0.31489658355712892 0.94510579109191888
vn -0.07073082774877548 -0.3590339422225952 0.93064045906066896
vn -0.50942623615264896 0.0829174593091011 -0.85651010274887088
vn -0.51300281286239624 0.133454829454422 -0.84794932603836064
vn -0.04394394159317016 0.18335142731666564 0.98206472396850592
vn -0.03855028003454208 0.18917401134967804 0.98118656873703008
vn -0.05047158524394035 0.44631069898605344 0.89345365762710576
vn -0.08177794516086578 0.36019784212112428 0.92928469181060784
vn -0.97042113542556768 0.1558537483215332 0.1843702644109726
vn -0.93748670816421504 0.2497926652431488 0.24232666194438936
vn -0.9022721648216248 0.19438137114048004 -0.38486471772193912
vn -0.89986830949783328 0.26531049609184264 -0.34618979692459108
vn -0.13984344899654388 -0.02390924468636513 -0.98988491296768192
vn -0.16031105816364288 0.03003196232020855 -0.98660951852798464
vn 0.01591376960277557 -0.20986174046993256 -0.97760152816772464
vn -0.04245832562446594 -0.09054437279701232 -0.99498695135116576
vn -0.12675905227661132 -0.0257180817425251 -0.99160009622573856
vn -0.12519533932209014 -0.02819683216512203 -0.99173140525817872
vn -0.60062909126281736 0.15903930366039276 0.78355032205581664
vn -0.56413507461547848 0.22293725609779356 0.79501610994338992
vn -0.00363621464930474 0.40985140204429624 0.91214501857757568
vn -0.0969402939081192 0.28883662819862364 0.95245784521102912
vn -0.11321406066417694 0.9506584405899048 0.28884422779083252
vn -0.22626239061355592 0.95120960474014288 0.20977480709552764
vn 0.09779790043830872 0.35430580377578736 -0.93000161647796624
vn -0.14479884505271912 0.22058986127376556 -0.96455866098403936
vn -0.20701101422309876 -0.97671455144882208 -0.05634904280304909
vn -0.22684140503406524 -0.97380608320236208 -0.01564382947981357
vn 0.0617913231253624 -0.92941844463348384 0.36381766200065616
vn 0.02330313622951507 -0.9198289513587952 0.39162692427635192
vn -0.30055859684944152 -0.74640470743179328 0.59375452995300296
vn -0.18313083052635192 -0.77580326795578 0.60381478071212768
vn -0.10743429511785508 0.60925561189651488 0.78566247224807744
vn -0.0520768016576767 0.73475331068038944 0.6763324737548828
vn -0.1361725777387619 0.26470330357551576 -0.95466709136962896
vn -0.1417817622423172 0.27509483695030212 -0.95090520381927488
vn -0.22487197816371916 0.5494316220283508 0.80470967292785648
vn -0.19443111121654512 0.58551365137100216 0.7870008945465088
vn -0.24735695123672484 0.38760671019554136 0.88801771402359008
vn -0.17222534120082856 0.59228259325027464 0.78710848093032832
vn -0.61169171333312992 0.25172531604766844 -0.74997842311859136
vn -0.56777209043502808 0.4380472898483276 -0.69695717096328736
# 668 vertex normals

g obj_23843797
s 1
f 1//1 2//1 3//1
f 1//2 3//2 4//2
f 5//3 6//3 7//3
f 5//4 7//4 8//4
f 9//5 10//5 11//5
f 9//6 11//6 12//6
f 13//7 14//7 15//7
f 13//8 15//8 16//8
f 17//9 18//9 19//9
f 17//10 19//10 20//10
f 21//11 22//11 23//11
f 21//12 23//12 24//12
f 25//13 26//13 27//13
f 25//14 27//14 28//14
f 29//15 30//15 31//15
f 29//16 31//16 32//16
f 33//17 34//17 35//17
f 33//18 35//18 36//18
f 37//19 38//19 39//19
f 37//20 39//20 40//20
f 41//21 42//21 43//21
f 41//22 43//22 44//22
f 45//23 46//23 47//23
f 45//24 47//24 48//24
f 49//25 50//25 51//25
f 49//26 51//26 52//26
f 2//27 1//27 13//27
f 2//28 13//28 16//28
f 9//29 12//29 14//29
f 9//30 14//30 13//30
f 5//31 8//31 10//31
f 5//32 10//32 9//32
f 42//33 41//33 11//33
f 42//34 11//34 10//34
f 12//35 11//35 30//35
f 12//36 30//36 29//36
f 18//37 17//37 50//37
f 18//38 50//38 49//38
f 17//39 20//39 33//39
f 17//40 33//40 36//40
f 26//41 25//41 15//41
f 26//42 15//42 14//42
f 16//43 15//43 19//43
f 16//44 19//44 18//44
f 20//45 19//45 22//45
f 20//46 22//46 21//46
f 21//47 24//47 34//47
f 21//48 34//48 33//48
f 25//49 28//49 23//49
f 25//50 23//50 22//50
f 24//51 23//51 53//51
f 24//52 53//52 54//52
f 29//53 32//53 27//53
f 29//54 27//54 26//54
f 28//55 27//55 55//55
f 28//56 55//56 56//56
f 41//57 44//57 31//57
f 41//58 31//58 30//58
f 32//59 31//59 57//59
f 32//60 57//60 58//60
f 59//61 60//61 35//61
f 59//62 35//62 34//62
f 36//63 35//63 45//63
f 36//64 45//64 48//64
f 38//65 37//65 43//65
f 38//66 43//66 42//66
f 44//67 43//67 61//67
f 44//68 61//68 62//68
f 46//69 45//69 35//69
f 46//70 35//70 60//70
f 40//71 61//71 43//71
f 40//72 43//72 37//72
f 48//73 47//73 51//73
f 48//74 51//74 50//74
f 49//75 52//75 3//75
f 49//76 3//76 2//76
f 1//77 4//77 6//77
f 1//78 6//78 5//78
f 8//79 7//79 39//79
f 8//80 39//80 38//80
f 62//81 57//81 31//81
f 62//82 31//82 44//82
f 58//83 55//83 27//83
f 58//84 27//84 32//84
f 56//85 53//85 23//85
f 56//86 23//86 28//86
f 54//87 59//87 34//87
f 54//88 34//88 24//88
f 22//89 19//89 15//89
f 22//90 15//90 25//90
f 21//91 33//91 20//91
f 48//92 50//92 17//92
f 48//93 17//93 36//93
f 11//94 41//94 30//94
f 10//95 8//95 38//95
f 10//96 38//96 42//96
f 12//97 29//97 26//97
f 12//98 26//98 14//98
f 13//99 1//99 5//99
f 13//100 5//100 9//100
f 18//101 49//101 2//101
f 18//102 2//102 16//102
f 60//103 63//103 64//103
f 60//104 64//104 46//104
f 65//105 4//105 3//105
f 65//106 3//106 66//106
f 67//107 6//107 4//107
f 67//108 4//108 65//108
f 66//109 3//109 52//109
f 66//110 52//110 68//110
f 69//111 7//111 6//111
f 69//112 6//112 67//112
f 70//113 39//113 7//113
f 70//114 7//114 69//114
f 68//115 52//115 51//115
f 68//116 51//116 71//116
f 71//117 51//117 47//117
f 71//118 47//118 72//118
f 72//119 47//119 46//119
f 72//120 46//120 64//120
f 73//121 40//121 39//121
f 73//122 39//122 70//122
f 74//123 61//123 40//123
f 74//124 40//124 73//124
f 75//125 76//125 77//125
f 75//126 77//126 78//126
f 78//127 77//127 79//127
f 78//128 79//128 80//128
f 76//129 75//129 81//129
f 80//130 79//130 82//130
f 53//131 83//131 84//131
f 53//132 84//132 54//132
f 56//133 55//133 85//133
f 56//134 85//134 86//134
f 61//135 74//135 87//135
f 61//136 87//136 62//136
f 88//137 89//137 90//137
f 88//138 90//138 91//138
f 92//139 93//139 94//139
f 92//140 94//140 95//140
f 96//141 97//141 98//141
f 96//142 98//142 99//142
f 100//143 101//143 102//143
f 100//144 102//144 103//144
f 104//145 105//145 106//145
f 104//146 106//146 107//146
f 108//147 109//147 110//147
f 108//148 110//148 111//148
f 112//149 113//149 114//149
f 112//150 114//150 115//150
f 116//151 117//151 118//151
f 116//152 118//152 119//152
f 120//153 121//153 122//153
f 120//154 122//154 123//154
f 124//155 125//155 126//155
f 124//156 126//156 127//156
f 128//157 129//157 130//157
f 128//158 130//158 131//158
f 132//159 133//159 134//159
f 132//160 134//160 135//160
f 136//161 137//161 138//161
f 136//162 138//162 139//162
f 140//163 141//163 142//163
f 140//164 142//164 143//164
f 144//165 145//165 146//165
f 144//166 146//166 147//166
f 148//167 149//167 150//167
f 148//168 150//168 151//168
f 152//169 153//169 154//169
f 152//170 154//170 155//170
f 156//171 157//171 158//171
f 156//172 158//172 159//172
f 160//173 161//173 162//173
f 160//174 162//174 163//174
f 164//175 165//175 166//175
f 164//176 166//176 167//176
f 168//177 169//177 170//177
f 168//178 170//178 171//178
f 172//179 173//179 174//179
f 172//180 174//180 175//180
f 176//181 177//181 178//181
f 176//182 178//182 179//182
f 180//183 181//183 182//183
f 180//184 182//184 183//184
f 184//185 185//185 186//185
f 184//186 186//186 187//186
f 188//187 189//187 190//187
f 188//188 190//188 191//188
f 192//189 193//189 194//189
f 192//190 194//190 195//190
f 196//191 197//191 198//191
f 196//192 198//192 199//192
f 200//193 201//193 202//193
f 200//194 202//194 203//194
f 204//195 205//195 206//195
f 204//196 206//196 207//196
f 208//197 209//197 210//197
f 208//198 210//198 211//198
f 212//199 213//199 214//199
f 215//200 216//200 217//200
f 215//201 217//201 218//201
f 219//202 220//202 221//202
f 219//203 221//203 222//203
f 223//204 224//204 225//204
f 226//205 227//205 228//205
f 226//206 228//206 229//206
f 230//207 231//207 232//207
f 230//208 232//208 233//208
f 234//209 235//209 236//209
f 234//210 236//210 237//210
f 238//211 239//211 240//211
f 238//212 240//212 241//212
f 242//213 243//213 244//213
f 242//214 244//214 245//214
f 246//215 247//215 248//215
f 249//216 250//216 251//216
f 249//217 251//217 252//217
f 253//218 254//218 255//218
f 256//219 257//219 258//219
f 256//220 258//220 259//220
f 260//221 261//221 262//221
f 260//222 262//222 263//222
f 264//223 265//223 266//223
f 264//224 266//224 267//224
f 268//225 269//225 270//225
f 268//226 270//226 271//226
f 272//227 273//227 274//227
f 272//228 274//228 275//228
f 276//229 277//229 278//229
f 276//230 278//230 279//230
f 57//231 280//231 281//231
f 57//232 281//232 58//232
f 282//233 283//233 284//233
f 285//234 286//234 287//234
f 288//235 289//235 290//235
f 288//236 290//236 291//236
f 292//237 293//237 294//237
f 295//238 296//238 297//238
f 295//239 297//239 298//239
f 81//240 299//240 300//240
f 81//241 300//241 76//241
f 79//242 77//242 301//242
f 79//243 301//243 302//243
f 303//244 304//244 305//244
f 303//245 305//245 306//245
f 307//246 308//246 309//246
f 307//247 309//247 310//247
f 311//248 312//248 313//248
f 177//249 176//249 160//249
f 177//250 160//250 163//250
f 150//251 149//251 314//251
f 150//252 314//252 315//252
f 105//253 104//253 277//253
f 105//254 277//254 276//254
f 261//255 260//255 101//255
f 261//256 101//256 100//256
f 97//257 96//257 316//257
f 97//258 316//258 317//258
f 318//259 319//259 93//259
f 318//260 93//260 92//260
f 89//261 88//261 164//261
f 89//262 164//262 167//262
f 311//263 313//263 109//263
f 311//264 109//264 108//264
f 113//265 112//265 305//265
f 113//266 305//266 304//266
f 88//267 91//267 256//267
f 88//268 256//268 259//268
f 92//269 95//269 90//269
f 92//270 90//270 89//270
f 91//271 90//271 117//271
f 91//272 117//272 116//272
f 96//273 99//273 94//273
f 96//274 94//274 93//274
f 95//275 94//275 121//275
f 95//276 121//276 120//276
f 100//277 103//277 98//277
f 100//278 98//278 97//278
f 99//279 98//279 125//279
f 99//280 125//280 124//280
f 104//281 107//281 102//281
f 104//282 102//282 101//282
f 103//283 102//283 197//283
f 103//284 197//284 196//284
f 108//285 111//285 106//285
f 108//286 106//286 105//286
f 107//287 106//287 205//287
f 107//288 205//288 204//288
f 112//289 115//289 110//289
f 112//290 110//290 109//290
f 111//291 110//291 200//291
f 111//292 200//292 203//292
f 149//293 148//293 114//293
f 149//294 114//294 113//294
f 115//295 114//295 129//295
f 115//296 129//296 128//296
f 116//297 119//297 243//297
f 116//298 243//298 242//298
f 120//299 123//299 118//299
f 120//300 118//300 117//300
f 119//301 118//301 133//301
f 119//302 133//302 132//302
f 124//303 127//303 122//303
f 124//304 122//304 121//304
f 123//305 122//305 210//305
f 123//306 210//306 209//306
f 196//307 199//307 126//307
f 196//308 126//308 125//308
f 127//309 126//309 212//309
f 127//310 212//310 320//310
f 128//311 131//311 201//311
f 128//312 201//312 200//312
f 153//313 152//313 130//313
f 153//314 130//314 129//314
f 131//315 130//315 321//315
f 131//316 321//316 223//316
f 132//317 135//317 238//317
f 132//318 238//318 241//318
f 209//319 208//319 134//319
f 209//320 134//320 133//320
f 135//321 134//321 136//321
f 135//322 136//322 139//322
f 141//323 140//323 322//323
f 141//324 322//324 321//324
f 140//325 143//325 323//325
f 140//326 323//326 222//326
f 324//327 323//327 137//327
f 324//328 137//328 136//328
f 231//329 230//329 144//329
f 231//330 144//330 147//330
f 145//331 144//331 138//331
f 145//332 138//332 137//332
f 139//333 138//333 234//333
f 139//334 234//334 237//334
f 152//335 155//335 142//335
f 152//336 142//336 141//336
f 143//337 142//337 146//337
f 143//338 146//338 145//338
f 147//339 146//339 157//339
f 147//340 157//340 156//340
f 156//341 159//341 227//341
f 156//342 227//342 226//342
f 250//343 249//343 161//343
f 250//344 161//344 160//344
f 148//345 151//345 154//345
f 148//346 154//346 153//346
f 155//347 154//347 158//347
f 155//348 158//348 157//348
f 159//349 158//349 162//349
f 159//350 162//350 161//350
f 163//351 162//351 151//351
f 163//352 151//352 150//352
f 325//353 326//353 327//353
f 325//354 327//354 328//354
f 254//355 327//355 165//355
f 254//356 165//356 164//356
f 326//357 329//357 169//357
f 326//358 169//358 168//358
f 81//359 75//359 173//359
f 81//360 173//360 172//360
f 176//361 179//361 82//361
f 176//362 82//362 330//362
f 246//363 82//363 79//363
f 246//364 79//364 302//364
f 78//365 80//365 181//365
f 78//366 181//366 180//366
f 168//367 171//367 166//367
f 168//368 166//368 165//368
f 167//369 166//369 282//369
f 167//370 282//370 318//370
f 172//371 175//371 170//371
f 172//372 170//372 169//372
f 171//373 170//373 193//373
f 171//374 193//374 192//374
f 180//375 183//375 174//375
f 180//376 174//376 173//376
f 175//377 174//377 188//377
f 175//378 188//378 191//378
f 315//379 293//379 178//379
f 315//380 178//380 177//380
f 179//381 178//381 182//381
f 179//382 182//382 181//382
f 183//383 182//383 184//383
f 183//384 184//384 187//384
f 192//385 195//385 283//385
f 192//386 283//386 282//386
f 293//387 292//387 185//387
f 293//388 185//388 184//388
f 273//389 272//389 186//389
f 273//390 186//390 185//390
f 187//391 186//391 189//391
f 187//392 189//392 188//392
f 269//393 268//393 190//393
f 269//394 190//394 189//394
f 191//395 190//395 194//395
f 191//396 194//396 193//396
f 195//397 194//397 265//397
f 195//398 265//398 264//398
f 204//399 207//399 198//399
f 204//400 198//400 197//400
f 199//401 198//401 213//401
f 199//402 213//402 212//402
f 214//403 213//403 216//403
f 214//404 216//404 215//404
f 223//405 225//405 202//405
f 223//406 202//406 201//406
f 203//407 202//407 206//407
f 203//408 206//408 205//408
f 207//409 206//409 217//409
f 207//410 217//410 216//410
f 208//411 211//411 219//411
f 208//412 219//412 324//412
f 220//413 219//413 331//413
f 220//414 331//414 214//414
f 320//415 331//415 211//415
f 320//416 211//416 210//416
f 215//417 218//417 221//417
f 215//418 221//418 220//418
f 222//419 221//419 224//419
f 222//420 224//420 322//420
f 225//421 224//421 218//421
f 225//422 218//422 217//422
f 249//423 252//423 228//423
f 249//424 228//424 227//424
f 226//425 229//425 232//425
f 226//426 232//426 231//426
f 332//427 333//427 229//427
f 332//428 229//428 228//428
f 230//429 233//429 235//429
f 230//430 235//430 234//430
f 334//431 335//431 233//431
f 334//432 233//432 232//432
f 336//433 337//433 236//433
f 336//434 236//434 235//434
f 237//435 236//435 239//435
f 237//436 239//436 238//436
f 338//437 339//437 240//437
f 338//438 240//438 239//438
f 241//439 240//439 244//439
f 241//440 244//440 243//440
f 242//441 245//441 257//441
f 242//442 257//442 256//442
f 340//443 341//443 245//443
f 340//444 245//444 244//444
f 330//445 248//445 251//445
f 330//446 251//446 250//446
f 252//447 251//447 342//447
f 252//448 342//448 343//448
f 344//449 345//449 258//449
f 344//450 258//450 257//450
f 259//451 258//451 255//451
f 259//452 255//452 254//452
f 260//453 263//453 278//453
f 260//454 278//454 277//454
f 56//455 86//455 83//455
f 56//456 83//456 53//456
f 317//457 285//457 262//457
f 317//458 262//458 261//458
f 263//459 262//459 84//459
f 263//460 84//460 83//460
f 54//461 84//461 346//461
f 54//462 346//462 59//462
f 63//463 346//463 285//463
f 63//464 285//464 287//464
f 264//465 267//465 288//465
f 264//466 288//466 291//466
f 289//467 288//467 72//467
f 289//468 72//468 64//468
f 268//469 271//469 266//469
f 268//470 266//470 265//470
f 267//471 266//471 68//471
f 267//472 68//472 71//472
f 272//473 275//473 270//473
f 272//474 270//474 269//474
f 271//475 270//475 65//475
f 271//476 65//476 66//476
f 296//477 295//477 274//477
f 296//478 274//478 273//478
f 275//479 274//479 69//479
f 275//480 69//480 67//480
f 73//481 70//481 295//481
f 73//482 295//482 298//482
f 307//483 310//483 87//483
f 307//484 87//484 74//484
f 62//485 87//485 280//485
f 62//486 280//486 57//486
f 276//487 279//487 347//487
f 276//488 347//488 311//488
f 348//489 347//489 281//489
f 348//490 281//490 280//490
f 58//491 281//491 85//491
f 58//492 85//492 55//492
f 86//493 85//493 279//493
f 86//494 279//494 278//494
f 319//495 284//495 286//495
f 319//496 286//496 316//496
f 287//497 286//497 290//497
f 287//498 290//498 289//498
f 291//499 290//499 284//499
f 291//500 284//500 283//500
f 292//501 294//501 297//501
f 292//502 297//502 296//502
f 298//503 297//503 308//503
f 298//504 308//504 307//504
f 304//505 303//505 294//505
f 304//506 294//506 314//506
f 329//507 349//507 299//507
f 329//508 299//508 81//508
f 76//509 300//509 301//509
f 76//510 301//510 77//510
f 303//511 306//511 309//511
f 303//512 309//512 308//512
f 310//513 309//513 312//513
f 310//514 312//514 348//514
f 313//515 312//515 306//515
f 313//516 306//516 305//516
f 312//517 309//517 306//517
f 303//518 308//518 297//518
f 303//519 297//519 294//519
f 290//520 286//520 284//520
f 85//521 281//521 347//521
f 85//522 347//522 279//522
f 280//523 87//523 310//523
f 280//524 310//524 348//524
f 70//525 69//525 274//525
f 70//526 274//526 295//526
f 270//527 275//527 67//527
f 270//528 67//528 65//528
f 266//529 271//529 66//529
f 266//530 66//530 68//530
f 71//531 72//531 288//531
f 71//532 288//532 267//532
f 346//533 84//533 262//533
f 346//534 262//534 285//534
f 83//535 86//535 278//535
f 83//536 278//536 263//536
f 73//537 298//537 307//537
f 73//538 307//538 74//538
f 289//539 64//539 63//539
f 289//540 63//540 287//540
f 258//541 345//541 255//541
f 342//542 251//542 248//542
f 341//543 344//543 257//543
f 341//544 257//544 245//544
f 244//545 240//545 339//545
f 244//546 339//546 340//546
f 239//547 236//547 337//547
f 239//548 337//548 338//548
f 335//549 336//549 235//549
f 335//550 235//550 233//550
f 333//551 334//551 232//551
f 333//552 232//552 229//552
f 343//553 332//553 228//553
f 343//554 228//554 252//554
f 224//555 221//555 218//555
f 331//556 219//556 211//556
f 206//557 202//557 225//557
f 206//558 225//558 217//558
f 213//559 198//559 207//559
f 213//560 207//560 216//560
f 265//561 194//561 190//561
f 265//562 190//562 268//562
f 189//563 186//563 272//563
f 189//564 272//564 269//564
f 292//565 296//565 273//565
f 292//566 273//566 185//566
f 291//567 283//567 195//567
f 291//568 195//568 264//568
f 184//569 182//569 178//569
f 184//570 178//570 293//570
f 188//571 174//571 183//571
f 188//572 183//572 187//572
f 193//573 170//573 175//573
f 193//574 175//574 191//574
f 282//575 166//575 171//575
f 282//576 171//576 192//576
f 181//577 80//577 82//577
f 181//578 82//578 179//578
f 173//579 75//579 78//579
f 173//580 78//580 180//580
f 169//581 329//581 81//581
f 169//582 81//582 172//582
f 165//583 327//583 326//583
f 165//584 326//584 168//584
f 220//585 214//585 215//585
f 162//586 158//586 154//586
f 162//587 154//587 151//587
f 249//588 227//588 159//588
f 249//589 159//589 161//589
f 157//590 146//590 142//590
f 157//591 142//591 155//591
f 138//592 144//592 230//592
f 138//593 230//593 234//593
f 323//594 143//594 145//594
f 323//595 145//595 137//595
f 222//596 322//596 140//596
f 136//597 134//597 208//597
f 136//598 208//598 324//598
f 237//599 238//599 135//599
f 237//600 135//600 139//600
f 147//601 156//601 226//601
f 147//602 226//602 231//602
f 321//603 130//603 152//603
f 321//604 152//604 141//604
f 223//605 201//605 131//605
f 126//606 199//606 212//606
f 210//607 122//607 127//607
f 210//608 127//608 320//608
f 133//609 118//609 123//609
f 133//610 123//610 209//610
f 241//611 243//611 119//611
f 241//612 119//612 132//612
f 129//613 114//613 148//613
f 129//614 148//614 153//614
f 200//615 110//615 115//615
f 200//616 115//616 128//616
f 205//617 106//617 111//617
f 205//618 111//618 203//618
f 197//619 102//619 107//619
f 197//620 107//620 204//620
f 125//621 98//621 103//621
f 125//622 103//622 196//622
f 124//623 121//623 94//623
f 124//624 94//624 99//624
f 120//625 117//625 90//625
f 120//626 90//626 95//626
f 116//627 242//627 256//627
f 116//628 256//628 91//628
f 305//629 112//629 109//629
f 305//630 109//630 313//630
f 164//631 88//631 259//631
f 164//632 259//632 254//632
f 93//633 319//633 316//633
f 93//634 316//634 96//634
f 101//635 260//635 277//635
f 101//636 277//636 104//636
f 105//637 276//637 311//637
f 105//638 311//638 108//638
f 113//639 304//639 314//639
f 113//640 314//640 149//640
f 330//641 250//641 160//641
f 330//642 160//642 176//642
f 150//643 315//643 177//643
f 150//644 177//644 163//644
f 97//645 317//645 261//645
f 97//646 261//646 100//646
f 318//647 92//647 89//647
f 318//648 89//648 167//648
f 349//649 329//649 326//649
f 349//650 326//650 325//650
f 248//651 330//651 82//651
f 248//652 82//652 246//652
f 223//653 321//653 322//653
f 223//654 322//654 224//654
f 222//655 323//655 324//655
f 222//656 324//656 219//656
f 214//657 331//657 320//657
f 214//658 320//658 212//658
f 284//659 319//659 318//659
f 284//660 318//660 282//660
f 293//661 315//661 314//661
f 293//662 314//662 294//662
f 253//663 328//663 327//663
f 253//664 327//664 254//664
f 285//665 317//665 316//665
f 285//666 316//666 286//666
f 311//667 347//667 348//667
f 311//668 348//668 312//668
#668 polygons

