# Aspose.3D Wavefront OBJ Exporter
# Copyright 2004-2022 Aspose Pty Ltd.
# File created: 06/23/2022 13:41:03


#
# object obj_2365231
#

v 25.70936965942382816 12.46107482910156248 3.29532623291015624
v 25.61076736450195312 12.43699645996093752 3.44239044189453128
v 25.69956588745117184 11.61875915527343752 6.81195068359375008
v 25.78920745849609376 11.6484375 6.74388122558593744
v 6.31920623779296876 -9.64653015136718752 -1.44233703613281248
v 6.64974975585937504 -10.43452453613281248 1.23056411743164064
v 2.266998291015625 -9.84934997558593744 0.80954360961914064
v 2.05242156982421875 -9.1479339599609375 -1.75551223754882816
v 12.39360046386718752 -10.75050354003906256 1.77875900268554688
v 11.9342041015625 -9.99752807617187504 -1.06305313110351562
v 16.3763427734375 -10.0927581787109375 -0.9636154174804688
v 16.82285308837890624 -10.86085510253906256 1.9207801818847656
v 12.67960357666015624 -9.35353088378906248 7.40160369873046872
v 12.61994171142578128 -10.57540893554687504 4.59732437133789064
v 16.95703125 -10.66561889648437504 4.81861686706542976
v 16.97467803955078128 -9.41123962402343752 7.65903091430664064
v 6.85423278808593744 -10.37763977050781248 3.9564094543457032
v 6.94135284423828128 -9.19050598144531248 6.76432991027832032
v 2.45215606689453128 -8.79469299316406256 6.15843009948730468
v 2.36559295654296872 -9.81965637207031248 3.44462966918945312
v 1.75717163085937504 -7.71539306640625 -4.25025939941406248
v 1.48854064941406248 -5.95034790039062496 -6.53575515747070312
v 5.49033355712890624 -5.95680236816406256 -6.46684646606445312
v 5.88221740722656256 -8.0081024169921875 -4.07070159912109375
v 11.240631103515625 -8.32438659667968752 -3.92784118652343744
v 10.50419616699218752 -6.27052307128906248 -6.51054382324218752
v 15.12140655517578124 -6.40946960449218752 -6.47104644775390624
v 15.70742034912109376 -8.47508239746093752 -3.84408187866210944
v 22.93702697753906256 3.6260986328125 12.78292846679687504
v 19.37783050537109376 3.90901184082031248 12.62407112121582032
v 19.64813995361328128 0.49267578125 12.83665275573730464
v 22.91069030761718752 0.37503051757812496 12.87942695617675776
v 23.0387115478515625 -6.63777160644531248 10.15198707580566406
v 22.92526245117187504 -3.49482727050781248 11.99677085876464848
v 20.0052947998046875 -3.64889526367187504 12.07741737365722656
v 20.25684356689453124 -6.82516479492187504 10.31199073791503908
v 15.21440887451171876 3.87904357910156256 12.31568527221679688
v 10.59579467773437504 3.68547058105468752 11.86494636535644528
v 11.159393310546875 0.20133972167968752 12.42339324951171872
v 15.77996826171875008 0.34336853027343752 12.7246055603027344
v 16.9180984497070312 -7.139739990234375 10.44557952880859376
v 16.52200317382812496 -3.88558959960937504 12.1358489990234375
v 12.02300262451171875 -3.90660095214843744 11.90192222595214848
v 12.53506469726562496 -7.085968017578125 10.22515296936035156
v 6.92398071289062496 -6.83638000488281248 9.6092529296875
v 6.58531951904296872 -3.72256469726562496 11.31400680541992188
v 2.48996734619140624 -3.94721984863281248 10.68793869018554688
v 2.53030395507812496 -6.7655029296875 8.94472503662109376
v 1.31850433349609376 4.85357666015624992 -9.75125122070312496
v 4.9183273315429688 5.81718444824218752 -9.6655311584472656
v 5.89369964599609376 4.4244384765625 -10.31288909912109376
v 1.23531341552734376 -3.84133911132812496 -8.60696029663085936
v 1.25632476806640624 -1.0827178955078125 -9.78486251831054688
v 4.69310760498046872 -0.93705749511718752 -9.88262557983398432
v 4.9051589965820312 -3.69035339355468752 -8.63133239746093752
v 11.0896453857421875 4.39054870605468752 -10.66275787353515624
v 15.57156372070312496 4.72557067871093744 -10.78573226928710944
v 15.100677490234375 2.302825927734375 -10.81346130371093744
v 9.93611145019531248 2.305328369140625 -10.577880859375
v 9.72126007080078128 -3.83656311035156256 -8.82573318481445312
v 9.53302001953125 -0.97908020019531248 -10.18291091918945312
v 14.60486602783203128 -0.98216247558593744 -10.28767776489257812
v 14.61158752441406248 -3.88449096679687504 -8.83721923828124992
v 22.0059051513671875 6.92338562011718752 -10.36919021606445312
v 22.74122619628906256 8.71112060546875 -9.44535827636718752
v 26.8278923034667968 9.1296234130859375 -9.10669708251953124
v 27.51698303222656248 8.25843811035156248 -9.79298782348632816
v 26.33515930175781248 10.56747436523437504 -8.20499038696289064
v 23.38465881347656248 10.45402526855468752 -8.339447021484375
v 23.91128540039062496 11.84873962402343744 -7.0528564453125
v 26.024505615234375 11.77618408203124992 -7.08507156372070312
v 19.56607055664062496 12.75434875488281248 -3.08748245239257812
v 16.76234436035156256 12.35603332519531248 -3.51270294189453128
v 16.23992156982421876 12.397216796875 -0.76865005493164064
v 19.07585906982421875 12.74595642089843744 -0.48825073242187504
v 12.8941726684570312 11.83108520507812496 -3.62811279296875
v 8.67276763916015624 11.21650695800781248 -3.8718147277832032
v 8.57052612304687504 11.49859619140625 -1.12076187133789062
v 12.60508728027343752 12.0344390869140625 -0.91123199462890624
v 19.12067413330078124 12.47648620605468752 2.90848159790039056
v 16.356170654296875 12.110076904296875 2.55329132080078128
v 17.071319580078125 10.96495056152343744 5.86822700500488288
v 19.86299133300781248 11.36581420898437504 6.10268783569335938
v 23.00229644775390625 6.26202392578125 11.7119159698486328
v 18.38339996337890624 8.94894409179687504 9.16551589965820312
v 19.16297149658203124 6.59031677246093752 11.4246253967285156
v 12.87092590332031248 11.81288146972656256 2.16308212280273438
v 8.90219116210937504 11.27784729003906248 1.85971450805664064
v 9.34449768066406248 10.36744689941406248 4.87015914916992192
v 13.40399169921875 10.8131103515625 5.33011817932128908
v 14.81327819824218752 6.71131896972656248 10.91875648498535152
v 14.21073913574218752 9.0245513916015625 8.59365081787109376
v 9.89969635009765632 8.77189636230468752 7.9091796875
v 10.32491302490234376 6.54270935058593752 10.234283447265625
v 16.0233917236328125 6.27854919433593752 -10.20952606201171876
v 11.32242584228515624 5.73260498046875008 -10.16470718383789062
v 10.238922119140625 6.98052978515624992 -9.43527603149414064
v 14.25975799560546876 8.2012939453125 -8.94870758056640624
v 20.37533569335937504 10.7349853515625 -7.68340301513671872
v 17.98843383789062496 11.0293731689453125 -7.25650405883789064
v 17.924560546875 11.992431640625 -5.67410659790039064
v 9.205841064453125 10.43104553222656248 -6.39261627197265624
v 13.73649597167968752 11.21258544921875 -5.9931640625
v 13.63900756835937504 10.1159210205078125 -7.66856002807617184
v 9.72714233398437504 9.0189666748046875 -8.24560165405273436
v 22.85663604736328128 -6.95346069335937504 -5.58474731445312496
v 23.36253356933593752 -8.288238525390625 -3.63343429565429688
v 22.26026153564453124 -8.231658935546875 -3.7617263793945312
v 22.07790374755859375 -6.49464416503906248 -6.06739425659179688
v 19.33552551269531248 -6.36073303222656248 -6.34303283691406248
v 21.66024017333984376 -6.39881896972656248 -6.20773696899414064
v 21.84063720703124992 -8.29438781738281248 -3.8054275512695312
v 19.56858825683593752 -8.299713134765625 -3.82867813110351568
v 23.33031463623046876 -9.051849365234375 7.347259521484375
v 20.43695831298828128 -9.1535186767578125 7.46939086914062496
v 20.61006927490234376 -10.40089416503906248 4.5751934051513672
v 22.62581634521484376 -10.213775634765625 3.96845626831054688
v 23.93061065673828128 -9.52272033691406248 -1.126922607421875
v 24.022491455078125 -10.1599884033203125 1.57091140747070312
v 23.1583251953125 -10.1518707275390625 1.03924179077148437
v 22.9283447265625 -9.5120849609375 -1.21516036987304688
v 20.291290283203125 -9.80229187011718752 -1.16222000122070312
v 22.51600646972656248 -9.60227966308593752 -1.24681472778320312
v 22.7496261596679688 -10.25103759765625 1.01067352294921875
v 20.64817047119140624 -10.49668884277343752 1.63842010498046872
v 25.54801940917968752 4.85078430175781248 -11.33588409423828124
v 24.79842376708984368 2.084869384765625 -11.30451202392578124
v 23.19053649902343752 1.73052978515624992 -11.07845687866210938
v 22.2022705078125 -4.074951171875 -8.53945159912109376
v 22.64234161376953128 -1.60708618164062496 -10.20420455932617188
v 22.57259368896484376 -2.867919921875 -9.77001953125
v -0.52523803710937504 -8.95323181152343744 3.14266204833984376
v -0.36529541015625 -8.0439605712890625 5.7488956451416016
v -1.94573211669921872 -7.45852661132812496 5.48838424682617184
v -2.12920379638671876 -8.30419921875 2.94769668579101568
v -0.50086975097656248 -9.110107421875 0.55772018432617184
v -2.04936981201171875 -8.53952026367187504 0.42045974731445312
v -2.0692596435546875 -8.1207275390625 -2.07512664794921875
v -0.56053161621093752 -8.58404541015625 -1.96672439575195312
v -0.77734375 -7.38232421875 -4.43149566650390624
v -2.22248077392578124 -7.0366668701171875 -4.51749420166015624
v -2.44097900390625 -5.5755615234375 -6.71559143066406248
v -1.0188140869140625 -5.83915710449218752 -6.66769027709960936
v -0.48741912841796872 1.37477111816406248 -10.09075164794921876
v -1.56252288818359376 0.84115600585937504 -10.09607315063476562
v -1.17343902587890624 3.815185546875 -9.95377349853515632
v -0.32579803466796876 4.0653228759765625 -9.81483840942382816
v -1.277923583984375 -3.93994140625 -8.66550445556640624
v -2.67543792724609376 -3.72227478027343744 -8.67138671875
v -2.44686126708984376 -1.85165405273437504 -9.7425651550292968
v -1.08267974853515625 -1.53034973144531248 -9.8041877746582032
v -0.0482025146484375 -6.38734436035156248 8.3691349029541016
v -0.0112152099609375 -3.85731506347656256 10.11901664733886718
v -1.32553863525390624 -4.1662750244140625 9.574462890625
v -1.52078247070312496 -6.007232666015625 7.99713706970214848
v 4.88302612304687504 9.61477661132812496 4.53513908386230472
v 4.45276641845703128 10.49630737304687504 1.70144653320312496
v 2.60453796386718752 9.85176086425781248 1.61012649536132816
v 2.85832214355468752 8.97076416015624992 4.41804504394531248
v 1.74624633789062496 9.050628662109375 4.5595073699951172
v 2.64515686035156248 8.97947692871093744 4.48471450805664064
v 2.40061187744140624 9.88201904296875008 1.65494537353515624
v 1.5064697265625 9.899658203125 1.75298690795898432
v 1.79078674316406256 2.87565612792968752 10.85068893432617184
v 2.176513671875 -0.309295654296875 11.38924789428710936
v 2.96560668945312496 3.20367431640625 10.67390441894531248
v 1.95634460449218752 7.7469482421875 6.9094314575195312
v 1.95185852050781248 5.68777465820312496 9.01030158996582031
v 2.88661193847656256 5.99337768554687504 8.76763534545898432
v 2.88605499267578128 7.62200927734375 6.92708015441894528
v 5.42449951171875 8.1489105224609375 7.16854286193847656
v 3.106231689453125 7.60968017578125 6.88674354553222656
v 3.18970489501953124 5.9527587890625 8.73614883422851568
v 5.63487243652343752 6.0345611572265625 9.42339324951171872
v 1.37732696533203128 7.1754913330078125 -8.8719558715820312
v 2.1451416015625 8.90130615234375008 -6.64780426025390624
v 4.333160400390625 9.66995239257812496 -6.83688354492187504
v 4.59954833984375 8.0959625244140625 -8.66550445556640624
v 4.20709991455078124 10.77894592285156256 -1.34933853149414064
v 4.1135406494140625 10.52487182617187504 -4.19339370727539064
v 2.27231597900390624 10.049530029296875 -4.00907516479492187
v 2.36615753173828128 10.170257568359375 -1.56110763549804688
v 1.214019775390625 10.29014587402343752 -1.47203063964843752
v 2.15746307373046876 10.25401306152343752 -1.57455444335937504
v 2.06166839599609375 10.1559600830078125 -4.04577255249023438
v 1.13503265380859376 9.94392395019531248 -4.43149566650390624
v 24.95668792724609376 12.100830078125 6.19484710693359376
v 24.8177490234375 12.68516540527343752 3.90962982177734368
v 24.43174743652343752 13.281829833984375 -2.06952667236328125
v 24.49561309814453128 13.06500244140625 0.39244842529296872
v 25.19339752197265624 12.81710815429687504 -0.18711853027343752
v 25.0482940673828125 12.96333312988281248 -2.0121002197265625
v 24.75164031982421872 9.91841125488281248 8.98220634460449216
v 24.97209930419921872 10.44926452636718752 8.43698120117187504
v 23.9395751953125 11.29829406738281248 7.32765197753906248
v 23.49474334716796872 11.0607452392578125 7.67695808410644528
v 20.86441802978515632 12.7156982421875 3.25246810913085936
v 21.53334808349609376 11.84425354003906256 6.05954933166503906
v 22.19050598144531248 12.3013916015625 5.72816658020019536
v 21.86052703857421872 12.87033081054687504 3.44575119018554688
v 23.14627838134765624 12.71821594238281248 3.62894821166992184
v 22.14232635498046876 12.88882446289062496 3.49477386474609376
v 22.47763061523437504 12.31793212890625 5.7746658325195312
v 23.20510101318359376 12.1624603271484375 5.87943077087402336
v 23.49278259277343752 13.40983581542968752 -3.21241378784179688
v 23.03842926025390625 13.0106658935546875 -4.75503158569335936
v 22.055206298828125 13.11151123046875 -3.70626449584960936
v 22.77399444580078128 13.43560791015625 -2.9129676818847656
v 23.1154632568359375 13.0691986083984375 0.29160308837890624
v 22.98772430419921872 13.27874755859375 -1.763916015625
v 22.46978759765625 13.40115356445312496 -1.76615524291992192
v 22.26390075683593752 13.214874267578125 0.23810195922851564
v 20.94089508056640624 13.0151519775390625 -0.05182266235351562
v 21.99078369140624992 13.19050598144531248 0.19300079345703124
v 22.20311737060546876 13.3695068359375 -1.81125640869140624
v 21.34034729003906248 13.1417694091796875 -2.3698158264160156
v 21.1305389404296875 4.95050048828124992 -11.10842514038085938
v 26.38390350341796872 6.86203002929687504 -10.5560340881347656
v 24.79506683349609376 -7.1649627685546875 -5.34692764282226564
v 25.17125701904296876 -8.44285583496093752 -3.3619956970214844
v 25.54606628417968752 -9.60844421386718752 -0.90254592895507808
v 25.68220138549804688 -10.18072509765625 1.7277793884277344
v 25.56510925292968752 -10.1748504638671875 4.53205490112304688
v 25.45278167724609376 -8.94314575195312496 7.30076026916503908
v 23.63116455078125 -10.20930480957031248 4.45978546142578128
v 25.69676589965820312 -0.007049560546875 12.96181106567382816
v 26.05784225463867188 3.0406494140625 12.9549484252929688
v 25.39620208740234376 -6.471923828125 10.10741996765136718
v 25.38863372802734376 -3.41836547851562496 11.99769401550292976
v 5.54803466796875 3.28070068359375 11.26168060302734376
v 5.86260986328124992 0.031036376953125 11.88937377929687504
v 0.14060211181640624 2.74708557128906256 10.56639480590820312
v -0.238677978515625 -0.34767150878906248 10.99943161010742192
v 1.33026885986328124 2.101959228515625 -10.05769729614257812
v 4.87882995605468752 2.36050415039062496 -10.22857284545898436
v 20.42435455322265624 2.30226135253906248 -11.092742919921875
v 19.88764190673828128 -1.0154876708984375 -10.31513214111328124
v 19.49491882324218752 -3.89932250976562496 -8.70219802856445312
v 17.66236877441406248 8.31474304199218752 -9.1845703125
v 21.99638366699218752 12.19691467285156248 -6.18784713745117188
v 24.34603118896484376 12.85995483398437504 -5.57718276977539064
v 25.8973312377929688 12.76808166503906256 -5.74385452270507808
v 20.57730102539062496 12.50840759277343752 -4.89761734008789056
v -0.33027648925781248 6.49674987792968752 -8.98204040527343744
v -0.38265991210937504 8.30018615722656248 -7.17667007446289062
v 1.31793975830078124 8.8760986328125 -7.09487533569335938
v -0.47901916503906248 9.47946166992187504 -4.39955902099609376
v -0.35688781738281248 9.94558715820312496 -1.41096496582031248
v 26.29734039306640624 5.645751953125 11.9739952087402344
v 26.33599853515625 7.62312316894531248 10.87727165222167968
v 23.61715698242187504 8.220062255859375 10.61911392211914064
v 24.52978515625 9.39657592773437504 9.53020286560058592
v 22.92330169677734368 10.38371276855468752 8.3442058563232422
v 21.38124084472656248 9.45454406738281248 9.08290863037109375
v 0.027435302734375 9.70945739746093752 1.83366394042968752
v 0.27758026123046876 8.99711608886718752 4.59256172180175784
v 0.45125579833984376 7.80519104003906256 6.85817146301269536
v 0.40812683105468752 5.71075439453125 8.85396575927734368
v -1.19585418701171876 6.22027587890625 -9.0697174072265625
v 24.69869995117187504 13.34344482421875 -4.31300354003906248
v 26.42619705200195312 9.61869812011718752 9.09002304077148438
v 26.44692611694335936 10.19294738769531248 8.50633811950683592
v 22.55802154541015624 -4.38870239257812496 -8.21675491333007812
v 23.24571990966796876 -4.91166687011718752 -7.6349449157714844
v 22.91153717041015632 -3.3060302734375 -9.35179901123046876
v 23.0151824951171875 -1.65248107910156248 -10.20504379272460936
v 22.94515228271484368 -2.90910339355468752 -9.7728157043457032
v -2.31548309326171876 -7.4097900390625 5.47465896606445312
v -2.49111938476562496 -8.24818420410156248 2.94349670410156256
v -2.40904235839843752 -8.49468994140625 0.4025306701660156
v -2.42137145996093752 -8.083740234375 -2.095855712890625
v -2.56058502197265624 -7.0232086181640625 -4.5314979553222656
v -2.76788330078124992 -5.56658935546875 -6.72847747802734368
v -2.99393463134765632 -3.68951416015625 -8.69744110107421872
v -2.71970367431640624 -1.83203125 -9.77450180053710944
v -1.4188232421875 -0.70596313476562496 10.53026008605957032
v -1.69530487060546872 -4.140777587890625 9.50930595397949216
v -1.89082336425781248 -5.97921752929687504 7.94895744323730464
v 25.1062774658203125 12.98013305664062496 -4.09423065185546876
v 25.41664886474609376 12.8011474609375 -0.32886123657226564
v 25.27042388916015624 12.9266357421875 -2.15636444091796876
v 26.4049072265625 9.0413818359375 9.67227935791015624
# 282 vertices

vn 0.10972518473863602 0.96655100584030144 0.23181797564029692
vn -0.14389853179454804 0.96246182918548576 0.23013146221637724
vn -0.10194151103496552 -0.95753777027130128 -0.269683837890625
vn -0.09371186047792434 -0.96230846643447872 -0.25530448555946352
vn -0.01505149248987436 -0.9671339392662048 -0.25382167100906372
vn -0.01591121777892112 -0.96681201457977296 -0.25499302148818968
vn -0.03944821655750274 -0.9157346487045288 0.3998422920703888
vn -0.03648942708969116 -0.91407543420791632 0.40389928221702576
vn -0.13292206823825836 -0.91140627861022944 0.3894488215446472
vn -0.15497390925884246 -0.92255431413650512 0.35337874293327332
vn 0.0092606097459793 -0.79089498519897456 -0.61188179254531864
vn -0.0258420892059803 -0.76148450374603264 -0.64766782522201536
vn -0.01832980848848819 -0.78509169816970832 -0.61910825967788696
vn -0.01502173393964767 -0.78762692213058464 -0.61596924066543576
vn -0.03983683511614799 0.05891547724604607 0.99746781587600704
vn -0.01203062757849693 0.02976424433290958 0.9994844794273376
vn 0.0504143126308918 -0.50420528650283816 0.8621110916137696
vn 0.08253752440214157 -0.47915849089622496 0.87383902072906496
vn -0.10202107578516006 0.14132629334926606 0.98469209671020512
vn -0.06787916272878647 0.10390348732471466 0.99226838350296016
vn -0.0438135378062725 -0.4646993577480316 0.8843839764595032
vn -0.0500524714589119 -0.47220143675804136 0.88006848096847536
vn -0.10590948164463044 -0.4863581657409668 0.8673171401023864
vn -0.13573682308197022 -0.52257680892944336 0.84171789884567264
vn -0.07827547192573547 0.37460508942604064 -0.9238744378089904
vn -0.00952068343758583 -0.39261072874069216 -0.91965550184249872
vn 0.01094488613307476 -0.41302323341369632 -0.91065472364425664
vn -0.02869456261396408 0.01701602339744567 -0.99944341182708736
vn -0.04556940868496895 -0.01544816792011261 -0.99884164333343504
vn -0.01890689693391323 -0.42996346950531008 -0.90264832973480224
vn -0.00648216903209686 -0.44704222679138184 -0.89448934793472288
vn 0.02791137062013149 0.44982278347015384 -0.89268153905868528
vn -0.05836937576532364 0.58886569738388064 -0.80612039566040032
vn 0.00754806725308299 0.67648100852966312 -0.73642134666442864
vn 0.0122337955981493 0.6812899708747864 -0.73191142082214352
vn -0.13451997935771942 0.99008411169052128 -0.04046985507011413
vn -0.12013418972492218 0.99256706237792976 -0.01945236511528492
vn -0.13725459575653076 0.98483866453170784 -0.10608501732349396
vn -0.12668932974338532 0.98808133602142336 -0.08743637800216675
vn -0.16743667423725128 0.9201428890228272 0.35398033261299132
vn -0.16209213435649872 0.91974723339080816 0.35747888684272768
vn 0.00524918036535382 0.69260191917419432 0.72130089998245232
vn -0.1501406729221344 0.94001001119613648 0.30633139610290528
vn -0.13908958435058594 0.93738257884979248 0.31932443380355836
vn -0.15365305542945862 0.68030124902725216 0.7166456580162048
vn -0.13293306529521942 0.70317578315734864 0.69847881793975832
vn -0.06218479201197624 0.462863564491272 -0.88424569368362432
vn -0.05230162665247917 0.51361697912216184 -0.8564240336418152
vn 0.01246573124080896 0.85438913106918336 -0.51948416233062744
vn -0.09638448804616928 0.83535730838775632 -0.54119157791137696
vn -0.12452954053878784 0.77198159694671632 -0.62332725524902344
vn 0.02398008294403553 -0.82222718000411984 -0.56865406036376952
vn -0.10263871401548386 -0.79837346076965328 -0.59335064888000488
vn 0.02325991541147232 -0.78397774696350096 -0.62035304307937624
vn 0.00810894928872585 -0.79149389266967776 -0.61112326383590696
vn 0.04898423328995705 -0.91616761684417728 0.39779067039489744
vn 0.17399387061595916 -0.94181370735168464 0.28759878873825072
vn 0.13376839458942414 -0.96344137191772464 -0.23213480412960052
vn 0.01394588313996791 -0.96154230833053584 -0.27430260181427
vn 0.07522830367088318 -0.95628285408020016 -0.28260210156440736
vn 0.03996574506163597 -0.968633770942688 -0.24525795876979828
vn -0.1452469378709793 0.02814607135951519 -0.98899501562118528
vn -0.93491578102111824 -0.06820714473724365 -0.34825319051742552
vn -0.37516453862190248 -0.86782002449035648 0.32579144835472108
vn -0.38862976431846616 -0.86546266078948976 0.31613510847091676
vn -0.32962021231651308 -0.93151956796646112 -0.15369434654712678
vn -0.2757321000099182 -0.94230037927627568 -0.18984679877758028
vn -0.16642449796199798 -0.82873260974884032 -0.53432679176330568
vn -0.1337922215461731 -0.82234221696853632 -0.55303978919982912
vn -0.02007459662854671 0.05040325596928596 -0.9985272288322448
vn 0.13423000276088714 0.0931081548333168 -0.9865663647651672
vn -0.07249371707439423 -0.48893341422080992 -0.86930364370346064
vn 0.06071257218718529 -0.43048700690269472 -0.90055257081985472
vn -0.20374737679958344 -0.55489248037338256 0.80658614635467536
vn -0.3376493752002716 -0.59152299165725712 0.73218405246734624
vn -0.32564848661422728 0.88766300678253168 0.32558777928352356
vn -0.30441072583198548 0.9006520509719848 0.31009668111801148
vn 0.09973438084125518 0.95042806863784784 0.29451581835746764
vn 0.05016100406646729 0.95713460445404048 0.2852671444416046
vn 0.09781607240438462 0.17743414640426636 0.9792594909667968
vn -0.05172713100910187 0.71325749158859256 0.69899076223373416
vn 0.08772457391023636 0.74603205919265744 0.66010648012161256
vn -0.24599418044090272 0.7163715362548828 0.65291547775268552
vn -0.21425598859786988 0.70247459411621096 0.67869269847869872
vn -0.32429727911949156 0.79830420017242432 -0.50748562812805176
vn -0.16784507036209106 0.73492962121963504 -0.65704363584518432
vn -0.2564944624900818 0.96342313289642336 -0.07762980461120605
vn -0.31010478734970092 0.95005911588668816 -0.03496679291129112
vn 0.03379678726196289 0.99859017133712768 -0.04093215987086296
vn -0.17812059819698334 0.97788065671920784 -0.10964634269475936
vn 0.40694615244865416 0.89005702733993536 0.20541006326675416
vn 0.39991247653961184 0.89352548122406 0.20416225492954256
vn 0.38576480746269224 0.91986066102981568 0.07100553810596466
vn 0.45610541105270384 0.8892378211021424 0.03498463705182075
vn -0.11459163576364518 0.73452854156494144 0.66883218288421632
vn 0.06826408207416534 0.7824066281318664 0.61901521682739256
vn -0.40495127439498904 0.84145510196685792 0.35772588849067688
vn -0.19776158034801484 0.94405424594879152 0.26391631364822388
vn 0.13443610072135926 0.9657232761383056 0.22204868495464324
vn 0.17123012244701386 0.95752954483032224 0.2319858819246292
vn -0.12784361839294434 0.96865314245224 -0.2129957377910614
vn -0.09248656779527664 0.94829380512237552 -0.30361980199813844
vn 0.22882603108882904 0.96978038549423216 0.08464355766773224
vn 0.16105854511260986 0.9810481667518616 0.1077250987291336
vn -0.17988966405391694 0.98129314184188848 0.06858184188604355
vn -0.26001134514808656 0.96557301282882688 0.00793629512190818
vn -0.04644948616623878 0.39411115646362304 -0.91788822412490848
vn -0.08359982073307037 0.4477693736553192 -0.89023238420486448
vn -0.03961428627371788 0.3659648597240448 -0.92978513240814208
vn -0.0343223437666893 0.3736747205257416 -0.92692464590072624
vn -0.0507296621799469 0.36035272479057312 -0.93143570423126224
vn -0.05217210948467255 0.35539162158966064 -0.9332603216171264
vn -0.072784423828125 0.35482314229011536 -0.9320960640907288
vn -0.05405111238360405 0.39491379261016848 -0.91712677478790288
vn -0.10553698986768722 0.42780825495719912 0.89768707752227776
vn -0.1498798280954361 0.4793148040771484 0.86475044488906864
vn -0.01140412501990795 0.37664553523063656 0.92628723382949824
vn -0.03363729268312454 0.40586355328559872 0.9133144617080688
vn 0.00962371192872524 -0.83994877338409424 -0.5425803065299988
vn -0.02153428830206394 -0.82777404785156256 -0.56064826250076296
vn 0.00792293157428503 -0.97702413797378544 -0.21298158168792724
vn -0.01980644464492797 -0.97317683696746832 -0.22920411825180052
vn -0.0748601108789444 -0.91764557361602784 0.39028522372245792
vn -0.07035639137029648 -0.91393512487411504 0.39971584081649784
vn -0.02401178330183029 -0.9976670145988464 0.06390519440174103
vn -0.02704127319157123 -0.99728852510452272 0.06844249367713928
vn -0.02920484915375709 -0.96739017963409424 -0.25160160660743712
vn -0.04122644290328026 -0.95974177122116096 -0.27784189581871032
vn -0.1251257210969925 -0.99201405048370368 0.01586027070879936
vn -0.13518750667572022 -0.9903409481048584 0.03080837428569793
vn -0.06546494364738464 -0.86866331100463872 -0.49105861783027648
vn -0.03755861520767212 -0.85081428289413456 -0.5241224765777588
vn -0.1917079985141754 -0.96170699596405024 -0.19587668776512144
vn -0.23024509847164156 -0.943399965763092 -0.2387123852968216
vn -0.02036472782492637 -0.87374085187911984 -0.48596534132957456
vn -0.00726820761337876 -0.86425691843032832 -0.50299817323684696
vn 0.05795032531023026 -0.96243357658386224 -0.26526099443435668
vn 0.07357174158096313 -0.96575003862380976 -0.2488253265619278
vn 0.05561096593737602 -0.91141462326049808 0.40771412849426272
vn 0.00262198806740343 -0.92810553312301632 0.37230801582336424
vn -0.04819876328110695 -0.77467989921569824 0.63051408529281616
vn -0.04096962511539459 -0.78006064891815184 0.62436127662658688
vn 0.08822000771760941 -0.76784795522689824 0.63452881574630736
vn 0.05412747338414192 -0.75401586294174192 0.65462213754653928
vn 0.08977524191141129 -0.91266709566116336 0.39872184395790104
vn 0.0927911326289177 -0.91103470325469968 0.40175318717956544
vn -0.10180860757827758 -0.80278915166854864 0.5875070691108704
vn -0.15214750170707702 -0.76191985607147216 0.62954682111740112
vn -0.28822034597396852 -0.89272695779800416 0.34636357426643372
vn -0.30247530341148376 -0.89403277635574336 0.33047574758529664
vn -0.00665274355560541 -0.8233643770217896 -0.56747406721115112
vn -0.06096399948000908 -0.79343736171722416 -0.60559111833572384
vn 0.0234550591558218 -0.68728840351104736 -0.72600579261779792
vn 0.01116740796715021 -0.69995683431625368 -0.714097797870636
vn -0.05334876105189323 -0.76286602020263664 -0.64435184001922608
vn -0.02997555769979954 -0.78647816181182864 -0.6168901324272156
vn -0.00842189136892557 -0.68466871976852416 -0.72880572080612176
vn -0.01463508978486061 -0.691601037979126 -0.72213143110275264
vn 0.02793850190937519 -0.78274554014205936 -0.62171435356140136
vn 0.03830510750412941 -0.78958225250244144 -0.6124480366706848
vn -0.02545146271586418 0.02986541017889976 0.99922990798950192
vn -0.05343013629317284 0.00857858546078205 0.99853473901748656
vn 0.01601606048643589 -0.52625352144241336 0.85017681121826176
vn 0.05176250636577606 -0.50413411855697632 0.86207276582717888
vn -0.03300705552101135 0.10961543768644332 0.99342590570449824
vn -0.07415316253900528 0.05608830600976944 0.99566835165023808
vn -0.01944874040782451 -0.18190407752990724 0.98312389850616448
vn 0.03862540796399116 -0.22206977009773256 0.97426539659500128
vn 0.0474519245326519 -0.48239704966545104 0.87466645240783696
vn 0.07814343273639679 -0.45203062891960144 0.8885729908943176
vn -0.10438476502895356 0.17886415123939514 0.97832077741622928
vn -0.12835200130939484 0.13667796552181244 0.98226517438888544
vn -0.06019848212599754 -0.13814805448055268 0.98858040571212768
vn -0.05068337544798851 -0.1464318335056305 0.98792147636413568
vn -0.1104045808315277 -0.47749313712120056 0.87167149782180784
vn -0.11667755246162414 -0.48667481541633608 0.86575633287429808
vn -0.15980447828769684 0.15597747266292572 0.97474795579910272
vn -0.17884138226509094 0.14294412732124328 0.97343862056732176
vn -0.11386987566947938 -0.19751176238059996 0.97366458177566528
vn -0.13930189609527588 -0.17618843913078308 0.97444987297058112
vn -0.20750708878040312 -0.516737163066864 0.83061629533767696
vn -0.25799569487571716 -0.54702973365783688 0.79636460542678832
vn -0.02615444175899029 0.11053680628538132 -0.99352782964706416
vn -0.01074252277612686 0.1026466190814972 -0.9946599006652832
vn 0.08999092876911163 -0.43147578835487368 -0.89762479066848752
vn 0.03681157156825065 -0.39266082644462584 -0.91894644498825072
vn -0.06893279403448105 -0.00247385818511247 -0.99761825799942016
vn -0.06723082810640335 -0.00770009262487292 -0.9977077841758728
vn -0.04043115675449371 -0.10199949145317078 -0.9939624667167664
vn -0.02474253438413143 -0.08476197719573975 -0.99609398841857904
vn -0.05989334732294083 -0.416823536157608 -0.90701210498809808
vn -0.04945471882820129 -0.43115556240081784 -0.90092128515243536
vn -0.05238569155335426 0.0080558368936181 -0.99859440326690672
vn -0.05885821208357811 0.02286217175424099 -0.99800449609756464
vn -0.04511633887887001 -0.15124088525772094 -0.98746681213378912
vn -0.02058159187436103 -0.11688018590211868 -0.99293267726898192
vn -0.00746864220127463 -0.4470409452915192 -0.89448231458663936
vn 0.02259964868426323 -0.4903573393821716 -0.87122851610183712
vn -0.08332085609436035 0.50075405836105344 -0.86157011985778816
vn -0.07525423914194107 0.48203986883163456 -0.87291145324707024
vn 0.01788062043488025 0.53559631109237672 -0.8442848920822144
vn 0.01574630104005336 0.53155076503753664 -0.84687995910644528
vn -0.13565686345100402 0.77798950672149664 -0.61345714330673216
vn -0.0910319983959198 0.69357913732528688 -0.71460562944412232
vn 0.01954912208020687 0.8220523595809936 -0.56907618045806888
vn -0.01641843281686306 0.80316144227981568 -0.59553509950637816
vn -0.10566396266222 0.93386006355285648 -0.34167298674583436
vn -0.25749680399894716 0.90862691402435296 -0.32877421379089356
vn -0.12126120924949646 0.96614354848861696 -0.22773310542106628
vn -0.10917537659406662 0.97501385211944576 -0.19346486032009124
vn -0.05771278962492943 0.75246763229370112 -0.65609580278396608
vn -0.08964674174785614 0.77985197305679328 -0.61951136589050296
vn -0.13351951539516448 0.93780863285064704 -0.32044890522956848
vn -0.121324822306633 0.94888854026794432 -0.29136031866073608
vn -0.2003072500228882 0.69023507833480832 -0.69530755281448368
vn -0.23404306173324584 0.69849640130996704 -0.67625927925109864
vn -0.00440567033365368 0.99480652809143072 0.10168887674808502
vn 0.01634960435330867 0.99604803323745728 0.08729833364486694
vn -0.13760261237621308 0.99022614955902096 -0.02275444194674492
vn -0.21928206086158752 0.97553837299346928 0.01549937203526497
vn -0.0956786796450615 0.99182635545730592 -0.08441704511642456
vn -0.13318975269794464 0.99027419090270992 -0.04021945223212242
vn -0.13031014800071716 0.98738849163055424 0.08990738540887833
vn -0.1410813182592392 0.98674887418746944 0.08014232665300369
vn -0.15795250236988068 0.98397684097290032 -0.08270764350891113
vn -0.14181071519851684 0.98418188095092768 -0.10618697851896286
vn -0.1356431394815445 0.98682552576065056 0.08818347752094269
vn -0.13938173651695252 0.98674023151397712 0.08316419273614883
vn -0.21733516454696656 0.9657504558563232 -0.14174473285675048
vn -0.27693620324134828 0.95520472526550288 -0.10435616970062256
vn 0.02335499785840511 0.48454758524894712 0.87445306777954096
vn 0.02055202424526214 0.4823153614997864 0.87575656175613408
vn -0.00905495230108499 0.97074043750762944 0.23996058106422424
vn -0.02266128920018673 0.9682483077049256 0.24896112084388732
vn -0.24710829555988312 0.8959882855415344 0.3689748644828796
vn -0.19224609434604644 0.9233184456825256 0.33245211839675904
vn -0.08709082007408142 0.7044987678527832 0.70434123277664184
vn -0.08592423051595688 0.71182698011398312 0.69707924127578736
vn -0.08508367836475372 0.94595408439636224 0.31294018030166624
vn -0.11817929148674012 0.93042474985122688 0.34690558910369872
vn -0.1636359840631485 0.81135231256484992 0.56118679046630856
vn -0.12011757493019104 0.8067395687103272 0.578569769859314
vn -0.0883592888712883 0.6736158728599548 0.73378080129623408
vn -0.06336338073015213 0.69923180341720584 0.71208143234252928
vn -0.18087264895439148 0.93099021911621088 0.31708404421806336
vn -0.17519767582416534 0.93495619297027584 0.30848449468612672
vn -0.14933598041534424 0.86397188901901248 0.48088586330413816
vn -0.12969334423542022 0.85567110776901248 0.5010055899620056
vn -0.21074980497360228 0.6860865950584412 0.69632577896118168
vn -0.1942119300365448 0.70647287368774416 0.68057167530059816
vn -0.02955936454236507 0.9671710133552552 0.25240156054496764
vn -0.10591188818216324 0.949232280254364 0.29621070623397828
vn 0.00379566824994981 0.7141491174697876 0.69998329877853392
vn -0.06284609436988831 0.68916749954223632 0.721871554851532
vn 0.05181173607707024 0.3449697494506836 -0.93718272447586064
vn -0.00766710704192519 0.32401174306869508 -0.94602191448211664
vn 0.01828584633767604 0.99517095088958736 0.09643828868865966
vn -0.13816101849079132 0.96793961524963376 -0.20977227389812468
vn -0.09995493292808532 0.93832808732986448 -0.3309825360774994
vn 0.0901820957660675 0.70833742618560792 0.70008945465087888
vn 0.07911960035562515 0.69806188344955448 0.71165287494659424
vn 0.02669822610914707 0.80566513538360592 0.59176921844482424
vn 0.02781404927372932 0.80371421575546272 0.59436506032943728
vn -0.07550665736198425 0.58341693878173832 -0.80865532159805296
vn -0.07274366915225983 0.58331638574600216 -0.80898100137710576
vn -0.12823309004306794 0.84487247467041008 -0.51937156915664672
vn -0.1142476499080658 0.83424681425094608 -0.53942531347274784
vn -0.03061876259744167 0.5486809611320496 -0.83547091484069824
vn -0.04529531300067902 0.4950319230556488 -0.8676933646202088
vn 0.01136401761323213 -0.71550625562667848 -0.69851398468017576
vn 0.05039870366454124 -0.71242296695709232 -0.69993811845779416
vn -0.00940751936286687 -0.72210651636123664 -0.69171792268753048
vn -0.04241230338811874 -0.70684856176376344 -0.70609229803085328
vn -0.00346312415786087 -0.7078906297683716 -0.70631349086761472
vn 0.03059101477265358 -0.69266122579574584 -0.7206140756607056
vn 0.0306523498147726 -0.88975226879119872 -0.4554133415222168
vn 0.00551855936646461 -0.89658880233764656 -0.44282960891723632
vn 0.17903251945972442 -0.77894550561904912 -0.6009919047355652
vn 0.02870726212859153 -0.78366726636886592 -0.62051707506179808
vn 0.00675733247771859 -0.88966834545135504 -0.456557422876358
vn 0.05848240479826927 -0.862845242023468 -0.50207370519638064
vn 0.0135661531239748 -0.99973380565643312 -0.01866177096962928
vn 0.00102372886613011 -0.99985617399215696 -0.01693002320826053
vn 0.24477392435073852 -0.92590171098709104 -0.2877356708049774
vn 0.22570231556892396 -0.92985099554061888 -0.29057812690734864
vn 0.12126610428094864 -0.9924644231796264 0.0175790823996067
vn 0.10244783014059066 -0.99416536092758176 0.03375784680247307
vn -0.04585885256528854 -0.24606862664222716 -0.9681669473648072
vn -0.00947489310055971 -0.2267315834760666 -0.97391116619110112
vn -0.0414869375526905 -0.32326561212539672 -0.94539839029312128
vn -0.0427822358906269 -0.32282695174217224 -0.9454905986785888
vn -0.33379039168357848 -0.79034578800201424 0.51374852657318112
vn -0.37015777826309208 -0.7643130421638488 0.52802348136901856
vn -0.38176462054252624 -0.92131429910659792 0.07372750341892242
vn -0.3494272232055664 -0.9354362487792968 0.05347593873739243
vn -0.14852699637413024 -0.93562960624694832 0.32021379470825196
vn -0.13546022772789002 -0.93710225820541376 0.32169827818870544
vn -0.09371651709079742 -0.98247188329696656 -0.16114045679569244
vn -0.11398842185735702 -0.97992974519729616 -0.16353680193424224
vn -0.24644097685813904 -0.89145934581756592 -0.38021957874298096
vn -0.18788100779056548 -0.88925784826278688 -0.4170387387275696
vn -0.00109702174086123 -0.83350139856338496 -0.55251622200012208
vn -0.01026898995041847 -0.83322656154632576 -0.55283629894256592
vn -0.11214671283960342 -0.72797179222106928 -0.67637282609939576
vn -0.11045104265213012 -0.72744494676589968 -0.6772180795669556
vn 0.0640580803155899 -0.50765120983123776 -0.85917800664901728
vn 0.01960132084786892 -0.49863356351852416 -0.86659127473831184
vn -0.01532340608537197 -0.12519767880439758 -0.99201345443725584
vn 0.05954056233167648 -0.11006545275449752 -0.99213939905166624
vn -0.28670075535774232 -0.2622433304786682 0.92142879962921136
vn -0.31987866759300232 -0.2499849647283554 0.91388463973999024
vn -0.17673338949680328 -0.62952202558517456 0.75661569833755488
vn -0.14695288240909576 -0.63093239068984984 0.76179343461990352
vn -0.29051733016967772 0.82531714439392096 0.4842016696929932
vn -0.2532111406326294 0.82221800088882448 0.50974661111831664
vn 0.10836196690797806 0.87341958284378048 0.47475877404212952
vn 0.10863500088453292 0.87335991859436032 0.4748060405254364
vn -0.32398250699043272 0.93859708309173584 0.11861981451511384
vn -0.33215558528900148 0.93637132644653328 0.11349674314260482
vn 0.2002801150083542 0.93983167409896848 0.27677470445632936
vn 0.12978491187095642 0.94784951210021968 0.29109644889831544
vn 0.03187421336770057 0.99319654703140256 0.11200279742479324
vn 0.05054777860641479 0.9920169711112976 0.11553044617176056
vn -0.03302088379859924 0.56323963403701784 0.82563364505767824
vn 0.03893787786364555 0.54562473297119144 0.83712452650070192
vn 0.16683472692966462 0.73843508958816528 0.65336042642593384
vn 0.16126790642738342 0.73866039514541632 0.65450257062911984
vn -0.2395702600479126 0.57232618331909176 0.78425049781799312
vn -0.20111899077892304 0.54823255538940432 0.81178343296051024
vn -0.33665186166763304 0.86925458908081056 -0.3620247840881348
vn -0.2667003870010376 0.9103092551231384 -0.31655648350715636
vn 0.45859858393669128 0.88652670383453376 -0.06130139157176018
vn 0.37480828166007992 0.9256842732429504 -0.05125842243432999
vn -0.02496958710253238 0.90016031265258784 -0.4348424971103668
vn 0.1650615930557251 0.91931080818176272 -0.35724252462387084
vn 0.45740497112274168 0.88903558254241936 0.01991114951670169
vn 0.63297075033187864 0.76814860105514528 0.0964140146970749
vn 0.16133134067058564 0.98137593269348144 0.10427553206682206
vn 0.15340377390384674 0.98289006948471072 0.10195236653089524
vn -0.1697714626789093 0.9813833832740784 0.08980115503072739
vn -0.18329274654388428 0.97941833734512336 0.08451822400093079
vn 0.33047607541084288 0.94186449050903328 0.06063712388277054
vn 0.38132196664810184 0.92217779159545904 0.06466536223888397
vn 0.11541499942541122 0.99083274602890016 0.07021297514438629
vn 0.19532638788223268 0.97937875986099248 0.05162176862359047
vn -0.18974632024765016 0.7657646536827088 0.6144922971725464
vn -0.21637228131294252 0.75752210617065424 0.61590850353240968
vn -0.09655418992042542 0.96240973472595216 0.2538597881793976
vn -0.1076364740729332 0.96056962013244624 0.25635987520217896
vn 0.10983683168888092 0.85522931814193728 0.50647670030593872
vn -0.03974413499236107 0.84906065464019776 0.5267983675003052
vn 0.05424684658646584 0.99754178524017328 0.04435939714312553
vn 0.22613924741744996 0.95989483594894416 0.16571958363056182
vn -0.1305563747882843 0.98833256959915168 0.07844606041908264
vn -0.10134567320346832 0.99180126190185552 0.07784139364957809
vn -0.22078049182891844 0.97371560335159296 -0.05598096922039986
vn -0.25543284416198732 0.95379197597503664 -0.15822416543960572
vn -0.11761895567178726 0.99305784702301024 -0.00136493809986859
vn -0.14223170280456542 0.78911143541336064 0.59755605459213256
vn -0.07442797720432281 0.9908794164657592 0.11233170330524444
vn 0.1232912465929985 0.988907277584076 0.08283522725105286
vn -0.08153622597455978 0.99218994379043584 0.09439824521541596
vn -0.10405688732862472 0.99000149965286256 0.09523192048072814
vn 0.17101524770259858 0.98518633842468256 0.01271154917776584
vn 0.46944516897201536 0.80112975835800176 -0.37123090028762816
vn 0.15950743854045868 0.56003648042678832 0.81296777725219728
vn 0.16757525503635406 0.98073863983154304 0.10035087913274766
vn 0.36801832914352416 0.92750936746597296 0.0654887929558754
vn 0.13512204587459564 0.87164968252182 0.47113579511642456
vn 0.17971733212471008 0.86898237466812128 0.46105447411537168
vn -0.18505121767520904 -0.26628053188323976 0.945965588092804
vn 0.1031579002737999 -0.16269725561141968 -0.98126852512359616
vn 0.0072205476462841 -0.72542214393615728 -0.688266396522522
vn -0.01819721050560474 -0.72471690177917488 -0.68880635499954224
vn -0.07233879715204239 -0.9132912158966064 -0.40083205699920656
vn -0.02001293003559112 -0.91709023714065552 -0.39817717671394352
vn -0.12766315042972564 -0.98757094144821168 0.09168312698602676
vn -0.15335892140865326 -0.9843499064445496 0.08681219816207886
vn -0.13101524114608764 -0.848355770111084 0.51295948028564456
vn -0.13086502254009246 -0.84837424755096432 0.51296722888946536
vn -0.03240746632218361 -0.24827298521995544 -0.96814781427383424
vn 0.23428507149219512 -0.97191780805587776 0.02205109782516956
vn 0.1784832775592804 -0.85622519254684448 -0.48479086160659792
vn 0.2222934365272522 -0.84641891717910768 -0.48390153050422672
vn 0.01294967345893383 -0.70974171161651608 -0.70434296131134032
vn 0.06684885174036026 -0.72011077404022216 -0.69063138961791992
vn -0.08492355793714523 -0.72159498929977424 -0.68708711862564088
vn -0.03575950115919113 0.54742735624313352 -0.83608877658844
vn 0.23954135179519652 0.7340145707130432 0.63548612594604496
vn 0.1079666092991829 0.78595966100692752 0.60877794027328488
vn 0.08945497870445251 0.9952664971351624 0.03797835484147072
vn -0.02087762393057346 0.87346309423446656 0.48644256591796872
vn 0.01844707876443863 0.8854302763938904 0.46440598368644712
vn -0.18080919981002808 0.8568171858787536 0.48287928104400632
vn -0.20065434277057648 0.83787029981613152 0.5076526999473572
vn -0.115082286298275 0.8264623284339904 0.55110448598861696
vn -0.05134230852127075 0.87037926912307744 0.48969778418540952
vn -0.20309172570705412 0.76423823833465584 0.61212223768234256
vn -0.18552544713020324 0.78148877620697024 0.59569752216339112
vn -0.06692526489496231 0.84151101112365728 0.5360785126686096
vn 0.07017644494771957 0.64771747589111328 0.7586418390274048
vn 0.06431204825639725 0.6443268656730652 0.76204121112823488
vn -0.207200825214386 0.96878647804260256 0.13609075546264648
vn -0.1224295049905777 0.98870444297790528 0.08645519614219666
vn -0.16670280694961548 0.98177427053451536 0.09126563370227814
vn -0.175664022564888 0.9788527488708496 0.10483081638813018
vn -0.10238102078437806 0.9907360672950744 0.08921939134597778
vn -0.09353993088006974 0.9924275875091552 0.07961008697748184
vn -0.16187277436256408 0.98311382532119744 0.08534888923168182
vn -0.15097637474536896 0.98528230190277104 0.08015651255846024
vn -0.00485478853806853 0.99415975809097296 0.1078086569905281
vn 0.00210463372059166 0.99451506137847904 0.10457196086645126
vn -0.28134712576866148 0.8838570713996888 -0.37368509173393248
vn -0.26226249337196352 0.88492357730865472 -0.38487482070922848
vn -0.1179358959197998 0.94070774316787712 -0.31805679202079772
vn -0.120648592710495 0.94155049324035648 -0.31452608108520508
vn -0.1592363715171814 0.95598590373992912 -0.24644409120082856
vn -0.1201266273856163 0.9491508603096008 -0.29100215435028076
vn -0.25940835475921632 0.95236819982528688 -0.16031840443611146
vn -0.1293315589427948 0.97037047147750848 -0.20409423112869264
vn -0.22196187078952788 0.83358800411224368 -0.50582993030548096
vn -0.04969951882958412 0.883564293384552 -0.4656652212142944
vn -0.08585234731435776 0.556194007396698 -0.8266060948371888
vn -0.11338934302330018 0.6123831272125244 -0.78238713741302496
vn -0.05180979147553444 -0.1502033919095993 -0.98729664087295536
vn -0.00649414770305156 -0.22719423472881316 -0.97382777929306032
vn -0.06964734196662903 -0.10020335018634796 -0.9925264120101928
vn -0.06250286847352982 -0.11159734427928924 -0.99178594350814816
vn 0.06228683888912201 -0.11060560494661332 -0.99191063642501824
vn 0.02466859482228756 -0.08590103685855865 -0.99599820375442512
vn -0.15303392708301544 -0.19975966215133668 0.96782052516937248
vn -0.22327053546905516 -0.250763863325119 0.94194895029068
vn -0.09463831037282944 -0.14492195844650268 0.98490673303604128
vn -0.11163564771413804 -0.1715334802865982 0.97883284091949456
vn -0.02144809067249298 -0.18206344544887544 0.98305279016494752
vn 0.02568548731505871 -0.13342224061489106 0.990726351737976
vn -0.06491407006978989 -0.26596224308013916 0.96179533004760736
vn 0.00653613731265068 -0.22234584391117096 0.97494596242904656
vn 0.01815187744796276 -0.68172162771224976 -0.73138648271560672
vn 0.02990202978253364 -0.69265240430831912 -0.72065144777297968
vn -0.05003807693719864 -0.69651371240615848 -0.71579664945602416
vn -0.04983098432421684 -0.69671982526779176 -0.71561044454574584
vn 0.04439792782068252 -0.72116887569427488 -0.69133514165878296
vn 0.00650802394375205 -0.70027071237564088 -0.71384769678115848
vn -0.24298757314682008 -0.78086775541305536 0.57550197839736936
vn -0.28923460841178896 -0.79291355609893792 0.53631275892257688
vn 0.09763504564762116 -0.76687401533126832 0.6343276500701904
vn 0.0919063612818718 -0.77090644836425776 0.63028281927108768
vn 0.06512171030044556 -0.74828833341598512 0.66016954183578488
vn 0.05296386033296585 -0.754123330116272 0.65459364652633664
vn 0.04136032611131668 -0.8670324087142944 -0.49653214216232296
vn 0.03895958513021469 -0.865984320640564 -0.49855118989944456
vn -0.08729155361652374 -0.8984277248382568 -0.4303578734397888
vn -0.14795617759227752 -0.86511337757110592 -0.47925749421119688
vn -0.28909993171691896 -0.95705515146255488 0.02160162106156349
vn -0.26238250732421876 -0.9633382558822632 0.05598985403776169
vn -0.04145306721329689 -0.9970065355300904 0.06526476889848709
vn -0.05730198696255684 -0.99804067611694336 0.02512636594474315
vn -0.01074067503213882 -0.99977076053619392 -0.01852217130362987
vn 0.01770681515336036 -0.999839186668396 0.00283389375545084
vn 0.09914393723011016 -0.99311971664428704 0.06231888756155968
vn 0.07445583492517471 -0.99666219949722288 0.03347612172365188
vn -0.01075800321996212 -0.8980111479759216 -0.43984115123748776
vn 0.01177012268453836 -0.90289658308029168 -0.42969664931297304
vn -0.10365822166204452 -0.7665937542915344 0.633710503578186
vn -0.09105948358774186 -0.77872359752655024 0.62072342634201048
vn -0.03623807430267334 -0.85075783729553216 -0.52430689334869384
vn -0.02028955332934856 -0.86546802520751952 -0.50055301189422608
vn 0.0090633975341916 -0.70938795804977416 -0.70476007461547848
vn -0.00837994366884231 0.35305771231651308 0.93556398153305056
vn 0.01945949718356132 0.37594276666641232 0.92643851041793824
vn -0.09487833082675934 0.40015479922294616 0.91152304410934448
vn -0.06967461109161377 0.43331149220466616 0.89854693412780768
vn -0.06760671734809875 0.32318106293678284 -0.9439191818237304
vn -0.13387143611907958 0.3539268672466278 -0.92564266920089728
vn -0.06398045271635056 0.36345687508583072 -0.92941141128540032
vn -0.06886609643697739 0.37669193744659424 -0.92377519607543952
vn -0.06947740912437439 0.48976951837539672 -0.86907923221588128
vn 0.00258618709631264 0.40215313434600832 -0.91556876897811888
vn -0.14245270192623138 0.55263912677764896 0.82115608453750608
vn -0.19959785044193268 0.471354216337204 0.8590610027313232
vn -0.07611569762229919 0.5490626096725464 0.83230805397033696
vn -0.18462437391281128 0.50413745641708376 0.84365820884704592
vn -0.06045409291982651 0.3564874529838562 -0.9323422312736512
vn -0.16778016090393066 -0.9209586381912232 0.35168871283531188
vn -0.04679691791534424 -0.0177901741117239 -0.99874603748321536
vn -0.1109817698597908 0.1095326691865921 -0.98776799440383904
vn -0.07648928463459015 0.496740847826004 -0.86452180147171024
vn -0.0300101675093174 0.49794143438339232 -0.86669123172760016
vn 0.00373463239520788 -0.00691745523363351 -0.9999690651893616
vn -0.05233834311366081 -0.04276951402425766 -0.99771314859390256
vn -0.05986141040921211 0.72585749626159664 0.68523532152175904
vn -0.04123952239751816 0.7318504452705384 0.68021637201309208
vn 0.08026381582021713 0.70541602373123168 0.70423424243927
vn 0.08113202452659607 0.70628696680068968 0.70326119661331176
vn -0.08822657912969589 0.94179326295852656 -0.32440948486328124
vn -0.11769494414329528 0.77089631557464592 -0.62599259614944456
vn -0.1481347233057022 0.17371541261672974 0.97359085083007808
vn -0.2221844494342804 0.24222278594970704 0.94443744421005248
vn 0.01641401089727878 0.93235820531845088 -0.36116290092468264
vn 0.59644204378128048 0.78089475631713872 0.18563497066497804
vn 0.32882031798362732 0.68777072429656984 -0.64718520641326904
vn -0.26028797030448912 0.53158384561538696 0.80602037906646736
vn -0.08092963695526123 0.60879528522491456 0.7891886234283448
vn 0.0205834973603487 -0.49016970396041872 -0.87138390541076656
vn -0.08391623944044113 -0.5469292402267456 -0.83296251296997072
# 506 vertex normals

g obj_2365231
s 1
f 1//1 2//1 3//1
f 1//2 3//2 4//2
f 5//3 6//3 7//3
f 5//4 7//4 8//4
f 9//5 10//5 11//5
f 9//6 11//6 12//6
f 13//7 14//7 15//7
f 13//8 15//8 16//8
f 17//9 18//9 19//9
f 17//10 19//10 20//10
f 21//11 22//11 23//11
f 21//12 23//12 24//12
f 25//13 26//13 27//13
f 25//14 27//14 28//14
f 29//15 30//15 31//15
f 29//16 31//16 32//16
f 33//17 34//17 35//17
f 33//18 35//18 36//18
f 37//19 38//19 39//19
f 37//20 39//20 40//20
f 41//21 42//21 43//21
f 41//22 43//22 44//22
f 45//23 46//23 47//23
f 45//24 47//24 48//24
f 49//25 50//25 51//25
f 52//26 53//26 54//26
f 52//27 54//27 55//27
f 56//28 57//28 58//28
f 56//29 58//29 59//29
f 60//30 61//30 62//30
f 60//31 62//31 63//31
f 64//32 65//32 66//32
f 64//33 66//33 67//33
f 68//34 69//34 70//34
f 68//35 70//35 71//35
f 72//36 73//36 74//36
f 72//37 74//37 75//37
f 76//38 77//38 78//38
f 76//39 78//39 79//39
f 80//40 81//40 82//40
f 80//41 82//41 83//41
f 84//42 85//42 86//42
f 87//43 88//43 89//43
f 87//44 89//44 90//44
f 91//45 92//45 93//45
f 91//46 93//46 94//46
f 95//47 96//47 97//47
f 95//48 97//48 98//48
f 99//49 100//49 101//49
f 102//50 103//50 104//50
f 102//51 104//51 105//51
f 106//52 107//52 108//52
f 106//53 108//53 109//53
f 110//54 111//54 112//54
f 110//55 112//55 113//55
f 114//56 115//56 116//56
f 114//57 116//57 117//57
f 118//58 119//58 120//58
f 118//59 120//59 121//59
f 122//60 123//60 124//60
f 122//61 124//61 125//61
f 126//62 127//62 128//62
f 129//63 130//63 131//63
f 132//64 133//64 134//64
f 132//65 134//65 135//65
f 136//66 137//66 138//66
f 136//67 138//67 139//67
f 140//68 141//68 142//68
f 140//69 142//69 143//69
f 144//70 145//70 146//70
f 144//71 146//71 147//71
f 148//72 149//72 150//72
f 148//73 150//73 151//73
f 152//74 153//74 154//74
f 152//75 154//75 155//75
f 156//76 157//76 158//76
f 156//77 158//77 159//77
f 160//78 161//78 162//78
f 160//79 162//79 163//79
f 164//80 165//80 166//80
f 167//81 168//81 169//81
f 167//82 169//82 170//82
f 171//83 172//83 173//83
f 171//84 173//84 174//84
f 175//85 176//85 177//85
f 175//86 177//86 178//86
f 179//87 180//87 181//87
f 179//88 181//88 182//88
f 183//89 184//89 185//89
f 183//90 185//90 186//90
f 187//91 3//91 2//91
f 187//92 2//92 188//92
f 189//93 190//93 191//93
f 189//94 191//94 192//94
f 193//95 194//95 195//95
f 193//96 195//96 196//96
f 197//97 198//97 199//97
f 197//98 199//98 200//98
f 201//99 202//99 203//99
f 201//100 203//100 204//100
f 205//101 206//101 207//101
f 205//102 207//102 208//102
f 209//103 210//103 211//103
f 209//104 211//104 212//104
f 213//105 214//105 215//105
f 213//106 215//106 216//106
f 51//107 50//107 97//107
f 51//108 97//108 96//108
f 126//109 217//109 64//109
f 126//110 64//110 218//110
f 96//111 95//111 57//111
f 96//112 57//112 56//112
f 50//113 49//113 175//113
f 50//114 175//114 178//114
f 38//115 37//115 91//115
f 38//116 91//116 94//116
f 30//117 29//117 84//117
f 30//118 84//118 86//118
f 219//119 220//119 107//119
f 219//120 107//120 106//120
f 221//121 222//121 119//121
f 221//122 119//122 118//122
f 18//123 17//123 14//123
f 18//124 14//124 13//124
f 15//125 14//125 9//125
f 15//126 9//126 12//126
f 10//127 9//127 6//127
f 10//128 6//128 5//128
f 17//129 20//129 7//129
f 17//130 7//130 6//130
f 5//131 8//131 21//131
f 5//132 21//132 24//132
f 136//133 139//133 8//133
f 136//134 8//134 7//134
f 25//135 28//135 11//135
f 25//136 11//136 10//136
f 12//137 11//137 122//137
f 12//138 122//138 125//138
f 223//139 224//139 114//139
f 223//140 114//140 225//140
f 13//141 16//141 41//141
f 13//142 41//142 44//142
f 33//143 36//143 115//143
f 33//144 115//144 114//144
f 116//145 115//145 16//145
f 116//146 16//146 15//146
f 45//147 48//147 19//147
f 45//148 19//148 18//148
f 20//149 19//149 133//149
f 20//150 133//150 132//150
f 140//151 143//151 22//151
f 140//152 22//152 21//152
f 52//153 55//153 23//153
f 52//154 23//154 22//154
f 24//155 23//155 26//155
f 24//156 26//156 25//156
f 60//157 63//157 27//157
f 60//158 27//158 26//158
f 28//159 27//159 110//159
f 28//160 110//160 113//160
f 29//161 32//161 226//161
f 29//162 226//162 227//162
f 228//163 229//163 34//163
f 228//164 34//164 33//164
f 37//165 40//165 31//165
f 37//166 31//166 30//166
f 32//167 31//167 35//167
f 32//168 35//168 34//168
f 36//169 35//169 42//169
f 36//170 42//170 41//170
f 230//171 231//171 39//171
f 230//172 39//172 38//172
f 40//173 39//173 43//173
f 40//174 43//174 42//174
f 44//175 43//175 46//175
f 44//176 46//176 45//176
f 232//177 233//177 165//177
f 232//178 165//178 164//178
f 231//179 165//179 47//179
f 231//180 47//180 46//180
f 48//181 47//181 153//181
f 48//182 153//182 152//182
f 49//183 234//183 144//183
f 49//184 144//184 147//184
f 148//185 151//185 53//185
f 148//186 53//186 52//186
f 56//187 59//187 235//187
f 56//188 235//188 51//188
f 234//189 235//189 54//189
f 234//190 54//190 53//190
f 55//191 54//191 61//191
f 55//192 61//192 60//192
f 217//193 236//193 58//193
f 217//194 58//194 57//194
f 59//195 58//195 62//195
f 59//196 62//196 61//196
f 63//197 62//197 237//197
f 63//198 237//198 238//198
f 95//199 239//199 65//199
f 95//200 65//200 64//200
f 69//201 68//201 66//201
f 69//202 66//202 65//202
f 99//203 240//203 70//203
f 99//204 70//204 69//204
f 71//205 70//205 241//205
f 71//206 241//206 242//206
f 240//207 243//207 207//207
f 240//208 207//208 206//208
f 243//209 101//209 73//209
f 243//210 73//210 72//210
f 178//211 177//211 102//211
f 178//212 102//212 105//212
f 103//213 102//213 77//213
f 103//214 77//214 76//214
f 244//215 245//215 246//215
f 244//216 246//216 175//216
f 210//217 209//217 190//217
f 210//218 190//218 189//218
f 72//219 75//219 213//219
f 72//220 213//220 216//220
f 76//221 79//221 74//221
f 76//222 74//222 73//222
f 75//223 74//223 81//223
f 75//224 81//224 80//224
f 180//225 179//225 78//225
f 180//226 78//226 77//226
f 79//227 78//227 88//227
f 79//228 88//228 87//228
f 247//229 248//229 183//229
f 247//230 183//230 186//230
f 249//231 250//231 251//231
f 249//232 251//232 84//232
f 201//233 204//233 187//233
f 201//234 187//234 188//234
f 80//235 83//235 198//235
f 80//236 198//236 197//236
f 252//237 253//237 254//237
f 252//238 254//238 251//238
f 87//239 90//239 82//239
f 87//240 82//240 81//240
f 83//241 82//241 85//241
f 83//242 85//242 254//242
f 86//243 85//243 92//243
f 86//244 92//244 91//244
f 157//245 156//245 89//245
f 157//246 89//246 88//246
f 90//247 89//247 93//247
f 90//248 93//248 92//248
f 94//249 93//249 171//249
f 94//250 171//250 174//250
f 255//251 256//251 160//251
f 255//252 160//252 163//252
f 168//253 167//253 257//253
f 168//254 257//254 258//254
f 147//255 146//255 259//255
f 147//256 259//256 244//256
f 205//257 210//257 189//257
f 206//258 205//258 260//258
f 206//259 260//259 241//259
f 261//260 262//260 194//260
f 261//261 194//261 193//261
f 195//262 194//262 3//262
f 195//263 3//263 187//263
f 239//264 98//264 100//264
f 239//265 100//265 99//265
f 101//266 100//266 104//266
f 101//267 104//267 103//267
f 105//268 104//268 98//268
f 105//269 98//269 97//269
f 106//270 109//270 263//270
f 106//271 263//271 264//271
f 265//272 263//272 129//272
f 265//273 129//273 131//273
f 238//274 129//274 111//274
f 238//275 111//275 110//275
f 118//276 121//276 108//276
f 118//277 108//277 107//277
f 109//278 108//278 112//278
f 109//279 112//279 111//279
f 113//280 112//280 123//280
f 113//281 123//281 122//281
f 225//282 117//282 120//282
f 225//283 120//283 119//283
f 121//284 120//284 124//284
f 121//285 124//285 123//285
f 125//286 124//286 117//286
f 125//287 117//287 116//287
f 236//288 128//288 130//288
f 236//289 130//289 237//289
f 131//290 130//290 266//290
f 131//291 266//291 267//291
f 152//292 155//292 134//292
f 152//293 134//293 133//293
f 132//294 135//294 137//294
f 132//295 137//295 136//295
f 268//296 269//296 135//296
f 268//297 135//297 134//297
f 270//298 271//298 138//298
f 270//299 138//299 137//299
f 139//300 138//300 141//300
f 139//301 141//301 140//301
f 272//302 273//302 142//302
f 272//303 142//303 141//303
f 143//304 142//304 149//304
f 143//305 149//305 148//305
f 274//306 275//306 150//306
f 274//307 150//307 149//307
f 151//308 150//308 145//308
f 151//309 145//309 144//309
f 233//310 276//310 154//310
f 233//311 154//311 153//311
f 155//312 154//312 277//312
f 155//313 277//313 278//313
f 156//314 159//314 172//314
f 156//315 172//315 171//315
f 167//316 170//316 161//316
f 167//317 161//317 160//317
f 179//318 182//318 158//318
f 179//319 158//319 157//319
f 159//320 158//320 162//320
f 159//321 162//321 161//321
f 163//322 162//322 184//322
f 163//323 184//323 183//323
f 164//324 166//324 169//324
f 164//325 169//325 168//325
f 170//326 169//326 173//326
f 170//327 173//327 172//327
f 174//328 173//328 166//328
f 174//329 166//329 230//329
f 177//330 176//330 181//330
f 177//331 181//331 180//331
f 182//332 181//332 185//332
f 182//333 185//333 184//333
f 186//334 185//334 176//334
f 186//335 176//335 246//335
f 189//336 192//336 279//336
f 189//337 279//337 260//337
f 209//338 212//338 202//338
f 209//339 202//339 201//339
f 197//340 200//340 214//340
f 197//341 214//341 213//341
f 188//342 2//342 191//342
f 188//343 191//343 190//343
f 192//344 191//344 280//344
f 192//345 280//345 281//345
f 253//346 196//346 199//346
f 253//347 199//347 198//347
f 200//348 199//348 203//348
f 200//349 203//349 202//349
f 204//350 203//350 196//350
f 204//351 196//351 195//351
f 205//352 208//352 211//352
f 205//353 211//353 210//353
f 212//354 211//354 215//354
f 212//355 215//355 214//355
f 216//356 215//356 208//356
f 216//357 208//357 207//357
f 215//358 211//358 208//358
f 203//359 199//359 196//359
f 191//360 2//360 1//360
f 191//361 1//361 280//361
f 214//362 200//362 202//362
f 214//363 202//363 212//363
f 279//364 192//364 281//364
f 185//365 181//365 176//365
f 173//366 169//366 166//366
f 184//367 162//367 158//367
f 184//368 158//368 182//368
f 161//369 170//369 172//369
f 161//370 172//370 159//370
f 277//371 154//371 276//371
f 150//372 275//372 145//372
f 149//373 142//373 273//373
f 149//374 273//374 274//374
f 141//375 138//375 271//375
f 141//376 271//376 272//376
f 269//377 270//377 137//377
f 269//378 137//378 135//378
f 134//379 155//379 278//379
f 134//380 278//380 268//380
f 266//381 130//381 128//381
f 124//382 120//382 117//382
f 123//383 112//383 108//383
f 123//384 108//384 121//384
f 111//385 129//385 263//385
f 111//386 263//386 109//386
f 131//387 267//387 265//387
f 104//388 100//388 98//388
f 4//389 3//389 194//389
f 4//390 194//390 262//390
f 205//391 189//391 260//391
f 167//392 160//392 256//392
f 167//393 256//393 257//393
f 93//394 89//394 156//394
f 93//395 156//395 171//395
f 85//396 82//396 90//396
f 85//397 90//397 92//397
f 253//398 198//398 83//398
f 253//399 83//399 254//399
f 195//400 187//400 204//400
f 252//401 251//401 250//401
f 252//402 250//402 282//402
f 163//403 183//403 248//403
f 163//404 248//404 255//404
f 88//405 78//405 179//405
f 88//406 179//406 157//406
f 81//407 74//407 79//407
f 81//408 79//408 87//408
f 197//409 213//409 75//409
f 197//410 75//410 80//410
f 188//411 190//411 209//411
f 188//412 209//412 201//412
f 186//413 246//413 245//413
f 186//414 245//414 247//414
f 77//415 102//415 177//415
f 77//416 177//416 180//416
f 73//417 101//417 103//417
f 73//418 103//418 76//418
f 216//419 207//419 243//419
f 216//420 243//420 72//420
f 206//421 241//421 70//421
f 206//422 70//422 240//422
f 69//423 65//423 239//423
f 69//424 239//424 99//424
f 62//425 58//425 236//425
f 62//426 236//426 237//426
f 54//427 235//427 59//427
f 54//428 59//428 61//428
f 151//429 144//429 234//429
f 151//430 234//430 53//430
f 47//431 165//431 233//431
f 47//432 233//432 153//432
f 43//433 39//433 231//433
f 43//434 231//434 46//434
f 35//435 31//435 40//435
f 35//436 40//436 42//436
f 229//437 226//437 32//437
f 229//438 32//438 34//438
f 27//439 63//439 238//439
f 27//440 238//440 110//440
f 23//441 55//441 60//441
f 23//442 60//442 26//442
f 143//443 148//443 52//443
f 143//444 52//444 22//444
f 19//445 48//445 152//445
f 19//446 152//446 133//446
f 115//447 36//447 41//447
f 115//448 41//448 16//448
f 224//449 228//449 33//449
f 224//450 33//450 114//450
f 11//451 28//451 113//451
f 11//452 113//452 122//452
f 139//453 140//453 21//453
f 139//454 21//454 8//454
f 7//455 20//455 132//455
f 7//456 132//456 136//456
f 9//457 14//457 17//457
f 9//458 17//458 6//458
f 225//459 119//459 222//459
f 225//460 222//460 223//460
f 15//461 12//461 125//461
f 15//462 125//462 116//462
f 118//463 107//463 220//463
f 118//464 220//464 221//464
f 44//465 45//465 18//465
f 44//466 18//466 13//466
f 5//467 24//467 25//467
f 5//468 25//468 10//468
f 264//469 219//469 106//469
f 227//470 249//470 84//470
f 227//471 84//471 29//471
f 30//472 86//472 91//472
f 30//473 91//473 37//473
f 147//474 244//474 175//474
f 147//475 175//475 49//475
f 57//476 95//476 64//476
f 57//477 64//477 217//477
f 105//478 97//478 50//478
f 105//479 50//479 178//479
f 174//480 230//480 38//480
f 174//481 38//481 94//481
f 164//482 168//482 258//482
f 164//483 258//483 232//483
f 96//484 56//484 51//484
f 117//485 225//485 114//485
f 51//486 235//486 234//486
f 51//487 234//487 49//487
f 98//488 239//488 95//488
f 67//489 218//489 64//489
f 128//490 236//490 217//490
f 128//491 217//491 126//491
f 196//492 253//492 252//492
f 196//493 252//493 193//493
f 193//494 252//494 282//494
f 193//495 282//495 261//495
f 101//496 243//496 240//496
f 101//497 240//497 99//497
f 165//498 231//498 230//498
f 165//499 230//499 166//499
f 242//500 241//500 260//500
f 242//501 260//501 279//501
f 175//502 246//502 176//502
f 84//503 251//503 254//503
f 84//504 254//504 85//504
f 129//505 238//505 237//505
f 129//506 237//506 130//506
#506 polygons

