# Aspose.3D Wavefront OBJ Exporter
# Copyright 2004-2022 Aspose Pty Ltd.
# File created: 06/23/2022 13:44:47


#
# object obj_32547047
#

v 23.9471435546875 11.62019348144531248 -0.6795654296875
v 24.0729217529296875 11.64932250976562496 -0.67676544189453128
v 24.119415283203125 11.47929382324218752 -4.105712890625
v 23.99224090576171872 11.45494079589843752 -4.11159515380859376
v 24.5592041015625 10.56303405761718752 -7.37554931640625
v 24.43006896972656248 10.53892517089843752 -7.37863159179687504
v 24.29729461669921876 11.0316619873046875 2.93873596191406256
v 24.42306518554687504 11.0616302490234375 2.94182205200195312
v 25.29172515869140624 9.5562744140625 -9.406982421875
v 25.00011444091796875 10.43528747558593752 5.49791336059570312
v -0.70058441162109376 7.24388122558593752 5.33460235595703124
v -0.88211059570312496 5.65757751464843752 7.65035247802734376
v -0.47845458984375 7.24836730957031248 5.33992385864257812
v -0.21122741699218752 8.26072692871093752 2.6701011657714844
v -0.42494964599609376 8.24139404296875 2.66982650756835936
v 2.83984375 -8.51255798339843752 1.19807434082031248
v 2.48520660400390624 -8.66104125976562496 -2.31687164306640624
v 6.41529083251953128 -9.19297790527343752 -2.28605651855468752
v 6.71445465087890624 -9.0120086669921875 1.29891586303710936
v 11.26696014404296876 -8.99298095703124992 1.41012573242187504
v 11.10085296630859376 -9.151519775390625 -2.21462249755859376
v 15.13822174072265624 -8.72825622558593744 -2.13227081298828124
v 15.14073944091796876 -8.64955139160156248 1.40676498413085936
v 3.62837982177734376 -7.79014587402343744 4.52561950683593752
v 7.39710998535156248 -8.02264404296875 4.74606704711914064
v 7.78424072265624992 -5.79736328125 7.41701507568359376
v 4.1306304931640625 -5.75674438476562496 7.1326904296875
v 11.55129241943359376 -7.93888854980468752 4.9020957946777344
v 15.26343536376953124 -7.846435546875 4.8640022277832032
v 15.31581115722656248 -6.1074676513671875 7.5817222595214844
v 11.58097839355468752 -6.0360260009765625 7.60777664184570312
v 12.1521453857421875 -1.46699523925781248 10.51457977294921872
v 11.47845458984375 -3.1292266845703125 9.51511001586914064
v 15.30853271484375 -3.42868041992187504 9.56637191772460936
v 15.37127685546875 -1.59275817871093752 10.63502883911132816
v 4.36173248291015624 -0.61599731445312496 -11.29779052734375
v 8.21141815185546876 -0.53727722167968752 -11.44092559814453128
v 7.71672058105468752 -3.68470764160156248 -10.64370727539062496
v 4.01605987548828125 -3.66285705566406248 -10.55855560302734376
v 2.65104675292968752 -8.234130859375 -6.02425384521484375
v 3.20400238037109376 -6.62876892089843752 -8.77922821044921872
v 7.12819671630859376 -6.63967895507812496 -8.80472564697265632
v 6.53406524658203128 -8.57728576660156248 -6.021728515625
v 12.50369262695312496 -0.293304443359375 -11.51936340332031248
v 16.42789459228515624 -0.43307495117187504 -11.55829620361328128
v 15.84999847412109376 -3.57350158691406248 -10.60252380371093752
v 11.84261322021484368 -3.59562683105468752 -10.68712615966796872
v 11.07367706298828125 -8.40359497070312496 -5.96486663818359376
v 11.31962585449218752 -6.54696655273437504 -8.79071044921875008
v 15.4886474609375 -6.36404418945312496 -8.58287048339843752
v 15.25447082519531248 -8.0803375244140625 -5.75897979736328128
v 26.69792175292968752 7.42428588867187504 -11.01963043212890625
v 25.60349273681640624 6.998779296875 -11.11290740966796876
v 24.37769317626953128 7.77247619628906256 -10.67900085449218752
v 25.093109130859375 8.4385986328125 -10.40616607666015624
v 8.78286743164062496 2.99923706054687504 -11.20899200439453124
v 4.70095825195312496 2.72862243652343744 -11.03923797607421875
v 4.80207824707031248 5.12506103515625 -10.35210418701171876
v 9.00107574462890625 5.62283325195312496 -10.52073669433593752
v 22.8218994140625 8.89183044433593744 -9.86833953857421872
v 20.74229431152343744 8.74896240234375008 -9.7386398315429688
v 20.190460205078125 10.1767425537109375 -7.54389953613281248
v 17.263763427734375 8.54533386230468752 -9.61650848388671872
v 13.25048828125 8.075286865234375 -9.50081634521484376
v 12.92723083496093744 9.625732421875 -7.37583160400390624
v 16.74526214599609376 9.9002685546875 -7.48143768310546872
v 8.85540771484375008 7.32008361816406248 -9.38624572753906248
v 4.66146087646484376 6.56768798828125 -9.23750305175781248
v 4.45865631103515624 8.00189208984375 -7.08927154541015625
v 8.59770202636718752 8.7940673828125 -7.22456359863281248
v 25.68556976318359376 12.1577606201171875 -4.1188812255859375
v 25.64327239990234376 12.39837646484375 -0.58964538574218752
v 22.15325927734375 11.41795349121093752 -4.28302764892578124
v 19.6285400390625 11.0605316162109375 -4.33541107177734376
v 19.41732788085937504 11.18852233886718752 -0.84147644042968752
v 22.0131988525390625 11.52272033691406248 -0.7518386840820312
v 16.24748992919921876 10.82661437988281248 -4.34129333496093752
v 12.50957489013671872 10.65293884277343752 -4.24521636962890624
v 12.18855285644531248 10.969482421875 -0.89442443847656256
v 16.000152587890625 11.0439910888671875 -0.93672180175781248
v 8.22962951660156248 10.0501251220703125 -4.03232574462890625
v 4.32419586181640624 9.36831665039062496 -3.90093994140624992
v 4.1071014404296875 9.82350158691406256 -0.63054656982421872
v 7.81253051757812496 10.52632141113281248 -0.70701599121093752
v 4.12755584716796876 -2.38578796386718752 9.04030227661132812
v 8.0749969482421875 -1.0633392333984375 10.31653213500976564
v 7.48197937011718752 0.67283630371093752 10.05321884155273438
v 3.79813385009765632 0.57620239257812496 9.81035232543945312
v 12.28940582275390624 -0.63839721679687504 10.54286956787109376
v 15.50349426269531248 -0.59890747070312496 10.7907752990722656
v 15.78053283691406256 1.50283813476562496 10.64063262939453128
v 11.7697830200195312 1.1770477294921875 10.28739547729492188
v 19.18174743652343752 -0.50311279296875 11.15184783935546876
v 22.47231292724609376 -0.74876403808593744 11.29162979125976564
v 22.984375 1.48211669921875 11.40731430053710936
v 19.55794525146484376 1.68603515625 11.07845687866210938
v 25.96904754638671872 11.845703125 3.0653533935546875
v 26.10826873779296876 11.35240173339843752 5.30406951904296876
v 26.22171783447265624 8.75485229492187504 9.11929702758789062
v 24.54519653320312496 9.32012939453125 7.80245590209960944
v 23.80567932128906256 8.3302001953125 8.71480560302734376
v 25.42225646972656248 7.58311462402343752 9.89971160888671872
v 19.55963134765625 10.55770874023437504 2.93621826171875008
v 19.84955596923828128 9.19715881347656248 6.18392562866210936
v 22.10507965087890624 9.230224609375 6.56684494018554688
v 23.78719329833984368 4.37210083007812496 11.01403045654296875
v 20.23724365234375 7.1427764892578125 8.9041709899902344
v 20.168609619140625 4.7415771484375 10.53670501708984376
v 16.00322723388671875 10.55601501464843752 2.7381706237792968
v 12.000885009765625 10.6187744140625 2.67486572265625
v 11.98631286621093744 9.36746215820312496 5.75786209106445312
v 16.161773681640625 9.36636352539062496 5.92537307739257808
v 16.20379638671875 4.72084045410156256 10.18403625488281248
v 16.40407562255859376 7.45314025878906248 8.61396408081054688
v 12.0966796875 7.1228790283203125 8.34785079956054688
v 12.02497100830078125 4.39254760742187504 9.85517120361328128
v 7.35508728027343752 10.22184753417968752 2.75469970703124992
v 3.63649749755859376 9.44842529296875 2.73929214477539056
v 3.41717529296875 8.1671600341796875 5.61500167846679688
v 7.26601409912109376 8.86830139160156256 5.6956787109375
v 7.60636138916015624 3.73146057128906256 9.58681869506835936
v 7.54332733154296872 6.46766662597656248 8.12151336669921876
v 3.41632843017578128 5.98165893554687504 8.02907180786132812
v 3.57151794433593752 3.45106506347656248 9.42238998413085936
v 17.22707366943359376 3.05889892578125 -11.44989013671875
v 13.30147552490234376 3.35191345214843752 -11.293304443359375
v 13.54853820800781248 6.1424713134765625 -10.62073516845703128
v 18.3170166015625 5.13262939453125 -11.40003204345703128
v 23.57178497314453128 1.21037292480468752 -11.86222839355468752
v 20.55489349365234376 2.1081695556640625 -11.67146301269531248
v 21.54595947265625 3.98274230957031248 -11.72469329833984368
v 24.202056884765625 3.53762817382812496 -11.92889404296875008
v 23.33396148681640624 6.83491516113281248 -11.064727783203125
v 21.92916107177734368 5.45867919921875 -11.58014678955078128
v 21.23950958251953124 6.81671142578124992 -10.91458129882812496
v 25.78725433349609376 10.162445068359375 7.09011077880859376
v 26.94330596923828128 9.69046020507812496 8.17641448974609376
v 27.39990234375 10.50447082519531248 7.20103836059570312
v 26.7993240356445312 10.79383850097656256 6.55284118652343752
v 26.06764984130859375 11.1226959228515625 -7.52261352539062496
v 26.31247711181640624 10.25517272949218752 -9.48373413085937504
v 27.525390625 8.0195465087890625 -10.91766357421875008
v 26.34525299072265624 8.79911804199218752 -10.39048004150390624
v 27.35340118408203124 9.18568420410156248 -10.26218414306640624
v 27.99851989746093744 8.75093078613281248 -10.58403778076171872
v 26.23320007324218752 -7.45091247558593752 1.28855514526367188
v 26.43880462646484376 -7.64306640625 -1.76251220703124992
v 28.23577880859375 -7.38902282714843752 -1.68968200683593752
v 28.0674285888671875 -7.120941162109375 1.30620193481445312
v 25.81694793701171872 -6.344146728515625 6.77890014648437504
v 26.171295166015625 -7.33326721191406248 4.23821640014648436
v 27.8940353393554688 -7.190948486328125 4.17490386962890624
v 27.61334991455078128 -6.43968200683593752 6.65816497802734376
v 18.58957672119140624 -7.93637084960937504 1.30984115600585936
v 18.7626876831054688 -7.931884765625 -2.02806854248046875
v 21.01793670654296875 -7.71788024902343752 -1.97007751464843744
v 20.70307922363281248 -7.72935485839843744 1.26361846923828124
v 22.87203979492187504 -7.7010498046875 1.26390075683593752
v 21.06415557861328125 -7.70693969726562496 1.26361846923828124
v 21.40057373046875 -7.70973205566406248 -1.96531677246093744
v 23.1700897216796875 -7.78033447265624992 -1.89332580566406256
v -0.50590515136718752 -7.59600830078125 -2.35327911376953124
v -0.25212097167968752 -7.51029968261718752 1.0571746826171875
v -1.87484741210937504 -6.38478088378906248 0.92803573608398432
v -2.12555694580078124 -6.44752502441406248 -2.40286254882812496
v -0.51151275634765624 -7.39152526855468752 -6.02901458740234375
v -2.25637054443359376 -6.35984802246093752 -6.0096893310546875
v -2.1555328369140625 -5.236572265625 -8.57082366943359376
v -0.21205902099609376 -6.080291748046875 -8.76886749267578128
v 0.35713958740234376 -7.1128082275390625 4.21636199951171876
v 0.82717895507812496 -5.31806945800781248 6.76153182983398432
v -0.97650909423828128 -4.52365112304687504 6.26067733764648436
v -1.38772583007812496 -6.1556243896484375 3.8900260925292968
v 22.391357421875 -3.87126159667968752 9.24983215332031248
v 22.342620849609375 -2.18858337402343752 10.67368316650390624
v 19.044769287109375 -1.82807922363281248 10.75211715698242192
v 20.97199249267578128 -4.07379150390625 9.0540313720703125
v 23.1076202392578125 -7.339141845703125 4.37883758544921872
v 22.7353439331054688 -5.92173767089843744 7.03520584106445312
v 21.36472320556640624 -6.1329498291015625 6.8010292053222656
v 21.44763946533203128 -7.24250793457031248 4.45755004882812496
v 18.92431640625 -7.35316467285156248 4.61497497558593752
v 21.0834808349609375 -7.24137878417968752 4.47855377197265624
v 21.0551910400390625 -6.1645965576171875 6.82876205444335936
v 19.0646514892578125 -5.91781616210937504 7.33885955810546876
v 26.0326385498046875 0.91737365722656256 11.60424041748046872
v 25.3575439453125 -1.34010314941406248 11.20479202270507812
v 26.86879730224609376 -1.85160827636718752 11.00086212158203125
v 25.276031494140625 -4.31524658203125 8.91061019897460944
v 27.23827362060546876 -4.79090881347656256 8.74702072143554688
v 26.92033386230468752 -3.31437683105468752 10.0963592529296875
v 25.25025939941406248 -2.67179870605468752 10.38740158081054688
v 19.678955078125 -3.65585327148437504 -10.41989135742187504
v 19.94675445556640624 -0.98014831542968752 -11.57649993896484376
v 21.75408935546875008 -4.033447265625 -9.9383621215820312
v 19.45374298095703128 -7.339141845703125 -5.40770721435546872
v 19.7559890747070312 -5.91500854492187504 -8.203582763671875
v 22.09891510009765624 -6.073272705078125 -7.63101959228515624
v 22.0134735107421875 -7.21197509765625 -5.22843170166015624
v 23.98776245117187504 -7.58509826660156248 -5.10713958740234376
v 22.42497253417968752 -7.264923095703125 -5.20966339111328124
v 22.51236724853515624 -6.1660003662109375 -7.61252593994140624
v 23.71604919433593752 -6.320343017578125 -7.88424682617187504
v 26.80772399902343744 -7.92655944824218752 -4.90798187255859376
v 26.48362731933593752 -7.241943359375 -7.65006256103515624
v 28.20328521728515624 -7.78482055664062496 -7.14276885986328124
v 28.42765808105468752 -7.97305297851562496 -4.8023757934570312
v 0.37254333496093752 -3.59001159667968752 -10.49861145019531248
v -1.78297424316406256 -3.02276611328125 -10.1568603515625
v -1.25270843505859376 -1.00396728515625 -10.9885330200195312
v 0.92410278320312496 -0.54539489746093752 -11.23307800292968752
v 1.1490478515625 -2.076812744140625 8.70248413085937504
v 0.76274871826171872 0.9019775390625 9.5618896484375
v -0.37565612792968752 1.040069580078125 9.11929702758789062
v -0.64961242675781248 -1.35633850097656248 8.1666107177734375
v 1.30647277832031248 9.35066223144531248 -0.65660095214843752
v 1.42747497558593752 8.7503662109375 -3.88665771484375008
v -0.07984161376953125 8.1800537109375 -3.71494293212890624
v -0.05463409423828125 8.60946655273437504 -0.49412536621093752
v 1.14483642578125 7.1102752685546875 -6.99066925048828128
v 1.00814056396484375 5.73123168945312496 -9.08988189697265625
v -0.63224792480468752 5.38444519042968752 -8.71340179443359376
v -0.48769378662109376 6.47552490234375 -6.72427368164062496
v 28.66464233398437504 9.91593933105468752 -9.80754852294921872
v 28.0298919677734375 10.27337646484375 -9.50081634521484376
v 27.79094696044921872 11.21177673339843752 -7.53073883056640624
v 28.7237472534179688 11.0426025390625 -6.74948120117187504
v 27.36488342285156248 12.67623901367187504 -0.55827331542968752
v 28.36295318603515624 12.41769409179687504 -1.15352630615234376
v 28.41393280029296872 12.212646484375 -3.39225006103515624
v 27.43379974365234376 12.37258911132812496 -4.09815216064453124
v 27.79459381103515632 7.29627990722656248 10.6297035217285156
v 28.0926361083984375 8.51983642578125 9.83640670776367184
v 7.50467681884765624 -2.76170349121093744 9.32294845581054688
v 19.0063934326171875 -3.63427734375 9.48261260986328128
v 24.62447357177734376 4.95559692382812496 -11.7392578125
v 24.58413696289062496 6.0340423583984375 -11.50031280517578128
v 27.69010162353515624 5.88053894042968752 -11.61712646484375
v 27.69122314453125 4.54325866699218752 -11.9017257690429688
v 28.44502258300781248 6.60380554199218752 -11.43589019775390624
v 23.67794799804687504 9.54115295410156248 -9.60250854492187504
v 17.70215606689453128 6.64694213867187504 -10.75043487548828128
v 1.0047760009765625 2.53703308105468752 -10.8649978637695312
v 1.0187835693359375 4.61833190917968752 -10.172821044921875
v 22.69864654541015624 10.53221130371093752 -7.56939697265625
v 22.27203369140625 10.84902954101562496 3.03117752075195312
v 24.48721313476562496 6.23350524902343752 10.50813293457031248
v 26.97439575195312496 3.71578979492187504 11.5966796875
v 27.3951416015625 5.81500244140624992 11.27286148071289064
v 27.68086242675781248 11.61376953125 5.39146423339843752
v 27.59178161621093752 12.1204986572265625 3.144622802734375
v 23.1196746826171875 10.1078338623046875 5.87691116333007808
v 22.59529113769531248 7.039398193359375 9.30754089355468752
v 0.72914123535156256 8.92124938964843744 2.67906570434570312
v 0.41624450683593752 7.77862548828124992 5.56597900390625
v 0.41232299804687504 5.890625 7.94671630859375008
v 0.51960754394531248 3.577392578125 9.27476882934570312
v 22.90229797363281248 -4.139617919921875 -10.21315765380859376
v 22.96140289306640624 -1.729736328125 -11.53644561767578128
v 25.49088287353515624 -2.65638732910156248 -11.45857238769531248
v 25.55699157714843752 -5.36346435546875 -9.99187469482421872
v 27.1424713134765625 2.79670715332031248 -12.18072509765625
v 26.28754425048828124 0.38235473632812496 -12.033660888671875
v 28.303009033203125 9.43498229980468752 8.89520645141601568
v 28.51477813720703128 10.23332214355468752 7.91758728027343744
v 28.26995086669921876 11.363037109375 6.05899429321289062
v 28.89994049072265632 8.57696533203125 -10.7518386840820312
v 28.70330047607421872 7.6383056640625 -11.1720123291015625
v 28.490966796875 -7.384521484375 -1.71965026855468752
v 28.31224822998046876 -7.12066650390625 1.27762985229492188
v 28.188995361328125 -7.21868896484375 4.15417861938476562
v 27.9539794921875 -6.49934387207031248 6.64864349365234376
v -2.22303771972656248 -6.30915832519531248 0.92047500610351568
v -2.47374725341796872 -6.37554931640625 -2.41182708740234376
v -2.61688995361328128 -6.29905700683593752 -6.041900634765625
v -2.52332305908203128 -5.19258117675781248 -8.59574890136718752
v -1.34262847900390624 -4.43963623046875 6.24807357788085936
v -1.74936676025390624 -6.07666015625 3.87405395507812496
v 27.60887145996093752 -4.90266418457031248 8.74001693725585936
v 27.28560638427734376 -3.46733093261718752 10.08907318115234375
v 27.42958831787109376 -6.28254699707031248 -9.50922393798828128
v 28.57807922363281248 -7.82122802734375008 -7.1649017333984375
v 28.75791931152343744 -7.98678588867187504 -4.8345870971679688
v -2.14825439453125 -3.0062713623046875 -10.1574249267578125
v -1.61434173583984376 -1.00732421875 -10.97705078125
v -0.7725830078125 1.86476135253906256 -10.9361572265625
v -0.82328796386718752 3.62614440917968752 9.21538162231445312
v -0.60871124267578128 1.141754150390625 9.11061477661132812
v -0.9560623168945312 -1.25941467285156248 8.1601715087890625
v -0.243438720703125 8.1775360107421875 -3.74015808105468752
v -0.21654510498046876 8.59210205078125 -0.51065826416015624
v -0.55997467041015624 4.4945068359375 -9.9506912231445312
v -0.8448562622070312 5.440185546875 -8.76045989990234368
v -0.69862365722656248 6.51585388183593752 -6.7640457153320312
v 28.50721740722656248 11.87623596191406256 2.49558639526367184
v 28.51813507080078128 12.46026611328125 -1.13391876220703124
v 28.56939697265625 12.256072998046875 -3.37095642089843752
# 297 vertices

vn -0.22423803806304932 0.9731833934783936 -0.05129699781537056
vn -0.1856258511543274 0.98136317729949952 -0.04969191551208496
vn -0.1673596054315567 0.94325131177902224 -0.2868235409259796
vn -0.16917704045772552 0.9428632259368896 -0.28703308105468752
vn -0.23222152888774872 0.95627808570861824 0.17777879536151886
vn -0.22578188776969908 0.95784348249435424 0.17764657735824584
vn -0.14968594908714294 0.86337137222290032 -0.48185470700263976
vn -0.22900646924972536 0.93224459886550896 0.28013581037521364
vn -0.0301701258867979 0.82572656869888304 0.56326305866241456
vn -0.02732840366661548 0.93559062480926512 0.35202759504318236
vn -0.08510699868202209 0.93599492311477664 0.34157034754753112
vn -0.13434749841690064 -0.98938727378845216 0.05534994974732399
vn -0.12916448712348938 -0.98976105451583856 0.06074180081486702
vn 0.10340537875890732 -0.9938849210739136 0.03873178362846374
vn 0.08830602467060089 -0.99584859609603888 0.02208391577005386
vn -0.08458242565393448 -0.7594769597053528 0.64501214027404784
vn -0.05700451135635376 -0.78188157081604 0.62081539630889896
vn 0.02650215290486812 -0.8422598242759704 0.53841996192932128
vn -0.01163089461624622 -0.81785249710083008 0.57531028985977176
vn -0.0506276972591877 -0.4994922578334808 0.86483770608901984
vn -0.05189764499664307 -0.50106048583984376 0.863854706287384
vn -0.03114387206733227 -0.24081599712371828 -0.97007095813751216
vn -0.0237457063049078 -0.23316991329193116 -0.97214603424072272
vn -0.00567749328911304 -0.86350166797637936 -0.50431400537490848
vn -0.07132765650749207 -0.8113876581192016 -0.5801401138305664
vn -0.01974931545555591 -0.28777423501014708 -0.95749467611312864
vn 0.02181618101894855 -0.24842098355293272 -0.96840649843215936
vn 0.06383184343576431 -0.83658975362777712 -0.5440983772277832
vn 0.09125352650880814 -0.85432261228561408 -0.51166951656341552
vn -0.07527322322130203 0.39437675476074216 -0.9158607125282288
vn -0.06589487940073013 0.43799054622650144 -0.89656120538711552
vn -0.05827329307794571 0.27742770314216612 -0.95897758007049568
vn -0.06934214383363724 0.2585279941558838 -0.96351176500320432
vn -0.09148046374320984 0.82404911518096928 -0.55908352136611936
vn -0.11029556393623352 0.79483824968338016 -0.5967135429382324
vn -0.07507678121328354 0.83360016345977776 -0.54724240303039552
vn -0.1656375229358673 0.812903106212616 -0.55834817886352536
vn -0.17249779403209686 0.80413001775741584 -0.56887561082839968
vn -0.39735481142997744 0.91625672578811648 -0.05082153528928757
vn -0.42655861377716064 0.90200394392013552 -0.06660895794630051
vn -0.13912326097488404 0.98926794528961184 -0.04464927315711975
vn -0.1264430582523346 0.99137616157531744 -0.03442835435271263
vn -0.04871493950486183 0.99393779039382928 -0.09856273233890534
vn -0.02022549137473106 0.99766927957534784 -0.06516901403665543
vn -0.174907848238945 0.97353267669677728 -0.14711040258407592
vn -0.18711280822753908 0.9688527584075928 -0.1622130572795868
vn -0.31805142760276796 0.0350537933409214 0.94742518663406368
vn -0.05685565993189812 -0.25712445378303528 0.9647043347358704
vn -0.07764043658971786 0.08121883124113083 0.993667721748352
vn -0.09618078172206878 0.11165690422058106 0.9890814423561096
vn -0.04548384994268417 -0.04131790623068809 0.99811017513275152
vn -0.09251774102449418 0.0492391362786293 0.99449276924133296
vn -0.4498708248138428 0.83864724636077888 0.30706191062927248
vn -0.60193723440170288 0.77115160226821904 0.20735663175582884
vn -0.23536838591098784 0.7478860020637512 0.62069976329803464
vn -0.23509636521339416 0.6448043584823608 0.72729432582855232
vn -0.07985664159059525 0.91682904958724976 0.39121261239051816
vn -0.05141619965434074 0.56250464916229248 0.82519376277923584
vn 0.00857999548316001 0.92653936147689824 0.37610003352165224
vn -0.0138053884729743 0.93654996156692512 0.35026228427886964
vn -0.09158796817064286 0.50117695331573488 0.86048430204391472
vn -0.10633423924446106 0.48270493745803832 0.86930376291275024
vn -0.18925556540489196 0.90221446752548224 0.38754543662071232
vn -0.17192180454730988 0.8968504071235656 0.40755635499954224
vn -0.07498670369386673 0.46941921114921568 0.87978553771972656
vn -0.06889907270669937 0.47792327404022216 0.87569528818130496
vn -0.02113505452871322 0.23602257668972016 -0.97151768207550048
vn -0.14038029313087464 0.09747221320867538 -0.98528808355331424
vn -0.06181888282299042 0.00434158509597182 -0.9980779886245728
vn -0.07789476960897446 -0.00746215693652629 -0.99693363904953008
vn -0.06874681264162064 0.41067609190940856 -0.90918582677841184
vn -0.208001047372818 0.79666882753372192 0.56749832630157472
vn -0.2090512365102768 0.80613809823989872 0.55356919765472416
vn -0.35176435112953188 0.83903419971466064 -0.41507041454315184
vn -0.50808942317962648 0.68468838930130008 -0.52253895998001096
vn -0.07301656156778336 0.48047962784767152 -0.87396103143692016
vn -0.11642670631408692 0.47355639934539792 -0.87303441762924192
vn 0.13678398728370666 -0.98802131414413456 0.07144240289926529
vn 0.1753016710281372 -0.97967350482940672 0.09751531481742858
vn 0.08999381959438324 -0.92378270626068112 0.37219172716140744
vn -0.0316985435783863 -0.9576630592346192 0.2861410081386566
vn 0.09437615424394608 -0.99553024768829344 0.00355657143518328
vn 0.09761038422584534 -0.99520677328109744 0.00597265269607305
vn 0.00325768487527966 -0.99999397993087776 0.00120420078746974
vn -0.04072135686874389 -0.99894469976425168 0.0212414264678955
vn -0.572176456451416 -0.81769728660583504 0.06312739104032516
vn -0.57862508296966552 -0.81346589326858528 0.05887510627508163
vn -0.47609126567840576 -0.7982953190803528 -0.36886537075042728
vn -0.3959051072597504 -0.81072193384170528 -0.43126443028450016
vn -0.45876201987266544 -0.68406283855438232 0.56709390878677368
vn -0.4778763055801392 -0.68264883756637576 0.55283349752426144
vn -0.05249909684062004 -0.64594936370849608 0.76157289743423456
vn -0.02111714333295822 -0.6144651770591736 0.7886613011360168
vn 0.05395244434475899 -0.87781488895416256 0.47595193982124328
vn -0.0323764830827713 -0.90378278493881232 0.42676502466201784
vn 0.07321679592132568 -0.9063488841056824 0.41613829135894776
vn 0.00965876970440149 -0.88485109806060784 0.4657738506793976
vn 0.06671492755413055 -0.19316141307353972 0.97889620065689088
vn -0.1053418442606926 -0.68310856819152832 0.7226795554161072
vn -0.12710702419281006 -0.66406720876693728 0.7367892861366272
vn 0.13623407483100892 -0.40453794598579408 -0.90431702136993408
vn 0.0494811162352562 -0.8921245336532592 -0.44907179474830624
vn 0.07457888871431351 -0.90215271711349488 -0.42492157220840456
vn -0.15632286667823792 -0.896064043045044 -0.41549068689346312
vn -0.2030847668647766 -0.89844381809234624 -0.38930103182792664
vn -0.23789112269878388 -0.94860088825225824 -0.20872023701667784
vn -0.02352690324187278 -0.99668312072753904 -0.07790540903806686
vn -0.22964079678058624 -0.31855192780494688 -0.91966831684112544
vn -0.06221939995884895 -0.22338727116584776 -0.97274190187454224
vn -0.37704789638519288 -0.30155184864997864 0.87572902441024784
vn -0.38166457414627072 -0.30345433950424196 0.87306797504425056
vn -0.36608067154884336 0.9123574495315552 -0.18327265977859496
vn -0.48550418019294736 0.86705619096755984 -0.11179980635643006
vn -0.28859317302703856 0.80874061584472656 -0.51249641180038456
vn -0.3875461518764496 0.81982934474945072 -0.42153030633926392
vn 0.30865311622619628 0.87272441387176512 -0.37826618552207944
vn 0.42225226759910584 0.84790933132171632 -0.32055068016052248
vn 0.20219221711158752 0.975671112537384 -0.08475872129201889
vn 0.21590563654899596 0.97319060564041136 -0.0792766660451889
vn -0.02106142789125442 -0.39270430803298952 0.91942363977432256
vn -0.0617496594786644 -0.28242507576942444 0.95729994773864752
vn -0.00763701973482966 0.06355942785739899 -0.99794882535934448
vn -0.03688621520996094 0.03944089263677597 -0.9985408186912536
vn -0.03868574276566505 0.0809161588549614 -0.9959698915481568
vn -0.04625910520553589 0.07281286269426346 -0.99627220630645744
vn -0.07662437856197357 -0.02134045772254467 0.99683159589767456
vn -0.04278935864567756 -0.14912030100822448 0.98789280652999872
vn -0.16101457178592682 0.62084877490997312 0.76721650362014768
vn -0.23127764463424684 0.56830531358718872 0.78964531421661376
vn -0.12967386841773986 -0.94597399234771728 0.29718327522277832
vn -0.07323876023292542 -0.97087162733078 0.22813239693641664
vn 0.08628594130277634 -0.97110122442245488 0.2225244641304016
vn 0.02679328806698322 -0.95759212970733648 0.28687885403633116
vn -0.33556494116783144 -0.94076180458068848 0.04861302301287651
vn -0.31050935387611388 -0.94788730144500736 0.07137051969766617
vn -0.08672183752059937 -0.98252534866333008 -0.1646915078163147
vn -0.13225212693214416 -0.98401939868927008 -0.11922720819711686
vn 0.00807848013937473 -0.99872952699661248 0.04974167421460152
vn 0.00311168772168457 -0.99904626607894896 0.04355357587337494
vn 0.08437975496053696 -0.9813678860664368 -0.17261862754821778
vn 0.1061968132853508 -0.97499382495880128 -0.195216104388237
vn 0.21396046876907348 -0.97660422325134272 0.02156654931604862
vn 0.20274363458156584 -0.97918862104415888 0.00919870287179946
vn 0.04078416526317596 -0.99874907732009888 0.02893083728849888
vn 0.07355155795812607 -0.99499636888504032 0.06762059777975082
vn -0.17135871946811676 -0.7605754137039184 0.62622779607772824
vn -0.21687529981136324 -0.77848476171493536 0.58900463581085208
vn -0.13756902515888214 -0.29099488258361816 0.94678235054016112
vn -0.10656983405351638 -0.26126563549041748 0.959365963935852
vn -0.08006636053323746 -0.81492823362350464 0.574004590511322
vn -0.00859123095870018 -0.76765221357345584 0.6408090591430664
vn -0.07145556807518005 -0.53508490324020384 0.84177088737487792
vn -0.12663975358009338 -0.48862725496292112 0.86325305700302128
vn -0.08668834716081619 -0.48121070861816408 0.87230807542800896
vn -0.09034478664398194 -0.4860480725765228 0.86924976110458368
vn 0.07463264465332031 -0.8838005661964416 0.46187281608581544
vn 0.14852946996688842 -0.83427786827087408 0.53096091747283936
vn -0.00578199652954936 -0.59529799222946168 0.8034842014312744
vn -0.0540960356593132 -0.5491352081298828 0.83398091793060304
vn -0.00837889034301042 -0.50283223390579224 0.86434340476989744
vn -0.06275185942649841 -0.57300567626953128 0.81714546680450432
vn -0.09870924055576324 -0.93189740180969232 0.34903258085250856
vn 0.02340762875974178 -0.8806520104408264 0.4731851518154144
vn -0.00969207938760519 -0.64608776569366456 0.76320165395736688
vn -0.03789973258972168 -0.66823506355285648 0.74298417568206784
vn -0.02066255547106266 -0.2335166037082672 -0.9721332788467408
vn -0.0230467077344656 -0.2304977774620056 -0.97279995679855344
vn -0.14366291463375092 -0.88646030426025392 -0.43994218111038208
vn -0.218590185046196 -0.8233954310417176 -0.52367764711380008
vn -0.00495075900107622 -0.24343988299369812 -0.96990340948104864
vn -0.00379279884509742 -0.2449757605791092 -0.96952176094055168
vn -0.022676857188344 -0.52497553825378416 -0.85081517696380608
vn -0.00700339442119002 -0.51302570104599 -0.85834467411041264
vn 0.02009435556828975 -0.82252359390258784 -0.56837594509124752
vn 0.03885512426495552 -0.83667111396789552 -0.54632568359375
vn 0.0351019836962223 -0.39949372410774232 -0.91606366634368896
vn -0.0488862581551075 -0.28256666660308836 -0.95800119638442992
vn 0.02031829394400119 -0.58790749311447144 -0.80867296457290656
vn 0.06561294943094254 -0.54761964082717896 -0.8341508507728576
vn 0.1346348524093628 -0.85168302059173584 -0.5064677000045776
vn 0.19169330596923828 -0.8827641606330872 -0.42893016338348392
vn -0.26347917318344116 -0.88737249374389648 -0.37834990024566648
vn -0.10098657011985778 -0.96799755096435552 -0.22974425554275512
vn -0.0260728970170021 0.21531513333320616 -0.97619652748107904
vn -0.02382507547736168 0.208079531788826 -0.97782170772552496
vn -0.05725327879190445 0.35205447673797608 -0.93422681093215936
vn -0.06538376212120056 0.30622416734695436 -0.94971138238906864
vn -0.10150553286075592 0.39232254028320312 -0.9142098426818848
vn -0.15868088603019714 0.37690111994743344 -0.91256016492843632
vn -0.04484555497765541 0.42238149046897888 -0.90530806779861456
vn -0.05459265038371086 0.42122557759284976 -0.90531140565872192
vn -0.1113484799861908 0.47673416137695312 -0.87196671962738032
vn -0.10602366924285888 0.49325275421142576 -0.86340069770812992
vn -0.06603975594043732 0.50628834962844848 -0.85983186960220336
vn -0.08756840229034424 0.48446962237358096 -0.87041425704956048
vn -0.05062844231724739 0.25735899806022644 -0.96498864889144896
vn -0.03662792593240738 0.23721326887607576 -0.9707669019699096
vn -0.08653966337442398 0.48943972587585448 -0.86773252487182624
vn -0.0830911323428154 0.49681049585342408 -0.863872230052948
vn -0.08696610480546951 0.31490683555603028 -0.94512999057769776
vn -0.05958438664674759 0.27745750546455384 -0.95888847112655632
vn -0.10314738750457764 0.60181742906570432 -0.79194468259811408
vn -0.12695758044719696 0.54366296529769896 -0.8296458721160888
vn 0.04287267103791237 0.90604317188262944 -0.42100808024406432
vn 0.04250754788517952 0.906104862689972 -0.42091223597526552
vn -0.35748815536499024 0.88568073511123664 -0.29626339673995972
vn -0.38037654757499696 0.87207514047622688 -0.30789393186569212
vn -0.07679689675569534 0.83329594135284416 -0.5474669933319092
vn -0.06801427900791168 0.82839006185531616 -0.55600720643997192
vn -0.13733083009719848 0.94853949546813968 -0.28532993793487548
vn -0.12899121642112732 0.95189237594604496 -0.27796065807342528
vn -0.17427204549312592 0.8037709593772888 -0.56884229183197024
vn -0.15089406073093414 0.78751075267791744 -0.59754317998886112
vn -0.07675167173147202 0.94427877664566048 -0.32007285952568056
vn -0.05185655504465103 0.95558464527130128 -0.29011869430541992
vn -0.23595984280109404 0.8191655278205872 -0.52277225255966184
vn -0.20671284198760988 0.80459707975387568 -0.55668061971664432
vn -0.18519562482833864 0.90039378404617312 -0.3936923146247864
vn -0.17155247926712036 0.90986138582229616 -0.37778583168983456
vn -0.1577281802892685 0.98506546020507808 -0.06905003637075424
vn -0.12048342823982238 0.98888057470321648 -0.08717155456542969
vn -0.0491354838013649 0.99829316139221184 -0.03156726062297821
vn -0.01558508165180683 0.99871164560318 -0.04829289019107819
vn -0.43143305182456968 0.882942259311676 0.18514454364776612
vn -0.45646625757217408 0.8728259801864624 0.17266573011875152
vn -0.04031137004494667 0.99696624279022224 -0.06658334285020828
vn -0.0688922330737114 0.99679440259933472 -0.0406794436275959
vn -0.13157904148101806 0.97695046663284304 0.16809135675430298
vn -0.1112966164946556 0.97705191373825072 0.18161125481128692
vn -0.10607867687940598 0.98236268758773808 -0.153983473777771
vn -0.14387640357017518 0.98382389545440672 -0.10672421753406524
vn -0.01837840303778648 0.99513298273086544 0.09681254625320434
vn 0.01346120238304138 0.99121040105819696 0.13160808384418488
vn -0.16188275814056396 0.96909016370773312 -0.18616674840450288
vn -0.2070244401693344 0.96702492237091072 -0.14833660423755646
vn -0.18404299020767212 0.97938144207000736 0.08330708742141724
vn -0.20350934565067292 0.97728979587554928 0.05906471237540245
vn -0.06818754971027374 0.11986127495765686 0.99044620990753168
vn -0.0660092830657959 0.12754419445991516 0.98963391780853264
vn -0.06900767982006073 0.15312695503234864 0.98579412698745728
vn -0.04937442392110825 0.129751056432724 0.99031651020050048
vn -0.11752759665250778 0.05344104394316673 0.99163067340850832
vn -0.0995148941874504 0.08394651859998703 0.99148869514465328
vn -0.09899506717920304 0.15254315733909606 0.98332631587982176
vn -0.08858197927474976 0.13959914445877076 0.98623800277709968
vn -0.09088262915611268 -0.14710108935832978 0.98493736982345584
vn 0.01856208406388759 -0.05602620914578438 0.99825680255889888
vn -0.08505222201347351 0.15751391649246216 0.98384732007980352
vn -0.10872453451156616 0.1945703625679016 0.97484421730041504
vn -0.11155271530151368 0.29948168992996216 0.947558343410492
vn -0.2236230969429016 0.1922186017036438 0.95553374290466304
vn -0.1718575805425644 0.95974308252334592 0.2221669852733612
vn -0.17334134876728058 0.9592344760894776 0.22320820391178132
vn -0.10941360145807266 0.95347106456756592 0.28093007206916808
vn -0.07590751349925995 0.96628689765930176 0.24602362513542176
vn -0.54351931810379032 0.74034595489501952 0.39556872844696048
vn -0.24680718779563904 0.82634764909744256 0.50619727373123168
vn -0.21149446070194244 0.7939374446868896 0.57002931833267208
vn -0.21270695328712464 0.77011877298355104 0.60139238834381104
vn -0.29291236400604248 0.77684623003005984 0.55741578340530392
vn -0.33180904388427736 0.76129400730133056 0.5570765137672424
vn -0.27294501662254332 0.60092049837112424 0.75126266479492192
vn -0.27103745937347412 0.54535508155822752 0.79317498207092288
vn 0.01853594556450843 0.93700516223907472 0.34882339835166932
vn -0.02204393781721592 0.92140835523605344 0.38797000050544736
vn -0.11490228772163392 0.784766972064972 0.60904711484909056
vn -0.07402726262807846 0.77246642112731936 0.63072627782821656
vn -0.01703920029103756 0.5624951124191284 0.82662498950958256
vn -0.0792766660451889 0.50102663040161136 0.8617931604385376
vn -0.10113833844661712 0.90491068363189696 0.41340982913970944
vn -0.07252684235572815 0.92426675558090208 0.37479430437088016
vn -0.02609188295900821 0.75489193201065056 0.65533000230789184
vn -0.09785830974578858 0.80666613578796384 0.58284944295883176
vn -0.112607441842556 0.48249709606170656 0.8686289191246032
vn -0.1229696273803711 0.46630546450614928 0.87603521347045904
vn -0.12579397857189178 0.92702305316925056 0.3532763123512268
vn -0.17210747301578522 0.90462005138397216 0.38992512226104736
vn -0.14748923480510712 0.73324900865554816 0.66377174854278568
vn -0.09843887388706208 0.70168763399124144 0.7056516408920288
vn -0.03857539221644401 0.48013973236083984 0.87634336948394768
vn -0.02138594165444374 0.49703168869018552 0.86746883392333984
vn -0.14666619896888732 -0.473347932100296 -0.86857980489730832
vn -0.14614970982074738 -0.47401633858680728 -0.86830228567123408
vn -0.07349220663309097 -0.03468726947903633 -0.996692419052124
vn -0.0866028293967247 -0.00508366478607058 -0.99622994661331184
vn -0.08986327052116394 -0.09123790264129638 -0.99176615476608272
vn 0.00537474313750863 -0.03179151192307472 -0.99948006868362432
vn -0.07709034532308578 0.06443936377763748 -0.99493950605392464
vn -0.06475558876991272 0.00589970266446471 -0.99788367748260496
vn -0.05748499184846878 0.11208036541938782 -0.99203497171401984
vn -0.03193265572190284 0.14182992279529572 -0.9893758296966552
vn -0.08194728195667267 0.40474024415016176 -0.91075241565704352
vn -0.06084989011287689 0.372530460357666 -0.92602288722991936
vn -0.1928502917289734 0.780064046382904 0.59523844718933104
vn -0.16111913323402404 0.7935248613357544 0.5868210792541504
vn -0.15232902765274048 0.84224170446395872 0.51713126897811888
vn -0.1734434962272644 0.8617584705352784 0.47674909234046936
vn -0.07739151269197464 0.45478186011314392 -0.88723385334014896
vn -0.06030556932091713 0.41831985116004944 -0.90629559755325312
vn -0.01385205052793026 0.90207284688949584 -0.43136131763458248
vn -0.04902789369225502 0.9111387133598328 -0.4091728627681732
vn -0.30508014559745788 0.34823435544967652 -0.8863739967346192
vn -0.17162933945655822 0.68317466974258424 -0.70979970693588256
vn -0.01559949945658445 0.5798775553703308 -0.81455433368682864
vn -0.06631261110305786 0.57936543226242064 -0.81236582994461056
vn -0.04005559906363487 -0.9825051426887512 0.18187679350376128
vn 0.13505329191684722 -0.98529714345932 0.1046421304345131
vn 0.17716267704963684 -0.98409163951873776 -0.01330734323710203
vn 0.08377411216497421 -0.99562150239944464 0.04146787524223327
vn 0.01142995432019233 -0.99602276086807248 0.08836287260055542
vn 0.02820685692131519 -0.99548202753067024 0.0906640961766243
vn -0.00010470770939718932 -0.7849510312080384 0.61955785751342776
vn -0.12231148779392242 -0.73423457145690912 0.66778701543807984
vn -0.15956346690654754 -0.95243561267852784 0.25962674617767332
vn -0.07021614909172058 -0.95696616172790528 0.2815764844417572
vn 0.09953738003969192 -0.98544621467590336 0.13779747486114502
vn 0.06151920557022095 -0.98396861553192144 0.16739521920681
vn -0.05038823559880257 -0.98745632171630864 0.1496366262435913
vn 0.0032182193826884 -0.99334084987640384 0.11516760289669036
vn 0.05863442271947861 -0.98902100324630736 -0.1356445699930191
vn 0.09724922478199006 -0.98349076509475712 -0.1526058316230774
vn 0.02130830660462379 -0.99977189302444464 -0.00147290015593171
vn 0.06195779889822006 -0.99805200099945072 0.00731840217486023
vn -0.03350310400128364 -0.9886976480484008 -0.14613178372383118
vn -0.19270339608192444 -0.97526508569717408 -0.1082748994231224
vn -0.57845276594161984 -0.81571507453918464 0.0011506286682561
vn -0.50878024101257328 -0.85961008071899408 -0.04704436287283897
vn -0.4967845678329468 -0.85518532991409296 0.1478620022535324
vn -0.56846541166305544 -0.79552674293518064 0.20972438156604768
vn -0.21282725036144256 -0.97648370265960688 0.03441307321190834
vn -0.2031700909137726 -0.978525459766388 0.03478134423494339
vn -0.08222494274377823 -0.91337120532989504 -0.39873814582824704
vn -0.1170872300863266 -0.90778893232345584 -0.40275281667709352
vn -0.30684390664100648 -0.5196340084075928 -0.79738783836364752
vn -0.26365920901298524 -0.50777894258499144 -0.82014894485473632
vn -0.41325721144676208 -0.4378197193145752 0.7984562516212464
vn -0.41418057680130008 -0.4369924366474152 0.7984309792518616
vn -0.20125529170036316 -0.7901862263679504 0.57887995243072512
vn -0.19823285937309264 -0.79071211814880368 0.57920479774475096
vn 0.01195491664111614 -0.7370564937591552 0.67572551965713504
vn -0.00292503950186073 -0.7340011596679688 0.67914187908172608
vn 0.12979425489902496 -0.89438462257385248 0.4280532002449036
vn 0.02121302299201488 -0.90882164239883424 0.4166452884674072
vn 0.08544233441352844 -0.72452139854431152 0.68393588066101072
vn 0.00595865305513143 -0.68434673547744752 0.72913229465484624
vn -0.27582520246505736 -0.69055342674255368 0.6686227917671204
vn -0.19304361939430236 -0.68423497676849368 0.70324724912643432
vn -0.05473992601037025 -0.52653139829635624 0.84839147329330448
vn -0.06044673919677734 -0.51861733198165896 0.85286706686019904
vn 0.01795712113380432 -0.74774962663650512 -0.663737952709198
vn 0.12679354846477508 -0.69244652986526488 -0.71024030447006224
vn -0.17973004281520844 -0.8864415287971496 -0.42651906609535216
vn -0.09727384895086288 -0.90375143289566048 -0.41685870289802552
vn -0.2352251708507538 -0.75337606668472288 -0.6140795350074768
vn -0.21887856721878052 -0.74923884868621824 -0.62508666515350344
vn -0.30240175127983092 -0.8463677167892456 -0.43842300772666928
vn -0.07085175812244415 -0.7915874123573304 -0.60693442821502688
vn -0.1005513146519661 -0.99245357513427728 -0.07018092274665833
vn -0.04798468574881554 -0.9965916872024536 -0.06709995120763779
vn -0.02597901783883571 -0.37329989671707152 -0.9273468852043152
vn -0.01560880523175001 -0.3773532509803772 -0.92593783140182496
vn -0.11948239803314208 0.03811054304242134 -0.99210458993911744
vn -0.00514480145648121 0.11870122700929642 -0.99291670322418208
vn -0.0457657128572464 -0.04499972984194755 0.99793809652328496
vn -0.35436061024665832 0.06788522005081177 0.93264144659042352
vn -0.18471008539199828 -0.34476205706596376 0.92033761739730832
vn -0.1297728717327118 -0.34864318370819092 0.92822778224945072
vn -0.4701461493968964 0.8795087933540344 0.07366660982370377
vn -0.574811577796936 0.81826490163803104 0.00585087295621633
vn -0.38776737451553344 0.8235852718353272 -0.41393688321113584
vn -0.36330661177635192 0.83700871467590336 -0.40917566418647768
vn 0.00512044550850987 0.9912108778953552 -0.1321924477815628
vn -0.0930563285946846 0.98765486478805536 -0.12600883841514588
vn -0.1447584331035614 0.799238920211792 -0.5833198428153992
vn -0.29778346419334412 0.66429126262664792 -0.68559616804122928
vn 0.31994453072547912 0.8206804990768432 -0.4734120070934296
vn 0.25070729851722716 0.8444438576698304 -0.47335022687911984
vn 0.33761486411094664 0.93293654918670656 0.12508255243301392
vn 0.316354900598526 0.94078773260116576 0.12181097269058228
vn -0.2559281885623932 0.96214520931243904 -0.09368765354156494
vn -0.25233319401741028 0.96306830644607536 -0.09395473450422286
vn 0.34756848216056824 0.89492815732955936 -0.27982094883918764
vn 0.37938109040260312 0.8877418041229248 -0.2607382833957672
vn -0.2097511738538742 0.9171121716499328 -0.33898335695266724
vn -0.2792818546295166 0.94814568758010864 0.15172772109508514
vn 0.32326197624206544 0.77708053588867184 -0.5400438904762268
vn 0.06178338453173637 0.87076520919799808 -0.48780187964439392
vn 0.25283065438270568 0.82675242424011232 -0.50255054235458376
vn -0.08973958343267441 0.99058842658996576 0.10335065424442292
vn -0.11647018045186996 0.9878276586532592 0.10310772061347962
vn -0.05767233297228813 -0.04703425988554955 0.99722701311111456
vn -0.03194498643279075 0.02358957007527351 -0.9992112517356872
vn -0.11294594407081604 -0.85514444112777712 -0.50593602657318112
vn -0.13987605273723602 -0.75211864709854128 -0.64401268959045408
vn -0.20130725204944612 -0.52027982473373416 0.82993030548095696
vn 0.13460686802864074 -0.7196335196495056 0.68118166923522952
vn -0.1742747575044632 -0.4944409132003784 0.85156112909317024
vn -0.14352528750896454 -0.49707433581352232 0.8557555675506592
vn -0.01429955754429102 -0.580740749835968 -0.8139628767967224
vn -0.02485078759491443 -0.57823872566223144 -0.81548911333084112
vn -0.21667641401290892 -0.96994972229003904 0.1106749176979065
vn -0.21323010325431824 -0.970720648765564 0.11060874909162522
vn -0.20199953019618988 -0.97924703359603888 -0.01647796295583248
vn -0.16501626372337342 -0.98618751764297488 -0.01427378598600626
vn 0.02271405048668384 -0.9914163947105408 -0.12875400483608246
vn -0.11696115136146546 -0.97533953189849856 -0.18717071413993836
vn 0.00519557762891054 -0.98966789245605472 0.14328445494174958
vn 0.06132547929883003 -0.98786628246307376 0.1426861584186554
vn -0.22802287340164184 -0.79167962074279792 0.56678837537765504
vn -0.12149141728878022 -0.7896206378936768 0.60144734382629392
vn -0.09621482342481614 -0.99463438987731936 -0.03801613673567772
vn -0.00173794908914715 -0.99969828128814704 -0.02450151927769184
vn 0.03995624557137489 -0.98038887977600096 0.19297972321510316
vn -0.0230210367590189 -0.98284518718719488 0.1829906702041626
vn -0.01424666587263345 0.57932746410369872 -0.8149703741073608
vn -0.04247923567891121 0.57081323862075808 -0.81998038291931152
vn -0.13510766625404358 0.83869135379791264 0.5275819897651672
vn -0.05962253361940384 0.11261702328920364 -0.99184805154800416
vn -0.1098117008805275 -0.15695832669734954 -0.98148125410079952
vn -0.00905953254550695 -0.1082695946097374 -0.99408024549484256
vn -0.10634037107229232 0.737145721912384 0.66731399297714232
vn -0.04074481502175331 0.78290700912475584 0.6208031177520752
vn -0.08802895992994308 0.75090646743774416 0.65451538562774656
vn -0.13525141775608062 0.69648414850234984 0.70471042394638064
vn -0.00569297652691602 0.79759293794631952 0.60316914319992064
vn 0.02224596217274665 0.81550842523574832 0.57831758260726928
vn -0.41710117459297184 0.67207229137420656 0.6118378043174744
vn -0.12267379462718964 0.96631675958633424 0.22623679041862488
vn -0.25370877981185912 0.81486821174621584 0.5211734175682068
vn -0.16975516080856324 0.86117029190063472 0.47913345694541928
vn -0.03704151883721351 0.14484550058841706 0.98876065015792848
vn -0.16772450506687164 0.05910342559218407 0.98406064510345456
vn -0.1211593970656395 0.15505015850067138 0.98044884204864496
vn -0.08796076476573944 0.19091928005218504 0.97765678167343136
vn -0.07184316962957382 0.15320943295955658 0.98557871580123904
vn -0.08074986189603806 0.139077827334404 0.98698371648788448
vn -0.16663801670074462 0.98225551843643184 0.08605759590864182
vn -0.17951351404190064 0.97915959358215328 0.09498099237680436
vn -0.09641088545322418 0.991051971912384 0.09230873733758926
vn -0.0835767537355423 0.99357253313064576 0.07634516060352325
vn -0.0462942011654377 0.9850009083747864 0.16622301936149598
vn -0.00780244311317801 0.99126780033111568 0.13163350522518158
vn -0.05581295117735863 0.98462021350860592 0.16555362939834594
vn -0.08018846064805984 0.98037886619567872 0.18007530272006988
vn -0.16015340387821198 0.97467195987701424 0.15609486401081086
vn -0.17245200276374816 0.97155821323394768 0.16228045523166656
vn -0.25002485513687132 0.88609045743942256 -0.39029636979103088
vn -0.1889096200466156 0.87524682283401488 -0.44525969028472904
vn -0.18921926617622376 0.925238847732544 -0.32882988452911376
vn -0.14754173159599304 0.91445809602737424 -0.37682595849037168
vn -0.08184576034545898 0.95709675550460816 -0.27796965837478636
vn -0.06550900638103485 0.95420974493026736 -0.29187729954719544
vn 0.02564795315265655 0.96344012022018432 -0.26669329404830932
vn 0.00476661883294582 0.9657331109046936 -0.259493350982666
vn -0.11134646087884902 0.93783479928970336 -0.32873672246932984
vn -0.05070425570011139 0.9539114832878112 -0.29577329754829408
vn -0.1178516373038292 0.59991443157196048 -0.79133659601211552
vn -0.18519750237464904 0.68441963195800784 -0.7051749229431152
vn -0.07521376758813858 0.49121627211570736 -0.8677842020988464
vn -0.11531820148229598 0.54514682292938232 -0.83037137985229488
vn -0.06421270966529846 0.506696343421936 -0.85972988605499264
vn -0.05966780334711075 0.50169074535369872 -0.8629867434501648
vn -0.10882213711738586 0.47941249608993528 -0.87081646919250496
vn 0.06100556254386902 0.82142990827560432 -0.56703728437423704
vn -0.12557405233383178 0.47405788302421568 -0.87149316072463984
vn -0.10153868049383164 0.2696130871772766 -0.95760047435760496
vn -0.10468575358390808 0.30753019452095032 -0.9457622170448304
vn -0.01556601468473672 0.3867177963256836 -0.9220667481422424
vn -0.2945566475391388 -0.7467542886734008 -0.5963173508644104
vn -0.2198805958032608 -0.80158311128616336 -0.55598300695419312
vn 0.02589740604162216 -0.58830517530441288 -0.80822414159774784
vn 0.13582369685173034 -0.69145148992538456 -0.70953989028930664
vn 0.00248328992165625 -0.52872562408447264 -0.84878915548324592
vn 0.0148059194907546 -0.54237765073776248 -0.84000426530838016
vn -0.02487643621861934 -0.56635856628417968 -0.82378339767456048
vn -0.08226598054170609 -0.49604600667953488 -0.86439037322998048
vn -0.04481798037886619 -0.73650127649307248 0.67494976520538328
vn -0.03150695189833641 -0.72797924280166624 0.68487483263015744
vn 0.08189316093921661 -0.59315460920333864 0.80091267824172976
vn -0.02155758254230022 -0.68457299470901488 0.72862553596496576
vn -0.07591302692890167 -0.53520315885543824 0.84130543470382688
vn -0.0909278616309166 -0.54857271909713744 0.831143856048584
vn -0.16166116297245026 -0.49513217806816104 0.85364502668380736
vn -0.148150235414505 -0.48717251420021056 0.86064773797988896
vn -0.11353501677513122 -0.98953968286514288 -0.08899969607591629
vn 0.03801092505455017 -0.99483489990234368 0.09412004053592682
vn 0.18491344153881072 -0.96844655275344848 -0.16708774864673614
vn 0.21634577214717864 -0.968207597732544 -0.12557296454906464
vn 0.03974966332316398 -0.986111044883728 -0.16126136481761932
vn 0.01165924035012722 -0.9806044697761536 -0.19565001130104064
vn -0.2570098340511322 -0.9649385213851928 -0.05328793078660965
vn -0.33158394694328308 -0.9354324340820312 -0.1225489228963852
vn 0.07296726107597351 -0.99128794670104976 0.1096540093421936
vn 0.00374877918511629 -0.99919539690017696 0.03993091359734535
vn 0.20356506109237672 -0.95523566007614128 0.21467670798301696
vn 0.1424051821231842 -0.97711747884750368 0.15799428522586822
vn -0.00273446505889296 -0.96104711294174192 0.276371031999588
vn 0.00847478676587343 -0.957490622997284 0.28833982348442076
vn -0.31076902151107788 -0.93377947807312016 0.17742179334163666
vn -0.21916055679321288 -0.94141912460327152 0.2563176453113556
vn -0.19537577033042908 0.5123552680015564 0.83625376224517824
vn -0.17101438343524932 0.43084299564361576 0.88607472181320192
vn -0.1832091063261032 0.76434248685836784 0.61823534965515136
vn -0.16505979001522064 0.72531157732009888 0.66834002733230592
vn -0.05103345960378647 -0.02563215047121048 0.99836796522140496
vn -0.0438181608915329 0.10266534239053726 0.99375033378601072
vn -0.06723069399595261 0.12822835147380828 0.989463210105896
vn -0.01714522577822208 0.07879123091697693 -0.99674367904663088
vn -0.05294283106923103 0.11976977437734604 -0.9913890957832336
vn -0.02201922424137592 0.06668119132518768 -0.9975313544273376
vn -0.02401651628315449 0.06928668916225433 -0.99730765819549568
vn -0.05404086038470268 0.04333766177296638 -0.99759787321090704
vn -0.00965358410030603 -0.02883396111428737 -0.99953758716583248
vn -0.04141194000840187 0.17028221487998962 -0.98452478647232048
vn -0.03328697010874748 0.1422199159860611 -0.9892752170562744
vn 0.02453722804784775 -0.39614117145538328 0.91786164045333856
vn -0.08025020360946655 -0.51672434806823728 0.85238242149353024
vn -0.04105681926012039 -0.14935670793056488 0.9879305958747864
vn -0.08658687770366669 -0.2795327603816986 0.95622390508651728
vn 0.04948103055357933 -0.57503080368041992 0.81663405895233152
vn -0.10689812898635864 -0.47654548287391664 -0.8726266026496888
vn -0.24103565514087676 -0.56575006246566776 -0.78856116533279424
vn -0.00727460905909538 -0.47649937868118288 -0.8791446685791016
vn -0.46506130695343016 0.81303012371063232 0.3502856194972992
vn -0.11158793419599534 0.90553665161132816 0.40933066606521608
vn -0.12763972580432892 0.86593800783157344 -0.4835901856422424
vn -0.28761354088783264 0.6623844504356384 -0.69175517559051512
vn 0.37639588117599488 0.90685093402862544 0.18959867954254152
vn 0.2342417687177658 0.95992833375930784 0.15384480357170104
vn -0.15634432435035706 0.31264203786849976 -0.93691593408584592
vn -0.09749937802553176 0.35613897442817688 -0.92933249473571776
vn -0.07361280918121338 0.36776733398437504 -0.92699962854385376
vn -0.12539319694042206 -0.46926659345626832 0.87410837411880496
vn -0.02031644433736801 0.4970800876617432 0.86746680736541744
vn -0.27960550785064696 0.58086019754409792 0.76447504758834832
vn -0.52785873413085936 0.66589605808258056 0.52720725536346432
vn -0.26470342278480528 0.81524920463562016 0.5150736570358276
vn -0.54002106189727784 0.80097419023513792 0.25849106907844544
vn -0.55889672040939328 0.792368233203888 0.2445140779018402
vn -0.37881448864936832 0.37269172072410584 0.84711301326751712
vn -0.1254780888557434 0.49427220225334168 0.86020356416702272
vn -0.20259281992912292 0.20460361242294312 -0.95765000581741328
vn 0.0085767051205039 0.34302151203155516 -0.9392883777618408
# 543 vertex normals

g obj_32547047
s 1
f 1//1 2//1 3//1
f 1//2 3//2 4//2
f 4//3 3//3 5//3
f 4//4 5//4 6//4
f 7//5 8//5 2//5
f 7//6 2//6 1//6
f 6//7 5//7 9//7
f 8//8 7//8 10//8
f 11//9 12//9 13//9
f 11//10 13//10 14//10
f 11//11 14//11 15//11
f 16//12 17//12 18//12
f 16//13 18//13 19//13
f 20//14 21//14 22//14
f 20//15 22//15 23//15
f 24//16 25//16 26//16
f 24//17 26//17 27//17
f 28//18 29//18 30//18
f 28//19 30//19 31//19
f 32//20 33//20 34//20
f 32//21 34//21 35//21
f 36//22 37//22 38//22
f 36//23 38//23 39//23
f 40//24 41//24 42//24
f 40//25 42//25 43//25
f 44//26 45//26 46//26
f 44//27 46//27 47//27
f 48//28 49//28 50//28
f 48//29 50//29 51//29
f 52//30 53//30 54//30
f 52//31 54//31 55//31
f 56//32 57//32 58//32
f 56//33 58//33 59//33
f 60//34 61//34 62//34
f 63//35 64//35 65//35
f 63//36 65//36 66//36
f 67//37 68//37 69//37
f 67//38 69//38 70//38
f 71//39 3//39 2//39
f 71//40 2//40 72//40
f 73//41 74//41 75//41
f 73//42 75//42 76//42
f 77//43 78//43 79//43
f 77//44 79//44 80//44
f 81//45 82//45 83//45
f 81//46 83//46 84//46
f 85//47 86//47 87//47
f 85//48 87//48 88//48
f 89//49 90//49 91//49
f 89//50 91//50 92//50
f 93//51 94//51 95//51
f 93//52 95//52 96//52
f 97//53 8//53 10//53
f 97//54 10//54 98//54
f 99//55 100//55 101//55
f 99//56 101//56 102//56
f 103//57 104//57 105//57
f 106//58 107//58 108//58
f 109//59 110//59 111//59
f 109//60 111//60 112//60
f 113//61 114//61 115//61
f 113//62 115//62 116//62
f 117//63 118//63 119//63
f 117//64 119//64 120//64
f 121//65 122//65 123//65
f 121//66 123//66 124//66
f 125//67 126//67 127//67
f 125//68 127//68 128//68
f 129//69 130//69 131//69
f 129//70 131//70 132//70
f 133//71 134//71 135//71
f 136//72 137//72 138//72
f 136//73 138//73 139//73
f 5//74 140//74 141//74
f 5//75 141//75 9//75
f 142//76 143//76 144//76
f 142//77 144//77 145//77
f 146//78 147//78 148//78
f 146//79 148//79 149//79
f 150//80 151//80 152//80
f 150//81 152//81 153//81
f 154//82 155//82 156//82
f 154//83 156//83 157//83
f 158//84 159//84 160//84
f 158//85 160//85 161//85
f 162//86 163//86 164//86
f 162//87 164//87 165//87
f 166//88 167//88 168//88
f 166//89 168//89 169//89
f 170//90 171//90 172//90
f 170//91 172//91 173//91
f 174//92 175//92 176//92
f 174//93 176//93 177//93
f 178//94 179//94 180//94
f 178//95 180//95 181//95
f 182//96 183//96 184//96
f 182//97 184//97 185//97
f 186//98 187//98 188//98
f 189//99 190//99 191//99
f 189//100 191//100 192//100
f 193//101 194//101 195//101
f 196//102 197//102 198//102
f 196//103 198//103 199//103
f 200//104 201//104 202//104
f 200//105 202//105 203//105
f 204//106 205//106 206//106
f 204//107 206//107 207//107
f 208//108 209//108 210//108
f 208//109 210//109 211//109
f 212//110 213//110 214//110
f 212//111 214//111 215//111
f 216//112 217//112 218//112
f 216//113 218//113 219//113
f 220//114 221//114 222//114
f 220//115 222//115 223//115
f 224//116 225//116 226//116
f 224//117 226//117 227//117
f 228//118 229//118 230//118
f 228//119 230//119 231//119
f 176//120 175//120 94//120
f 176//121 94//121 93//121
f 45//122 44//122 126//122
f 45//123 126//123 125//123
f 37//124 36//124 57//124
f 37//125 57//125 56//125
f 90//126 89//126 32//126
f 90//127 32//127 35//127
f 99//128 102//128 232//128
f 99//129 232//129 233//129
f 16//130 19//130 25//130
f 16//131 25//131 24//131
f 20//132 23//132 29//132
f 20//133 29//133 28//133
f 163//134 162//134 17//134
f 163//135 17//135 16//135
f 40//136 43//136 18//136
f 40//137 18//137 17//137
f 19//138 18//138 21//138
f 19//139 21//139 20//139
f 48//140 51//140 22//140
f 48//141 22//141 21//141
f 23//142 22//142 155//142
f 23//143 155//143 154//143
f 158//144 161//144 147//144
f 158//145 147//145 146//145
f 24//146 27//146 171//146
f 24//147 171//147 170//147
f 213//148 212//148 85//148
f 213//149 85//149 88//149
f 28//150 31//150 26//150
f 28//151 26//151 25//151
f 27//152 26//152 234//152
f 27//153 234//153 85//153
f 86//154 234//154 33//154
f 86//155 33//155 32//155
f 182//156 185//156 30//156
f 182//157 30//157 29//157
f 31//158 30//158 34//158
f 31//159 34//159 33//159
f 35//160 34//160 235//160
f 35//161 235//161 176//161
f 151//162 150//162 179//162
f 151//163 179//163 178//163
f 175//164 174//164 189//164
f 175//165 189//165 192//165
f 36//166 39//166 208//166
f 36//167 208//167 211//167
f 166//168 169//168 41//168
f 166//169 41//169 40//169
f 44//170 47//170 38//170
f 44//171 38//171 37//171
f 39//172 38//172 42//172
f 39//173 42//173 41//173
f 43//174 42//174 49//174
f 43//175 49//175 48//175
f 194//176 193//176 46//176
f 194//177 46//177 45//177
f 47//178 46//178 50//178
f 47//179 50//179 49//179
f 51//180 50//180 197//180
f 51//181 197//181 196//181
f 200//182 203//182 205//182
f 200//183 205//183 204//183
f 236//184 237//184 238//184
f 236//185 238//185 239//185
f 53//186 52//186 240//186
f 53//187 240//187 238//187
f 52//188 55//188 143//188
f 52//189 143//189 142//189
f 237//190 133//190 54//190
f 237//191 54//191 53//191
f 55//192 54//192 60//192
f 55//193 60//193 241//193
f 133//194 135//194 61//194
f 133//195 61//195 60//195
f 56//196 59//196 127//196
f 56//197 127//197 126//197
f 242//198 127//198 64//198
f 242//199 64//199 63//199
f 243//200 244//200 58//200
f 243//201 58//201 57//201
f 59//202 58//202 68//202
f 59//203 68//203 67//203
f 241//204 245//204 6//204
f 241//205 6//205 9//205
f 140//206 5//206 3//206
f 140//207 3//207 71//207
f 63//208 66//208 62//208
f 63//209 62//209 61//209
f 245//210 62//210 74//210
f 245//211 74//211 73//211
f 67//212 70//212 65//212
f 67//213 65//213 64//213
f 66//214 65//214 78//214
f 66//215 78//215 77//215
f 221//216 220//216 69//216
f 221//217 69//217 68//217
f 70//218 69//218 82//218
f 70//219 82//219 81//219
f 71//220 72//220 228//220
f 71//221 228//221 231//221
f 73//222 76//222 1//222
f 73//223 1//223 4//223
f 72//224 2//224 8//224
f 72//225 8//225 97//225
f 77//226 80//226 75//226
f 77//227 75//227 74//227
f 76//228 75//228 103//228
f 76//229 103//229 246//229
f 81//230 84//230 79//230
f 81//231 79//231 78//231
f 80//232 79//232 110//232
f 80//233 110//233 109//233
f 217//234 216//234 83//234
f 217//235 83//235 82//235
f 84//236 83//236 118//236
f 84//237 118//237 117//237
f 89//238 92//238 87//238
f 89//239 87//239 86//239
f 88//240 87//240 121//240
f 88//241 121//241 124//241
f 93//242 96//242 91//242
f 93//243 91//243 90//243
f 92//244 91//244 113//244
f 92//245 113//245 116//245
f 187//246 186//246 95//246
f 187//247 95//247 94//247
f 96//248 95//248 106//248
f 96//249 106//249 108//249
f 247//250 106//250 248//250
f 247//251 248//251 249//251
f 97//252 98//252 250//252
f 97//253 250//253 251//253
f 246//254 252//254 10//254
f 246//255 10//255 7//255
f 98//256 10//256 136//256
f 98//257 136//257 139//257
f 137//258 136//258 100//258
f 137//259 100//259 99//259
f 252//260 105//260 101//260
f 252//261 101//261 100//261
f 102//262 101//262 253//262
f 102//263 253//263 247//263
f 109//264 112//264 104//264
f 109//265 104//265 103//265
f 105//266 104//266 107//266
f 105//267 107//267 253//267
f 108//268 107//268 114//268
f 108//269 114//269 113//269
f 117//270 120//270 111//270
f 117//271 111//271 110//271
f 112//272 111//272 115//272
f 112//273 115//273 114//273
f 116//274 115//274 122//274
f 116//275 122//275 121//275
f 254//276 255//276 119//276
f 254//277 119//277 118//277
f 120//278 119//278 123//278
f 120//279 123//279 122//279
f 124//280 123//280 256//280
f 124//281 256//281 257//281
f 258//282 259//282 260//282
f 258//283 260//283 261//283
f 262//284 263//284 129//284
f 262//285 129//285 132//285
f 130//286 129//286 259//286
f 130//287 259//287 194//287
f 125//288 128//288 131//288
f 125//289 131//289 130//289
f 132//290 131//290 134//290
f 132//291 134//291 236//291
f 135//292 134//292 128//292
f 135//293 128//293 242//293
f 264//294 265//294 138//294
f 264//295 138//295 137//295
f 139//296 138//296 266//296
f 139//297 266//297 250//297
f 142//298 145//298 267//298
f 142//299 267//299 268//299
f 226//300 225//300 141//300
f 226//301 141//301 140//301
f 9//302 141//302 144//302
f 9//303 144//303 143//303
f 145//304 144//304 225//304
f 145//305 225//305 224//305
f 204//306 207//306 148//306
f 204//307 148//307 147//307
f 146//308 149//308 152//308
f 146//309 152//309 151//309
f 269//310 270//310 149//310
f 269//311 149//311 148//311
f 150//312 153//312 190//312
f 150//313 190//313 189//313
f 271//314 272//314 153//314
f 271//315 153//315 152//315
f 154//316 157//316 183//316
f 154//317 183//317 182//317
f 178//318 181//318 159//318
f 178//319 159//319 158//319
f 196//320 199//320 156//320
f 196//321 156//321 155//321
f 157//322 156//322 160//322
f 157//323 160//323 159//323
f 161//324 160//324 201//324
f 161//325 201//325 200//325
f 162//326 165//326 167//326
f 162//327 167//327 166//327
f 170//328 173//328 164//328
f 170//329 164//329 163//329
f 165//330 164//330 273//330
f 165//331 273//331 274//331
f 275//332 276//332 168//332
f 275//333 168//333 167//333
f 169//334 168//334 209//334
f 169//335 209//335 208//335
f 212//336 215//336 172//336
f 212//337 172//337 171//337
f 173//338 172//338 277//338
f 173//339 277//339 278//339
f 174//340 177//340 180//340
f 174//341 180//341 179//341
f 181//342 180//342 184//342
f 181//343 184//343 183//343
f 185//344 184//344 177//344
f 185//345 177//345 235//345
f 279//346 280//346 191//346
f 279//347 191//347 190//347
f 192//348 191//348 188//348
f 192//349 188//349 187//349
f 193//350 195//350 198//350
f 193//351 198//351 197//351
f 199//352 198//352 202//352
f 199//353 202//353 201//353
f 203//354 202//354 195//354
f 203//355 195//355 258//355
f 261//356 281//356 206//356
f 261//357 206//357 205//357
f 207//358 206//358 282//358
f 207//359 282//359 283//359
f 284//360 285//360 210//360
f 284//361 210//361 209//361
f 211//362 210//362 286//362
f 211//363 286//363 243//363
f 257//364 287//364 214//364
f 257//365 214//365 213//365
f 215//366 214//366 288//366
f 215//367 288//367 289//367
f 216//368 219//368 14//368
f 216//369 14//369 254//369
f 220//370 223//370 218//370
f 220//371 218//371 217//371
f 219//372 218//372 290//372
f 219//373 290//373 291//373
f 244//374 292//374 222//374
f 244//375 222//375 221//375
f 223//376 222//376 293//376
f 223//377 293//377 294//377
f 251//378 295//378 229//378
f 251//379 229//379 228//379
f 296//380 297//380 230//380
f 296//381 230//381 229//381
f 231//382 230//382 227//382
f 231//383 227//383 226//383
f 230//384 297//384 227//384
f 229//385 295//385 296//385
f 293//386 222//386 292//386
f 294//387 290//387 218//387
f 294//388 218//388 223//388
f 291//389 15//389 14//389
f 291//390 14//390 219//390
f 288//391 214//391 287//391
f 210//392 285//392 286//392
f 282//393 206//393 281//393
f 202//394 198//394 195//394
f 191//395 280//395 188//395
f 184//396 180//396 177//396
f 172//397 215//397 289//397
f 172//398 289//398 277//398
f 209//399 168//399 276//399
f 209//400 276//400 284//400
f 164//401 173//401 278//401
f 164//402 278//402 273//402
f 167//403 165//403 274//403
f 167//404 274//404 275//404
f 201//405 160//405 156//405
f 201//406 156//406 199//406
f 159//407 181//407 183//407
f 159//408 183//408 157//408
f 272//409 279//409 190//409
f 272//410 190//410 153//410
f 270//411 271//411 152//411
f 270//412 152//412 149//412
f 283//413 269//413 148//413
f 283//414 148//414 207//414
f 144//415 141//415 225//415
f 267//416 145//416 224//416
f 138//417 265//417 266//417
f 134//418 131//418 128//418
f 129//419 263//419 260//419
f 129//420 260//420 259//420
f 123//421 119//421 255//421
f 123//422 255//422 256//422
f 115//423 111//423 120//423
f 115//424 120//424 122//424
f 107//425 104//425 112//425
f 107//426 112//426 114//426
f 253//427 101//427 105//427
f 136//428 10//428 252//428
f 136//429 252//429 100//429
f 139//430 250//430 98//430
f 106//431 95//431 186//431
f 106//432 186//432 248//432
f 113//433 91//433 96//433
f 113//434 96//434 108//434
f 121//435 87//435 92//435
f 121//436 92//436 116//436
f 118//437 83//437 216//437
f 118//438 216//438 254//438
f 110//439 79//439 84//439
f 110//440 84//440 117//440
f 103//441 75//441 80//441
f 103//442 80//442 109//442
f 7//443 1//443 76//443
f 7//444 76//444 246//444
f 251//445 228//445 72//445
f 251//446 72//446 97//446
f 82//447 69//447 220//447
f 82//448 220//448 217//448
f 78//449 65//449 70//449
f 78//450 70//450 81//450
f 74//451 62//451 66//451
f 74//452 66//452 77//452
f 4//453 6//453 245//453
f 4//454 245//454 73//454
f 71//455 231//455 226//455
f 71//456 226//456 140//456
f 68//457 58//457 244//457
f 68//458 244//458 221//458
f 64//459 127//459 59//459
f 64//460 59//460 67//460
f 61//461 135//461 242//461
f 61//462 242//462 63//462
f 60//463 54//463 133//463
f 241//464 9//464 143//464
f 241//465 143//465 55//465
f 268//466 240//466 52//466
f 268//467 52//467 142//467
f 238//468 237//468 53//468
f 203//469 258//469 261//469
f 203//470 261//470 205//470
f 50//471 46//471 193//471
f 50//472 193//472 197//472
f 42//473 38//473 47//473
f 42//474 47//474 49//474
f 169//475 208//475 39//475
f 169//476 39//476 41//476
f 174//477 179//477 150//477
f 174//478 150//478 189//478
f 34//479 30//479 185//479
f 34//480 185//480 235//480
f 234//481 26//481 31//481
f 234//482 31//482 33//482
f 212//483 171//483 27//483
f 212//484 27//484 85//484
f 161//485 200//485 204//485
f 161//486 204//486 147//486
f 22//487 51//487 196//487
f 22//488 196//488 155//488
f 18//489 43//489 48//489
f 18//490 48//490 21//490
f 162//491 166//491 40//491
f 162//492 40//492 17//492
f 178//493 158//493 146//493
f 178//494 146//494 151//494
f 29//495 23//495 154//495
f 29//496 154//496 182//496
f 25//497 19//497 20//497
f 25//498 20//498 28//498
f 170//499 163//499 16//499
f 170//500 16//500 24//500
f 232//501 102//501 247//501
f 232//502 247//502 249//502
f 264//503 137//503 99//503
f 264//504 99//504 233//504
f 89//505 86//505 32//505
f 124//506 257//506 213//506
f 124//507 213//507 88//507
f 57//508 36//508 211//508
f 57//509 211//509 243//509
f 126//510 44//510 37//510
f 126//511 37//511 56//511
f 45//512 125//512 130//512
f 45//513 130//513 194//513
f 239//514 262//514 132//514
f 239//515 132//515 236//515
f 94//516 175//516 192//516
f 94//517 192//517 187//517
f 90//518 35//518 176//518
f 90//519 176//519 93//519
f 176//520 235//520 177//520
f 194//521 259//521 258//521
f 194//522 258//522 195//522
f 281//523 261//523 260//523
f 105//524 252//524 246//524
f 105//525 246//525 103//525
f 62//526 245//526 241//526
f 62//527 241//527 60//527
f 295//528 251//528 250//528
f 295//529 250//529 266//529
f 292//530 244//530 243//530
f 292//531 243//531 286//531
f 127//532 242//532 128//532
f 85//533 234//533 86//533
f 287//534 257//534 256//534
f 287//535 256//535 12//535
f 256//536 255//536 13//536
f 256//537 13//537 12//537
f 13//538 255//538 254//538
f 13//539 254//539 14//539
f 106//540 247//540 253//540
f 106//541 253//541 107//541
f 133//542 237//542 236//542
f 133//543 236//543 134//543
#543 polygons

