# Aspose.3D Wavefront OBJ Exporter
# Copyright 2004-2022 Aspose Pty Ltd.
# File created: 06/23/2022 13:45:08


#
# object obj_24262970
#

v 11.30290222167968752 6.83711242675781248 -1.23056793212890624
v 13.96684265136718752 7.43435668945312496 -1.22496795654296876
v 13.95255279541015632 7.26542663574218752 -2.69279479980468752
v 11.30738067626953124 6.65786743164062496 -3.00008392333984375
v 6.50949096679687504 4.27964782714843752 -7.45706939697265624
v 3.79653167724609376 3.71772766113281248 -7.87165069580078128
v 3.272430419921875 4.23956298828125 -6.30522155761718752
v 6.268310546875 4.95808410644531248 -5.82985687255859376
v 6.096038818359375 5.63514709472656248 -3.62811279296875
v 2.91555023193359376 4.91915893554687504 -3.9345626831054688
v 2.8763351440429688 5.1239166259765625 -1.350738525390625
v 6.0458984375 5.82899475097656256 -1.27454376220703124
v 3.14804840087890624 4.84855651855468752 1.45158004760742184
v 3.54386138916015624 4.66114807128906248 3.24574279785156248
v 6.26325988769531248 5.249969482421875 3.05750656127929688
v 6.12012481689453124 5.54045104980468752 1.23084259033203124
v 13.81053161621093744 7.238250732421875 0.30448913574218752
v 11.223907470703125 6.61163330078125 0.63362503051757816
v 11.08441162109375 6.33879089355468752 2.19305419921875
v 13.51836395263671872 6.968505859375 1.73393630981445312
v 2.82255554199218752 4.39140319824218752 3.07543182373046875
v 2.30545806884765624 4.5325927734375 1.29891204833984376
v 1.85978698730468752 4.276824951171875 1.23280334472656248
v 2.76457977294921872 4.20567321777343752 3.24910736083984376
v 1.79283142089843744 4.71885681152343752 -1.45914459228515624
v 1.77126312255859376 4.5118408203125 -3.9222412109375
v 1.18105316162109376 4.219970703125 -3.927001953125
v 1.22755432128906248 4.42306518554687504 -1.51600646972656248
v 2.244384765625 3.91632080078124992 -6.0926055908203125
v 2.83039855957031248 3.43341064453125 -7.56155395507812496
v 2.77241516113281248 3.1698150634765625 -7.68704986572265624
v 1.71664428710937504 3.65469360351562496 -5.99428558349609376
v 3.96096038818359376 4.38607788085937504 4.346893310546875
v 3.94163513183593744 4.2095947265625 4.53317260742187504
v 5.91423034667968752 4.58917236328125 4.92422103881835936
v 6.47671508789062496 4.9603271484375 4.20879745483398436
v 4.36209106445312496 3.024139404296875 -8.86746978759765632
v 6.8128585815429688 3.60005187988281248 -8.49799346923828128
v 6.98653411865234368 3.19166564941406248 -9.0461883544921875
v 4.3399658203125 2.761962890625 -9.0052947998046875
v 10.11379241943359376 5.63710021972656248 4.21580123901367188
v 10.72641754150390624 5.78974914550781248 4.17826461791992188
v 13.0981903076171875 6.63937377929687504 3.02949142456054687
v 10.88356018066406256 6.0214080810546875 3.44742965698242184
v 11.23819732666015624 6.070709228515625 -4.67800140380859376
v 13.7715988159179688 6.73040771484375008 -4.09563446044921876
v 13.43040466308593752 6.1331939697265625 -5.398193359375
v 11.09449005126953124 5.44801330566406248 -6.08392333984375
v 10.170654296875 4.20680236816406248 -8.01702880859375
v 10.87319946289062496 4.79702758789062496 -7.22344970703125
v 12.94076538085937504 5.49058532714843752 -6.58869934082031248
v 10.74321746826171872 4.35638427734375 -7.9187088012695312
v 1.81552886962890624 4.0799102783203125 1.25017547607421876
v 2.7536544799804688 4.01324462890625 3.28748321533203124
v 1.14183807373046876 4.0362091064453125 -3.94296264648437504
v 1.18329620361328124 4.24322509765625 -1.52413177490234376
v 2.79286956787109376 2.963623046875 -7.7086181640625
v 1.69618988037109376 3.45413208007812496 -6.0066070556640625
v 3.99934387207031248 4.038726806640625 4.59395980834960936
v 6.0069580078125 4.42892456054687504 4.99733352661132816
v 7.092132568359375 3.0328216552734375 -9.0929718017578125
v 4.42932891845703128 2.56698608398437504 -9.04955291748046875
v 6.80698394775390624 4.55667114257812496 5.03290939331054687
v 10.93846130371093744 5.86062622070312496 4.20879745483398436
v 14.0620880126953125 7.325653076171875 -2.70568084716796872
v 14.07384490966796875 7.49961853027343752 -1.22972869873046876
v 13.87831878662109376 6.776611328125 -4.13652801513671876
v 13.53713989257812496 6.1729583740234375 -5.45029449462890624
v 13.91585540771484368 7.29791259765625 0.33081817626953124
v 13.0323638916015625 5.5029296875 -6.67749786376953128
v 10.96115875244140624 4.41633605957031248 -7.93551635742187504
v 13.62061309814453128 7.02703857421875 1.77119827270507808
v 13.18194580078125 6.68614196777343752 3.11941146850585938
v 21.84408569335937504 8.50187683105468752 2.280731201171875
v 22.050537109375 8.51084899902343752 2.30482101440429688
v 22.57548522949218752 8.90859985351562496 -0.62551116943359376
v 22.36763000488281248 8.90301513671875008 -0.62998962402343752
v 22.8564453125 8.34275817871093752 -3.50710296630859376
v 22.65110778808593752 8.3455810546875 -3.49225616455078128
v 22.87856292724609376 6.80378723144531248 -6.37356567382812496
v 22.67576599121093752 6.81332397460937504 -6.33659362792968752
v 22.60096740722656248 5.29115295410156248 -8.45989990234375
v 21.48273468017578128 7.56880187988281248 4.92282104492187504
v 1.66033935546875 3.88606262207031248 1.30479812622070312
v 2.67716979980468752 3.82752990722656256 3.40177154541015624
v 4.06937408447265625 3.88746643066406256 4.77548217773437504
v 10.77346801757812496 -8.245361328125 0.90422439575195312
v 10.88356018066406256 -8.1613311767578125 -2.3978271484375
v 14.0309906005859375 -8.22126770019531248 -2.38578033447265624
v 13.95674896240234368 -8.29774475097656248 0.99918365478515632
v 17.61736297607421872 -7.88653564453124992 1.06277084350585938
v 17.57001495361328128 -7.88400268554687504 -2.2913818359375
v 21.00177001953125 -7.44085693359375 -2.27149963378906248
v 21.14517974853515624 -7.395751953125 1.07649993896484375
v 16.42740631103515624 0.70391845703125 8.41311264038085936
v 12.329254150390625 0.67448425292968752 7.6962852478027344
v 11.70711517333984376 -2.41802978515625 7.11195755004882812
v 15.54587554931640624 -2.52250671386718752 7.75006866455078128
v 13.9208984375 -7.66494750976562496 3.79085922241210944
v 14.45005035400390624 -5.74107360839843744 6.04050064086914062
v 10.93650054931640624 -5.67079162597656248 5.58082199096679688
v 10.62445831298828128 -7.61369323730468752 3.51157379150390624
v 17.57001495361328128 -7.20722961425781248 3.96425247192382816
v 21.20625305175781248 -6.80300903320312496 4.05276870727539062
v 21.64295196533203128 -4.99037170410156256 6.41669845581054688
v 18.01261138916015625 -5.33099365234375 6.25899124145507812
v 19.76980590820312496 0.86050415039062496 8.7156410217285156
v 18.94232940673828128 -2.2569580078125 7.95147705078124992
v 22.47267150878906248 -1.9471435546875 8.18425750732421876
v 23.20211029052734376 1.082061767578125 9.02181243896484375
v 7.47310638427734376 0.78401184082031248 6.55619812011718752
v 4.18113708496093752 0.98989868164062496 5.12842559814453124
v 4.39347076416015624 -1.42976379394531248 4.66651153564453128
v 7.41819763183593752 -1.94827270507812496 6.03069305419921875
v 2.45195770263671872 1.30335998535156248 3.41297912597656248
v 1.19141387939453124 1.51486206054687504 1.25885772705078124
v 1.352203369140625 -0.53311157226562496 1.039520263671875
v 2.62731170654296872 -0.8580322265625 3.02724838256835937
v 0.39419555664062496 1.62858581542968752 -1.33673858642578124
v 0.37123107910156248 1.26387023925781248 -3.73343658447265632
v 0.57179260253906248 -0.81040954589843744 -3.53286743164062496
v 0.56086730957031248 -0.45130920410156248 -1.28911590576171876
v 2.1760406494140625 -5.07830810546875 -1.28154754638671876
v 1.042388916015625 -3.1763153076171875 -1.27594757080078124
v 1.11746978759765624 -3.4354248046875 -3.30793762207031248
v 2.24831390380859376 -5.21726989746093752 -2.56394195556640624
v 1.12055206298828124 0.41677856445312496 -5.93378448486328128
v 2.62311553955078128 -0.27679443359375 -7.83718872070312496
v 2.87241363525390624 -2.29533386230468752 -7.51225280761718752
v 1.38469696044921872 -1.60765075683593752 -5.700439453125
v 4.88114929199218752 -0.82218933105468752 -9.45264434814453128
v 8.15267181396484376 -1.23985290527343752 -10.47087860107421872
v 7.97703552246093744 -3.38639831542968752 -9.92100524902343744
v 5.0405426025390625 -2.86509704589843744 -8.96831512451171872
v 12.440185546875 -1.54574584960937504 -10.9647293090820312
v 16.41704559326171872 -1.49026489257812496 -11.34513092041015624
v 15.32682037353515624 -3.94020080566406256 -10.77677154541015632
v 11.68442535400390624 -3.87605285644531248 -10.43754577636718752
v 10.9555587768554688 -7.36103820800781248 -6.39793395996093752
v 11.2255859375 -5.93128967285156256 -9.07392120361328125
v 14.58001708984375 -6.031280517578125 -9.26552581787109376
v 14.144439697265625 -7.44784545898437504 -6.41726684570312496
v 20.02666473388671875 -0.97933959960937504 -11.21319580078125
v 23.268218994140625 -0.71238708496093752 -11.16921234130859376
v 22.13233184814453124 -3.27464294433593752 -10.5198974609375
v 18.86473083496093744 -3.52001953125 -10.62354278564453128
v 17.43668365478515624 -7.23075866699218752 -6.25508117675781248
v 17.8764724731445312 -5.79486083984375008 -9.101654052734375
v 21.16535186767578124 -5.60354614257812496 -8.93386077880859376
v 20.79000091552734368 -6.97640991210937504 -6.13294219970703124
v 14.301300048828125 2.87118530273437504 -10.0775909423828125
v 16.0957489013671875 4.05889892578125 -8.86775207519531248
v 18.78545379638671872 3.6488037109375 -9.79326629638671872
v 24.58169555664062496 2.093017578125 -10.87480926513671872
v 21.37824249267578128 1.84091186523437504 -10.86696624755859376
v 22.22477722167968752 4.013519287109375 -9.96414184570312496
v 25.32485198974609376 4.1642303466796875 -10.14202117919921876
v 16.60948944091796872 5.70040893554687504 -6.96826171875
v 16.8565597534179688 7.1200408935546875 -5.027313232421875
v 19.42721557617187504 7.105499267578125 -5.71949005126953128
v 19.23253631591796876 5.47239685058593752 -7.85820007324218752
v 25.50609588623046872 5.47798156738281248 -9.068603515625
v 25.51617431640625 6.86541748046875008 -6.92427825927734368
v 16.8442306518554688 8.32176208496093752 -3.03453826904296875
v 16.65962982177734376 8.67945861816406248 -0.92887878417968752
v 19.109832763671875 9.0469970703125 -0.75576782226562496
v 19.36811065673828128 8.57528686523437504 -3.28469085693359376
v 25.52906036376953128 8.41616821289062496 -3.78330230712890624
v 25.30245208740234376 9.056243896484375 -0.61682891845703128
v 15.32738494873046876 6.345245361328125 5.55141067504882816
v 13.49736022949218752 5.42167663574218752 6.65704345703125
v 12.80462646484375008 3.61015319824218752 7.33436965942382812
v 17.092132568359375 3.93229675292968752 8.0369110107421875
v 16.30528259277343752 8.186187744140625 1.28630447387695312
v 15.861572265625 7.40827941894531248 3.44239044189453128
v 18.17731475830078124 7.57887268066406248 4.346893310546875
v 18.65464782714843752 8.52177429199218752 1.86895370483398432
v 24.85733032226562496 8.79208374023437504 2.59642791748046872
v 24.59150695800781248 7.94387817382812496 5.36764907836914064
v 23.8211746215820312 4.0927886962890625 8.92657470703124992
v 24.28729248046875 6.38221740722656248 7.70973205566406248
v 21.06171417236328125 6.34468078613281248 7.31952667236328124
v 20.49587249755859376 4.0236053466796875 8.55485534667968752
v 7.68682861328125 -7.0660400390625 3.1126861572265625
v 7.46890258789062496 -5.1365814208984375 4.86763763427734368
v 4.82036590576171872 -4.47186279296875 3.8177452087402344
v 5.50834655761718752 -6.373046875 2.86478042602539056
v 1.72476196289062496 -3.240753173828125 0.7336311340332032
v 2.80406188964843744 -5.1413421630859375 0.56864166259765624
v 3.63854217529296872 -5.46377563476562496 1.60676193237304688
v 2.9819412231445312 -3.67716979980468752 2.43339920043945312
v 5.1794891357421875 -5.0701904296875 -8.020111083984375
v 7.8165283203125 -5.52650451660156248 -8.72881317138671872
v 7.86695861816406256 -6.96269226074218752 -6.201568603515625
v 5.67726135253906248 -6.48985290527343752 -6.43295288085937504
v 1.95558166503906256 -4.014984130859375 -5.35365295410156248
v 3.30660247802734376 -4.55926513671875 -6.92652893066406256
v 3.95423889160156256 -6.0072021484375 -5.52031707763671872
v 3.0965118408203125 -5.68925476074218752 -4.55446624755859376
v 8.06695556640625 -7.72993469238281248 0.76780319213867184
v 6.0077972412109375 -7.055694580078125 0.64875411987304688
v 6.10332489013671876 -7.19013977050781248 -2.63452911376953128
v 8.1271820068359375 -7.69827270507812496 -2.33956146240234376
v 24.66909027099609376 -6.90582275390624992 1.01795196533203125
v 24.47077178955078128 -6.98284912109375008 -2.34180450439453124
v 26.72321319580078128 -6.38677978515625 -2.40454864501953128
v 26.97392272949218752 -6.32038879394531248 0.92775344848632816
v 24.31755065917968752 -6.77500915527343744 -6.11417388916015624
v 24.51279449462890624 -5.53518676757812496 -8.93049621582031248
v 26.67363739013671872 -5.20381164550781248 -8.58847045898437504
v 26.58007049560546872 -6.31028747558593752 -6.0346221923828125
v 25.38816833496093752 -4.71163940429687504 6.54331588745117184
v 24.92288970947265632 -6.513671875 4.05025100708007812
v 27.44759368896484376 -6.087890625 3.88133239746093744
v 27.85433197021484368 -4.45086669921875 6.25535202026367188
v 25.155670166015625 -3.211883544921875 -10.53502655029296872
v 26.15848541259765624 -0.69586181640625 -11.24176788330078124
v 27.58261871337890624 -1.0185546875 -10.96977233886718752
v 27.0487060546875 -3.0175018310546875 -10.150146484375
v 28.314849853515625 5.64634704589843752 7.65763092041015624
v 26.96971130371093744 6.213592529296875 7.82205963134765632
v 27.0038909912109375 4.1163330078125 9.09296417236328124
v 28.37367248535156248 3.61491394042968752 9.22266006469726564
v 26.17193603515625 -1.59867858886718752 8.44056701660156248
v 28.24089813232421876 -1.27064514160156248 8.167449951171875
v 28.58824920654296872 1.130523681640625 9.11789321899414062
v 26.72853088378906256 1.34931945800781248 9.28792572021484376
v 7.40671539306640624 2.76641845703124992 -9.42098999023437504
v 4.70104217529296872 1.058258056640625 -9.46468353271484376
v 4.57639312744140624 2.1126251220703125 -9.37393188476562496
v 7.23387908935546876 2.90396118164062496 -9.211456298828125
v 4.50663757324218752 2.349884033203125 -9.17252349853515624
v 4.18141174316406248 2.79246520996093744 5.20097732543945312
v 6.9744873046875 4.51577758789062496 5.31526947021484376
v 4.144439697265625 3.75747680664062496 5.08333206176757812
v 1.24436950683593752 2.89779663085937504 1.38658905029296872
v 2.457275390625 2.80453491210937504 3.59589385986328128
v 2.5323486328125 3.64797973632812496 3.59113311767578128
v 1.40234375 3.68942260742187504 1.40003585815429688
v 0.51885986328125 2.78883361816406256 -3.90627288818359376
v 0.54798889160156248 3.0681304931640625 -1.42413330078125
v 0.75947570800781248 3.87568664550781248 -1.48435974121093752
v 0.72586059570312496 3.64823913574218752 -3.98386383056640624
v 2.55308532714843752 1.488525390625 -7.91030883789062496
v 1.16144561767578124 2.0641632080078125 -6.05646514892578125
v 1.30543518066406248 3.00537109375 -6.093170166015625
v 2.58837890625 2.49443054199218752 -7.8881759643554688
v 2.72872161865234368 2.74150085449218752 -7.77584838867187504
v 1.55641174316406248 3.23646545410156248 -6.04050445556640625
v 0.99057006835937504 3.847412109375 -3.9611740112304688
v 1.0250244140625 4.061981201171875 -1.51461029052734376
v 15.10132598876953124 8.07440185546875 -1.1510162353515625
v 15.1677093505859375 7.84751892089843744 -2.83257293701171872
v 14.22511291503906248 7.49624633789062496 -2.72612762451171872
v 14.22734832763671876 7.66348266601562496 -1.25325775146484376
v 28.49637603759765624 7.23265075683593752 5.34188079833984376
v 28.77201080322265632 8.23016357421875 2.67710494995117184
v 27.208099365234375 8.74249267578124992 2.63620376586914064
v 26.96720123291015632 7.78926086425781248 5.4656944274902344
v 27.67897796630859376 9.075836181640625 -0.64848327636718752
v 28.98041534423828128 8.58087158203125 -0.50337982177734376
v 28.95352172851562496 8.1663055419921875 -3.73287963867187504
v 27.76105499267578128 8.42764282226562496 -3.86761474609375008
v 28.42437744140625 1.85353088378906256 -10.92887878417968752
v 27.41090393066406248 2.073974609375 -10.91570281982421872
v 27.62800598144531248 4.0922393798828125 -10.16722869873046876
v 28.63698577880859376 4.4832763671875 -9.94341278076171872
v 27.49269866943359376 6.77774047851562496 -7.0128021240234375
v 28.49833679199218752 6.50462341308593752 -6.75676727294921872
v 28.35210418701171876 5.428955078125 -8.7531814575195312
v 27.4478759765625 5.33848571777343752 -9.10333251953125
v 14.8769454956054688 7.76852416992187504 0.60701751708984376
v 14.06627655029296875 7.45674133300781248 0.28179931640625
v 13.75199127197265632 7.1729888916015625 1.73001861572265632
v 14.51083374023437504 7.315582275390625 2.29642105102539064
v 12.19703674316406248 6.0169525146484375 4.78780364990234368
v 14.0077362060546875 6.71134948730468752 3.91719055175781248
v 13.28138732910156248 6.81137084960937504 3.09420013427734376
v 11.0250244140625 5.92366027832031248 4.290313720703125
v 14.0587158203125 6.95478820800781248 -4.13401031494140624
v 15.066864013671875 7.0872802734375 -4.43933868408203128
v 14.74501037597656256 6.196197509765625 -5.97355651855468752
v 13.7080078125 6.338226318359375 -5.46177673339843752
v 12.4012451171875 4.2998046875 -8.39379119873046872
v 11.07544708251953125 4.44882202148437504 -8.02907562255859375
v 13.17633819580078124 5.63877868652343752 -6.70942687988281248
v 14.21026611328125 5.1701202392578125 -7.44978332519531248
v 7.63108825683593752 3.05718994140625 6.44443130493164064
v 13.48307037353515624 1.05181884765625 -10.68965148925781248
v 17.84649658203124992 1.3070068359375 -11.03531646728515625
v 8.34484100341796876 0.91708374023437504 -10.37507629394531248
v 5.24559020996093752 -6.87222290039062496 -1.66867828369140624
v 5.17331695556640624 -6.73326110839843744 -0.38656616210937504
v 8.16584014892578124 4.54377746582031248 5.89595794677734368
v 8.73419952392578128 2.52384948730468752 -9.82379913330078128
v 17.67758178710937504 6.2261962890625 6.6788902282714844
# 296 vertices

vn -0.21723014116287232 0.96995735168457024 -0.1095161810517311
vn -0.21181555092334748 0.97227996587753296 -0.0990242138504982
vn -0.13747495412826538 0.92502617835998528 -0.35415720939636232
vn -0.15336430072784424 0.90379142761230464 -0.39955034852027896
vn -0.21153214573860168 0.97405838966369632 -0.08040068298578262
vn -0.21442349255084992 0.97306030988693232 -0.08471250534057617
vn -0.19976025819778444 0.9690136909484864 0.14528730511665344
vn -0.21148046851158144 0.96254801750183104 0.16963861882686614
vn -0.2147638499736786 0.9651325941085816 0.14965121448040008
vn -0.223954439163208 0.96501743793487552 0.136329784989357
vn -0.5099050402641296 0.83302640914916992 0.21462482213974
vn -0.7456266283988952 0.5642420053482056 0.35450226068496704
vn -0.44168865680694584 0.89433085918426512 -0.07129818946123123
vn -0.4574130475521088 0.88681066036224368 -0.06587988883256912
vn -0.80366188287734992 0.390547513961792 -0.44899898767471312
vn -0.45800605416297912 0.73716294765472416 -0.49681103229522704
vn -0.26581180095672608 0.71343851089477536 0.64834362268447872
vn -0.1930837780237198 0.9247541427612304 0.32794588804244996
vn -0.09184335172176362 0.784385085105896 -0.61343693733215336
vn -0.08977990597486496 0.46936291456222536 -0.87842929363250736
vn -0.22043317556381224 0.94453012943267824 0.2434585839509964
vn -0.21459406614303588 0.9424505233764648 0.25639098882675172
vn -0.15058556199073792 0.9129968881607056 -0.37915781140327456
vn -0.1530783325433731 0.90925443172454832 -0.38707023859024048
vn -0.1243990957736969 0.84574031829833984 -0.51889127492904664
vn -0.1368776559829712 0.85393488407135008 -0.50205558538436888
vn -0.11208818852901458 0.9111636281013488 -0.39650622010231016
vn -0.1150161623954773 0.91256380081176752 -0.39242663979530336
vn -0.18697725236415864 0.9787152409553528 -0.08459354937076569
vn -0.18004882335662842 0.97860372066497808 -0.09958435595035552
vn -0.09469563513994216 0.79086565971374512 -0.604619026184082
vn -0.08457345515489578 0.82287895679473872 -0.56188738346099856
vn -0.34992417693138124 0.83954471349716192 -0.415593296289444
vn -0.37510964274406432 0.83454316854476928 -0.40352258086204528
vn -0.17813770473003388 0.93847739696502688 -0.29584991931915284
vn -0.18158088624477388 0.93585658073425296 -0.30199474096298216
vn -0.34251311421394348 0.93645775318145744 -0.07570725679397583
vn -0.3350447416305542 0.93884354829788208 -0.07948460429906845
vn -0.2183343321084976 0.96890997886657712 0.11637630313634872
vn -0.2168269157409668 0.96904867887496944 0.11802857369184494
vn -0.38200098276138304 0.9058255553245544 0.18318110704421996
vn -0.37357646226882936 0.91045510768890384 0.17751644551753998
vn -0.1997317224740982 0.94084006547927856 0.27372828125953676
vn -0.18165461719036104 0.93566614389419552 0.30253979563713072
vn -0.18827725946903228 0.96753364801406864 0.1686132401227951
vn -0.18577829003334044 0.97057580947875984 0.15319642424583436
vn -0.5596041679382324 0.652492880821228 0.51097577810287472
vn -0.58404713869094848 0.61864310503005984 0.525518536567688
vn -0.47021925449371336 0.86894226074218752 0.15438036620616912
vn -0.5088239312171936 0.8473811149597168 0.15180014073848724
vn -0.88382554054260256 0.23436568677425384 0.40487670898437504
vn -0.89840966463088992 0.13438746333122254 0.41809108853340152
vn -0.46772459149360656 0.81425791978836064 -0.34382823109626772
vn -0.41727542877197264 0.8490841388702392 -0.32394036650657652
vn -0.97800117731094368 0.20859524607658388 0.00129143486265093
vn -0.97098052501678464 0.23912818729877472 -0.00382346822880208
vn -0.51136785745620728 0.43329086899757384 -0.742133378982544
vn -0.50204592943191528 0.45931205153465272 -0.73279082775115968
vn -0.85193145275115968 -0.02982555143535137 -0.52280324697494504
vn -0.8189020156860352 0.11802225559949874 -0.56166738271713256
vn -0.2415800392627716 0.28361085057258604 0.92801076173782352
vn -0.2349286824464798 0.25440055131912232 0.93813049793243408
vn -0.1724521815776825 0.92322969436645504 0.34337615966796876
vn -0.17538751661777496 0.93951356410980224 0.29419982433319092
vn -0.09186290949583054 0.83623343706130976 -0.54062443971633912
vn -0.04404149577021599 0.79442083835601808 -0.60576885938644408
vn -0.0552312545478344 0.2481321543455124 -0.96715044975280768
vn -0.05075373500585556 0.19889621436595916 -0.9787054657936096
vn -0.2219868153333664 0.96973645687103264 0.10165181010961532
vn -0.21769961714744568 0.97001087665557856 0.10810044407844544
vn -0.24158988893032072 0.97037297487258912 0.00325946486555039
vn 0.03246640041470527 0.43035531044006344 0.90207552909851072
vn -0.17451894283294678 0.9273004531860352 -0.33114504814147948
vn -0.16939853131771088 0.93239361047744752 -0.31929045915603636
vn -0.23567736148834228 0.95741122961044304 0.1667928695678711
vn -0.20791897177696228 0.95566374063491824 0.20851047337055208
vn -0.13715164363384246 0.89415442943572992 -0.42623603343963624
vn -0.14822418987751008 0.87083178758621216 -0.46870213747024536
vn -0.63100820779800416 0.01852874830365181 -0.77555489540100096
vn -0.65796649456024168 -0.13332875072956086 -0.74115014076232912
vn -0.9235082864761352 0.2241162657737732 -0.31129464507102968
vn -0.9536499381065368 0.11435852199792862 -0.27834141254425048
vn -0.94519299268722528 0.2326505035161972 0.2290940135717392
vn -0.94740861654281616 0.22277383506298064 0.22975803911685944
vn -0.72375315427780144 0.00105245306622236 0.69005811214447024
vn -0.72619080543518064 0.17387861013412476 0.66514140367507936
vn -0.16593094170093536 0.94862031936645504 0.26941880583763124
vn -0.19414956867694856 0.95794636011123664 0.21129278838634492
vn -0.4002947211265564 0.84188503026962288 0.36193054914474488
vn -0.35854846239089964 0.92454373836517328 0.12908028066158294
vn -0.36827671527862552 0.92110878229141232 0.12621773779392242
vn -0.34355467557907104 0.88386589288711552 -0.31741350889205932
vn -0.32224366068840028 0.89604783058166496 -0.30538043379783632
vn -0.39920264482498168 0.63037753105163576 -0.66577881574630736
vn -0.18797299265861512 0.97507607936859136 0.1178678646683693
vn -0.19183614850044252 0.97526198625564576 0.1098315343260765
vn -0.14135116338729858 0.94306933879852288 -0.30106505751609804
vn -0.14490056037902832 0.93576413393020624 -0.32148000597953796
vn -0.10724309831857682 0.87211924791336064 -0.47739598155021664
vn -0.04528559371829033 0.83038914203643792 -0.5553404688835144
vn -0.15653543174266816 0.83217436075210576 0.5319610238075256
vn -0.29628264904022216 0.94527041912078864 -0.1366758942604065
vn 0.17183879017829896 0.38171446323394776 -0.90816599130630496
vn -0.11949735879898072 0.82270854711532592 -0.55576169490814208
vn -0.48819199204444888 0.8675402998924256 -0.09509120881557464
vn -0.52141219377517704 0.84791165590286256 -0.09578707069158554
vn -0.46624344587326048 0.84493726491928096 -0.26210322976112364
vn -0.48866021633148192 0.8337170481681824 -0.25715169310569764
vn -0.44978117942810056 0.85064917802810672 -0.27220013737678528
vn -0.46705317497253416 0.84322190284729008 -0.26615434885025024
vn -0.51803910732269288 0.85348945856094368 0.05649006739258766
vn -0.5033734440803528 0.8619518876075744 0.06044872477650642
vn -0.40622931718826296 0.86346668004989632 -0.29900339245796204
vn -0.45137602090835568 0.84812194108963008 -0.27739667892456056
vn -0.274140864610672 0.90677571296691888 -0.32031971216201784
vn -0.34163290262222292 0.91236168146133424 -0.2255728989839554
vn -0.50327253341674808 0.86205542087554928 0.05980988219380379
vn -0.51142489910125736 0.85747355222702032 0.05642475932836533
vn -0.5104631781578064 0.858295738697052 0.05249446257948875
vn -0.52334105968475344 0.850940465927124 0.04488162323832512
vn -0.3848973512649536 0.91543477773666384 -0.11761514842510224
vn -0.32315510511398316 0.9449927806854248 0.0505911223590374
vn -0.05753684416413307 0.99059367179870608 0.12415166199207306
vn -0.02945239283144474 0.99090993404388432 0.13126380741596222
vn -0.02215193770825863 0.98060935735702512 -0.19471646845340728
vn -0.0003300625248812139 0.98155248165130608 -0.1911926567554474
vn -0.0220947228372097 0.88076281547546384 -0.4730419218540192
vn -0.04508033767342567 0.87932360172271728 -0.4740862548351288
vn -0.0675068199634552 0.81200283765792848 -0.57973635196685792
vn -0.07861503213644028 0.94333535432815552 0.32239440083503724
vn -0.68632221221923832 0.64444655179977416 0.33712083101272584
vn -0.75009208917617792 0.54206275939941408 0.37885311245918272
vn -0.26914879679679872 0.68628072738647464 0.67570531368255616
vn 0.04217191785573959 -0.50430101156234744 0.86249750852584832
vn -0.01893334835767746 -0.9994809031486512 -0.02606589905917644
vn -0.01576540246605873 -0.99961274862289424 -0.0229301955550909
vn 0.12808175384998322 -0.99176031351089472 -0.00255698151886463
vn 0.1377590149641037 -0.9904378056526184 0.00744256982579827
vn -0.16930429637432098 -0.14999222755432128 0.97408336400985712
vn -0.16610006988048554 -0.15475623309612274 0.97388976812362672
vn -0.10126623511314392 -0.74419140815734864 0.66024553775787352
vn -0.06954905390739441 -0.72199267148971552 0.68839639425277712
vn 0.0741419717669487 -0.79794180393218992 0.5981570482254028
vn 0.04572675749659538 -0.77766251564025872 0.62701678276062008
vn -0.04425465688109398 -0.22674599289894104 0.97294795513153072
vn -0.06999371200799942 -0.25014781951904296 0.96567434072494512
vn -0.40019491314888 -0.20560538768768312 0.89306801557540896
vn -0.42866593599319456 -0.16232243180274964 0.88876146078109744
vn -0.8619132041931152 -0.12042198330163956 0.49254876375198368
vn -0.84252846240997312 -0.16013798117637634 0.51429718732833864
vn -0.9952934384346008 -0.09393040090799332 0.02383040264248848
vn -0.99678784608840944 -0.07969637215137482 0.00790140777826309
vn -0.85846567153930672 -0.51177316904067992 0.03353900089859962
vn -0.84616738557815552 -0.5328224301338196 0.01004893239587545
vn -0.8031004667282104 -0.1900905817747116 -0.5647079944610596
vn -0.79229974746704096 -0.17089000344276428 -0.58571124076843264
vn -0.3149608075618744 -0.21125854551792144 -0.92529428005218512
vn -0.33802783489227296 -0.2419947534799576 -0.90949207544326784
vn -0.0909712240099907 -0.186459481716156 -0.97824186086654656
vn -0.09435877948999404 -0.19045767188072204 -0.97715014219284064
vn -0.05330473184585571 -0.87850344181060784 -0.47475290298461912
vn -0.02703867107629776 -0.89339417219161984 -0.4484592974185944
vn 0.0344933345913887 -0.25984579324722292 -0.9650338292121888
vn 0.04925281926989555 -0.2471207231283188 -0.96773213148117072
vn 0.07450296729803085 -0.89493918418884272 -0.4399240016937256
vn 0.08384547382593155 -0.89917075634002688 -0.42949035763740536
vn -0.09539525955915452 0.7774174809455872 -0.62170875072479248
vn -0.0332992784678936 0.39455947279930112 -0.91826689243316656
vn -0.07075081020593643 0.35516706109046936 -0.93212163448333744
vn -0.14926140010356904 0.80705988407135008 -0.57129281759262088
vn -0.13251253962516784 0.79355704784393312 -0.59389191865921024
vn -0.17005783319473266 0.8084250092506408 -0.56349748373031616
vn -0.13179515302181244 0.83254116773605344 -0.5380569696426392
vn -0.13372576236724854 0.97501951456069952 -0.17735394835472106
vn -0.11703801900148392 0.97406613826751712 -0.1936418265104294
vn -0.047247264534235 0.97928386926651008 -0.19690304994583128
vn -0.05231502652168274 0.97809898853302 -0.20145833492279052
vn 0.45215743780136112 0.15548168122768402 0.87828189134597776
vn -0.17060653865337372 0.64368611574172976 0.74603044986724848
vn -0.18588183820247652 0.93584698438644416 0.29939687252044676
vn -0.20977270603179932 0.92657703161239632 0.31217047572135924
vn -0.12671834230422974 0.94179034233093264 0.31140559911727904
vn -0.15392312407493592 0.9488525390625 0.27565667033195496
vn -0.1106460988521576 0.4839205741882324 0.86808884143829344
vn -0.10701587051153182 0.48733130097389224 0.86663472652435296
vn -0.41691026091575624 -0.63691598176956176 0.64847803115844728
vn -0.2545935809612274 -0.50539565086364744 0.82447397708892816
vn -0.75402694940567024 -0.46818736195564272 0.46069931983947752
vn -0.75917804241180416 -0.48159566521644592 0.43785178661346432
vn -0.27185773849487304 -0.83899480104446416 -0.47136083245277408
vn -0.0950142964720726 -0.75659132003784176 -0.64694803953170776
vn -0.67454808950424192 -0.64698660373687744 -0.35551822185516356
vn -0.6679280996322632 -0.63803601264953616 -0.3831214904785156
vn -0.31259486079216004 -0.94941955804824832 0.02978221327066421
vn -0.24149012565612792 -0.97029399871826176 -0.0145671758800745
vn 0.25600349903106688 -0.96665018796920784 0.00705031072720885
vn 0.24621412158012392 -0.9692150950431824 0.00078591605415567
vn 0.19898298382759096 -0.90194869041442864 -0.3832679092884064
vn 0.19873636960983276 -0.90191292762756352 -0.3834799826145172
vn 0.17429432272911072 -0.81320226192474368 0.5552688837051392
vn 0.15078029036521912 -0.82572275400161744 0.54355055093765256
vn 0.11031777411699296 -0.30928951501846312 -0.94454753398895264
vn 0.2220318764448166 -0.42008909583091736 -0.87990170717239376
vn 0.30859655141830444 0.49663254618644712 0.81124860048294064
vn 0.1479438692331314 0.60626465082168576 0.78138071298599248
vn 0.18046565353870392 -0.38445875048637392 0.90533059835433952
vn 0.05393344908952713 -0.28524041175842284 0.95693737268447872
vn -0.03539753332734108 0.08154661953449249 -0.99604076147079472
vn -0.1310548335313797 0.5890387296676636 -0.79740703105926512
vn -0.09563101828098298 0.4645908772945404 -0.88034659624099728
vn -0.11197151243686676 0.11602557450532914 0.98691463470458992
vn -0.87231594324111936 0.08036523312330246 0.48229292035102848
vn -0.87501192092895504 0.16689549386501312 0.45442274212837216
vn -0.96754717826843264 0.25211715698242188 -0.01701428182423114
vn -0.97233134508132928 0.23346316814422608 -0.00816785544157028
vn -0.78161281347274784 0.09553567320108414 -0.61640441417694088
vn -0.80727362632751472 0.0412781573832035 -0.58873200416564944
vn -0.71074253320693968 0.383710652589798 -0.58958560228347776
vn -0.65115916728973392 0.50621145963668824 -0.56545704603195192
vn -0.77786630392074592 0.62713366746902464 -0.04034090414643287
vn -0.75361907482147216 0.65563696622848512 -0.04688780009746552
vn -0.35954400897026064 0.92276287078857424 -0.13869699835777282
vn -0.41345709562301632 0.90478050708770752 -0.10210534185171128
vn 0.2816670536994934 0.8886871933937072 0.36179932951927184
vn 0.34655755758285524 0.87961673736572272 0.32584086060523988
vn 0.364655077457428 0.92317593097686768 -0.12154337018728256
vn 0.23037643730640412 0.95507484674453728 -0.18643678724765776
vn 0.06201469898223877 0.3411695957183838 -0.93795388936996464
vn 0.07399236410856247 0.3446955680847168 -0.93579387664794928
vn 0.34036776423454284 0.81714707612991328 -0.46521008014678952
vn 0.13679802417755126 0.81455534696578976 -0.56372499465942384
vn -0.39023792743682864 0.9158255457878112 0.0947520136833191
vn -0.31147477030754088 0.93255966901779168 0.18252640962600708
vn -0.21222487092018128 0.92992871999740608 0.30032190680503844
vn -0.20381709933280944 0.93003845214843744 0.305756539106369
vn -0.24832522869110108 0.85936093330383296 -0.447027325630188
vn -0.0743832141160965 0.91183114051818848 -0.40377101302146912
vn -0.07520399987697601 0.79714864492416384 -0.5990813374519348
vn -0.06944035738706589 0.79622638225555424 -0.60100042819976808
vn -0.01104909181594848 0.10947730392217636 -0.99392789602279664
vn 0.00357449078001081 0.12016213685274124 -0.99274784326553344
vn -0.17072759568691254 0.14774468541145324 0.97417843341827392
vn -0.1714179664850235 0.14878319203853608 0.97389912605285648
vn -0.39304360747337344 0.07238613069057465 0.91666620969772336
vn -0.33628588914871216 -0.03782319277524948 0.94100010395050048
vn -0.09196244180202484 0.05036771669983864 0.99448782205581664
vn -0.1123352125287056 0.07614711672067642 0.99074846506118768
vn -0.09621724486351014 0.14294424653053284 -0.98504275083541872
vn -0.08695124089717865 0.15345311164855958 -0.98432296514511104
vn -0.30106246471405028 -0.03493660315871238 -0.9529642462730408
vn -0.23954527080059052 0.0643698126077652 -0.96874898672103888
vn -0.80679303407669072 -0.05636639520525932 -0.58813941478729248
vn -0.78924334049224848 -0.02609760127961635 -0.61352580785751344
vn -0.99436211585998528 0.10583307594060898 -0.00657736836001277
vn -0.99533742666244512 0.09645053744316102 0.00082786247367039
vn -0.87672764062881472 -0.01084204856306314 0.48086482286453248
vn -0.86410528421401984 -0.05785974860191345 0.49997419118881224
vn -0.02263015136122703 -0.97507190704345696 0.22073176503181456
vn -0.03488577157258987 -0.97174853086471552 0.23342643678188324
vn 0.13452868163585662 -0.97234946489334112 0.19088906049728392
vn 0.10207240283489228 -0.96821415424346928 0.22834770381450652
vn -0.49729105830192568 -0.86509132385253904 0.0657159760594368
vn -0.4972891807556152 -0.86509132385253904 0.0657305121421814
vn -0.16593177616596222 -0.98604804277420048 -0.01326324045658111
vn -0.18546956777572632 -0.98215520381927488 -0.03117739595472812
vn -0.02786637842655182 -0.98156374692916864 -0.1890926957130432
vn -0.01791681721806526 -0.98034840822219856 -0.19645874202251436
vn 0.09538837522268296 -0.99523121118545536 -0.02039329148828983
vn 0.11167086660861968 -0.99374258518218992 -0.00232681445777416
vn 0.0795210599899292 -0.98917359113693232 -0.1233370304107666
vn 0.12724527716636658 -0.97797381877899168 -0.1654568612575531
vn 0.13104309141635894 -0.9913464188575744 0.00774247618392109
vn 0.13792823255062104 -0.9903351664543152 0.01456302404403686
vn -0.04333140701055526 -0.1897355765104294 0.98087859153747552
vn -0.07785362750291824 -0.21781130135059356 0.9728808403015136
vn 0.05114444345235825 -0.77796661853790288 0.62622052431106568
vn 0.06568223983049393 -0.76592653989791872 0.6395641565322876
vn -0.25880634784698488 -0.17741712927818298 0.9494958519935608
vn -0.22934044897556304 -0.1359717845916748 0.96380221843719488
vn -0.16136613488197326 -0.38875874876976016 0.90709847211837776
vn -0.12549783289432526 -0.43172049522399904 0.89323443174362176
vn -0.24639786779880524 -0.68771892786026 0.68288415670394896
vn -0.22111834585666656 -0.66975575685501096 0.708896279335022
vn 0.04091640189290046 -0.81338113546371456 0.58029043674468992
vn 0.06249502673745155 -0.7975493669509888 0.60000783205032352
vn 0.00979645363986492 -0.50421845912933352 0.86352050304412848
vn -0.01589060202240944 -0.47855192422866824 0.87791544198989872
vn -0.04272083193063736 -0.25668123364448548 0.96555149555206304
vn -0.05240761488676071 -0.26671817898750304 0.96234863996505744
vn -0.69985163211822512 -0.1801336407661438 0.69120150804519656
vn -0.70850992202758792 -0.19182033836841584 0.67913079261779784
vn -0.43443411588668824 -0.29810339212417604 0.84994196891784672
vn -0.41721862554550168 -0.31729474663734436 0.85161763429641728
vn -0.94533145427703856 -0.068453349173069 0.31884551048278808
vn -0.9518753290176392 -0.10554972290992736 0.28773695230484008
vn -0.84157550334930416 -0.17358091473579406 0.51148843765258792
vn -0.81066840887069696 -0.21656621992588044 0.54398149251937864
vn -0.82830190658569328 -0.49341571331024168 0.26543682813644408
vn -0.82811635732650752 -0.49436324834823608 0.2642502784729004
vn -0.94230610132217408 -0.15702743828296662 -0.29563766717910768
vn -0.95297068357467648 -0.11908934265375138 -0.27868381142616272
vn -0.97916704416275024 -0.20119453966617584 0.02743233554065227
vn -0.98463320732116704 -0.1740579605102539 -0.0141866048797965
vn -0.80029237270355232 -0.57659798860549928 -0.16452033817768096
vn -0.76961570978164672 -0.61175382137298584 -0.18289048969745636
vn -0.58351182937622072 -0.23016513884067536 -0.77880543470382688
vn -0.60154783725738528 -0.19883976876735688 -0.77369445562362672
vn -0.79061698913574224 -0.29101070761680604 -0.5387369990348816
vn -0.7748075723648072 -0.26633551716804504 -0.57335728406906128
vn -0.15786069631576538 -0.16890338063240052 -0.97290885448455808
vn -0.1278076171875 -0.23629239201545716 -0.96323990821838384
vn -0.34682253003120424 -0.43646314740180968 -0.83018916845321648
vn -0.3014536201953888 -0.39262387156486512 -0.86889141798019408
vn -0.1514054536819458 -0.86069101095199584 -0.48609402775764464
vn -0.1421837955713272 -0.867007315158844 -0.47757926583290104
vn 0.07223064452409744 -0.25671312212944032 -0.96378481388092048
vn 0.0714000016450882 -0.25545305013656616 -0.96418142318725584
vn -0.08645886182785034 -0.56308966875076296 -0.8218605518341064
vn -0.06402070820331573 -0.5417674779891968 -0.83808672428131104
vn 0.08588000386953354 -0.89724278450012208 -0.43310502171516416
vn 0.08063175529241562 -0.89488607645034784 -0.4389503300189972
vn 0.00080260395770892 -0.27072647213935852 -0.962656021118164
vn -0.02303839474916458 -0.23597608506679536 -0.97148567438125616
vn 0.06935425102710724 -0.58104538917541504 -0.81091076135635376
vn 0.075052410364151 -0.57679802179336544 -0.81343179941177376
vn 0.01879443787038326 -0.89877235889434816 -0.43801259994506832
vn 0.05437975749373436 -0.91526877880096432 -0.39915648102760312
vn -0.19451208412647248 0.40792107582092288 0.8920568823814392
vn -0.19676046073436736 0.40089285373687744 0.89474582672119136
vn -0.06387916207313538 0.33767920732498168 -0.93909120559692384
vn -0.0663657933473587 0.34483611583709716 -0.93631386756896976
vn -0.03259312361478805 0.76518106460571296 -0.64298963546752928
vn -0.03778694197535515 0.74053901433944704 -0.67095017433166504
vn -0.16966202855110168 0.8672341108322144 -0.46810233592987064
vn -0.09418892115354538 0.80923092365264896 -0.5798911452293396
vn -0.34117436408996584 0.92968028783798224 -0.13890516757965088
vn -0.28805792331695556 0.93959927558898928 -0.18486709892749788
vn -0.2227535843849182 0.89737874269485472 0.38090986013412472
vn -0.1561596393585205 0.90456843376159664 0.39669913053512576
vn -0.23757119476795196 0.94988173246383664 0.20318625867366792
vn -0.37747395038604736 0.89314246177673344 0.24456071853637696
vn 0.00010633113561198115 0.33350324630737304 -0.9427489042282104
vn -0.01119826361536979 0.34874695539474488 -0.93715006113052368
vn -0.15901336073875428 0.73657184839248656 -0.65740144252777096
vn -0.10155574977397918 0.76613020896911616 -0.63461083173751832
vn -0.09547843784093856 0.4960259199142456 -0.86304235458374016
vn -0.0148330433294177 0.38861644268035888 -0.9212802052497864
vn -0.0738164484500885 0.76913583278656 -0.63480800390243528
vn -0.19717077910900116 0.63646656274795536 -0.74567693471908576
vn 0.01290890574455261 0.83948481082916256 -0.54322981834411624
vn 0.04892310500144958 0.82219457626342768 -0.56710022687911984
vn -0.13603535294532776 0.84668511152267456 -0.5144110918045044
vn -0.1331736296415329 0.84835034608840944 -0.5124123692512512
vn -0.04312143474817276 0.79593485593795776 -0.60384446382522584
vn -0.05993412807583809 0.81226980686187744 -0.5801944732666016
vn -0.11864684522151948 0.8744438290596008 -0.47039431333541872
vn -0.07018544524908066 0.89457273483276368 -0.4413771033287048
vn -0.01072769705206155 0.97996914386749264 -0.19886015355587004
vn -0.01250657625496387 0.98018562793731696 -0.19768573343753816
vn -0.17903798818588256 0.97022885084152224 0.16309957206249238
vn -0.1587698608636856 0.96879619359970096 0.19033156335353852
vn 0.05031073465943336 0.98271381855010992 -0.1781635731458664
vn 0.056916743516922 0.98101013898849488 -0.18541733920574188
vn -0.05403656885027885 0.99071007966995232 0.12479450553655624
vn -0.1063472256064415 0.9920808672904968 0.06682652235031128
vn 0.04982423782348633 0.9536771178245544 0.2966774106025696
vn 0.01456135418266058 0.94719052314758304 0.32034033536911012
vn 0.32835298776626588 0.78534638881683344 0.52480030059814456
vn 0.38185420632362368 0.74825680255889888 0.54249340295791624
vn -0.00323745375499129 0.51821213960647584 0.8552460074424744
vn -0.04941296577453613 0.47658318281173704 0.877739667892456
vn -0.17899031937122344 0.86720633506774896 0.46466708183288576
vn -0.21969430148601532 0.89239710569381712 0.39415964484214784
vn -0.05732612684369087 0.93670630455017088 0.34539109468460084
vn -0.03650226071476936 0.94385486841201776 0.32833752036094664
vn -0.16810810565948486 0.88954031467437744 0.42480310797691344
vn -0.07579851150512695 0.83412855863571168 0.54633712768554688
vn -0.17825758457183838 0.49581244587898256 0.84993779659271248
vn -0.14139540493488312 0.53078907728195192 0.8356256484985352
vn -0.3181084394454956 -0.9238415360450744 0.21289406716823576
vn -0.31517028808593752 -0.92530804872512816 0.21088571846485136
vn -0.50997412204742432 -0.847518801689148 0.14709936082363128
vn -0.51017528772354128 -0.84743398427963264 0.1468905359506607
vn -0.63730561733245848 -0.50395625829696656 0.58298331499099728
vn -0.64637172222137448 -0.51576018333435056 0.56231224536895752
vn -0.4694610238075256 -0.72616016864776608 -0.50229251384735104
vn -0.48925819993019104 -0.71030718088150024 -0.50605362653732296
vn -0.4114835262298584 -0.9090110659599304 -0.066182941198349
vn -0.41147214174270632 -0.90901470184326176 -0.06620360165834427
vn -0.219611793756485 -0.96351486444473264 -0.15300247073173522
vn -0.19063040614128112 -0.96660733222961424 -0.17126093804836274
vn 0.2020820528268814 -0.97895091772079472 -0.02859688550233841
vn 0.2536573112010956 -0.96520882844924928 -0.06348122656345367
vn 0.24736416339874268 -0.96823304891586304 0.03654657304286957
vn 0.17253848910331726 -0.97860133647918704 0.1121159940958023
vn 0.21852162480354308 -0.59174287319183352 -0.77594369649887088
vn 0.21386034786701204 -0.59450244903564456 -0.77513265609741216
vn 0.15319845080375672 -0.52280950546264648 0.83857047557830816
vn 0.19413074851036072 -0.54570436477661136 0.81518089771270752
vn -0.00930851977318525 0.01696377992630005 -0.99981278181076048
vn 0.1936213970184326 0.02789707854390144 -0.98067969083786016
vn 0.08697239309549332 -0.03447328880429268 0.99561411142349248
vn -0.06612848490476608 0.07667787373065948 0.99486052989959712
vn -0.43151152133941648 0.8989182114601136 0.075788214802742
vn -0.39444333314895632 0.91250163316726688 0.10842141509056092
vn -0.22428154945373536 0.90621286630630496 0.35843563079833984
vn -0.2157277464866638 0.89092963933944704 0.39963236451148984
vn -0.27459341287612916 0.91803926229476928 -0.2860112190246582
vn -0.00618654116988182 0.67313975095748904 -0.73948937654495232
vn -0.07432986795902252 0.7269092798233032 -0.68269890546798704
vn -0.09955430030822754 0.74062418937683104 -0.6645033359527588
vn -0.1544017344713211 0.61262428760528568 -0.77514618635177616
vn -0.16297104954719544 0.7577680349349976 -0.63184487819671632
vn -0.56494957208633424 0.24509651958942412 -0.78788310289382928
vn -0.52855056524276736 0.38208502531051632 -0.75805366039276128
vn -0.5934439301490784 0.03851114958524704 -0.80395346879959104
vn -0.58619499206542968 0.00043216461199335754 -0.81016981601715088
vn -0.68024295568466184 0.06296679377555847 0.73027718067169184
vn -0.67971837520599368 0.06462418287992477 0.73062068223953248
vn -0.5815507769584656 0.5864617228507996 0.56379193067550656
vn -0.65545427799224856 0.43631663918495176 0.61644744873046872
vn -0.25238502025604248 0.86783188581466672 0.42798310518264768
vn -0.26978954672813416 0.91729271411895744 0.2928955852985382
vn -0.95620244741439824 0.1869913935661316 0.2251916378736496
vn -0.93272733688354496 0.2626889944076538 0.24701054394245148
vn -0.7317883968353272 0.64982932806015016 0.20544491708278656
vn -0.73491489887237552 0.64626663923263552 0.2055223435163498
vn -0.51720261573791504 0.81100970506668096 0.2734311819076538
vn -0.55968707799911496 0.77123314142227168 0.30323219299316408
vn -0.9288620352745056 0.19531328976154328 -0.31475064158439636
vn -0.93696355819702144 0.13070254027843476 -0.32406204938888548
vn -0.50109755992889408 0.66924440860748288 -0.54864674806594848
vn -0.58348292112350464 0.58672249317169192 -0.56151968240737912
vn -0.75640141963958736 0.5426190495491028 -0.36526891589164736
vn -0.7104036808013916 0.60403209924697872 -0.361208975315094
vn -0.59670364856719968 0.80008119344711296 -0.06176567822694778
vn -0.57809561491012576 0.81327664852142336 -0.0662311390042305
vn -0.2199285924434662 0.91892826557159424 -0.32741770148277284
vn -0.3603661060333252 0.85173267126083376 -0.38037830591201784
vn -0.725407600402832 0.68404757976531984 -0.07656889408826828
vn -0.73307812213897712 0.67612296342849728 -0.07385288178920746
vn 0.30597421526908876 0.94391244649887088 0.12413329631090164
vn 0.3378809690475464 0.93028557300567632 0.14284636080265046
vn 0.23900702595710756 0.83536052703857424 -0.49502366781234744
vn 0.33984541893005372 0.8206051588058472 -0.45946958661079408
vn 0.15034876763820648 0.79126536846160896 -0.59270095825195312
vn -0.07885529100894928 0.64063286781311032 -0.76378744840621952
vn -0.7468785047531128 0.66436439752578736 -0.02815303020179271
vn -0.7295988202095032 0.68343895673751832 -0.02442634664475918
vn -0.2899436056613922 0.94513392448425296 0.15051433444023132
vn -0.19736649096012116 0.937048614025116 0.28807356953620912
vn -0.52980309724807736 0.25805574655532836 -0.80790841579437248
vn -0.42949944734573368 0.87560993432998656 -0.22099195420742036
vn -0.6929020881652832 0.70630902051925656 -0.14496296644210816
vn -0.69441217184066776 0.705094575881958 -0.14364323019981384
vn -0.59596097469329832 0.71672016382217408 0.36213630437850952
vn -0.39942726492881776 0.89981186389923088 -0.17548903822898864
vn 0.03437967225909233 0.86544221639633184 -0.49982774257659912
vn -0.1462056189775467 0.83634161949157712 -0.52835273742675784
vn -0.6946236491203308 0.71196103096008304 -0.10300244390964508
vn -0.69511181116104128 0.71153098344802856 -0.10268019884824752
vn -0.78905725479125984 0.60400658845901488 -0.11209195107221604
vn -0.7519067525863648 0.65450006723403928 -0.07915669679641724
vn -0.72239089012146 0.669704794883728 -0.17218291759490966
vn -0.689910352230072 0.70105606317520144 -0.18039993941783904
vn -0.5856565237045288 0.72061675786972048 -0.37110373377799984
vn -0.53589653968811032 0.7552258372306824 -0.377423882484436
vn -0.55196690559387208 0.81524318456649776 0.17524570226669312
vn -0.55474913120269776 0.8131567239761352 0.17615209519863128
vn -0.443276047706604 0.79475796222686768 0.41456750035285952
vn -0.45818337798118592 0.77330690622329712 0.43825152516365048
vn -0.42946225404739376 0.56444609165191648 -0.70495587587356568
vn -0.45802190899848936 0.49317523837089536 -0.73959046602249152
vn -0.11101703345775604 0.78633594512939456 -0.6077426075935364
vn -0.370722621679306 0.91906392574310304 -0.1337396502494812
vn -0.34256920218467712 0.88352400064468384 -0.31942397356033324
vn -0.25034072995185852 0.92598968744277952 0.28261759877204896
vn -0.7286666631698608 0.68471014499664304 0.01473098527640104
vn -0.7233209609985352 0.6903008818626404 0.01707243174314499
vn -0.3328073024749756 -0.93331921100616448 -0.13473854959011078
vn -0.51036888360977176 -0.84746539592742912 0.14603447914123536
vn -0.07449729740619659 0.89333021640777584 0.4431831240653992
vn -0.12103744596242904 0.86969065666198736 0.47852709889411928
vn 0.03114812821149826 0.83088678121566768 0.5555691123008728
vn 0.02884169854223728 0.82992637157440192 0.5571269392967224
vn 0.03818110004067421 0.98896270990371712 0.14316052198410034
vn -0.01880332268774509 0.98100972175598144 0.19304510951042176
vn -0.00687077268958091 0.99496489763259888 0.09998815506696702
vn 0.01958430558443069 0.9962215423583984 0.08461178839206696
vn -0.01092792861163616 0.8802896738052368 -0.47431069612503048
vn 0.0272673275321722 0.85608232021331792 -0.51611959934234616
vn 0.01838968880474567 0.88475483655929568 -0.46569374203681944
vn -0.02132519520819187 0.89650046825408928 -0.44252932071685792
vn -0.11290048062801362 0.77106279134750368 -0.6266703009605408
vn -0.08080383390188217 0.7346289157867432 -0.6736401319503784
vn 0.01201043464243412 0.6502287983894348 -0.7596434950828552
vn 0.03136400878429413 0.6298092007637024 -0.77611643075942992
vn -0.12533269822597504 0.94172102212905888 0.31217524409294128
vn -0.35455393791198732 0.86798524856567376 0.34769681096076964
vn -0.37593081593513488 0.91543596982955936 0.14371173083782196
vn -0.33101394772529604 0.93588930368423456 0.12058617919683456
vn -0.15270423889160156 0.89699476957321168 -0.41482746601104736
vn -0.2911871373653412 0.81843626499176032 -0.4953506290912628
vn -0.13085314631462098 0.76734715700149536 -0.62773865461349488
vn 0.04257994517683983 0.8130910396575928 -0.58057719469070432
vn -0.07630854845046997 0.7161691188812256 -0.69374257326126096
vn -0.20575588941574096 0.88197702169418336 0.42400595545768736
vn 0.00760041456669569 -0.5650257468223572 -0.8250382542610168
vn 0.01247706636786461 -0.5705643892288208 -0.82115805149078368
vn 0.1062072440981865 -0.60707575082778928 -0.7875144481658936
vn 0.08183377981185913 -0.57849752902984616 -0.81156873703002928
vn -0.18229246139526368 -0.4680311679840088 -0.86470592021942144
vn -0.14713481068611146 -0.52383059263229368 -0.83901906013488768
vn -0.58488410711288456 -0.30646845698356628 -0.75099110603332512
vn -0.54171812534332272 -0.36062538623809816 -0.75926989316940304
vn -0.93744122982025152 -0.21812188625335692 -0.2713424265384674
vn -0.91698360443115232 -0.2609267830848694 -0.30175864696502684
vn -0.93573963642120368 -0.16402657330036164 0.31222859025001524
vn -0.93569290637969968 -0.1638314425945282 0.31247082352638244
vn -0.70015221834182736 -0.28134334087371828 0.65622615814208984
vn -0.647386372089386 -0.2342170774936676 0.72528141736984256
vn 0.00830349326133728 -0.50392127037048336 0.86370968818664544
vn -0.01040058676153421 -0.51848948001861576 0.85502076148986816
vn -0.2649385929107666 -0.35857975482940672 0.89511346817016608
vn -0.23913776874542236 -0.33610910177230836 0.91095763444900512
vn 0.00185644277371466 -0.48273509740829464 0.87576442956924432
vn -0.01616339199244976 -0.46473294496536256 0.88530331850051872
vn 0.05722148716449738 -0.99084049463272096 -0.12231456488370896
vn 0.12946753203868866 -0.98977935314178464 -0.05979076772928238
vn 0.0737643837928772 -0.97979706525802608 -0.18589378893375396
vn 0.09792973101139068 -0.98141342401504512 -0.16503764688968658
vn -0.13693229854106904 -0.97474223375320432 -0.17642857134342194
vn -0.16648417711257934 -0.96630239486694336 -0.19632267951965332
vn -0.483690083026886 -0.8752381801605224 0.00142386404331773
vn 0.1382858157157898 -0.97185665369033808 0.19071380794048308
vn 0.07712095230817795 -0.98958802223205568 0.1215231567621231
vn 0.10507384687662124 -0.96956872940063472 0.22112429141998292
vn 0.11048515886068344 -0.96730792522430416 0.22827281057834624
vn -0.19326511025428772 -0.951805293560028 0.23814968764781952
vn -0.20748847723007204 -0.95338243246078496 0.21911275386810304
vn -0.51102370023727416 -0.84731799364089968 0.14459268748760224
vn -0.97033429145812992 0.01486827805638313 0.24130970239639284
vn -0.9476298093795776 0.11922699958086014 0.29628136754035948
vn -0.59274697303771976 -0.05679069459438324 -0.80338406562805168
vn -0.5905597805976868 -0.06171464920043945 -0.80463069677352912
vn -0.06233382597565651 0.04982779920101166 -0.9968107342720032
vn -0.10295504331588746 0.14553697407245636 -0.98398137092590336
vn -0.07875665277242661 0.04769234731793404 0.99575245380401616
vn -0.05261539295315742 0.07539679855108261 0.9957644939422608
vn -0.22673718631267548 0.0635429322719574 0.97188097238540656
vn -0.18311622738838196 0.14944113790988922 0.97166651487350464
vn -0.15212082862854004 0.08497228473424911 0.984702467918396
vn -0.09557660669088364 0.13460995256900788 0.98627853393554688
vn -0.9466728568077088 -0.00049435091204941 -0.3221958875656128
vn -0.951038122177124 0.05765322595834732 -0.30364871025085448
vn -0.709387481212616 -0.082773357629776 0.6999413967132568
vn -0.68120187520980832 -0.02933871746063232 0.73150759935379024
vn -0.01361907925456762 0.11066342145204544 -0.9937646389007568
vn -0.02562117576599121 0.12829315662384034 -0.99140524864196784
vn 0.03334885463118553 0.09317048639059066 -0.99509149789810176
vn 0.02043524757027626 0.1121714860200882 -0.99347865581512448
vn -0.43654829263687136 -0.896747887134552 0.07258564978837967
vn -0.31796255707740784 -0.94764256477355952 0.02955327369272709
vn -0.34107789397239684 0.54182136058807376 0.7681766748428344
vn -0.0973680391907692 0.49652069807052616 -0.86254662275314336
vn 0.00521294074133038 0.31674331426620484 -0.94849699735641472
vn -0.20937809348106384 0.36234587430953976 -0.90822148323059088
vn -0.2129269689321518 0.36049908399581912 -0.9081313610076904
vn -0.33518141508102416 0.4298832416534424 0.83836376667022704
vn -0.37429043650627136 0.55748951435089112 0.7410209774971008
# 570 vertex normals

g obj_24262970
s 1
f 1//1 2//1 3//1
f 1//2 3//2 4//2
f 5//3 6//3 7//3
f 5//4 7//4 8//4
f 9//5 10//5 11//5
f 9//6 11//6 12//6
f 13//7 14//7 15//7
f 13//8 15//8 16//8
f 17//9 18//9 19//9
f 17//10 19//10 20//10
f 21//11 22//11 23//11
f 21//12 23//12 24//12
f 25//13 26//13 27//13
f 25//14 27//14 28//14
f 29//15 30//15 31//15
f 29//16 31//16 32//16
f 33//17 34//17 35//17
f 33//18 35//18 36//18
f 37//19 38//19 39//19
f 37//20 39//20 40//20
f 41//21 42//21 43//21
f 41//22 43//22 44//22
f 45//23 46//23 47//23
f 45//24 47//24 48//24
f 49//25 50//25 51//25
f 49//26 51//26 52//26
f 5//27 8//27 45//27
f 5//28 45//28 48//28
f 9//29 12//29 1//29
f 9//30 1//30 4//30
f 38//31 37//31 6//31
f 38//32 6//32 5//32
f 30//33 29//33 7//33
f 30//34 7//34 6//34
f 8//35 7//35 10//35
f 8//36 10//36 9//36
f 26//37 25//37 11//37
f 26//38 11//38 10//38
f 12//39 11//39 13//39
f 12//40 13//40 16//40
f 22//41 21//41 14//41
f 22//42 14//42 13//42
f 33//43 36//43 15//43
f 33//44 15//44 14//44
f 16//45 15//45 19//45
f 16//46 19//46 18//46
f 21//47 24//47 34//47
f 21//48 34//48 33//48
f 25//49 28//49 23//49
f 25//50 23//50 22//50
f 24//51 23//51 53//51
f 24//52 53//52 54//52
f 29//53 32//53 27//53
f 29//54 27//54 26//54
f 28//55 27//55 55//55
f 28//56 55//56 56//56
f 37//57 40//57 31//57
f 37//58 31//58 30//58
f 32//59 31//59 57//59
f 32//60 57//60 58//60
f 59//61 60//61 35//61
f 59//62 35//62 34//62
f 36//63 35//63 41//63
f 36//64 41//64 44//64
f 50//65 49//65 39//65
f 50//66 39//66 38//66
f 40//67 39//67 61//67
f 40//68 61//68 62//68
f 18//69 17//69 2//69
f 18//70 2//70 1//70
f 42//71 41//71 35//71
f 42//72 35//72 60//72
f 4//73 3//73 46//73
f 4//74 46//74 45//74
f 44//75 43//75 20//75
f 44//76 20//76 19//76
f 48//77 47//77 51//77
f 48//78 51//78 50//78
f 62//79 57//79 31//79
f 62//80 31//80 40//80
f 58//81 55//81 27//81
f 58//82 27//82 32//82
f 56//83 53//83 23//83
f 56//84 23//84 28//84
f 54//85 59//85 34//85
f 54//86 34//86 24//86
f 19//87 15//87 36//87
f 19//88 36//88 44//88
f 14//89 21//89 33//89
f 11//90 25//90 22//90
f 11//91 22//91 13//91
f 7//92 29//92 26//92
f 7//93 26//93 10//93
f 6//94 37//94 30//94
f 1//95 12//95 16//95
f 1//96 16//96 18//96
f 45//97 8//97 9//97
f 45//98 9//98 4//98
f 48//99 50//99 38//99
f 48//100 38//100 5//100
f 60//101 63//101 64//101
f 60//102 64//102 42//102
f 61//103 39//103 49//103
f 61//104 49//104 52//104
f 65//105 3//105 2//105
f 65//106 2//106 66//106
f 67//107 46//107 3//107
f 67//108 3//108 65//108
f 68//109 47//109 46//109
f 68//110 46//110 67//110
f 66//111 2//111 17//111
f 66//112 17//112 69//112
f 70//113 51//113 47//113
f 70//114 47//114 68//114
f 71//115 52//115 51//115
f 71//116 51//116 70//116
f 69//117 17//117 20//117
f 69//118 20//118 72//118
f 72//119 20//119 43//119
f 72//120 43//120 73//120
f 73//121 43//121 42//121
f 73//122 42//122 64//122
f 74//123 75//123 76//123
f 74//124 76//124 77//124
f 77//125 76//125 78//125
f 77//126 78//126 79//126
f 79//127 78//127 80//127
f 79//128 80//128 81//128
f 81//129 80//129 82//129
f 75//130 74//130 83//130
f 54//131 53//131 84//131
f 54//132 84//132 85//132
f 60//133 59//133 86//133
f 60//134 86//134 63//134
f 87//135 88//135 89//135
f 87//136 89//136 90//136
f 91//137 92//137 93//137
f 91//138 93//138 94//138
f 95//139 96//139 97//139
f 95//140 97//140 98//140
f 99//141 100//141 101//141
f 99//142 101//142 102//142
f 103//143 104//143 105//143
f 103//144 105//144 106//144
f 107//145 108//145 109//145
f 107//146 109//146 110//146
f 111//147 112//147 113//147
f 111//148 113//148 114//148
f 115//149 116//149 117//149
f 115//150 117//150 118//150
f 119//151 120//151 121//151
f 119//152 121//152 122//152
f 123//153 124//153 125//153
f 123//154 125//154 126//154
f 127//155 128//155 129//155
f 127//156 129//156 130//156
f 131//157 132//157 133//157
f 131//158 133//158 134//158
f 135//159 136//159 137//159
f 135//160 137//160 138//160
f 139//161 140//161 141//161
f 139//162 141//162 142//162
f 143//163 144//163 145//163
f 143//164 145//164 146//164
f 147//165 148//165 149//165
f 147//166 149//166 150//166
f 151//167 152//167 153//167
f 154//168 155//168 156//168
f 154//169 156//169 157//169
f 158//170 159//170 160//170
f 158//171 160//171 161//171
f 162//172 82//172 80//172
f 162//173 80//173 163//173
f 164//174 165//174 166//174
f 164//175 166//175 167//175
f 168//176 78//176 76//176
f 168//177 76//177 169//177
f 170//178 171//178 172//178
f 170//179 172//179 173//179
f 174//180 175//180 176//180
f 174//181 176//181 177//181
f 178//182 75//182 83//182
f 178//183 83//183 179//183
f 180//184 181//184 182//184
f 180//185 182//185 183//185
f 184//186 185//186 186//186
f 184//187 186//187 187//187
f 188//188 189//188 190//188
f 188//189 190//189 191//189
f 192//190 193//190 194//190
f 192//191 194//191 195//191
f 196//192 197//192 198//192
f 196//193 198//193 199//193
f 200//194 201//194 202//194
f 200//195 202//195 203//195
f 204//196 205//196 206//196
f 204//197 206//197 207//197
f 208//198 209//198 210//198
f 208//199 210//199 211//199
f 212//200 213//200 214//200
f 212//201 214//201 215//201
f 216//202 217//202 218//202
f 216//203 218//203 219//203
f 220//204 221//204 222//204
f 220//205 222//205 223//205
f 224//206 225//206 226//206
f 224//207 226//207 227//207
f 228//208 229//208 230//208
f 61//209 231//209 232//209
f 61//210 232//210 62//210
f 233//211 234//211 235//211
f 236//212 237//212 238//212
f 236//213 238//213 239//213
f 240//214 241//214 242//214
f 240//215 242//215 243//215
f 244//216 245//216 246//216
f 244//217 246//217 247//217
f 57//218 248//218 249//218
f 57//219 249//219 58//219
f 56//220 55//220 250//220
f 56//221 250//221 251//221
f 252//222 253//222 254//222
f 252//223 254//223 255//223
f 256//224 257//224 258//224
f 256//225 258//225 259//225
f 260//226 261//226 262//226
f 260//227 262//227 263//227
f 264//228 265//228 266//228
f 264//229 266//229 267//229
f 268//230 269//230 270//230
f 268//231 270//231 271//231
f 272//232 273//232 274//232
f 272//233 274//233 275//233
f 276//234 277//234 278//234
f 276//235 278//235 279//235
f 280//236 281//236 282//236
f 280//237 282//237 283//237
f 284//238 285//238 286//238
f 284//239 286//239 287//239
f 155//240 154//240 144//240
f 155//241 144//241 143//241
f 173//242 172//242 96//242
f 173//243 96//243 95//243
f 112//244 111//244 288//244
f 112//245 288//245 233//245
f 107//246 110//246 180//246
f 107//247 180//247 183//247
f 136//248 135//248 289//248
f 136//249 289//249 290//249
f 132//250 131//250 229//250
f 132//251 229//251 291//251
f 245//252 244//252 128//252
f 245//253 128//253 127//253
f 120//254 119//254 241//254
f 120//255 241//255 240//255
f 237//256 236//256 116//256
f 237//257 116//257 115//257
f 87//258 90//258 99//258
f 87//259 99//259 102//259
f 91//260 94//260 104//260
f 91//261 104//261 103//261
f 123//262 126//262 292//262
f 123//263 292//263 293//263
f 200//264 203//264 88//264
f 200//265 88//265 87//265
f 139//266 142//266 89//266
f 139//267 89//267 88//267
f 90//268 89//268 92//268
f 90//269 92//269 91//269
f 147//270 150//270 93//270
f 147//271 93//271 92//271
f 94//272 93//272 205//272
f 94//273 205//273 204//273
f 95//274 98//274 108//274
f 95//275 108//275 107//275
f 103//276 106//276 100//276
f 103//277 100//277 99//277
f 111//278 114//278 97//278
f 111//279 97//279 96//279
f 98//280 97//280 101//280
f 98//281 101//281 100//281
f 102//282 101//282 185//282
f 102//283 185//283 184//283
f 213//284 212//284 105//284
f 213//285 105//285 104//285
f 106//286 105//286 109//286
f 106//287 109//287 108//287
f 110//288 109//288 224//288
f 110//289 224//289 227//289
f 115//290 118//290 113//290
f 115//291 113//291 112//291
f 114//292 113//292 186//292
f 114//293 186//293 185//293
f 119//294 122//294 117//294
f 119//295 117//295 116//295
f 118//296 117//296 188//296
f 118//297 188//297 191//297
f 189//298 188//298 124//298
f 189//299 124//299 123//299
f 127//300 130//300 121//300
f 127//301 121//301 120//301
f 122//302 121//302 125//302
f 122//303 125//303 124//303
f 126//304 125//304 196//304
f 126//305 196//305 199//305
f 131//306 134//306 129//306
f 131//307 129//307 128//307
f 130//308 129//308 197//308
f 130//309 197//309 196//309
f 135//310 138//310 133//310
f 135//311 133//311 132//311
f 134//312 133//312 193//312
f 134//313 193//313 192//313
f 194//314 193//314 140//314
f 194//315 140//315 139//315
f 143//316 146//316 137//316
f 143//317 137//317 136//317
f 138//318 137//318 141//318
f 138//319 141//319 140//319
f 142//320 141//320 148//320
f 142//321 148//321 147//321
f 217//322 216//322 145//322
f 217//323 145//323 144//323
f 146//324 145//324 149//324
f 146//325 149//325 148//325
f 150//326 149//326 209//326
f 150//327 209//327 208//327
f 172//328 171//328 294//328
f 172//329 294//329 288//329
f 291//330 295//330 151//330
f 291//331 151//331 289//331
f 284//332 287//332 152//332
f 284//333 152//333 151//333
f 282//334 281//334 159//334
f 282//335 159//335 158//335
f 253//336 252//336 165//336
f 253//337 165//337 164//337
f 171//338 170//338 277//338
f 171//339 277//339 276//339
f 272//340 275//340 175//340
f 272//341 175//341 174//341
f 154//342 157//342 266//342
f 154//343 266//343 265//343
f 158//344 161//344 153//344
f 158//345 153//345 152//345
f 290//346 153//346 156//346
f 290//347 156//347 155//347
f 157//348 156//348 82//348
f 157//349 82//349 162//349
f 162//350 163//350 268//350
f 162//351 268//351 271//351
f 164//352 167//352 160//352
f 164//353 160//353 159//353
f 161//354 160//354 81//354
f 161//355 81//355 82//355
f 163//356 80//356 78//356
f 163//357 78//357 168//357
f 168//358 169//358 260//358
f 168//359 260//359 263//359
f 174//360 177//360 166//360
f 174//361 166//361 165//361
f 167//362 166//362 77//362
f 167//363 77//363 79//363
f 169//364 76//364 75//364
f 169//365 75//365 178//365
f 178//366 179//366 259//366
f 178//367 259//367 258//367
f 256//368 259//368 221//368
f 256//369 221//369 220//369
f 222//370 221//370 181//370
f 222//371 181//371 180//371
f 170//372 296//372 176//372
f 170//373 176//373 175//373
f 177//374 176//374 83//374
f 177//375 83//375 74//375
f 179//376 83//376 182//376
f 179//377 182//377 181//377
f 183//378 182//378 296//378
f 183//379 296//379 173//379
f 184//380 187//380 201//380
f 184//381 201//381 200//381
f 293//382 201//382 190//382
f 293//383 190//383 189//383
f 191//384 190//384 187//384
f 191//385 187//385 186//385
f 192//386 195//386 198//386
f 192//387 198//387 197//387
f 199//388 198//388 202//388
f 199//389 202//389 292//389
f 203//390 202//390 195//390
f 203//391 195//391 194//391
f 208//392 211//392 206//392
f 208//393 206//393 205//393
f 204//394 207//394 214//394
f 204//395 214//395 213//395
f 216//396 219//396 210//396
f 216//397 210//397 209//397
f 212//398 215//398 225//398
f 212//399 225//399 224//399
f 265//400 264//400 218//400
f 265//401 218//401 217//401
f 227//402 226//402 223//402
f 227//403 223//403 222//403
f 252//404 255//404 273//404
f 252//405 273//405 272//405
f 276//406 279//406 234//406
f 276//407 234//407 294//407
f 52//408 71//408 231//408
f 52//409 231//409 61//409
f 295//410 228//410 285//410
f 295//411 285//411 284//411
f 228//412 230//412 232//412
f 228//413 232//413 231//413
f 62//414 232//414 248//414
f 62//415 248//415 57//415
f 244//416 247//416 230//416
f 244//417 230//417 229//417
f 233//418 235//418 238//418
f 233//419 238//419 237//419
f 54//420 85//420 86//420
f 54//421 86//421 59//421
f 63//422 86//422 235//422
f 63//423 235//423 234//423
f 236//424 239//424 242//424
f 236//425 242//425 241//425
f 56//426 251//426 84//426
f 56//427 84//427 53//427
f 85//428 84//428 239//428
f 85//429 239//429 238//429
f 240//430 243//430 246//430
f 240//431 246//431 245//431
f 247//432 246//432 249//432
f 247//433 249//433 248//433
f 58//434 249//434 250//434
f 58//435 250//435 55//435
f 251//436 250//436 243//436
f 251//437 243//437 242//437
f 281//438 280//438 254//438
f 281//439 254//439 253//439
f 255//440 254//440 65//440
f 255//441 65//441 66//441
f 258//442 257//442 261//442
f 258//443 261//443 260//443
f 263//444 262//444 269//444
f 263//445 269//445 268//445
f 271//446 270//446 267//446
f 271//447 267//447 266//447
f 69//448 72//448 274//448
f 69//449 274//449 273//449
f 275//450 274//450 278//450
f 275//451 278//451 277//451
f 279//452 278//452 73//452
f 279//453 73//453 64//453
f 280//454 283//454 68//454
f 280//455 68//455 67//455
f 71//456 70//456 286//456
f 71//457 286//457 285//457
f 287//458 286//458 283//458
f 287//459 283//459 282//459
f 286//460 70//460 68//460
f 286//461 68//461 283//461
f 73//462 278//462 274//462
f 73//463 274//463 72//463
f 65//464 254//464 280//464
f 65//465 280//465 67//465
f 250//466 249//466 246//466
f 250//467 246//467 243//467
f 84//468 251//468 242//468
f 84//469 242//469 239//469
f 86//470 85//470 238//470
f 86//471 238//471 235//471
f 247//472 248//472 232//472
f 247//473 232//473 230//473
f 228//474 231//474 71//474
f 228//475 71//475 285//475
f 279//476 64//476 63//476
f 279//477 63//477 234//477
f 255//478 66//478 69//478
f 255//479 69//479 273//479
f 202//480 198//480 195//480
f 190//481 201//481 187//481
f 182//482 83//482 176//482
f 182//483 176//483 296//483
f 221//484 259//484 179//484
f 221//485 179//485 181//485
f 74//486 77//486 166//486
f 74//487 166//487 177//487
f 258//488 260//488 169//488
f 258//489 169//489 178//489
f 79//490 81//490 160//490
f 79//491 160//491 167//491
f 263//492 268//492 163//492
f 263//493 163//493 168//493
f 82//494 156//494 153//494
f 82//495 153//495 161//495
f 271//496 266//496 157//496
f 271//497 157//497 162//497
f 275//498 277//498 170//498
f 275//499 170//499 175//499
f 174//500 165//500 252//500
f 174//501 252//501 272//501
f 159//502 281//502 253//502
f 159//503 253//503 164//503
f 282//504 158//504 152//504
f 282//505 152//505 287//505
f 151//506 295//506 284//506
f 276//507 294//507 171//507
f 149//508 145//508 216//508
f 149//509 216//509 209//509
f 141//510 137//510 146//510
f 141//511 146//511 148//511
f 193//512 133//512 138//512
f 193//513 138//513 140//513
f 197//514 129//514 134//514
f 197//515 134//515 192//515
f 125//516 121//516 130//516
f 125//517 130//517 196//517
f 188//518 117//518 122//518
f 188//519 122//519 124//519
f 186//520 113//520 118//520
f 186//521 118//521 191//521
f 109//522 105//522 212//522
f 109//523 212//523 224//523
f 101//524 97//524 114//524
f 101//525 114//525 185//525
f 100//526 106//526 108//526
f 100//527 108//527 98//527
f 93//528 150//528 208//528
f 93//529 208//529 205//529
f 89//530 142//530 147//530
f 89//531 147//531 92//531
f 203//532 194//532 139//532
f 203//533 139//533 88//533
f 126//534 199//534 292//534
f 104//535 94//535 204//535
f 104//536 204//536 213//536
f 99//537 90//537 91//537
f 99//538 91//538 103//538
f 184//539 200//539 87//539
f 184//540 87//540 102//540
f 189//541 123//541 293//541
f 116//542 236//542 241//542
f 116//543 241//543 119//543
f 128//544 244//544 229//544
f 128//545 229//545 131//545
f 132//546 291//546 289//546
f 132//547 289//547 135//547
f 180//548 110//548 227//548
f 180//549 227//549 222//549
f 288//550 111//550 96//550
f 288//551 96//551 172//551
f 107//552 183//552 173//552
f 107//553 173//553 95//553
f 245//554 127//554 120//554
f 245//555 120//555 240//555
f 237//556 115//556 112//556
f 237//557 112//557 233//557
f 144//558 154//558 265//558
f 144//559 265//559 217//559
f 136//560 290//560 155//560
f 136//561 155//561 143//561
f 201//562 293//562 292//562
f 201//563 292//563 202//563
f 173//564 296//564 170//564
f 153//565 290//565 289//565
f 153//566 289//566 151//566
f 228//567 295//567 291//567
f 228//568 291//568 229//568
f 233//569 288//569 294//569
f 233//570 294//570 234//570
#570 polygons

