# Aspose.3D Wavefront OBJ Exporter
# Copyright 2004-2022 Aspose Pty Ltd.
# File created: 06/23/2022 13:48:54


#
# object obj_45374298
#

v 28.16521453857421876 12.1556854248046875 -3.48048400878906248
v 28.35625457763671876 12.228240966796875 -3.52418518066406248
v 28.71284866333007816 11.31756591796875 -6.200164794921875
v 28.52012252807617184 11.25791931152343752 -6.15842437744140624
v 27.9139442443847656 12.62013244628906248 -0.65659332275390624
v 28.11143112182617188 12.69464111328125 -0.69245147705078128
v 27.79545593261718752 12.69351196289062496 2.34040069580078124
v 28.838623046875 10.58364868164062496 -7.84419250488281248
v 6.91532897949218752 0.98786926269531248 7.96688842773437504
v 4.47772979736328128 0.54164123535156248 7.57640075683593752
v 4.65644073486328128 -1.576904296875 7.54866790771484376
v 7.18816375732421876 -1.163177490234375 7.9548416137695312
v 9.98544311523437504 1.78507995605468752 8.36857604980468752
v 10.38404846191406248 -0.3841552734375 8.34224700927734376
v 13.9659423828125 0.33155822753906248 8.87055206298828128
v 13.50822448730468752 2.59184265136718752 8.89968872070312496
v 21.47007751464843752 3.78067016601562496 10.20588684082031248
v 17.51001739501953128 3.37449645996093752 9.5980224609375
v 17.99630737304687504 0.97134399414062496 9.585693359375
v 21.35494232177734376 1.25566101074218752 10.11344146728515624
v 18.7739181518554688 0.49766540527343752 -12.53815460205078128
v 22.3978271484375 0.94642639160156256 -12.5765380859375
v 21.64962768554687504 -1.3231201171875 -12.1364593505859375
v 18.30556488037109376 -1.91668701171875008 -12.09613037109375
v 7.32598114013671876 -3.20216369628906248 7.41028594970703128
v 4.55784606933593752 -3.53215026855468752 6.94109344482421872
v 4.48809051513671872 -5.36355590820312496 5.90156555175781248
v 7.42823028564453128 -5.146759033203125 6.41222381591796872
v 7.50638580322265624 -6.98629760742187504 4.95839691162109376
v 4.45111846923828128 -7.0599517822265625 4.42729187011718752
v 4.31694030761718752 -8.58212280273437504 2.66478729248046872
v 7.64504241943359376 -8.46783447265625 3.18636322021484376
v 4.10936737060546876 -9.683837890625 -7.095428466796875
v 7.576416015625 -9.312408447265625 -6.95201110839843744
v 7.79911041259765632 -9.87545776367187504 -4.55418395996093752
v 4.20097351074218752 -10.19647216796875 -4.80657196044921872
v 4.25699615478515624 -9.78413391113281248 0.62522888183593752
v 4.22086334228515624 -10.31690979003906248 -1.86167144775390624
v 7.90359497070312496 -10.05670166015625 -1.49192047119140624
v 7.85205078125 -9.58888244628906248 1.086029052734375
v 12.52136993408203128 -9.251617431640625 1.59556579589843752
v 12.60764312744140624 -9.71717834472656248 -1.12664031982421876
v 16.78646850585937504 -9.15777587890625 -0.77508544921875008
v 16.63772583007812496 -8.64012145996093752 2.0090179443359375
v 11.34794616699218752 -1.52143859863281248 -12.24543762207031248
v 15.14776611328125 -0.57687377929687504 -12.33702850341796876
v 14.84439849853515632 -2.95201110839843744 -11.8361740112304688
v 11.15129852294921876 -3.79740905761718752 -11.66166687011718752
v 7.24139404296875 -8.36056518554687504 -8.67278289794921872
v 3.9659500122070312 -8.76898193359375008 -8.72517395019531248
v 4.09228515625 -7.337554931640625 -10.12772369384765624
v 7.14167022705078124 -6.81794738769531248 -10.1683502197265625
v 7.43663787841796872 -2.56068420410156248 -12.15606689453125
v 7.27667999267578124 -4.68988037109375 -11.43056488037109376
v 4.48220825195312496 -5.31678771972656248 -11.30647277832031248
v 4.6197509765625 -3.29460144042968752 -12.0829620361328125
v 29.32995223999023436 10.76264953613281248 -8.37025451660156248
v 29.82716369628906256 11.95372009277343744 -6.51473999023437504
v 29.35263824462890624 13.496337890625 -0.94429016113281248
v 29.61063003540039064 12.97895812988281248 -3.85640716552734368
v 25.55701446533203128 10.53099060058593752 7.84335327148437504
v 24.60601043701171872 10.84275817871093744 6.72203063964843744
v 22.77683258056640624 9.76290893554687504 7.30776214599609376
v 23.93428802490234368 9.53431701660156248 8.36689758300781248
v 24.34606170654296876 10.62847900390625 -3.08916473388671875
v 22.90260314941406256 10.18028259277343752 -3.06282806396484375
v 22.53956604003906248 10.65089416503906248 -0.07254791259765625
v 24.00011444091796875 11.1088714599609375 -0.1731109619140625
v 24.09339141845703124 11.0662994384765625 5.28193664550781248
v 23.86593627929687504 11.1565093994140625 2.96871185302734368
v 22.31659698486328124 10.59375 3.116058349609375
v 22.41548156738281248 10.29736328125 5.60379791259765624
v 27.40664672851562496 7.0227813720703125 -10.28123474121093752
v 26.38336944580078128 5.7667236328125 -10.8059005737304688
v 24.83486938476562496 6.89056396484375008 -9.77421569824218752
v 26.20717620849609376 7.84773254394531248 -9.36663818359375
v 24.80517578125 9.71080017089843752 -5.78335571289062496
v 25.41919708251953128 8.78387451171875008 -7.87920379638671872
v 24.02616119384765625 8.091705322265625 -8.0727691650390625
v 23.40457916259765624 9.18586730957031248 -5.85478210449218752
v 23.46928405761718752 2.9061279296875 -12.0633544921875
v 19.49634552001953128 2.56355285644531248 -12.07791900634765625
v 19.59383392333984376 4.56752014160156248 -10.85884094238281248
v 22.117431640625 7.44464111328125 -8.51760101318359376
v 19.0428314208984375 6.50596618652343752 -8.86466979980468752
v 18.50892639160156248 8.1062774658203125 -6.31977844238281248
v 21.51797485351562496 8.8516845703125 -6.05002593994140625
v 20.85576629638671872 9.89427185058593744 -3.06842803955078125
v 17.98566436767578128 9.362060546875 -3.22417449951171876
v 17.50609588623046872 9.93295288085937504 -0.1512603759765625
v 20.34931182861328124 10.35786437988281248 -0.0196075439453125
v 20.00168609619140625 10.23686218261718752 3.094207763671875
v 17.0780792236328125 9.82060241699218752 2.90007781982421872
v 16.78983306884765632 9.072418212890625 5.48418426513671872
v 19.90811920166015632 9.704345703125 5.64497375488281248
v 21.34037780761718752 6.57571411132812496 9.53948211669921872
v 16.64585113525390624 7.68721008300781248 7.59629058837890624
v 16.88983154296875008 5.79444885253906256 8.96915435791015632
v 13.145477294921875 4.76107788085937504 8.48426818847656248
v 13.122222900390625 6.69868469238281248 7.22596740722656248
v 9.66694641113281248 5.85159301757812496 6.74388122558593744
v 9.68683624267578128 3.90951538085937504 7.97920989990234368
v 13.42531585693359376 8.39535522460937504 5.12310791015625
v 13.78639221191406256 9.254486083984375 2.56954193115234376
v 10.25351715087890624 8.5048828125 2.127227783203125
v 9.92073822021484368 7.615234375 4.65951538085937504
v 14.19648742675781248 9.27410888671875 -0.43642425537109376
v 14.57660675048828128 8.60993957519531248 -3.48692321777343752
v 11.00087738037109375 7.81915283203124992 -3.9071121215820312
v 10.65632629394531248 8.52140808105468752 -0.85997009277343744
v 15.59400177001953128 1.45875549316406248 -12.05019378662109375
v 11.61489868164062496 0.51559448242187504 -12.154388427734375
v 11.67316436767578128 2.57420349121093752 -11.22187042236328124
v 15.63629913330078128 3.49185180664062496 -10.96640777587890624
v 14.9267578125 7.25444030761718752 -6.59066009521484376
v 15.2774658203125 5.55020141601562496 -9.083160400390625
v 11.50733947753906248 4.65744018554687504 -9.45516204833984376
v 11.28183746337890624 6.40145874023437504 -7.01811981201171875
v 6.50131988525390624 3.24116516113281248 7.43801879882812496
v 6.29038238525390624 5.1563262939453125 6.148345947265625
v 3.71076202392578128 4.68098449707031248 5.71584320068359376
v 4.01300811767578125 2.81369018554687504 7.023162841796875
v 29.00557327270507812 13.48989868164062496 2.18184661865234376
v 27.56407546997070312 12.96438598632812496 4.23625183105468752
v 27.99546051025390624 12.97560119628906256 4.76316070556640624
v 20.81234741210937504 -8.0753936767578125 2.21266174316406248
v 21.45999145507812496 -8.70848083496093752 -0.52717590332031248
v 24.69200897216796872 -7.91067504882812496 -0.27899932861328124
v 23.91607666015624992 -7.58714294433593752 2.31182861328125
v 26.82176208496093744 -7.9501953125 2.58438873291015624
v 24.83710479736328128 -7.53448486328125 2.29811096191406248
v 25.55590057373046872 -7.69247436523437504 -0.14789581298828124
v 27.36434936523437504 -8.155792236328125 0.098602294921875
v 25.96879196166992192 -7.50675964355468752 -5.34132385253906248
v 26.81475448608398432 -7.978759765625 -2.92781066894531248
v 24.87632751464843744 -7.83114624023437504 -3.1448974609375
v 24.58303833007812496 -7.224395751953125 -5.46877288818359376
v 23.51970672607421872 -3.101593017578125 7.88005065917968752
v 24.05753326416015625 -1.43937683105468752 9.11621856689453124
v 23.54772186279296872 -1.1704559326171875 9.1134185791015625
v 22.66646575927734376 -2.57608032226562496 7.71926116943359376
v 25.19398498535156248 -6.90394592285156256 4.54214477539062496
v 23.95333099365234368 -5.35264587402343752 6.29737854003906248
v 22.175689697265625 -4.41087341308593752 6.06795501708984375
v 22.9566650390625 -6.32185363769531248 4.25922393798828124
v 22.45497131347656248 -0.73683166503906256 9.34787750244140624
v 21.65298461914062496 -2.2393798828125 8.33188629150390624
v 22.11547088623046876 -2.36627197265625 7.85287475585937504
v 23.00652313232421875 -0.96903991699218752 9.173919677734375
v 2.160858154296875 -7.56585693359375 -10.17731475830078124
v 2.09139251708984376 -8.91883850097656256 -8.79660034179687504
v 0.78827667236328128 -8.76506042480468752 -8.7265701293945312
v 0.81852722167968752 -7.48406982421875 -10.0448150634765625
v 2.272064208984375 -9.71157836914062496 -7.145294189453125
v 2.30764007568359376 -10.1029052734375 -4.95223236083984368
v 1.019378662109375 -9.82278442382812496 -5.04859161376953125
v 0.99807739257812496 -9.51017761230468752 -7.12120819091796876
v 2.187469482421875 -10.0667724609375 -2.213775634765625
v 2.12024688720703124 -9.51493835449218752 0.1714324951171875
v 0.71600341796875 -9.1549835205078125 -0.15938568115234376
v 0.83589172363281248 -9.6922607421875 -2.44964599609375
v 2.1053924560546875 -8.44685363769531248 2.1925048828125
v 2.21772003173828124 -7.124114990234375 3.93428802490234368
v 0.70871734619140624 -6.95828247070312496 3.52838897705078128
v 0.64540863037109376 -8.1787567138671875 1.81770324707031248
v 2.43930053710937504 -5.49298095703125 5.40211486816406248
v 2.60625457763671872 -3.70664978027343752 6.46600341796875
v 1.27540588378906248 -3.75314331054687504 6.10465240478515624
v 0.90424346923828128 -5.48878479003906248 5.0217132568359375
v 22.43592834472656248 -6.773681640625 -6.8010177612304688
v 20.67033386230468752 -8.32527160644531248 -3.76480865478515632
v 19.69467163085937504 -7.54400634765625 -6.56180572509765624
v 21.214599609375 -3.90580749511718752 -10.75212097167968752
v 20.97846221923828128 -5.65655517578125 -9.28849029541015624
v 18.55738830566406248 -6.55996704101562496 -8.91677093505859376
v 18.09294891357421876 -4.68734741210937504 -10.76248168945312496
v 11.0316925048828125 -6.347900390625 -10.38542938232421872
v 14.6920166015625 -5.67645263671875 -10.54034423828125
v 15.0544891357421875 -7.52777099609375 -8.8167724609375
v 11.27959442138671876 -8.0913543701171875 -8.78147125244140624
v 12.33872985839843752 -9.59646606445312496 -4.3157958984375
v 11.89614105224609376 -9.0476837158203125 -6.87105560302734368
v 15.93462371826171872 -8.51042175292968752 -6.66348266601562496
v 16.51139068603515624 -9.053009033203125 -3.9849777221679688
v 19.6083984375 -6.41737365722656248 4.5799560546875
v 21.13028717041015624 -4.0660552978515625 6.90859222412109376
v 19.09549713134765624 -4.96046447753906256 6.49653625488281248
v 12.0860595703125 -8.20201110839843752 3.85444641113281248
v 16.06124114990234375 -7.50422668457031248 4.36903381347656248
v 15.53461456298828128 -5.99635314941406256 6.20493316650390624
v 11.68296813964843752 -6.69105529785156248 5.65702056884765624
v 10.88294982910156256 -2.61613464355468752 7.89714050292968752
v 11.31545257568359376 -4.7198486328125 7.00383758544921875
v 15.0570068359375 -4.1212310791015625 7.51589965820312496
v 14.53739166259765624 -2.009674072265625 8.40499114990234376
v 20.99751281738281248 -0.99620056152343744 9.26075744628906248
v 18.337493896484375 -1.42144775390625 8.9299392700195312
v 18.69857025146484376 -3.3988037109375 7.899658203125
v 20.78826141357421872 -2.66152954101562496 8.35457611083984376
v 2.48607635498046872 -5.66665649414062496 -11.29106903076171876
v 1.095001220703125 -5.65097045898437504 -11.09889984130859376
v 1.310699462890625 -4.134674072265625 -11.79584503173828128
v 2.67347717285156248 -3.7666015625 -12.05019378662109375
v 2.80934143066406256 -1.76121520996093744 7.101593017578125
v 2.68888092041015624 0.30268859863281248 7.22596740722656248
v 1.66728973388671872 -0.212158203125 7.14192962646484376
v 1.58213043212890624 -1.83180236816406256 6.74163818359375008
v 2.1787872314453125 5.62217712402343752 3.50681304931640624
v 2.73118591308593744 6.38801574707031248 1.01851654052734375
v 2.053009033203125 6.27766418457031248 0.39888763427734376
v 3.42755889892578128 6.26924133300781248 -2.43647766113281248
v 3.72560882568359376 6.63424682617187504 -1.93002319335937504
v 4.35755920410156248 6.37345886230468752 -4.22728729248046876
v 4.16147613525390624 5.82666015625 -4.69004058837890624
v 2.96340179443359376 6.27735900878906248 -2.55244445800781248
v 3.9373779296875 5.74766540527343744 -4.91105651855468752
v 3.41299438476562496 5.79753112792968752 -5.17688751220703124
v 4.95197296142578128 4.83055114746093744 -7.24725341796875
v 5.01219940185546875 5.327484130859375 -6.66965484619140624
v 5.34833526611328124 5.1423187255859375 -7.29123687744140624
v 5.47075653076171872 4.35911560058593752 -8.62488555908203128
v 6.95090484619140624 7.62025451660156248 -1.41600036621093752
v 7.26631927490234376 6.98915100097656256 -4.48863983154296872
v 5.43853759765625 6.37513732910156248 -4.73906707763671872
v 5.236297607421875 7.0376129150390625 -2.24151611328125
v 3.74773406982421872 6.0291900634765625 3.67629241943359376
v 4.79398345947265632 6.9415283203125 0.75155639648437504
v 4.0228118896484375 6.71661376953125 1.17201995849609376
v 4.85028839111328128 6.49894714355468752 -4.1468963623046875
v 4.48304748535156248 6.82893371582031248 -1.82525634765624992
v 4.98726654052734368 6.87374877929687504 -2.254119873046875
v 5.17522430419921876 6.30033874511718752 -4.59620666503906248
v 4.64775848388671872 -1.24916076660156248 -12.42443084716796872
v 4.60938262939453128 0.76545715332031248 -11.89527893066406256
v 5.68784332275390624 1.45230102539062496 -11.58210754394531248
v 5.63686370849609376 5.0350494384765625 -7.73690795898437504
v 7.59265899658203128 5.5177001953125 -7.61924743652343752
v 7.74028778076171872 3.74256896972656256 -10.0103607177734375
v 5.7973709106445312 3.51763916015625 -10.05517578125
v 4.13794708251953124 4.364990234375 -8.25064849853515624
v 4.90519714355468752 4.58406066894531248 -7.74026489257812496
v 5.61725616455078128 3.25852966308593752 -9.95909118652343744
v 4.49733734130859376 2.74815368652343744 -10.50084686279296872
v 26.37216949462890624 12.33216857910156248 -0.41653442382812496
v 26.71475219726562496 11.89852905273437504 -3.24098968505859376
v 26.0783233642578125 11.155670166015625 -2.97879028320312496
v 25.69175720214843752 11.55903625488281248 -0.364990234375
v 24.83206939697265632 11.58647155761718752 -0.31232452392578124
v 25.51079559326171872 11.45651245117187504 -0.33194732666015624
v 25.91865158081054688 11.0413818359375 -2.98271179199218752
v 25.235443115234375 11.133819580078125 -3.1031646728515625
v 27.28704071044921876 11.193756103515625 -5.9912033081054688
v 27.6150550842285156 10.58477783203125 -7.67667388916015624
v 27.43157958984375 9.91697692871093744 -7.58871459960937504
v 26.7478065490722656 10.552001953125 -5.68531036376953128
v 25.8458251953125 10.37469482421875 -5.88167572021484368
v 26.59654235839843752 10.41221618652343752 -5.73713684082031248
v 27.29124069213867188 9.75869750976562496 -7.67359924316406248
v 26.52959442138671872 9.60183715820312496 -7.9063796997070312
v 24.7225418090820312 11.74671936035156256 2.61155700683593752
v 25.051116943359375 11.77668762207031248 4.69789123535156248
v 25.63404846191406248 11.74420166015624992 4.179107666015625
v 25.42648315429687504 11.66267395019531248 2.43087768554687504
v 26.28001022338867188 12.48959350585937504 2.38046264648437504
v 25.61949157714843752 11.7637939453125 2.39754486083984376
v 25.82565307617187504 11.84895324707031248 4.13653564453125
v 26.18000411987304688 12.46913146972656248 4.16790008544921876
v 28.31983947753906248 9.95394897460937504 -8.76914215087890624
v 28.87783813476562496 9.71302795410156248 -9.19548797607421876
v 28.68539810180664064 9.32872009277343752 -9.48876953125
v 27.98537826538085936 9.65814208984375 -8.89688110351562496
v 27.278076171875 8.83180236816406256 -9.142822265625
v 27.85988235473632816 9.48138427734375 -8.99295806884765632
v 28.56550598144531248 9.1365509033203125 -9.59101867675781248
v 28.28034210205078124 8.35838317871093752 -9.84844207763671872
v 27.24502182006835936 12.38285827636718752 5.87215423583984368
v 26.781982421875 12.39518737792968752 5.36149597167968752
v 26.2545166015625 12.198822021484375 5.35308837890625
v 27.23241424560546876 12.145599365234375 6.43910980224609376
v 7.62375640869140624 -0.44297790527343752 -12.34262847900390624
v 25.27325439453125 6.83006286621093744 9.9106369018554688
v 25.0516815185546875 3.65629577636718752 10.59300994873046872
v 25.96403503417968752 3.3812255859375 10.64875030517578128
v 23.99787139892578128 1.186767578125 10.40924835205078128
v 26.10689163208007812 0.78170776367187504 -12.59950256347656248
v 24.91302490234375008 -1.1612091064453125 -12.05774688720703125
v 25.22872161865234376 -3.47247314453125 -10.45630645751953128
v 24.00879669189453125 -3.350341796875 -10.507568359375
v 25.60940551757812496 -4.22065734863281248 8.04644012451171875
v 25.07381439208984375 -2.104644775390625 9.1618804931640625
v 23.56032562255859376 -4.89155578613281248 -8.99099731445312496
v 23.60318756103515624 -7.1641693115234375 -5.76206207275390624
v 24.44354248046875 -4.82235717773437504 -8.72348785400390624
v 25.470458984375 -5.0806427001953125 -8.65177917480468752
v 28.35065460205078124 -7.35072326660156248 4.76596069335937504
v 26.95705413818359376 -6.0518035888671875 6.56237030029296872
v 21.90425872802734368 -5.94229125976562496 4.46231079101562496
v 28.34617233276367188 -7.49667358398437504 -5.40911102294921872
v 29.28540802001953124 -8.166717529296875 -3.01660919189453125
v 30.1324920654296875 -8.50312805175781248 0.0739593505859375
v 29.82352066040039056 -8.25999450683593752 2.65554046630859376
v 24.95111846923828128 4.58741760253906248 -11.44989013671875
v 28.21955490112304688 3.84678649902343744 -11.72300720214843744
v 27.60049438476562496 2.49996948242187504 -12.17427825927734376
v 28.964111328125 6.60092163085937504 -10.60560607910156248
v 28.53693389892578128 5.0868682861328125 -11.188262939453125
v 26.58589935302734376 11.57023620605468752 6.90103149414062496
v 25.7564697265625 11.70132446289062496 5.95254516601562496
v 25.51920318603515624 8.91973876953124992 9.314544677734375
v 26.90047454833984368 10.170196533203125 8.69576263427734376
v 21.27622985839843752 8.160888671875 8.92910003662109376
v 20.11064910888671876 8.77548217773437504 7.67276000976562496
v 22.7362136840820312 5.76083374023437504 -10.42605590820312496
v 6.52651977539062496 7.52978515625 1.57652282714843752
v 6.282257080078125 6.73031616210937504 4.0919952392578125
v 7.72459411621093744 1.66241455078125 -11.62832641601562496
v 2.6866455078125 -1.82145690917968752 -12.40986633300781248
v 2.57627868652343752 0.1306915283203125 -12.00817108154296875
v 2.08774566650390625 4.23893737792968752 5.54216766357421872
v 2.25582122802734376 2.49884033203125 6.7772216796875
v 23.91215515136718752 -7.90396118164062496 -3.38805389404296872
v 25.1189117431640625 0.80888366699218752 10.30196380615234376
v 25.53321075439453128 0.41867065429687504 10.22997283935546876
v 21.60228729248046872 -4.18620300292968752 6.36516571044921872
v 1.13449859619140624 -2.36151123046875 -12.36168670654296872
v 1.24291229248046876 1.94168090820312496 6.72903442382812496
v 2.54489898681640624 5.589111328125 -5.358123779296875
v 2.24041748046875 6.37681579589843752 -2.7314453125
v 2.71465301513671872 2.0677337646484375 -10.790771484375
v 2.72053527832031248 3.89328002929687504 -8.57054138183593752
v 29.84257125854492192 9.73910522460937504 -9.33470916748046876
v 29.64873123168945312 9.33796691894531248 -9.62462615966796872
v 29.51398849487304688 8.38919067382812496 -9.98038482666015632
v 27.98873901367187504 12.17529296875 6.81082916259765632
v 27.99882507324218752 12.412841796875 6.24163055419921876
v 27.51113128662109376 11.36688232421875 7.59740447998046872
v 27.95428085327148432 12.010589599609375 7.0550994873046875
v 26.47216796875 -5.28569030761718752 -8.63497161865234376
v 28.55149841308593752 13.01397705078125 4.7452316284179688
v 28.93498229980468752 13.2843017578125 4.157257080078125
# 340 vertices

vn -0.40103515982627872 0.84959745407104496 -0.34257134795188904
vn -0.3443860709667206 0.87543749809265136 -0.33912760019302368
vn -0.3758710324764252 0.90859431028366096 -0.18214656412601472
vn -0.38536596298217776 0.90442734956741328 -0.18304164707660676
vn -0.35863116383552552 0.9327451586723328 -0.03701642155647278
vn -0.34917744994163512 0.84543293714523312 -0.40412661433219912
vn -0.15350310504436492 -0.02587975561618805 0.98780924081802368
vn -0.15435637533664704 -0.02510981261730194 0.9876961708068848
vn -0.13848280906677246 -0.03745868057012558 0.98965615034103392
vn -0.13975521922111512 -0.04105427861213684 0.98933464288711552
vn -0.14811612665653228 -0.035042654722929 0.9883489608764648
vn -0.15274801850318908 -0.02920146659016609 0.9878336191177368
vn 0.01372239552438259 -0.19470041990280152 -0.98076671361923216
vn 0.02079986967146396 -0.1839522570371628 -0.98271507024765008
vn -0.08876211941242218 -0.48912721872329712 0.86768424510955808
vn -0.11918028444051742 -0.45831704139709472 0.88076192140579216
vn -0.0957489237189293 -0.7497267723083496 0.65478396415710448
vn -0.07335012406110764 -0.76793950796127312 0.63630855083465576
vn 0.11317536234855652 -0.96487545967102048 -0.23707963526248932
vn 0.1020500436425209 -0.96985119581222528 -0.22130151093006136
vn 0.04807818681001663 -0.97682505846023552 0.20856951177120208
vn 0.0304565280675888 -0.98336660861968992 0.17905999720096588
vn 0.11658027023077012 -0.9783469438552856 0.1710149198770523
vn 0.12583902478218078 -0.97410494089126592 0.1878404915332794
vn 0.02858112379908561 -0.20974567532539368 -0.97733813524246208
vn 0.01132348738610744 -0.24935255944728852 -0.96834653615951536
vn 0.09869217872619628 -0.70087885856628416 -0.70641964673995968
vn 0.10774922370910644 -0.68842101097106936 -0.71726334095001224
vn 0.03080486506223678 -0.32445001602172852 -0.94540101289749152
vn 0.07012134045362473 -0.3617370426654816 -0.92963933944702144
vn -0.63180571794509888 0.68866091966629032 -0.35576355457305908
vn -0.53698104619979856 0.76798015832901008 -0.34908130764961244
vn -0.54104328155517576 0.8184679746627808 -0.19334508478641512
vn -0.55927824974060056 0.80884999036788944 -0.18157505989074708
vn -0.31868124008178712 0.80832946300506592 0.49502086639404296
vn -0.31907132267951964 0.79250687360763552 0.5197367072105408
vn -0.29455798864364624 0.93787693977355952 -0.18336448073387144
vn -0.30563774704933168 0.93300557136535648 -0.18996337056159972
vn -0.33472394943237304 0.93974530696868896 0.06956049799919128
vn -0.39360138773918152 0.91085743904113776 0.12416376918554306
vn -0.19172681868076324 0.50717329978942872 -0.84024763107299808
vn -0.18460011482238768 0.59707856178283688 -0.78065347671508784
vn -0.34228932857513428 0.81810694932937616 -0.46210280060768128
vn -0.28461813926696776 0.82567828893661504 -0.48708099126815792
vn -0.04177682474255562 0.52074927091598512 -0.85268682241439824
vn -0.18623965978622436 0.81364732980728144 -0.55072021484375
vn -0.16160307824611664 0.83987408876419072 -0.51816600561141968
vn -0.16765937209129334 0.96423089504241936 -0.20530226826667784
vn -0.13786248862743378 0.97553664445877072 -0.17123755812644958
vn -0.15298385918140412 0.95367014408111568 0.25905433297157288
vn -0.20442870259284972 0.95969581604003904 0.19285428524017332
vn -0.2011268138885498 0.55802077054977416 0.80508434772491456
vn -0.24272629618644716 0.52630209922790528 0.81491720676422112
vn -0.2471589297056198 0.51825404167175296 0.81873387098312384
vn -0.23269857466220856 0.93124777078628544 0.2804085612297058
vn -0.24449172616004944 0.9244363903999328 0.292645126581192
vn -0.1841459721326828 0.95537924766540528 -0.23095598816871644
vn -0.17436492443084716 0.9550315737724304 -0.23981600999832152
vn -0.07418105751276016 0.41322872042655944 -0.90760082006454464
vn -0.05219269916415215 0.47061264514923096 -0.88079488277435296
vn -0.13510723412036896 0.80895686149597168 -0.572131872177124
vn -0.11910925805568696 0.80217844247818 -0.58508354425430296
vn -0.2339559644460678 0.52520018815994264 0.81818664073944096
vn -0.22747050225734712 0.533514142036438 0.81462860107421872
vn -0.5570669770240784 0.80989480018615728 -0.1837031990289688
vn -0.1778905838727951 0.97609621286392208 0.12486444413661956
vn 0.21154421567916872 -0.94012421369552608 0.26723697781562804
vn 0.1480608582496643 -0.97493207454681392 0.16608862578868866
vn -0.20540612936019896 -0.9786726236343384 0.00285156280733644
vn -0.25132033228874208 -0.96757662296295168 0.02517013251781463
vn -0.0555276907980442 -0.98338127136230464 -0.17285247147083282
vn -0.17420729994773864 -0.95792084932327264 -0.22812142968177796
vn -0.27586796879768372 -0.5145282745361328 0.81188517808914192
vn -0.43844482302665712 -0.47924003005027768 0.7603256702423096
vn -0.471494734287262 -0.7991051077842712 0.37299296259880064
vn -0.26800978183746336 -0.71777379512786864 0.64262866973876952
vn 0.45139423012733456 -0.6525036096572876 0.60867249965667728
vn -0.04828280583024025 -0.66978704929351808 0.74098187685012816
vn -0.12081336975097656 -0.7059665322303772 -0.69786489009857176
vn -0.1118328645825386 -0.71138530969619752 -0.69384747743606568
vn -0.19732157886028288 -0.96564328670501712 -0.16910707950592042
vn -0.15716840326786042 -0.97676378488540656 -0.14570719003677368
vn -0.28858336806297304 -0.93456935882568352 0.2080857902765274
vn -0.29428029060363768 -0.93376958370208736 0.20365037024021148
vn -0.24444279074668884 -0.76456922292709344 0.59639048576354984
vn -0.2869024872779846 -0.77478355169296272 0.56338036060333248
vn -0.21330809593200684 -0.4851257503032684 0.84802865982055664
vn -0.21168085932731628 -0.4843749701976776 0.8488651514053344
vn 0.22772306203842164 -0.91434621810913088 -0.33483326435089112
vn 0.1255655586719513 -0.64623028039932248 -0.75274145603179936
vn 0.17014268040657044 -0.67000985145568848 -0.72259140014648432
vn 0.09147956222295762 -0.66889315843582152 -0.73770821094512944
vn 0.09266367554664612 -0.66697102785110472 -0.73929905891418464
vn 0.13996478915214538 -0.96282768249511712 -0.2310253381729126
vn 0.1434108018875122 -0.96349948644638064 -0.22605787217617036
vn 0.20383769273757936 -0.7523385286331176 0.62644785642623904
vn 0.05102195963263512 -0.76453047990798944 0.64256507158279416
vn 0.04505882412195206 -0.76061397790908816 0.64763879776000976
vn -0.06099848076701164 -0.40072417259216312 0.91416591405868528
vn -0.06070620194077492 -0.39999896287918088 0.91450297832489008
vn -0.03526165336370468 -0.46684765815734864 0.88363444805145264
vn -0.02366091124713421 -0.475536435842514 0.87937778234481808
vn -0.1299041360616684 -0.39877864718437192 -0.90779983997344976
vn -0.0751056894659996 -0.363567978143692 -0.92853510379791264
vn -0.05024515092372894 -0.06299832463264465 0.99674797058105472
vn -0.26306945085525512 -0.21841956675052644 0.93972724676132208
vn -0.33871790766716004 0.91777330636978144 0.2072739154100418
vn -0.55784457921981808 0.79341328144073488 -0.24352563917636872
vn -0.74447900056838992 0.56627815961837768 -0.35366663336753844
vn 0.16834305226802826 0.97435587644577024 -0.14930303394794464
vn -0.56851965188980104 0.65200674533843992 -0.50166976451873776
vn -0.58222532272338864 0.67660897970199584 -0.45079270005226136
vn -0.28327319025993348 0.93328285217285152 -0.2207699716091156
vn -0.19280561804771424 0.9444578886032104 -0.26613003015518188
vn -0.1447082906961441 0.95812129974365232 0.24710939824581148
vn -0.23202100396156312 0.95724612474441536 -0.1727597564458847
vn 0.28694549202919008 0.9355315566062928 -0.20601695775985716
vn 0.11677095293998718 0.25438174605369568 -0.96002835035324096
vn -0.1586868017911911 0.78803640604019168 -0.5948253273963928
vn -0.08353640139102936 0.83111721277236944 -0.549787163734436
vn 0.07991236448287964 0.86681205034255984 -0.49218994379043576
vn -0.08063924312591553 0.80330729484558112 -0.5900801420211792
vn -0.77764540910720832 0.6004037261009216 -0.18650203943252564
vn -0.74108976125717168 0.63833785057067872 -0.20811234414577484
vn 0.18311992287635804 0.97516971826553344 -0.12454379349946976
vn 0.15635128319263458 0.97828352451324464 -0.13607157766819
vn -0.93854552507400512 0.22318206727504732 -0.2632911205291748
vn -0.78141915798187248 0.45105630159378048 -0.43119865655899048
vn 0.01330961659550666 0.94885081052780144 -0.31544405221939088
vn -0.07469934970140457 0.9229755997657776 -0.37753957509994504
vn 0.0376315675675869 0.99908596277236944 -0.02027751132845878
vn 0.10350628197193146 0.99290150403976448 -0.05859257280826569
vn -0.73784506320953376 0.67276400327682496 0.05452767759561539
vn -0.86653625965118416 0.49727648496627808 -0.04278953745961189
vn -0.2517085373401642 0.663630485534668 -0.70444118976593016
vn -0.29672074317932128 0.64112532138824464 -0.70775359869003296
vn -0.38799849152565 0.52265518903732296 -0.75913685560226448
vn -0.38513311743736264 0.4139829874038696 -0.82479727268218992
vn -0.33452656865119936 0.88468492031097408 0.32469141483306884
vn -0.34746903181076048 0.86773043870925904 0.35540005564689636
vn 0.05231490731239319 -0.09222198277711868 -0.99436324834823616
vn 0.017362080514431 -0.16486912965774536 -0.98616260290145872
vn 0.00356929679401218 0.20996105670928956 0.97770321369171136
vn -0.17008136212825776 0.22106897830963136 0.96031284332275392
vn -0.16039082407951354 0.20955149829387664 0.96455317735672
vn -0.17954924702644348 0.15287387371063232 0.97179812192916864
vn -0.18199416995048524 0.15550391376018524 0.97092568874359136
vn -0.1892981380224228 0.19127036631107332 0.96311050653457648
vn -0.19373247027397156 0.19451579451560976 0.96157747507095344
vn -0.00753252441063523 0.14114373922348022 -0.98996043205261232
vn -0.03633219003677368 0.04937421903014183 -0.99811929464340208
vn -0.03880470618605613 0.23019324243068696 -0.97237098217010496
vn -0.0191471166908741 0.26306366920471192 -0.96458846330642704
vn -0.11197970062494278 -0.03125758096575737 0.99321877956390384
vn -0.10837016999721528 -0.02770037576556205 0.99372470378875728
vn -0.11545900255441666 -0.02020644210278988 0.99310672283172608
vn -0.12090510874986648 -0.03425803408026695 0.99207270145416256
vn -0.22786609828472136 -0.07181605696678162 0.9710403680801392
vn -0.18846561014652252 -0.02874854207038879 0.98165893554687504
vn -0.10516364872455596 -0.29025870561599732 0.95115220546722416
vn -0.13050229847431182 -0.26404544711112976 0.95564067363739008
vn -0.09889902919530868 -0.21724426746368408 0.97109419107437136
vn -0.10007981956005096 -0.21605683863162996 0.97123819589614864
vn -0.16734611988067626 -0.04658308252692223 0.98479706048965456
vn -0.16449877619743348 -0.03834380954504013 0.98563176393508912
vn -0.12598668038845062 -0.2788715362548828 0.9520283937454224
vn -0.0613434873521328 -0.34492290019989012 0.93662428855896
vn -0.02125287801027298 -0.1760573387145996 -0.98415046930313104
vn 0.00714058894664049 -0.20720401406288148 -0.97827172279357904
vn 0.03744030743837356 -0.28968229889869688 -0.95639032125473024
vn -0.01433365605771541 -0.18578457832336424 -0.9824858903884888
vn 0.07481617480516434 -0.48085805773735048 -0.87360060214996336
vn 0.1126086637377739 -0.4379611015319824 -0.89191329479217536
vn -0.02274361811578274 -0.57148051261901856 -0.82030040025711056
vn -0.32818156480789184 -0.49303153157234192 0.80573987960815424
vn -0.36556452512741088 -0.50477015972137448 0.7820290923118592
vn 0.25941899418830872 -0.48654937744140624 0.83424907922744752
vn 0.05443020537495613 -0.57908737659454344 0.81344652175903328
vn -0.08429068326950073 -0.4584981203079224 0.88468903303146368
vn -0.05918118357658386 -0.40045195817947384 0.91440469026565552
vn -0.17685388028621674 -0.49137610197067264 0.852802574634552
vn -0.16632583737373352 -0.48195987939834592 0.86026191711425776
vn -0.08267500996589661 -0.65268981456756592 0.75310087203979488
vn -0.12004797905683518 -0.61870425939559936 0.77639782428741456
vn 0.11514333635568618 -0.85956519842147824 -0.49788525700569152
vn 0.11279608309268952 -0.86216938495635984 -0.49390393495559696
vn 0.28509542346000672 -0.7131445407867432 -0.64042592048645016
vn 0.1928808093070984 -0.64453136920928952 -0.739848792552948
vn 0.23441772162914276 -0.7935053706169128 -0.56160271167755128
vn 0.23238058388233184 -0.79391795396804816 -0.56186604499816896
vn -0.16345441341400146 -0.80730777978897088 -0.56704229116439816
vn -0.10941282659769058 -0.80200797319412224 -0.58720695972442624
vn -0.23665195703506468 -0.9249191284179688 0.29752397537231444
vn -0.27556249499320984 -0.91313952207565312 0.30040225386619568
vn -0.15397591888904572 -0.79183804988861088 0.5910025238990784
vn -0.24023589491844176 -0.86553591489791872 0.43947035074234008
vn 0.18866047263145448 -0.7567098140716552 0.62593722343444824
vn 0.0961393490433693 -0.74517285823822016 0.65990495681762696
vn -0.05004508793354034 -0.76815146207809456 0.63830929994583128
vn -0.05166848376393318 -0.77101033926010128 0.6347230672836304
vn 0.10072357207536698 -0.89470911026000976 0.43514403700828552
vn 0.08697059005498886 -0.88918089866638176 0.44921436905860904
vn -0.17627736926078796 -0.77840650081634528 0.60250276327133176
vn -0.12292259931564332 -0.74643349647521968 0.65400850772857664
vn -0.05011704936623573 -0.85978710651397712 0.5081873536109924
vn -0.0122921597212553 -0.88263732194900512 0.46989387273788456
vn -0.03150026127696037 -0.97560852766036992 -0.2172459214925766
vn 0.01963510364294052 -0.98420530557632448 -0.17593875527381896
vn -0.15632016956806182 -0.96324682235717776 0.21844811737537384
vn -0.1657833456993103 -0.96378612518310544 0.20888338983058928
vn 0.0713915079832077 -0.97260117530822752 -0.22124697268009184
vn 0.06383714824914932 -0.970199465751648 -0.23374757170677184
vn 0.0930059477686882 -0.99373394250869744 -0.06198875233530998
vn 0.07454113662242889 -0.99636429548263552 -0.0412517711520195
vn 0.05695901438593864 -0.98213213682174688 0.179365873336792
vn 0.05253111198544502 -0.98404979705810544 0.1699603796005249
vn 0.13243196904659272 -0.99022966623306272 -0.04366885498166084
vn 0.13656900823116302 -0.98941963911056512 -0.04896603897213936
vn 0.08420919626951218 -0.97883999347686768 0.1864967942237854
vn 0.117818683385849 -0.9610710740089416 0.24992223083972932
vn -0.08219147473573685 -0.96760368347167968 -0.23872074484825136
vn -0.00129609159193933 -0.98149329423904416 -0.1914920061826706
vn -0.12383066862821578 -0.9907825589179992 0.05491739884018898
vn -0.10422105342149734 -0.99125969409942624 0.0808834433555603
vn -0.0005584314931184 -0.2484053522348404 -0.96865600347518928
vn 0.06513126939535141 -0.3262261748313904 -0.9430453181266784
vn 0.04374627023935318 -0.69394713640213016 -0.7186957001686096
vn 0.02514352463185787 -0.67489933967590336 -0.73748123645782464
vn 0.04453673958778381 -0.44871729612350464 -0.89256328344345088
vn 0.05620796978473663 -0.43140494823455808 -0.90040570497512816
vn 0.10209722816944122 -0.71307414770126344 -0.69361478090286256
vn 0.0830359160900116 -0.7011776566505432 -0.70813482999801632
vn 0.07607857882976532 -0.51331305503845216 -0.85482263565063472
vn 0.07692963629961014 -0.51223689317703248 -0.85539186000823968
vn 0.05613064393401146 -0.36122620105743408 -0.93078732490539552
vn 0.07573141157627106 -0.37637937068939208 -0.9233651757240296
vn -0.05191225931048393 0.83881163597106928 -0.54194110631942752
vn -0.66953563690185544 0.61540693044662472 -0.41592821478843688
vn -0.31910413503646852 0.91636788845062256 0.2417486011981964
vn -0.29373300075531004 0.91136026382446288 0.28834587335586548
vn -0.54981523752212528 0.8333410620689392 -0.05697178840637207
vn -0.55421310663223264 0.83022260665893552 -0.05981887131929398
vn -0.13577668368816376 0.97832459211349488 -0.15635131299495698
vn -0.33654209971427916 0.94163399934768672 -0.00804980564862489
vn -0.09650297462940216 0.9299548268318176 -0.35478320717811584
vn -0.05106237530708313 0.92390859127044672 -0.37919083237648008
vn -0.53668934106826784 0.77440321445465088 -0.33505859971046448
vn -0.54761099815368656 0.7647432684898376 -0.33954367041587828
vn -0.19998742640018464 0.96380448341369632 -0.17631243169307708
vn -0.20678582787513732 0.96298253536224368 -0.17292840778827668
vn -0.00068925839150324 0.34330841898918152 -0.9392224550247192
vn 0.00553061673417687 0.3154136836528778 -0.94893813133239744
vn -0.07005082070827484 0.43254181742668152 -0.89888840913772576
vn -0.0477508082985878 0.37045204639434816 -0.92762333154678352
vn -0.28437948226928712 0.49606218934059144 -0.82039660215377808
vn -0.33957093954086304 0.48355853557586672 -0.8067606687545776
vn -0.283397376537323 0.8920162320137024 -0.35212650895118712
vn -0.3098183274269104 0.87670779228210448 -0.36796200275421144
vn -0.50618702173233032 0.72405743598937984 -0.46852490305900576
vn -0.5359234809875488 0.7124758958816528 -0.45295038819313048
vn -0.54477876424789432 0.83532619476318352 0.07379808276891708
vn -0.5586761832237244 0.82479989528656 0.08709871768951416
vn -0.51272779703140256 0.83530426025390624 -0.19843620061874388
vn -0.48569387197494504 0.84904402494430544 -0.20790787041187288
vn -0.33733001351356508 0.7933968901634216 0.50668525695800784
vn -0.3463023006916046 0.83942848443984992 0.41884905099868776
vn -0.17520205676555634 0.66609102487564088 0.72500139474868768
vn -0.2735358476638794 0.65205830335617064 0.70710539817810056
vn -0.13739554584026336 0.2866327464580536 0.94813722372055056
vn -0.11051508784294128 0.35323873162269592 0.92898261547088624
vn -0.33523032069206236 0.87632083892822272 0.345951646566391
vn -0.41876825690269472 0.86286777257919312 0.28300592303276064
vn -0.25242483615875244 0.85148131847381584 0.45963174104690552
vn -0.25929406285285948 0.75060236454010016 0.60775226354599
vn -0.13471262156963348 0.97605443000793456 -0.17079304158687592
vn -0.13591514527797698 0.97600775957107536 -0.17010541260242462
vn -0.2994394302368164 0.95410764217376704 -0.00383994216099381
vn -0.3436870574951172 0.9386391639709472 -0.02891001105308532
vn -0.15234702825546264 0.98065710067749024 0.12289008498191834
vn -0.22292935848236084 0.95586496591568 0.19137588143348692
vn -0.06379952281713486 0.58501678705215456 -0.80850785970687872
vn -0.11563238501548768 0.58055365085601808 -0.80596935749053952
vn -0.30157268047332764 0.70547556877136232 -0.64137202501297
vn -0.28139495849609376 0.73788297176361088 -0.6134700775146484
vn -0.18105098605155944 0.86091655492782592 -0.47544017434120176
vn -0.0984041914343834 0.85400652885437008 -0.51087135076522824
vn -0.10379326343536376 0.46954843401908872 -0.87678462266922
vn -0.15291728079319 0.51902705430984496 -0.84096795320510864
vn -0.16219700872898102 0.68478518724441528 -0.710465669631958
vn -0.14263896644115448 0.71879482269287112 -0.68043231964111328
vn -0.14850039780139924 0.80647343397140496 -0.57231831550598144
vn -0.17531125247478486 0.81643557548522944 -0.55018085241317752
vn -0.1871425211429596 0.89885896444320672 -0.39627048373222352
vn -0.15165600180625916 0.92205834388732912 -0.3561023771762848
vn -0.17091824114322662 0.95808869600296016 -0.2298976331949234
vn -0.19535432755947112 0.9583081007003784 -0.20852404832839964
vn -0.14849358797073364 0.98879063129425056 0.01557786669582128
vn -0.14238934218883514 0.98955368995666496 0.02255752496421337
vn -0.21832840144634248 0.93384462594985968 0.28331416845321656
vn -0.18863525986671448 0.94872570037841792 0.25364595651626588
vn -0.19469551742076872 0.82623660564422608 0.52860838174819944
vn -0.28004276752471924 0.8618823885917664 0.42277044057846072
vn -0.238396093249321 0.54988741874694824 0.80049425363540656
vn -0.25027042627334596 0.52519321441650392 0.81334906816482544
vn -0.24829754233360292 0.75418698787689216 0.60790652036666872
vn -0.26935788989067076 0.7681049704551696 0.58091402053833008
vn -0.25086638331413268 0.51771533489227296 0.81794673204422
vn -0.2481723576784134 0.5221335291862488 0.81595778465270992
vn -0.20536625385284424 0.97843158245086672 -0.02227992191910743
vn -0.20492547750473024 0.97853982448577888 -0.02156952768564224
vn -0.28179997205734252 0.91621351242065424 0.28485342860221864
vn -0.266962468624115 0.92561817169189456 0.26825737953186036
vn -0.15952908992767334 0.89279991388320928 -0.42125850915908816
vn -0.15078069269657136 0.89958697557449344 -0.40988832712173464
vn -0.17488335072994232 0.95492798089981072 -0.23985080420970916
vn -0.19985736906528472 0.95554369688034064 -0.21677938103675844
vn 0.02355251088738441 0.32018435001373292 -0.94706243276596064
vn -0.05639681965112686 0.41329154372215272 -0.90885061025619504
vn -0.09879672527313232 0.63903844356536864 -0.76280343532562256
vn -0.08412268757820129 0.66461324691772464 -0.74243694543838496
vn -0.10891855508089066 0.803581178188324 -0.58514451980590824
vn -0.09352947026491166 0.79663246870040896 -0.59718412160873416
vn -0.00839126668870449 0.20108589529991148 -0.97953766584396368
vn -0.08063595741987228 0.25177505612373352 -0.96442061662673952
vn -0.22313687205314636 0.95978885889053344 -0.17033861577510834
vn -0.21689143776893616 0.96111679077148432 -0.17091669142246246
vn -0.26752367615699768 0.93601822853088384 0.22869426012039184
vn -0.26542073488235472 0.93678748607635504 0.22799378633499144
vn -0.30588680505752564 0.79676973819732672 0.52114421129226688
vn -0.2409338653087616 0.770228624343872 0.59050714969635008
vn -0.2321089804172516 0.5323708653450012 0.81406795978546144
vn -0.21178485453128816 0.5519777536392212 0.80651587247848512
vn 0.1328478753566742 -0.990501880645752 -0.03546159341931343
vn 0.248551145195961 -0.95296865701675408 -0.17341580986976624
vn 0.21436822414398192 -0.959267258644104 0.1839909851551056
vn 0.05809827521443367 -0.99499160051345824 0.08134033530950546
vn -0.2600518763065338 -0.96004372835159296 0.10338844358921052
vn -0.07079325616359711 -0.9964559078216552 -0.04543247073888779
vn 0.1392534226179123 -0.95369976758956912 -0.2665802836418152
vn 0.03154573962092399 -0.95306980609893792 -0.30110254883766176
vn 0.02669207006692886 -0.55796664953231808 0.82943391799926752
vn -0.06357388198375702 -0.4425524473190308 0.89448624849319456
vn -0.20224323868751524 -0.381159633398056 0.9021170139312744
vn -0.20464155077934264 -0.37855392694473264 0.9026731252670288
vn -0.4579922258853912 -0.52386814355850216 0.718195915222168
vn -0.39803171157836912 -0.57770389318466184 0.71262115240097048
vn 0.131023108959198 -0.65271538496017456 0.74618732929229744
vn -0.13911467790603638 -0.73863857984542848 0.65959095954895016
vn 0.51590245962142944 -0.62466806173324584 0.58620339632034304
vn 0.47490328550338744 -0.6214231848716736 0.62313729524612424
vn -0.0706290528178215 -0.6611511707305908 0.74692082405090336
vn -0.15617799758911132 -0.64447951316833496 0.74850153923034672
vn -0.11510445177555084 -0.48207321763038632 -0.86853694915771488
vn -0.12497938424348832 -0.48588675260543824 -0.86504000425338752
vn -0.15048706531524658 -0.90409320592880256 -0.39996159076690672
vn -0.1285884827375412 -0.89943075180053712 -0.41771924495697024
vn -0.27163565158843996 -0.96195906400680544 0.02913367561995983
vn -0.21272872388362884 -0.9771048426628112 0.003557407297194
vn -0.26692923903465272 -0.86786633729934688 0.41899508237838744
vn -0.31893840432167052 -0.8389235138893128 0.44100534915924072
vn -0.17586544156074524 -0.690051794052124 0.70206832885742184
vn -0.26613327860832216 -0.62456548213958744 0.73422825336456304
vn -0.25707834959030152 -0.26688867807388304 0.92880630493164064
vn -0.24261347949504852 -0.2782990038394928 0.929348349571228
vn 0.20292499661445616 -0.86476653814315792 -0.45934754610061648
vn 0.23151321709156036 -0.82954084873199456 -0.50819647312164304
vn 0.1648503988981247 -0.67132687568664552 -0.72259575128555296
vn 0.14348909258842468 -0.659157395362854 -0.73818862438201904
vn 0.1273779720067978 -0.88164317607879632 -0.4544010162353516
vn 0.13990852236747742 -0.86661177873611456 -0.47896718978881832
vn 0.247617706656456 -0.93781328201293952 -0.24329365789890288
vn 0.17969441413879394 -0.92942857742309568 -0.32229256629943848
vn 0.17048551142215728 -0.76193219423294064 0.62481510639190672
vn 0.18552201986312868 -0.73258322477340704 0.6549071669578552
vn -0.01263363379985094 -0.57510101795196536 0.81798481941223152
vn -0.02202759869396686 -0.5668005347251892 0.82356059551239008
vn -0.01916278898715973 -0.39199307560920712 0.91976857185363776
vn -0.04931260645389557 -0.46858355402946472 0.88204175233840944
vn 0.06841020286083221 -0.65709733963012696 0.75069510936737056
vn 0.1596740335226059 -0.68896889686584472 0.7069838047027588
vn -0.092530757188797 -0.31103932857513428 -0.94588190317153936
vn 0.03279954940080642 -0.18194247782230376 -0.98276197910308832
vn -0.13498024642467498 0.16083300113677978 0.97770810127258304
vn -0.16383607685565948 0.16637732088565826 0.9723560810089112
vn -0.18717506527900696 0.96013784408569328 -0.2076072543859482
vn 0.19468286633491516 0.9455099701881408 -0.26097792387008668
vn -0.11308243125677108 0.76761382818222048 -0.63085776567459104
vn -0.20132189989089964 0.77995234727859504 -0.5925738215446472
vn -0.53640228509902952 0.80212616920471184 -0.26242396235466004
vn -0.17969810962677002 0.98348629474639888 0.0215255506336689
vn 0.01625929027795791 0.99985581636428832 0.00491209002211689
vn -0.11620794981718064 0.9667696356773376 -0.22771094739437104
vn 0.06531727313995361 0.97904217243194576 -0.19289943575859068
vn 0.23907497525215148 0.9240566492080688 -0.29826551675796508
vn 0.01922681555151939 0.90795665979385376 -0.4186227917671204
vn -0.67497462034225464 0.59265649318695072 -0.43950811028480528
vn -0.66219794750213624 0.6080594062805176 -0.43790137767791752
vn -0.78434962034225456 0.43349239230155944 -0.44371166825294496
vn 0.20337240397930144 0.86789178848266608 -0.45321452617645264
vn -0.19504055380821228 0.89053285121917728 -0.41098710894584656
vn -0.23304855823516844 0.87051969766616816 -0.43345573544502256
vn 0.0172135904431343 0.91903787851333616 -0.39379313588142392
vn -0.2996200919151306 0.85782569646835328 -0.41756790876388552
vn -0.46435123682022096 0.74442636966705328 -0.47979918122291568
vn -0.32494989037513732 0.78082889318466192 -0.5335857272148132
vn -0.3147645592689514 0.94903409481048576 -0.01604947447776794
vn -0.31465733051300048 0.9490715861320496 -0.01593103259801864
vn -0.3001897633075714 0.9530067443847656 -0.04079480096697807
vn -0.06540536135435104 0.99748426675796512 0.02733664959669113
vn -0.52477884292602536 0.81613594293594368 -0.24192816019058228
vn -0.393932580947876 0.88001209497451776 -0.26532211899757384
vn -0.07955796271562576 0.5953262448310852 -0.79953557252883904
vn -0.05282983183860779 0.61334753036499024 -0.78804427385330208
vn -0.7992175817489624 0.3841407299041748 -0.46226304769515992
vn 0.0541030652821064 0.66856539249420168 -0.74168264865875248
vn -0.12391490489244462 0.566144585609436 -0.81493890285491936
vn -0.75118726491928096 0.65654468536376952 -0.06831318885087967
vn -0.7388838529586792 0.670964241027832 -0.06211000308394432
vn 0.10026609152555466 0.99242448806762688 -0.07099474221467972
vn 0.18654744327068328 0.9813308715820312 -0.04679533466696739
vn -0.79536592960357664 0.5193189978599548 -0.31257128715515136
vn -0.77387809753417968 0.55588513612747192 -0.3034871220588684
vn -0.56608307361602784 0.79797059297561648 -0.2068646401166916
vn -0.51066654920578 0.833945631980896 -0.20917542278766632
vn 0.1631852388381958 0.96978366374969488 -0.18135647475719452
vn 0.00242711650207638 0.96477741003036496 -0.26305633783340456
vn -0.52975851297378544 0.76083838939666752 -0.37480783462524416
vn -0.79328578710556032 0.13990332186222076 -0.59255772829055784
vn -0.54518866539001464 0.71665292978286744 -0.43494585156440736
vn -0.52604079246521 0.73062127828598016 -0.43528565764427184
vn -0.12018559128046036 0.95982843637466432 -0.25354412198066712
vn -0.48186168074607848 0.582589328289032 -0.65452194213867184
vn -0.66570520401000976 0.74347132444381712 0.06392920017242432
vn 0.07256943732500076 0.99718046188354496 0.01909977383911609
vn -0.47696125507354736 0.87878501415252688 0.01564741879701614
vn -0.46250236034393312 0.88654458522796624 0.01141619682312011
vn -0.86002826690673824 0.4830875098705292 0.1642489731311798
vn -0.34279873967170716 0.91098833084106448 0.22932350635528564
vn -0.11560702323913574 0.61792784929275512 -0.77768903970718384
vn -0.12656855583190918 0.64106231927871704 -0.75698047876358032
vn -0.3353062868118286 0.5969838500022888 -0.72882097959518432
vn -0.31263697147369384 0.6153051853179932 -0.72364199161529536
vn -0.09281431138515472 0.3432055711746216 -0.9346633553504944
vn -0.10805993527173996 0.3624576926231384 -0.92571449279785152
vn -0.21852067112922668 0.90190899372100832 0.37257051467895504
vn -0.21847599744796752 0.90193235874176032 0.3725402653217316
vn -0.3567834496498108 0.73326140642166144 0.5788205862045288
vn -0.26851579546928404 0.7682542204856872 0.58110648393630984
vn -0.28195893764495848 0.81345641613006592 0.50871193408966064
vn -0.12377683073282242 0.52519661188125608 -0.84193104505538944
vn -0.4913029074668884 0.86763787269592288 -0.07632839679718018
vn -0.57061529159545896 0.71886354684829712 -0.3970307111740112
vn -0.63135272264480592 0.665056586265564 -0.39886519312858584
vn -0.54787844419479368 0.77614849805831904 -0.31212592124938964
vn -0.58507192134857176 0.74868363142013552 -0.31171107292175292
vn -0.47338917851448056 0.87722170352935792 -0.07990442216396332
vn -0.50207680463790896 0.8613901138305664 -0.07697970420122147
vn -0.54697030782699584 0.83540773391723632 -0.05401235818862915
vn -0.43716299533843992 0.81580322980880736 -0.37862068414688112
vn -0.30580860376358032 0.8615003824234008 -0.40533706545829776
vn -0.80981928110122688 0.40581801533699032 -0.42367967963218688
vn -0.17993870377540588 0.886561632156372 -0.42618116736412048
vn 0.02266734838485718 0.9339134693145752 -0.35677966475486756
vn -0.11251025646924972 0.87617278099060064 -0.46868196129798888
vn -0.18852771818637848 0.87236708402633664 -0.45103543996810912
vn 0.12669925391674042 0.99117499589920048 0.03898023441433906
vn 0.02607980370521545 -0.56832218170166016 0.82239276170730592
vn 0.12595272064208984 -0.64511281251907352 0.75363475084304816
vn 0.22116708755493164 -0.84991478919982912 -0.47825714945793152
vn 0.2318124920129776 -0.8526532649993896 -0.46823650598526
vn 0.13348570466041564 -0.64952772855758664 0.74852877855300896
vn -0.06825951486825943 -0.65725356340408328 0.75057208538055424
vn -0.07589412480592728 -0.46834298968315128 0.88028109073638912
vn 0.24644812941551208 -0.9690930843353272 -0.0110422158613801
vn 0.08091514557600021 -0.99646812677383424 -0.02244802750647068
vn -0.2662281095981598 0.80632025003433232 0.52817636728286744
vn -0.2750457227230072 0.80085337162017824 0.5319621562957764
vn -0.24855883419513704 0.9686123728752136 -0.00294048292562365
vn -0.24638353288173676 0.96917122602462768 -0.00151377893052995
vn -0.1578875333070755 0.89169812202453616 -0.42420032620429992
vn -0.12039266526699066 0.53439885377883912 -0.83661425113677984
vn -0.08464477956295013 0.57000362873077392 -0.8172705173492432
vn -0.04388501867651939 0.64413148164749144 -0.76365494728088384
vn -0.0604974702000618 0.61311644315719608 -0.78767269849777216
vn -0.13384895026683808 0.8971644043922424 -0.42092821002006528
vn -0.14261220395565032 0.88996011018753056 -0.43316596746444704
vn -0.24910369515419008 0.96806514263153072 -0.02823506481945514
vn -0.2357347309589386 0.97180896997451776 -0.00405121641233563
vn -0.2615545690059662 0.75229084491729744 0.60468798875808712
vn -0.27667325735092164 0.76255512237548832 0.5847748517990112
vn -0.22171917557716368 0.82225453853607184 0.52415454387664792
vn -0.27606162428855896 0.76707893610000608 0.5791199207305908
vn -0.19354210793972016 0.98088812828063968 -0.02000117674469947
vn -0.17068520188331604 0.98524844646453856 0.01233459170907735
vn -0.18142522871494292 0.89353668689727776 -0.41070312261581424
vn -0.16880780458450318 0.90308815240859984 -0.39488691091537472
vn -0.15694385766983032 0.6516307592391968 -0.74212265014648432
vn -0.13441011309623718 0.69172942638397216 -0.70953816175460816
vn -0.12288227677345276 0.78229349851608272 -0.61066919565200808
vn -0.1706492155790329 0.71075809001922608 -0.68242347240448
vn -0.1524302363395691 0.9882890582084656 0.00705253006890416
vn -0.13200454413890838 0.99096405506134032 0.02377169206738472
vn -0.28498533368110656 0.8956840634346008 0.34136986732482912
vn -0.20178934931755064 0.8826672434806824 0.42447558045387272
vn -0.18377819657325744 0.65551066398620608 0.73248302936553952
vn -0.26035118103027344 0.77719801664352416 0.57287037372589112
vn -0.2245734930038452 0.7186415195465088 0.65811938047409056
vn -0.50190824270248416 0.86423093080520624 -0.03453896939754486
vn -0.58470165729522704 0.808541476726532 -0.06621608138084412
vn -0.52666902542114256 0.77325242757797248 -0.3531295955181122
vn -0.47070237994194032 0.81935298442840576 -0.32726141810417176
vn -0.44723889231681824 0.6308962106704712 -0.63399320840835568
vn -0.45945182442665104 0.60201621055603024 -0.6530548334121704
vn -0.0974729061126709 0.35503706336021424 -0.92975682020187376
vn -0.10793627053499222 0.36965942382812496 -0.9228768944740296
vn 0.02808228135108948 0.45259651541709896 -0.89127314090728752
vn -0.03504207357764244 0.40327626466751096 -0.91440707445144656
vn -0.1277279406785965 0.92704236507415776 -0.3525308072566986
vn -0.12852293252944946 0.92668974399566656 -0.35316839814186096
vn -0.21793845295906068 0.91627824306488032 -0.33606112003326416
vn -0.08579633384943008 0.96068811416625984 -0.26404029130935668
vn -0.13406722247600556 0.99053144454956048 -0.02955298870801925
vn -0.19249173998832704 0.97937178611755376 -0.06146499514579773
vn -0.33802691102027892 0.91333484649658208 0.22706225514411928
vn -0.20714619755744936 0.91415792703628544 0.34843316674232484
vn -0.0722346156835556 0.84284406900405888 -0.53328800201416016
vn -0.12609335780143738 0.64613127708435056 -0.75273817777633664
vn 0.08351615816354752 -0.51407551765441896 -0.85366940498352048
vn 0.0827438160777092 -0.51463538408279416 -0.8534072637557984
vn 0.01374406088143587 -0.51073944568634032 -0.85962569713592528
vn 0.05016116425395012 -0.44880872964859008 -0.89221888780593872
vn -0.07736261934041977 -0.9960221648216248 -0.04421411454677582
vn -0.12480728328227996 -0.98945516347885136 -0.07349485158920288
vn 0.1745883971452713 -0.98351615667343136 -0.04706241190433502
vn 0.10216528177261352 -0.98465758562088016 -0.14146305620670318
vn 0.06442531943321228 -0.9960471391677856 -0.06115049123764038
vn 0.0753227025270462 -0.99618542194366448 -0.04405777156352997
vn -0.05019814148545265 -0.99867904186248784 0.0109743345528841
vn -0.11520323157310486 -0.99254369735717776 -0.03981398418545723
vn -0.15967202186584472 -0.84840166568756096 0.50469732284545896
vn -0.205930158495903 -0.86580502986907952 0.4560421109199524
vn -0.00885830912739038 -0.9074957966804504 0.41996783018112184
vn 0.0121985962614417 -0.88163560628890992 0.47177302837371824
vn 0.19388812780380248 -0.75447809696197504 0.62703281641006472
vn 0.09801407158374786 -0.88715732097625728 0.45093807578086856
vn -0.15445394814014434 -0.94197052717208864 0.29805281758308412
vn -0.10345517098903656 -0.91042643785476688 0.40052542090415952
vn -0.01339014247059822 -0.80747276544570928 -0.58975291252136232
vn 0.29644358158111572 -0.79423695802688592 -0.53038561344146728
vn 0.12844957411289216 -0.79530012607574464 -0.59245115518569944
vn 0.04483507573604583 -0.87044703960418704 -0.4902160167694092
vn 0.06286013871431351 -0.88418078422546384 -0.46289625763893128
vn 0.08820756524801254 -0.89418554306030272 -0.43892106413841248
vn 0.02647501602768898 -0.87070214748382576 -0.4910975396633148
vn -0.14161074161529542 -0.64759194850921632 0.74871301651000976
vn -0.14579276740550994 -0.6507520079612732 0.7451618909835816
vn -0.06190022453665733 -0.57090115547180176 0.81868195533752448
vn -0.08661449700593948 -0.61998629570007328 0.77981728315353392
vn 0.05552759766578674 -0.8245325088500976 0.56308335065841672
vn -0.22462850809097292 -0.86396193504333504 0.45067930221557616
vn 0.32934609055519104 -0.6371740102767944 0.696807324886322
vn -0.43626055121421816 -0.73814111948013312 0.51461082696914672
vn -0.20604628324508668 -0.58906239271163944 0.78137719631195072
vn 0.04486673697829246 -0.47780629992485048 -0.87731873989105232
vn 0.18967856466770172 -0.6183897256851196 -0.76263761520385744
vn 0.06147958338260651 -0.43151158094406128 -0.90000998973846432
vn 0.06850263476371765 -0.4369613826274872 -0.8968679904937744
vn -0.12471403926610946 -0.27874600887298584 0.95223271846771248
vn -0.10043676942586898 -0.21757352352142332 0.97086256742477424
vn -0.199087455868721 -0.28163468837738036 0.93864053487777712
vn -0.20259636640548708 -0.28494054079055788 0.93689042329788208
vn -0.09747539460659028 -0.21554993093013764 0.9716155529022216
vn -0.05321465060114861 -0.26101824641227724 0.96386599540710448
vn -0.26045906543731688 -0.3357524573802948 0.90522450208663936
vn 0.03860583156347275 -0.50630390644073488 0.86149054765701296
vn -0.11340782791376114 -0.33604174852371216 0.9349944591522216
vn -0.43606278300285336 0.84977579116821296 0.29619312286376952
vn -0.44912907481193544 0.84474945068359376 0.29100078344345092
vn -0.12972882390022278 0.258615642786026 -0.95722961425781248
vn -0.04947800189256668 0.14998489618301392 -0.98744946718215936
vn -0.17663735151290894 0.19403110444545744 0.9649617671966552
vn -0.19611018896102904 0.1500396728515625 0.96903508901596064
vn -0.09688540548086166 0.2265755981206894 0.9691628813743592
vn -0.10557637363672256 0.21606533229351044 0.97065412998199456
vn 0.00448925327509641 0.23654548823833464 -0.9716100096702576
vn -0.00101401261053979 0.25384497642517088 -0.9672443866729736
vn 0.06932897865772247 -0.09362204372882844 -0.9931910037994384
vn -0.03591117635369301 0.04931985586881638 -0.99813723564147952
vn 0.02339663542807102 -0.16492927074432374 -0.9860278964042664
vn 0.04579775035381317 -0.18193459510803224 -0.982243537902832
vn -0.20990251004695892 0.15583601593971252 0.9652233719825744
vn -0.17086568474769592 0.19997458159923552 0.9647875428199768
vn -0.19871360063552856 0.15218038856983184 0.9681704640388488
vn -0.1808195263147354 0.203701913356781 0.96219015121459968
vn 0.25338524580001832 -0.71495383977890016 -0.65164166688919064
vn -0.05133787170052528 -0.77642977237701424 -0.62810933589935304
vn -0.1423155814409256 -0.7483512163162232 -0.64785540103912352
vn -0.14298376441001892 -0.74832308292388912 -0.64774078130722048
vn -0.06175530701875687 -0.95515090227127072 -0.28960829973220824
vn 0.16205750405788422 -0.91369682550430304 -0.37268680334091184
vn 0.18150198459625244 -0.70815044641494752 0.682334303855896
vn 0.39519900083541872 -0.76274710893630976 0.5118931531906128
vn -0.07373920828104019 -0.04267468303442001 0.99636405706405632
vn 0.04470336809754371 -0.14788194000720978 0.98799419403076176
vn -0.34189769625663756 0.84290236234664912 0.41547748446464536
vn -0.41943731904029848 0.80624121427536016 0.4171898066997528
vn -0.05090468004345894 0.91958338022232048 0.38958314061164856
vn -0.25745043158531188 0.96200424432754512 0.09092359244823456
vn -0.09372483938932418 0.54821562767028808 -0.83106875419616704
vn -0.10113289952278138 0.41846749186515808 -0.90258353948593136
vn -0.297054260969162 0.91795551776885984 0.26289999485015868
vn -0.38063299655914304 0.91271656751632688 0.1485498994588852
vn -0.0547759048640728 0.3231545388698578 -0.94475960731506352
vn -0.06018557772040367 0.31817469000816344 -0.94611972570419312
vn -0.64498871564865112 0.25173282623291016 0.7215401530265808
vn -0.19616416096687316 0.56839460134506224 0.79902893304824832
# 616 vertex normals

g obj_45374298
s 1
f 1//1 2//1 3//1
f 1//2 3//2 4//2
f 5//3 6//3 2//3
f 5//4 2//4 1//4
f 6//5 5//5 7//5
f 4//6 3//6 8//6
f 9//7 10//7 11//7
f 9//8 11//8 12//8
f 13//9 14//9 15//9
f 13//10 15//10 16//10
f 17//11 18//11 19//11
f 17//12 19//12 20//12
f 21//13 22//13 23//13
f 21//14 23//14 24//14
f 25//15 26//15 27//15
f 25//16 27//16 28//16
f 29//17 30//17 31//17
f 29//18 31//18 32//18
f 33//19 34//19 35//19
f 33//20 35//20 36//20
f 37//21 38//21 39//21
f 37//22 39//22 40//22
f 41//23 42//23 43//23
f 41//24 43//24 44//24
f 45//25 46//25 47//25
f 45//26 47//26 48//26
f 49//27 50//27 51//27
f 49//28 51//28 52//28
f 53//29 54//29 55//29
f 53//30 55//30 56//30
f 57//31 8//31 3//31
f 57//32 3//32 58//32
f 59//33 60//33 2//33
f 59//34 2//34 6//34
f 61//35 62//35 63//35
f 61//36 63//36 64//36
f 65//37 66//37 67//37
f 65//38 67//38 68//38
f 69//39 70//39 71//39
f 69//40 71//40 72//40
f 73//41 74//41 75//41
f 73//42 75//42 76//42
f 77//43 78//43 79//43
f 77//44 79//44 80//44
f 81//45 82//45 83//45
f 84//46 85//46 86//46
f 84//47 86//47 87//47
f 88//48 89//48 90//48
f 88//49 90//49 91//49
f 92//50 93//50 94//50
f 92//51 94//51 95//51
f 96//52 97//52 98//52
f 99//53 100//53 101//53
f 99//54 101//54 102//54
f 103//55 104//55 105//55
f 103//56 105//56 106//56
f 107//57 108//57 109//57
f 107//58 109//58 110//58
f 111//59 112//59 113//59
f 111//60 113//60 114//60
f 115//61 116//61 117//61
f 115//62 117//62 118//62
f 119//63 120//63 121//63
f 119//64 121//64 122//64
f 123//65 7//65 124//65
f 123//66 124//66 125//66
f 126//67 127//67 128//67
f 126//68 128//68 129//68
f 130//69 131//69 132//69
f 130//70 132//70 133//70
f 134//71 135//71 136//71
f 134//72 136//72 137//72
f 138//73 139//73 140//73
f 138//74 140//74 141//74
f 142//75 143//75 144//75
f 142//76 144//76 145//76
f 146//77 147//77 148//77
f 146//78 148//78 149//78
f 150//79 151//79 152//79
f 150//80 152//80 153//80
f 154//81 155//81 156//81
f 154//82 156//82 157//82
f 158//83 159//83 160//83
f 158//84 160//84 161//84
f 162//85 163//85 164//85
f 162//86 164//86 165//86
f 166//87 167//87 168//87
f 166//88 168//88 169//88
f 170//89 171//89 172//89
f 173//90 174//90 175//90
f 173//91 175//91 176//91
f 177//92 178//92 179//92
f 177//93 179//93 180//93
f 181//94 182//94 183//94
f 181//95 183//95 184//95
f 185//96 186//96 187//96
f 188//97 189//97 190//97
f 188//98 190//98 191//98
f 192//99 193//99 194//99
f 192//100 194//100 195//100
f 196//101 197//101 198//101
f 196//102 198//102 199//102
f 200//103 201//103 202//103
f 200//104 202//104 203//104
f 204//105 205//105 206//105
f 204//106 206//106 207//106
f 208//107 209//107 210//107
f 211//108 212//108 213//108
f 211//109 213//109 214//109
f 215//110 216//110 217//110
f 218//111 219//111 220//111
f 218//112 220//112 221//112
f 222//113 223//113 224//113
f 222//114 224//114 225//114
f 226//115 227//115 228//115
f 229//116 230//116 231//116
f 229//117 231//117 232//117
f 233//118 234//118 235//118
f 236//119 237//119 238//119
f 236//120 238//120 239//120
f 240//121 241//121 242//121
f 240//122 242//122 243//122
f 244//123 245//123 246//123
f 244//124 246//124 247//124
f 248//125 249//125 250//125
f 248//126 250//126 251//126
f 252//127 253//127 254//127
f 252//128 254//128 255//128
f 256//129 257//129 258//129
f 256//130 258//130 259//130
f 260//131 261//131 262//131
f 260//132 262//132 263//132
f 264//133 265//133 266//133
f 264//134 266//134 267//134
f 268//135 269//135 270//135
f 268//136 270//136 271//136
f 272//137 273//137 274//137
f 272//138 274//138 275//138
f 276//139 277//139 278//139
f 276//140 278//140 279//140
f 233//141 280//141 53//141
f 233//142 53//142 56//142
f 281//143 282//143 283//143
f 18//144 17//144 96//144
f 18//145 96//145 98//145
f 99//146 102//146 13//146
f 99//147 13//147 16//147
f 10//148 9//148 119//148
f 10//149 119//149 122//149
f 112//150 111//150 46//150
f 112//151 46//151 45//151
f 22//152 21//152 82//152
f 22//153 82//153 81//153
f 17//154 20//154 284//154
f 17//155 284//155 282//155
f 9//156 12//156 14//156
f 9//157 14//157 13//157
f 205//158 204//158 11//158
f 205//159 11//159 10//159
f 12//160 11//160 26//160
f 12//161 26//161 25//161
f 192//162 195//162 15//162
f 192//163 15//163 14//163
f 16//164 15//164 19//164
f 16//165 19//165 18//165
f 20//166 19//166 197//166
f 20//167 197//167 196//167
f 21//168 24//168 47//168
f 21//169 47//169 46//169
f 285//170 286//170 23//170
f 285//171 23//171 22//171
f 24//172 23//172 173//172
f 24//173 173//173 176//173
f 286//174 287//174 288//174
f 139//175 138//175 289//175
f 139//176 289//176 290//176
f 196//177 199//177 147//177
f 196//178 147//178 146//178
f 25//179 28//179 193//179
f 25//180 193//180 192//180
f 167//181 166//181 27//181
f 167//182 27//182 26//182
f 28//183 27//183 30//183
f 28//184 30//184 29//184
f 50//185 49//185 34//185
f 50//186 34//186 33//186
f 288//187 291//187 174//187
f 288//188 174//188 173//188
f 292//189 170//189 291//189
f 292//190 291//190 293//190
f 293//191 294//191 134//191
f 293//192 134//192 137//192
f 131//193 130//193 142//193
f 131//194 142//194 145//194
f 143//195 142//195 295//195
f 143//196 295//196 296//196
f 297//197 185//197 126//197
f 297//198 126//198 129//198
f 29//199 32//199 188//199
f 29//200 188//200 191//200
f 189//201 188//201 41//201
f 189//202 41//202 44//202
f 163//203 162//203 31//203
f 163//204 31//204 30//204
f 32//205 31//205 37//205
f 32//206 37//206 40//206
f 33//207 36//207 155//207
f 33//208 155//208 154//208
f 159//209 158//209 38//209
f 159//210 38//210 37//210
f 182//211 181//211 35//211
f 182//212 35//212 34//212
f 36//213 35//213 39//213
f 36//214 39//214 38//214
f 40//215 39//215 42//215
f 40//216 42//216 41//216
f 181//217 184//217 43//217
f 181//218 43//218 42//218
f 44//219 43//219 127//219
f 44//220 127//220 126//220
f 298//221 299//221 135//221
f 298//222 135//222 134//222
f 130//223 133//223 300//223
f 130//224 300//224 301//224
f 45//225 48//225 54//225
f 45//226 54//226 53//226
f 49//227 52//227 177//227
f 49//228 177//228 180//228
f 178//229 177//229 48//229
f 178//230 48//230 47//230
f 151//231 150//231 51//231
f 151//232 51//232 50//232
f 52//233 51//233 55//233
f 52//234 55//234 54//234
f 56//235 55//235 200//235
f 56//236 200//236 203//236
f 269//237 268//237 8//237
f 269//238 8//238 57//238
f 125//239 124//239 277//239
f 125//240 277//240 276//240
f 59//241 6//241 7//241
f 59//242 7//242 123//242
f 124//243 7//243 264//243
f 124//244 264//244 267//244
f 253//245 252//245 4//245
f 253//246 4//246 8//246
f 58//247 3//247 2//247
f 58//248 2//248 60//248
f 5//249 1//249 245//249
f 5//250 245//250 244//250
f 81//251 302//251 303//251
f 81//252 303//252 304//252
f 74//253 73//253 305//253
f 74//254 305//254 306//254
f 73//255 76//255 272//255
f 73//256 272//256 275//256
f 66//257 65//257 77//257
f 66//258 77//258 80//258
f 78//259 77//259 256//259
f 78//260 256//260 259//260
f 261//261 260//261 70//261
f 261//262 70//262 69//262
f 65//263 68//263 248//263
f 65//264 248//264 251//264
f 62//265 61//265 307//265
f 62//266 307//266 308//266
f 61//267 64//267 309//267
f 61//268 309//268 310//268
f 281//269 309//269 311//269
f 281//270 311//270 96//270
f 69//271 72//271 63//271
f 69//272 63//272 62//272
f 64//273 63//273 312//273
f 64//274 312//274 311//274
f 88//275 91//275 67//275
f 88//276 67//276 66//276
f 68//277 67//277 71//277
f 68//278 71//278 70//278
f 72//279 71//279 92//279
f 72//280 92//280 95//280
f 302//281 313//281 75//281
f 302//282 75//282 74//282
f 76//283 75//283 79//283
f 76//284 79//284 78//284
f 80//285 79//285 84//285
f 80//286 84//286 87//286
f 111//287 114//287 83//287
f 111//288 83//288 82//288
f 313//289 83//289 85//289
f 313//290 85//290 84//290
f 116//291 115//291 86//291
f 116//292 86//292 85//292
f 87//293 86//293 89//293
f 87//294 89//294 88//294
f 108//295 107//295 90//295
f 108//296 90//296 89//296
f 91//297 90//297 93//297
f 91//298 93//298 92//298
f 104//299 103//299 94//299
f 104//300 94//300 93//300
f 95//301 94//301 97//301
f 95//302 97//302 312//302
f 98//303 97//303 100//303
f 98//304 100//304 99//304
f 103//305 106//305 101//305
f 103//306 101//306 100//306
f 102//307 101//307 120//307
f 102//308 120//308 119//308
f 107//309 110//309 105//309
f 107//310 105//310 104//310
f 106//311 105//311 314//311
f 106//312 314//312 315//312
f 115//313 118//313 109//313
f 115//314 109//314 108//314
f 110//315 109//315 223//315
f 110//316 223//316 222//316
f 280//317 316//317 113//317
f 280//318 113//318 112//318
f 114//319 113//319 117//319
f 114//320 117//320 116//320
f 118//321 117//321 238//321
f 118//322 238//322 237//322
f 317//323 318//323 234//323
f 317//324 234//324 233//324
f 213//325 212//325 230//325
f 213//326 230//326 229//326
f 209//327 208//327 226//327
f 209//328 226//328 228//328
f 315//329 226//329 121//329
f 315//330 121//330 120//330
f 122//331 121//331 319//331
f 122//332 319//332 320//332
f 171//333 321//333 128//333
f 171//334 128//334 127//334
f 129//335 128//335 132//335
f 129//336 132//336 131//336
f 133//337 132//337 136//337
f 133//338 136//338 135//338
f 137//339 136//339 321//339
f 137//340 321//340 292//340
f 146//341 149//341 322//341
f 146//342 322//342 284//342
f 323//343 322//343 140//343
f 323//344 140//344 139//344
f 138//345 141//345 144//345
f 138//346 144//346 143//346
f 145//347 144//347 324//347
f 145//348 324//348 297//348
f 186//349 324//349 148//349
f 186//350 148//350 147//350
f 149//351 148//351 141//351
f 149//352 141//352 140//352
f 150//353 153//353 201//353
f 150//354 201//354 200//354
f 154//355 157//355 152//355
f 154//356 152//356 151//356
f 158//357 161//357 156//357
f 158//358 156//358 155//358
f 162//359 165//359 160//359
f 162//360 160//360 159//360
f 166//361 169//361 164//361
f 166//362 164//362 163//362
f 204//363 207//363 168//363
f 204//364 168//364 167//364
f 170//365 172//365 175//365
f 170//366 175//366 174//366
f 176//367 175//367 179//367
f 176//368 179//368 178//368
f 180//369 179//369 183//369
f 180//370 183//370 182//370
f 184//371 183//371 172//371
f 184//372 172//372 171//372
f 185//373 187//373 190//373
f 185//374 190//374 189//374
f 191//375 190//375 194//375
f 191//376 194//376 193//376
f 195//377 194//377 198//377
f 195//378 198//378 197//378
f 199//379 198//379 187//379
f 199//380 187//380 186//380
f 203//381 202//381 325//381
f 203//382 325//382 317//382
f 320//383 326//383 206//383
f 320//384 206//384 205//384
f 215//385 217//385 327//385
f 215//386 327//386 328//386
f 329//387 330//387 240//387
f 329//388 240//388 243//388
f 212//389 211//389 210//389
f 212//390 210//390 209//390
f 210//391 211//391 215//391
f 211//392 214//392 216//392
f 211//393 216//393 215//393
f 217//394 216//394 241//394
f 217//395 241//395 240//395
f 219//396 218//396 214//396
f 219//397 214//397 213//397
f 218//398 221//398 242//398
f 218//399 242//399 241//399
f 237//400 236//400 224//400
f 237//401 224//401 223//401
f 229//402 232//402 220//402
f 229//403 220//403 219//403
f 221//404 220//404 236//404
f 221//405 236//405 239//405
f 222//406 225//406 227//406
f 222//407 227//407 314//407
f 228//408 227//408 231//408
f 228//409 231//409 230//409
f 232//410 231//410 225//410
f 232//411 225//411 224//411
f 316//412 235//412 239//412
f 316//413 239//413 238//413
f 239//414 235//414 242//414
f 243//415 242//415 235//415
f 243//416 235//416 234//416
f 244//417 247//417 265//417
f 244//418 265//418 264//418
f 260//419 263//419 249//419
f 260//420 249//420 248//420
f 252//421 255//421 246//421
f 252//422 246//422 245//422
f 247//423 246//423 250//423
f 247//424 250//424 249//424
f 251//425 250//425 257//425
f 251//426 257//426 256//426
f 268//427 271//427 254//427
f 268//428 254//428 253//428
f 255//429 254//429 258//429
f 255//430 258//430 257//430
f 259//431 258//431 273//431
f 259//432 273//432 272//432
f 308//433 278//433 262//433
f 308//434 262//434 261//434
f 263//435 262//435 266//435
f 263//436 266//436 265//436
f 267//437 266//437 278//437
f 267//438 278//438 277//438
f 331//439 332//439 270//439
f 331//440 270//440 269//440
f 271//441 270//441 274//441
f 271//442 274//442 273//442
f 275//443 274//443 332//443
f 275//444 332//444 333//444
f 276//445 279//445 334//445
f 276//446 334//446 335//446
f 336//447 337//447 279//447
f 336//448 279//448 307//448
f 337//449 334//449 279//449
f 274//450 270//450 332//450
f 266//451 262//451 278//451
f 273//452 258//452 254//452
f 273//453 254//453 271//453
f 257//454 250//454 246//454
f 257//455 246//455 255//455
f 249//456 263//456 265//456
f 249//457 265//457 247//457
f 231//458 227//458 225//458
f 220//459 232//459 224//459
f 220//460 224//460 236//460
f 242//461 221//461 239//461
f 218//462 241//462 216//462
f 218//463 216//463 214//463
f 330//464 327//464 217//464
f 330//465 217//465 240//465
f 328//466 210//466 215//466
f 198//467 194//467 190//467
f 198//468 190//468 187//468
f 183//469 179//469 175//469
f 183//470 175//470 172//470
f 148//471 324//471 144//471
f 148//472 144//472 141//472
f 140//473 322//473 149//473
f 136//474 132//474 128//474
f 136//475 128//475 321//475
f 121//476 226//476 208//476
f 121//477 208//477 319//477
f 230//478 212//478 209//478
f 230//479 209//479 228//479
f 229//480 219//480 213//480
f 234//481 318//481 329//481
f 234//482 329//482 243//482
f 238//483 117//483 113//483
f 238//484 113//484 316//484
f 223//485 109//485 118//485
f 223//486 118//486 237//486
f 314//487 105//487 110//487
f 314//488 110//488 222//488
f 120//489 101//489 106//489
f 120//490 106//490 315//490
f 97//491 94//491 103//491
f 97//492 103//492 100//492
f 90//493 107//493 104//493
f 90//494 104//494 93//494
f 86//495 115//495 108//495
f 86//496 108//496 89//496
f 83//497 114//497 116//497
f 83//498 116//498 85//498
f 84//499 79//499 75//499
f 84//500 75//500 313//500
f 92//501 71//501 67//501
f 92//502 67//502 91//502
f 312//503 63//503 72//503
f 312//504 72//504 95//504
f 311//505 309//505 64//505
f 336//506 307//506 61//506
f 336//507 61//507 310//507
f 248//508 68//508 70//508
f 248//509 70//509 260//509
f 256//510 77//510 65//510
f 256//511 65//511 251//511
f 272//512 76//512 78//512
f 272//513 78//513 259//513
f 333//514 305//514 73//514
f 333//515 73//515 275//515
f 303//516 302//516 74//516
f 303//517 74//517 306//517
f 80//518 87//518 88//518
f 80//519 88//519 66//519
f 245//520 1//520 4//520
f 245//521 4//521 252//521
f 264//522 7//522 5//522
f 264//523 5//523 244//523
f 267//524 277//524 124//524
f 276//525 335//525 125//525
f 8//526 268//526 253//526
f 57//527 331//527 269//527
f 200//528 55//528 51//528
f 200//529 51//529 150//529
f 177//530 52//530 54//530
f 177//531 54//531 48//531
f 133//532 135//532 299//532
f 133//533 299//533 300//533
f 43//534 184//534 171//534
f 43//535 171//535 127//535
f 39//536 35//536 181//536
f 39//537 181//537 42//537
f 158//538 155//538 36//538
f 158//539 36//539 38//539
f 37//540 31//540 162//540
f 37//541 162//541 159//541
f 41//542 188//542 32//542
f 41//543 32//543 40//543
f 126//544 185//544 189//544
f 126//545 189//545 44//545
f 301//546 295//546 142//546
f 301//547 142//547 130//547
f 298//548 134//548 294//548
f 170//549 174//549 291//549
f 293//550 137//550 292//550
f 34//551 49//551 180//551
f 34//552 180//552 182//552
f 154//553 151//553 50//553
f 154//554 50//554 33//554
f 30//555 27//555 166//555
f 30//556 166//556 163//556
f 191//557 193//557 28//557
f 191//558 28//558 29//558
f 129//559 131//559 145//559
f 129//560 145//560 297//560
f 186//561 147//561 199//561
f 296//562 289//562 138//562
f 296//563 138//563 143//563
f 173//564 23//564 286//564
f 173//565 286//565 288//565
f 178//566 47//566 24//566
f 178//567 24//567 176//567
f 197//568 19//568 15//568
f 197//569 15//569 195//569
f 26//570 11//570 204//570
f 26//571 204//571 167//571
f 25//572 192//572 14//572
f 25//573 14//573 12//573
f 323//574 139//574 290//574
f 196//575 146//575 284//575
f 196//576 284//576 20//576
f 62//577 308//577 261//577
f 62//578 261//578 69//578
f 82//579 21//579 46//579
f 82//580 46//580 111//580
f 119//581 9//581 13//581
f 119//582 13//582 102//582
f 96//583 17//583 282//583
f 96//584 282//584 281//584
f 304//585 285//585 22//585
f 304//586 22//586 81//586
f 53//587 280//587 112//587
f 53//588 112//588 45//588
f 233//589 56//589 203//589
f 233//590 203//590 317//590
f 320//591 205//591 10//591
f 320//592 10//592 122//592
f 99//593 16//593 18//593
f 99//594 18//594 98//594
f 293//595 291//595 288//595
f 293//596 288//596 287//596
f 287//597 338//597 294//597
f 287//598 294//598 293//598
f 170//599 292//599 321//599
f 170//600 321//600 171//600
f 185//601 297//601 324//601
f 185//602 324//602 186//602
f 283//603 282//603 284//603
f 283//604 284//604 322//604
f 278//605 308//605 307//605
f 278//606 307//606 279//606
f 125//607 339//607 340//607
f 125//608 340//608 123//608
f 83//609 313//609 302//609
f 83//610 302//610 81//610
f 226//611 315//611 314//611
f 226//612 314//612 227//612
f 235//613 316//613 280//613
f 235//614 280//614 233//614
f 96//615 311//615 312//615
f 96//616 312//616 97//616
#616 polygons

