# Aspose.3D Wavefront OBJ Exporter
# Copyright 2004-2022 Aspose Pty Ltd.
# File created: 06/23/2022 13:50:53


#
# object obj_10986602
#

v -5.53752994537353512 -1.131927490234375 24.73044204711914064
v -5.59944248199462888 -1.000457763671875 22.22874832153320312
v -4.6524620056152344 -2.53572082519531248 22.39310073852539064
v -4.59526538848876952 -2.76441955566406256 24.83217620849609376
v -4.63087701797485352 -3.36666870117187504 29.58235168457031248
v -4.74549388885498048 -3.48358154296875 32.36659240722656248
v -5.5638408660888672 -1.71591186523437504 32.69474792480468752
v -5.57814884185791016 -1.49870300292968752 29.58297729492187504
v -6.44178485870361328 8.071533203125 24.7263259887695312
v -6.48469257354736328 8.0500335693359375 22.19300079345703124
v -6.86935806274414064 6.0814056396484375 22.12113571166992188
v -6.87269783020019536 6.13189697265625 24.69857025146484376
v -6.7552762031555176 8.06652069091796875 32.5062294006347656
v -6.49970865249633792 8.22492218017578124 29.66638946533203128
v -7.06827402114868164 6.26153564453125 29.70687484741210936
v -7.19829225540161132 6.30419921875 32.81611633300781248
v -6.56183481216430664 1.10040283203125 29.70475769042968752
v -6.69365692138671872 1.0130615234375 32.9621505737304688
v -7.24107694625854492 3.68519592285156248 33.003387451171875
v -7.06043434143066406 3.68687438964843752 29.7473220825195312
v -5.48423290252685544 -1.78964233398437504 34.06732177734375
v -4.62459564208984376 -3.56240844726562496 33.62014007568359376
v -4.37994384765625 -3.79478454589843744 33.83381652832031248
v -5.3514118194580078 -1.83207702636718752 34.76158142089843744
v -7.29907798767089844 3.62547302246093752 34.56158447265625
v -6.70255184173583984 0.94906616210937504 34.57650756835937504
v -6.62985992431640624 0.91867065429687504 35.40536880493164064
v -7.25699567794799804 3.61009216308593752 35.37136840820312496
v -6.83803892135620112 8.01021575927734375 33.53877258300781248
v -7.2760038375854492 6.24778747558593752 34.0238494873046875
v -7.23239517211914064 6.24067687988281248 34.66426467895507816
v -6.56902217864990232 8.24995422363281248 33.71011734008789064
v -2.94456386566162112 -4.319366455078125 26.00369644165039062
v -3.48209095001220704 -3.69078063964843752 25.11149215698242188
v -3.44045829772949216 -3.371337890625 22.7558670043945312
v -2.88746929168701168 -4.3040771484375 25.32511138916015624
v -3.93298840522766112 -4.73951721191406256 32.4132080078125
v -3.71784400939941408 -4.51243591308593752 29.70716857910156248
v -3.2279953956604004 -5.095733642578125 29.7750282287597656
v -3.71010398864746096 -4.97758483886718752 32.62733459472656248
v -5.46381282806396488 9.45304107666015624 24.87529754638671872
v -4.90399026870727536 10.17035675048828124 25.71485900878906248
v -4.9189105033874512 10.275238037109375 25.00324630737304687
v -5.57612180709838864 9.47354125976562496 22.45308303833007816
v -5.52107810974121096 9.39991760253906248 32.3669471740722656
v -5.26511240005493164 9.63149261474609376 32.51125717163085936
v -4.73537445068359376 10.26300811767578124 29.65304946899414064
v -5.35404872894287108 9.57450866699218752 29.6210365295410156
v -6.30846023559570312 1.212860107421875 24.80284118652343744
v -6.75384187698364256 3.63125610351562496 24.79435729980468752
v -6.70244503021240232 3.60331726074218752 22.24176025390625
v -6.27908706665039064 1.24320983886718752 22.27851104736328124
v -4.20276832580566408 -3.80723571777343744 33.83126068115234368
v -5.16592073440551758 -1.83096313476562496 34.77365112304687504
v -6.47224283218383792 0.93013000488281248 35.44605255126953128
v -7.1059112548828125 3.63691711425781248 35.42947387695312496
v -7.07495832443237305 6.288360595703125 34.72871398925781248
v -6.41596508026123048 8.30085754394531248 33.75460052490234368
v -3.14008855819702148 -5.1219329833984375 29.76756286621093744
v -3.584749698638916 -5.0028076171875 32.6236572265625
v -5.13137197494506836 9.67308807373046872 32.50726318359375
v -4.6307392120361328 10.29229736328125 29.6287269592285156
v -4.66226768493652344 -2.57783508300781248 22.27674484252929688
v -5.6338791847229004 -1.016510009765625 22.1092987060546875
v -3.41047859191894528 -3.44456481933593752 22.65858840942382816
v -2.8744187355041504 -4.356353759765625 25.1368408203125
v -6.31105566024780272 1.23023986816406248 22.1578216552734375
v -6.73822212219238288 3.59599304199218752 22.12373733520507812
v -6.90395736694335936 6.0821685791015625 22.00065994262695312
v -6.51896905899047848 8.07277679443359375 22.07358932495117188
v -5.5664710998535156 9.55823516845703128 22.35131454467773436
v -4.92254972457885744 10.35353851318359376 24.8403282165527344
v 10.66743469238281248 -3.34600830078125 14.93614196777343744
v 10.63555908203125 -3.34698486328125 14.52104949951171872
v 10.91131210327148432 -1.0001678466796875 14.9278602600097656
v 10.94087982177734368 -1.0051422119140625 15.34027099609375
v 10.84326171875 2.18568420410156248 15.82380676269531248
v 10.81093215942382816 2.194427490234375 15.41392517089843752
v 10.34050750732421876 6.219268798828125 15.97908401489257808
v 10.36825370788574216 6.21168518066406248 16.39015197753906248
v 10.07809257507324219 -5.330108642578125 14.22472000122070312
v 10.10672473907470704 -5.3253173828125 14.64236831665039064
v 9.07004928588867188 -7.84036254882812496 14.13668060302734376
v 9.27062034606933592 9.1239776611328125 16.65049743652343752
v 9.24689483642578124 9.13140106201171876 16.24163055419921876
v 6.62535190582275392 11.94859313964843744 16.38251495361328128
v 10.46329116821289064 6.19309997558593752 14.00496292114257812
v 8.87697219848632816 9.66932678222656248 14.3704833984375
v 10.16731071472167968 6.0355987548828125 18.55192565917968752
v 8.6958036422729492 9.45343780517578128 18.67854309082031248
v 11.08493423461914062 -1.0254364013671875 13.17419052124023438
v 10.96023559570312496 2.16693115234375 13.54685974121093752
v 10.68970489501953128 2.0219879150390625 18.01947021484375
v 10.83112716674804688 -1.0935211181640625 17.55337524414062496
v 10.5924129486083984 -3.31416320800781248 17.15169906616210938
v 9.82565212249755856 -5.603759765625 16.73758697509765632
v 10.84322738647460944 -3.38471984863281248 12.89276123046875008
v 10.03408336639404297 -5.81027221679687504 12.69257736206054688
v -7.04109668731689453 12.63472747802734376 6.96525573730468752
v -6.27787876129150392 13.43755340576171872 6.74595642089843744
v -6.39613914489746096 13.72702789306640624 6.24904251098632812
v -7.57662010192871096 12.87054443359375008 6.30661773681640624
v -8.82170867919921872 10.52897644042968752 7.5592079162597656
v -8.03002834320068359 11.60716247558593752 7.220428466796875
v -8.67214202880859376 11.80874633789062496 6.34919738769531248
v -9.57774925231933592 10.67378997802734376 6.43996429443359376
v -9.42038536071777344 9.40487670898437504 7.9713172912597656
v -10.28691101074218752 9.46255493164062496 6.58372497558593752
v -10.79798412322998048 8.18829345703125 6.70027923583984376
v -9.86735153198242192 8.20781707763671876 8.34968566894531248
v -10.22367668151855468 4.9990234375 8.86116027832031248
v -10.16369819641113282 6.96401977539062496 8.66695022583007816
v -11.12246322631835938 6.83647155761718752 6.77998352050781248
v -11.17789268493652344 4.76362609863281248 6.89046859741210944
v -9.51436805725097656 -0.4910888671875 8.78244018554687504
v -10.04896354675292969 2.29022216796875 8.9287109375
v -10.96127033233642576 1.97889709472656256 7.01693344116210937
v -10.35988235473632812 -0.80032348632812496 7.02841949462890625
v -7.92907476425170896 -5.20326232910156248 8.1602020263671875
v -8.61670684814453128 -3.36564636230468752 8.41695022583007816
v -9.38271236419677736 -3.56532287597656248 6.91994857788085936
v -8.44695091247558592 -5.56840515136718752 6.91452407836914064
v -9.29692649841308592 9.43157196044921872 8.29666900634765624
v -9.73922729492187504 8.23867034912109376 8.71080017089843752
v -9.51634979248046872 8.26036071777343752 10.29907608032226564
v -8.93874931335449216 9.23790740966796876 10.46162414550781248
v -7.1932687759399414 -6.44523620605468752 8.11252212524414062
v -6.52151489257812496 -7.94337463378906256 7.241302490234375
v -5.83561754226684576 -7.6876220703125 10.05885696411132812
v -6.67871761322021488 -6.52154541015625 10.10821533203125
v -6.33884716033935548 0.93734741210937504 35.61384582519531248
v -6.98802042007446288 3.66032409667968752 35.6079139709472656
v -5.03143501281738281 9.77210998535156256 32.55817413330078128
v -4.57735443115234376 10.41039276123046872 29.55193328857421872
v -1.1707925796508789 15.1246185302734375 10.07780075073242188
v -3.39118099212646488 15.095733642578125 10.82771682739257808
v -2.73954105377197264 15.291534423828125 13.131866455078125
v -0.47260189056396488 15.30329895019531248 12.56991577148437504
v 0.00438880920410156 14.8648757934570312 17.79439926147460944
v -0.20082807540893556 15.243743896484375 14.84171295166015632
v -2.52855682373046872 15.23268890380859376 14.87156677246093744
v -2.35134315490722656 14.86470031738281248 17.51599884033203128
v 8.66174983978271488 -8.31199645996093752 12.56869125366210936
v 6.3851900100708008 -9.8516845703125 12.73422622680664064
v 7.87021350860595696 -7.41873168945312496 20.55208587646484376
v 6.85930633544921872 -6.44357299804687504 24.86452102661132816
v 5.15480995178222656 -7.79267883300781248 24.7666091918945312
v 6.00423049926757812 -8.7838134765625 20.4395790100097656
v 3.20844078063964844 -10.43199157714843752 13.181854248046875
v 3.5399150848388672 -9.91876220703124992 16.65229797363281248
v 0.86194324493408208 -9.68647766113281248 16.83869934082031248
v 0.33390426635742188 -10.23248291015625 13.42243576049804688
v 3.57045459747314456 -9.31510925292968752 20.51104736328125
v 3.00774860382080078 -8.36909484863281248 24.73508071899414064
v 0.908823013305664 -8.22999572753906248 24.7565956115722656
v 1.2150869369506836 -9.0795135498046875 20.56217956542968752
v -6.2468271255493164 -4.5643310546875 13.80483245849609376
v -5.48163461685180664 -3.87355041503906256 17.08242416381835938
v -6.36651468276977536 -1.93634033203124992 17.162841796875
v -7.06529998779296875 -2.50813293457031248 14.04907608032226562
v -7.39136981964111328 8.1300201416015625 16.92154312133789056
v -8.06065559387207031 8.48192596435546872 13.69757080078125
v -8.70906448364257816 7.20509338378906248 13.49583816528320312
v -7.80098772048950192 5.77822875976562496 17.10988998413085938
v -7.9587383270263672 0.27337646484375 14.30891418457031248
v -7.2133502960205078 0.68016052246093752 17.31602478027343752
v -7.693359375 3.254119873046875 17.30116271972656248
v -8.46260929107666016 2.94830322265624992 14.353424072265625
v 8.12090778350830078 -4.31968688964843752 25.02351760864257812
v 9.16240978240966796 -5.21192932128906248 20.84939956665039056
v 9.89157295227050784 -3.154571533203125 21.20205307006835936
v 9.03391838073730469 -2.90762329101562496 24.54793167114257816
v 9.15941238403320312 -1.156005859375 24.95414733886718752
v 10.05573654174804688 -1.2503662109375 21.6085243225097656
v 9.83428955078124992 1.65492248535156248 22.040374755859375
v 8.6248836517333984 1.238128662109375 25.9466476440429688
v 10.58949470520019528 -1.000244140625 7.55039215087890624
v 10.41853618621826168 2.0324859619140625 7.61003494262695312
v 10.76323890686035152 2.055450439453125 10.2529296875
v 10.9423713684082032 -1.063995361328125 10.11527252197265624
v 1.89647817611694336 10.71583557128906248 32.76179504394531248
v 2.78220367431640624 9.04461669921875 33.23996734619140624
v 4.3960018157958984 9.92527770996093744 30.25043869018554688
v 2.55025100708007816 11.59181213378906248 30.01522445678710937
v 7.997736930847168 4.97865295410156256 26.4071083068847656
v 9.23057746887207032 5.55862426757812496 22.50144195556640624
v 7.98490428924560544 8.8745040893554688 22.57899093627929688
v 6.94579982757568352 8.173095703125 26.49452590942382816
v 3.20688247680664064 12.53427124023437504 25.84955978393554688
v 5.47227954864501952 10.81735229492187504 26.216033935546875
v 6.1062765121459961 11.59374237060546872 22.26446533203125
v 3.49075508117675784 13.35661315917968752 21.87787246704101568
v 6.20224761962890624 12.59112548828125 14.6379966735839844
v 3.17638397216796876 14.44834899902343752 14.79458999633789056
v 10.22530174255371092 6.009857177734375 10.50071716308593752
v 9.82734680175781248 5.80459594726562496 7.76274108886718752
v 8.06466865539550781 9.28020477294921876 8.10748291015625
v 8.59468650817871096 9.51065826416015624 10.87843322753906256
v 2.84646892547607424 14.4952392578125 11.9511795043945312
v 5.86843299865722656 12.56446838378906248 11.38651657104492184
v 5.17699623107910156 12.46428680419921872 8.59725189208984376
v 2.09861278533935546 14.40956878662109376 9.25440216064453124
v 5.49667739868164064 -2.015838623046875 31.98190689086914064
v 7.56514930725097656 -1.52482604980468752 28.71641921997070312
v 7.04904460906982422 0.75361633300781248 29.74076843261718752
v 5.23356437683105468 0.2677001953125 32.579345703125
v 5.58353519439697264 7.33436584472656248 30.43381118774414064
v 3.76640129089355472 6.46728515625 33.4306678771972656
v 4.58186435699462888 3.54055786132812496 33.21119689941406248
v 6.46982765197753904 4.27680969238281248 30.26259994506835936
v -4.81225109100341792 3.93869018554687504 36.9063644409179688
v -4.2408170700073242 1.172027587890625 36.83396911621093744
v -2.39585208892822264 1.53424072265625 36.88612365722656256
v -3.01654362678527832 4.29679870605468752 37.02347564697265625
v 1.4794912338256836 5.57398986816406248 35.48572921752929688
v -0.78173351287841792 4.85160827636718752 36.6829795837402344
v 0.00612020492553711 2.1068267822265625 36.47439575195312496
v 2.33303022384643556 2.77569580078124992 35.250335693359375
v 3.86807823181152336 -6.43934631347656248 29.26872253417968752
v 5.48324012756347656 -5.0539398193359375 29.248626708984375
v 4.33034896850585936 -4.1287384033203125 32.0348663330078125
v 2.7739295959472656 -4.89634704589843744 32.43572998046875
v -0.08002567291259766 -7.145965576171875 29.42167282104492184
v 1.82854318618774416 -7.0950164794921875 29.32509231567382812
v 0.70762252807617184 -5.61289978027343752 32.60868453979492184
v -1.07616615295410156 -5.80607604980468752 32.71379470825195312
v -3.1138143539428711 -1.88047790527343744 36.00826263427734375
v -2.05613231658935547 -4.20611572265625 34.63333511352539064
v -0.33543539047241212 -3.91102600097656256 34.5874595642089844
v -1.36879205703735352 -1.52874755859375 36.01414108276367187
v 3.173004150390625 -0.21699523925781248 34.47015380859375
v 0.9726929664611816 -0.81401062011718752 35.61803436279296872
v 1.89760923385620112 -3.150146484375 34.268310546875
v 3.5326576232910156 -2.35902404785156248 33.79721069335937504
v 7.3121366500854492 8.97829437255859376 6.0381927490234375
v 9.24317359924316408 5.57980346679687504 5.81492614746093744
v 8.79507637023925776 5.40501403808593752 4.44308471679687504
v 6.95635986328124992 8.63207244873046872 4.63734054565429688
v 9.91242599487304688 2.0883636474609375 5.6304931640625
v 10.00828933715820312 -0.83029174804687504 5.48039627075195312
v 9.6896963119506836 -0.38845825195312496 4.25657653808593752
v 9.48129653930664064 2.05694580078125 4.28567886352539064
v 0.9359169006347656 14.17357635498046876 6.75008773803710944
v 2.3014860153198242 13.41836547851562496 4.97918319702148432
v 0.33791255950927736 14.02590179443359375 5.336395263671875
v 9.31141853332519532 -0.48973083496093752 3.59446716308593752
v 9.17807769775390624 -0.63101196289062496 3.11981964111328124
v 8.93295097351074224 1.79295349121093744 2.84593200683593744
v 9.126861572265625 1.95187377929687504 3.57921600341796872
v 3.33495235443115236 12.24930572509765624 4.54542541503906248
v 4.68020725250244144 10.80966186523437504 4.35347747802734376
v 4.64747524261474608 10.7578201293945312 4.03009033203125
v 8.48597526550292968 5.29072570800781248 3.6533775329589844
v 8.33881855010986328 5.20930480957031248 2.86516571044921872
v 6.91002941131591792 8.207305908203125 3.24909973144531248
v 7.00774383544921875 8.25150299072265624 3.89962005615234368
v -7.2280912399291992 3.46241760253906248 20.26891326904296876
v -6.7741408348083496 0.99136352539062496 20.30084228515625
v -6.46078300476074216 1.180023193359375 21.93289566040039056
v -6.89676761627197264 3.5806884765625 21.89507675170898432
v -6.94441890716552736 8.17275238037109376 20.13158035278320312
v -7.37638568878173832 5.992431640625 20.12385177612304688
v -7.06355381011962891 6.09478759765625 21.77324295043945312
v -6.64168500900268552 8.14756011962890624 21.8676795959472656
v -6.00962305068969726 -1.419189453125 20.21636581420898436
v -5.03445339202880859 -3.158721923828125 20.31835556030273436
v -4.75468492507934576 -2.71592712402343752 22.06637191772460938
v -5.75661039352416992 -1.1052398681640625 21.88371658325195312
v -3.27056193351745604 -4.03485107421875 34.4075355529785156
v -4.25545597076416016 -1.87278747558593744 35.59722900390625
v -4.88971567153930672 -1.859375 35.23841857910156248
v -3.93781137466430672 -3.916015625 34.1772918701171875
v -3.07564163208007812 -5.23779296875 29.7294883728027344
v -3.47229123115539552 -5.0843963623046875 32.65448760986328128
v -4.05523777008056641 -3.84817504882812496 33.94850158691406256
v -5.01366138458251953 -1.84088134765624992 34.93344879150390624
v -6.9513230323791504 6.333984375 34.91061019897460944
v -6.29689455032348632 8.37010192871093752 33.89516448974609376
v -5.64778614044189456 8.49928283691406248 34.46550369262695312
v -6.21465301513671876 8.45756530761718752 34.13201141357421876
v -6.85862207412719728 6.37745666503906248 35.20615005493164064
v -6.15259170532226562 6.40834045410156248 35.64452362060546872
v -5.5371685028076172 1.0189971923828125 36.31636047363281248
v -6.16907596588134766 3.77749633789062496 36.3311767578125
v -6.89362955093383792 3.68597412109375 35.90092086791992192
v -6.23820447921752928 0.9398193359375 35.91035079956054688
v -2.87202262878417968 -4.56008911132812496 25.00896453857421875
v -3.4570059776306152 -3.6448974609375 22.47709274291992184
v -3.84076881408691408 -4.2215576171875 20.59927368164062496
v -2.69332265853881832 -5.0464019775390625 24.13042068481445312
v -2.57579255104064944 -5.47116088867187504 32.74436569213867184
v -2.80946326255798336 -5.91307067871093744 28.8387451171875
v -1.85956907272338864 -6.58665466308593752 29.55123519897460936
v -1.05429792404174805 -8.083648681640625 20.5916175842285156
v -1.13558387756347656 -7.37760925292968752 24.8264045715332032
v -2.21831941604614256 -6.55343627929687504 24.08642959594726562
v -2.452387809753418 -6.87884521484375008 20.63851547241210936
v -4.96496152877807616 9.9274826049804688 32.67040252685546872
v -4.65454959869384768 10.0491943359375 32.79035186767578128
v -4.351898193359375 10.9146804809570312 29.53753662109375
v -4.53968334197998048 10.62789916992187504 29.53818130493164064
v -5.93299198150634768 9.99845123291015632 20.29225158691406248
v -5.6255135536193848 9.73751068115234368 22.17984771728515624
v -4.92948818206787104 10.56150817871093752 24.7375373840332032
v -4.71988534927368168 11.09348297119140624 24.70484542846679688
v -4.53459262847900392 12.51454925537109376 20.60521697998046872
v -4.2906479835510254 11.89730834960937504 24.78227996826171872
v -3.4045429229736328 12.65457153320312496 24.9066200256347656
v -3.56099271774291992 13.42775726318359376 20.80619430541992192
v 0.13903427124023438 14.1653900146484375 21.41879272460937504
v -2.21018838882446288 14.18795013427734376 21.06268692016601562
v -2.0548710823059082 13.36254119873046872 25.08520889282226562
v 0.14896106719970704 13.31976318359375 25.39744186401367184
v -4.5893573760986328 8.49027252197265624 34.89484786987304688
v -4.82399463653564448 6.42457580566406248 36.22283935546875
v -3.23798656463623048 6.76264953613281248 36.42027282714843752
v -3.27554488182067872 8.82394409179687504 35.06381607055664062
v -4.01093578338623046 11.27079010009765624 29.55263519287109376
v -4.10564422607421876 10.13646697998046876 32.92233657836914064
v -3.13640737533569336 10.48609924316406248 32.95181274414062496
v -3.18162393569946288 11.76347351074218752 29.56341552734375
v 0.04458189010620117 12.33011627197265624 29.72957992553710944
v -1.8673968315124512 12.38497161865234376 29.57904815673828128
v -1.74429655075073248 11.09880828857421876 32.87247848510742192
v -0.33083534240722656 11.43002319335937504 32.55592346191406248
v 0.61822938919067384 8.17845916748046876 35.17919921875
v -0.2024521827697754 9.86064910888671872 34.64260864257812496
v -1.70958471298217776 9.50102996826171872 34.96941757202148432
v -1.38748073577880856 7.41741180419921872 36.23859024047851564
v -3.6725172996520996 14.0772247314453125 17.27106857299804688
v -3.79974937438964848 14.42285919189453128 14.88335418701171872
v -4.73713779449462896 13.61668395996093752 14.94924163818359376
v -4.7483415603637696 13.10782623291015624 17.01902389526367187
v -3.95345783233642576 14.46495056152343752 13.63800048828125
v -4.55817794799804688 14.32784271240234376 11.50599670410156248
v -5.56532001495361328 13.34123229980468752 12.16030120849609376
v -4.85843372344970704 13.65178680419921872 13.95639038085937504
v -6.4677472114562988 10.30223846435546876 16.73112106323242192
v -5.58463764190673832 11.96236419677734368 16.76399993896484368
v -5.79330444335937504 12.39008331298828128 14.38207244873046872
v -7.24707603454589844 10.53026580810546872 13.29244613647460936
v -7.8300256729125976 -5.19548034667968752 8.4486656188964844
v -7.33615541458129884 -5.2222900390625 10.48234176635742184
v -8.11368656158447266 -3.1263275146484375 10.87215423583984368
v -8.51616477966308592 -3.350128173828125 8.73186492919921872
v -9.41132736206054688 -0.44969177246093752 9.15389251708984376
v -9.01424503326416015 -0.23707580566406248 11.27772521972656248
v -9.54103851318359376 2.55403137207031248 11.42926788330078128
v -9.93772697448730464 2.33787536621093752 9.33319091796875
v -9.84456253051757808 6.96832275390624992 10.6837120056152344
v -10.03914642333984375 6.99723815917968752 9.06209945678710938
v -10.10599899291992188 5.04046630859375 9.26770401000976564
v -9.68926048278808592 5.23677062988281248 11.33202362060546876
v -8.70799541473388672 10.54942321777343752 7.83809280395507808
v -8.27268600463867188 10.68748474121093752 9.97454071044921872
v -7.496088981628418 11.97235870361328128 9.49502944946289064
v -7.94143295288085936 11.62985992431640624 7.45592117309570312
v -0.36131954193115232 -10.74313354492187504 10.2835693359375
v -0.8199520111083984 -10.93594360351562496 7.53215789794921872
v 2.08657979965209961 -11.0234527587890625 7.33712387084960936
v 2.586247444152832 -10.88343811035156256 10.05186080932617188
v 5.86411476135253904 -10.152130126953125 9.73361968994140624
v 5.2733478546142578 -10.22187805175781248 7.10139083862304688
v 7.70033359527587888 -8.4603271484375 7.1497344970703125
v 8.29689502716064452 -8.46270751953125 9.7119140625
v 10.3303194046020508 -3.29234313964843752 7.58663558959960936
v 10.77003860473632816 -3.36260986328125 10.09004974365234375
v 9.88470649719238288 -5.81632995605468752 9.96445083618164064
v 9.36723899841308592 -5.7813720703125 7.4534873962402344
v -2.88277626037597664 14.47660827636718752 5.88153839111328128
v -5.1269979476928711 14.37730407714843752 6.18653106689453124
v -5.15951347351074218 14.12591552734375 6.5278892517089844
v -5.60688686370849608 13.96894073486328128 8.52717971801757816
v -6.24915695190429688 13.51576232910156248 6.9955978393554688
v -7.00009536743164062 12.67563629150390624 7.140594482421875
v -6.61320972442626952 13.079620361328125 9.03157806396484375
v -5.36159038543701168 -8.9625244140625 7.57408523559570312
v -3.45247459411621096 -9.95802307128906256 7.67811965942382816
v -2.98432540893554688 -9.73350524902343744 10.41779708862304688
v -4.80342483520507808 -8.72337341308593744 10.33714294433593752
v -4.55849838256835936 -5.1268463134765625 17.07419204711914062
v -5.50645446777343752 -5.89247131347656256 13.57756805419921872
v -4.73339366912841792 -7.11083984375 13.46467208862304688
v -3.78142595291137696 -6.36935424804687504 17.01490402221679687
v -1.59963893890380856 -8.70887756347656248 16.84213638305664064
v -3.14920997619628906 -7.60073852539062496 16.90092086791992192
v -3.92936086654663088 -8.217498779296875 13.46487045288085936
v -2.24339723587036132 -9.2579345703125 13.4512977600097656
v 6.28813552856445312 12.26690673828125 18.40175628662109376
v 8.53355026245117184 -7.96920776367187504 16.31348800659179688
v 6.67967796325683592 -2.93690490722656256 29.265655517578125
v 3.39255332946777344 14.069580078125 18.10508346557617188
v -2.29692173004150392 14.70669555664062496 7.39127349853515624
v -4.48258590698242184 14.63822937011718752 7.98300170898437504
v -5.13062047958374024 11.44484710693359376 20.44881439208984376
v 6.43966197967529296 -9.40896606445312496 16.28354644775390624
v -2.97966194152832032 -5.46415710449218752 20.70566940307617184
v -8.5742168426513672 5.52334594726562496 14.17863845825195312
v 4.13204193115234376 12.27437591552734376 6.289642333984375
v 3.96565532684326176 11.71096801757812496 4.89044570922851568
v 9.53538417816162112 -3.18414306640625 5.35872650146484376
v 9.10695552825927734 -2.77911376953124992 4.0478363037109375
v 8.9691762924194336 -2.92793273925781248 3.56277465820312496
v -3.37577581405639648 -5.233123779296875 32.72454071044921872
v -3.01882314682006836 -5.44798278808593752 29.66910552978515624
v -6.41502094268798832 12.15122222900390624 12.7802848815917968
v -7.54860591888427736 -6.81364440917968752 7.01903915405273437
v 8.48599243164062496 -5.68338012695312496 5.16191482543945312
v 4.61453247070312496 -10.0062103271484375 4.86019515991210944
v 6.87343406677246096 -8.3125 4.89154815673828128
v 8.32996368408203124 -5.707763671875 4.30348205566406248
# 411 vertices

vn -0.85078042745590208 -0.52548038959503176 -0.00655986974015832
vn -0.86505460739135744 -0.50096738338470456 -0.02668733149766922
vn -0.9099451899528504 -0.41110262274742128 -0.054721649736166
vn -0.89154225587844848 -0.45210450887680056 -0.02745861746370792
vn -0.98143219947814944 0.19122207164764404 0.01499997265636921
vn -0.97616803646087648 0.2169460952281952 -0.00551481591537594
vn -0.95851099491119392 0.27610832452774048 -0.07085903733968735
vn -0.9706894755363464 0.23630625009536744 -0.04383352398872375
vn -0.97879910469055168 -0.1998252272605896 -0.04496858641505241
vn -0.98062872886657712 -0.18814095854759216 -0.05450108647346497
vn -0.7896941304206848 -0.4794776141643524 0.38273283839225768
vn -0.86123192310333248 -0.49000465869903568 0.13481491804122924
vn -0.97321277856826784 -0.21648114919662476 0.07741300761699677
vn -0.97299623489379888 -0.22613610327243804 0.04626883566379547
vn -0.963630735874176 0.25831258296966552 0.06848587840795517
vn -0.7330517172813416 0.47377261519432064 0.48803153634071352
vn -0.67182826995849608 -0.73231500387191776 -0.11118184030056
vn -0.74873763322830208 -0.6582816243171692 -0.07782889902591705
vn -0.75418674945831296 -0.64664870500564576 -0.1142263039946556
vn -0.68736946582794192 -0.72116142511367792 -0.08630992472171783
vn -0.83651185035705568 0.53929084539413456 0.09702256321907044
vn -0.83586913347244256 0.54721152782440184 0.04338737949728966
vn -0.68133461475372312 0.73112225532531744 0.03526203334331512
vn -0.74375170469284064 0.66845047473907472 -0.00273967930115759
vn -0.98329406976699824 -0.1811499297618866 -0.01781600154936313
vn -0.984161913394928 -0.17675116658210754 -0.01357679162174463
vn -0.73505836725234992 0.67741024494171144 -0.02836577594280243
vn -0.76243048906326288 0.64704900979995728 -0.00523663219064474
vn -0.8324652910232544 -0.54269570112228392 -0.11172648519277572
vn -0.77762448787689216 -0.62602037191390992 -0.05829909071326256
vn -0.89110785722732544 -0.45187950134277344 -0.04161414504051208
vn -0.86205565929412848 -0.50194185972213744 -0.07010125368833542
vn -0.896614134311676 -0.44190964102745056 0.0282647255808115
vn -0.90154224634170528 -0.4285103380680084 0.06000309437513351
vn -0.92448759078979488 -0.38055858016014096 -0.0223130714148283
vn -0.93494349718093872 -0.35163435339927672 -0.04726429656147957
vn -0.97513425350189216 0.2172629088163376 -0.04370315745472908
vn -0.96045547723770144 0.27772256731987 -0.01988492906093597
vn -0.9804144501686096 -0.18803256750106812 -0.05857696756720543
vn -0.9819433093070984 -0.18103130161762236 -0.05490867793560028
vn -0.9706431031227112 0.23494972288608552 -0.05148180946707726
vn -0.97246927022933952 0.22356106340885164 -0.0657566711306572
vn -0.97502475976943968 -0.21756552159786224 -0.04463240876793861
vn -0.97960710525512688 -0.20047877728939056 -0.01334477961063385
vn -0.99838876724243168 0.01234977599233389 -0.05538304895162582
vn -0.999122142791748 -0.00369781861081719 -0.04172925651073456
vn -0.78588312864303584 -0.59954184293746952 0.15145060420036316
vn -0.75574290752410896 -0.62941563129425048 0.18080008029937744
vn -0.88452172279357904 -0.44434192776679992 0.14206157624721528
vn -0.9072845578193664 -0.41556748747825624 0.06433025002479553
vn -0.05523381754755974 -0.45156782865524288 0.89052551984786992
vn -0.01753480918705463 -0.43437197804450992 0.9005628824234008
vn -0.99835586547851568 0.02340172976255417 0.05232637748122215
vn -0.99741411209106448 0.02275561541318893 0.0681709349155426
vn -0.34625801444053648 -0.07533281296491623 0.93510985374450688
vn -0.24658632278442384 -0.04522832855582237 0.96806484460830688
vn -0.6904586553573608 0.71917569637298584 0.0778014063835144
vn -0.69176876544952392 0.718278169631958 0.07437983900308609
vn -0.3910841941833496 0.5015743970870972 0.77167105674743648
vn -0.45347312092781064 0.50006085634231568 0.73776775598526
vn -0.58001941442489624 -0.78816628456115728 -0.2058429569005966
vn -0.74778121709823616 -0.64587742090225216 -0.1538359671831131
vn -0.28628787398338316 -0.95810413360595696 -0.00870277732610702
vn -0.19695977866649628 -0.9803582429885864 0.01022555865347385
vn -0.22976109385490416 0.95893073081970208 0.16631819307804108
vn -0.28916236758232116 0.944628357887268 0.15512070059776306
vn -0.7440939545631408 0.66787981986999512 0.01614600606262683
vn -0.78978639841079712 0.61337661743164064 0.00256752804853022
vn -0.84573316574096672 0.53181248903274536 0.04371441155672073
vn -0.81661194562911984 0.57711786031723024 0.00893336441367864
vn -0.95704221725463872 -0.28957995772361756 -0.01461775414645671
vn -0.94988292455673216 -0.3125257194042206 0.00708397896960377
vn -0.99773937463760368 -0.06720214337110519 2.3631433577975258E-05
vn -0.99864506721496576 -0.04821581020951271 -0.01958010345697403
vn -0.55318254232406616 -0.83052814006805424 -0.06490186601877213
vn -0.61790096759796144 -0.77759665250778192 -0.11636930704116822
vn -0.99115532636642464 0.12670588493347168 0.03945593163371086
vn -0.26671642065048216 0.96368646621704096 0.01306246314197778
vn -0.21821343898773192 0.76035374402999872 0.61175566911697384
vn -0.39870467782020568 0.78612583875656128 0.47227203845977784
vn -0.42844337224960328 0.23555174469947816 0.87232536077499392
vn -0.3854766488075256 0.24288520216941832 0.89017665386199952
vn -0.21405106782913208 -0.32555410265922548 0.9209759831428528
vn -0.06127473711967468 -0.25436633825302124 0.96516489982604976
vn -0.04063667729496956 -0.72037130594253544 0.69239723682403568
vn -0.13028708100318908 -0.74319291114807136 0.65626949071884152
vn -0.99930888414382928 0.00117455003783106 -0.03715243190526962
vn -0.99790239334106448 0.01174990553408861 -0.06366120278835297
vn -0.99808436632156368 -0.00400898372754454 -0.06173719838261604
vn -0.99809235334396368 -0.04888403043150902 -0.03771053254604339
vn -0.91110432147979744 -0.41102600097656248 0.03076412156224251
vn -0.9244560599327088 -0.38075387477874752 -0.02018724754452705
vn -0.93523555994033808 -0.35234487056732176 -0.03446027636528015
vn -0.94898515939712528 -0.31027746200561524 -0.05617019906640053
vn -0.8394871950149536 -0.5413498878479004 0.04692249745130539
vn -0.76497930288314816 -0.62606126070022584 -0.15117530524730682
vn -0.62082231044769288 -0.77713119983673088 -0.10318253189325332
vn -0.73484289646148688 0.6778825521469116 -0.02193561010062694
vn -0.76251405477523808 0.64632099866867064 -0.02900898270308971
vn -0.81639218330383296 0.57748329639434816 0.00410159211605787
vn -0.29564824700355528 -0.93104547262191776 -0.21388442814350128
vn -0.98236423730850224 -0.16582304239273072 -0.08639001101255417
vn -0.83623558282852176 -0.48930349946022032 0.24757243692874908
vn -0.82358580827713008 -0.48013305664062496 0.301957905292511
vn -0.60035163164138792 -0.71683347225189208 0.35458108782768248
vn -0.60335606336593624 -0.73224484920501712 0.31587812304496764
vn -0.91281002759933472 -0.40539869666099552 0.04929178580641747
vn -0.90499293804168704 -0.4235490262508392 0.03992439806461334
vn -0.9109233617782592 -0.28260084986686708 0.30059179663658144
vn -0.91919392347335808 -0.28296267986297608 0.27388778328895568
vn -0.94869238138198848 -0.16598638892173768 0.26913055777549744
vn -0.94087749719619744 -0.16562998294830322 0.29549324512481688
vn -0.95492833852767952 -0.0500779040157795 0.2925816774368286
vn -0.96001344919204704 -0.05036420375108719 0.27538621425628664
vn -0.94604021310806272 0.1748955249786377 0.27279981970787048
vn -0.93805360794067376 0.17036804556846618 0.30171215534210204
vn -0.82299369573593136 0.46591106057167056 0.32497423887252808
vn -0.82497143745422368 0.47041612863540648 0.31325852870941164
vn -0.94471019506454464 0.2904706597328186 0.1521490216255188
vn -0.94733947515487664 0.27985224127769472 0.1556619107723236
vn 0.99174159765243536 -0.10337108373641968 -0.07591421902179718
vn 0.99200510978698736 -0.10338596254587174 -0.07236864417791367
vn 0.98914217948913568 0.1261885017156601 -0.07532718777656555
vn 0.9899476170539856 0.12587197124958038 -0.06449712067842484
vn 0.92705744504928592 -0.3701986372470856 -0.05930813774466515
vn 0.73099023103713984 0.68172645568847656 -0.0300400611013174
vn 0.90585893392562864 0.41952300071716312 -0.05848047137260437
vn 0.93639802932739264 0.34681555628776552 0.05364342406392097
vn 0.93292301893234256 0.34137761592864992 0.11452462524175644
vn 0.90361613035202032 0.381850391626358 0.19408299028873444
vn 0.99641370773315424 0.02967075072228908 0.07924314588308334
vn 0.99502533674240112 0.0163123533129692 0.0982774794101715
vn 0.99798804521560672 0.03767229616641998 0.0509968139231205
vn 0.9972660541534424 0.01971780881285667 0.07121526449918747
vn 0.94044232368469232 -0.32983404397964476 0.08232687413692474
vn 0.96006411314010624 -0.277389258146286 0.03649608790874481
vn 0.94966292381286624 -0.28604385256767272 0.12774688005447388
vn 0.944208025932312 -0.32104530930519104 0.073492132127285
vn -0.54671359062194824 0.6603644490242004 0.51480394601821896
vn -0.44954898953437808 0.66006582975387576 0.60184615850448608
vn -0.57340764999389648 0.5972474217414856 0.56080228090286256
vn -0.65091198682785032 0.56033879518508912 0.5121856331825256
vn -0.78427910804748528 0.360723614692688 0.50476199388504032
vn -0.78733193874359136 0.4327731728553772 0.43910795450210568
vn -0.891183078289032 0.0714777410030365 0.44797733426094056
vn -0.90123802423477168 0.04705987498164177 0.43076142668724064
vn -0.87333601713180544 -0.191420778632164 0.44793105125427248
vn -0.87167525291442864 -0.18674685060977936 0.45310896635055544
vn -0.80746322870254512 -0.36671301722526552 0.46208721399307248
vn -0.80962306261062624 -0.37943682074546816 0.4478148818016052
vn -0.91575944423675536 0.38234239816665648 0.1232840046286583
vn -0.859262466430664 0.47697690129280088 0.18482680618762968
vn -0.82257604598999024 -0.51233083009719848 0.24675035476684572
vn -0.79311716556549072 -0.58115696907043456 0.18226835131645204
vn -0.76689362525939936 -0.17575199902057648 0.61724013090133664
vn -0.80722922086715696 -0.19123163819313048 0.55840075016021728
vn -0.71364676952362064 0.69932311773300168 0.04068628698587417
vn -0.92718088626861568 0.36538130044937136 -0.08265641331672668
vn -0.03794096782803535 0.99653977155685424 -0.07395327091217041
vn -0.02142060920596122 0.99762088060379024 -0.06552653014659882
vn -0.00307553703896701 0.99183648824691776 0.12747928500175476
vn -0.01648814044892788 0.99017018079757696 0.13889305293560028
vn 0.56239300966262816 -0.82074880599975584 0.10042683780193328
vn 0.57983803749084472 -0.75483542680740352 0.3066125512123108
vn 0.55411028861999512 -0.78114634752273552 0.28770169615745544
vn -0.07483233511447906 -0.98540812730789184 0.1528753638267517
vn -0.05446478351950645 -0.98465561866760256 0.16579127311706542
vn -0.06250419467687607 -0.97566199302673344 0.21018269658088684
vn -0.093587227165699 -0.97710567712783808 0.19106502830982208
vn -0.86642444133758544 -0.40773010253906248 0.28820964694023132
vn -0.88353222608566288 -0.38361158967018128 0.26872462034225464
vn -0.88218903541564944 0.41195905208587648 0.22810597717761992
vn -0.93271917104721072 0.18714031577110292 0.3082425594329834
vn -0.94973129034042352 -0.17561575770378112 0.25917103886604308
vn -0.94650912284851072 -0.18271763622760772 0.26595985889434816
vn 0.88250923156738288 -0.36385259032249448 0.29797428846359252
vn 0.84915101528167728 -0.46419429779052736 0.25192493200302124
vn 0.9655819535255432 0.03529438376426697 0.25769311189651488
vn 0.94906502962112432 0.08626681566238403 0.30304086208343504
vn 0.98984694480896 0.05834776535630226 -0.12960897386074066
vn 0.988926649093628 0.0627237856388092 -0.13449767231941224
vn 0.68418318033218384 0.51138597726821896 0.51997870206832888
vn 0.59642601013183592 0.71268302202224728 0.36926805973052976
vn 0.88675916194915776 0.32545134425163268 0.32823720574378968
vn 0.9102607369422912 0.29171037673950196 0.29382041096687316
vn 0.5600382685661316 0.7913100719451904 0.24532735347747804
vn 0.52527368068695072 0.82502788305282592 0.2083663046360016
vn 0.52126783132553104 0.83402967453002928 0.18076074123382568
vn 0.87361764907836912 0.45906937122344968 -0.16139279305934906
vn 0.87882465124130256 0.43134945631027224 -0.20397287607192992
vn 0.51073509454727176 0.84528750181198128 -0.15696726739406586
vn 0.50122433900833128 0.84925043582916256 -0.1659756451845169
vn 0.84700495004653936 -0.04622570052742958 0.52957129478454592
vn 0.84494471549987792 -0.04214198514819145 0.53319072723388672
vn 0.8153656125068664 0.18607127666473388 0.54823017120361328
vn 0.8014770150184632 0.20078040659427644 0.56331330537796024
vn -0.02221392653882503 -0.03073632530868053 0.99928057193756096
vn -0.05275668948888779 -0.06140929833054543 0.99671739339828496
vn 0.45149868726730344 0.06195414438843727 0.89011830091476448
vn 0.45051774382591248 0.06250179558992386 0.89057695865631104
vn 0.58048564195632936 -0.67004173994064328 0.4626882374286652
vn 0.48234555125236512 -0.71027255058288576 0.51269465684890744
vn 0.04559671133756638 -0.90457701683044432 0.42386478185653688
vn 0.12200197577476502 -0.9058703184127808 0.4056038558483124
vn 0.10407408326864242 -0.47065606713294984 0.87615728378295904
vn 0.09404849261045456 -0.48116463422775272 0.87157070636749264
vn 0.50228488445281984 -0.27482262253761292 0.81986731290817264
vn 0.36761647462844848 -0.2219931334257126 0.90309303998947136
vn 0.81230336427688592 0.48302853107452392 -0.32687392830848692
vn 0.81289309263229376 0.48278120160102848 -0.32577162981033324
vn 0.97056877613067632 0.04405416920781135 -0.236760213971138
vn 0.94828444719314576 0.08445516973733902 -0.3059803545475006
vn 0.25474217534065248 0.9447156190872192 -0.20644332468509676
vn 0.9556148648262024 0.06414701044559479 -0.28755071759223936
vn 0.96042895317077632 0.07091484218835831 -0.26934608817100524
vn 0.70639306306838992 0.68423676490783688 -0.18118740618228912
vn 0.87223547697067264 0.44239714741706848 -0.20854254066944124
vn 0.87733536958694464 0.45154020190238952 -0.16246244311332702
vn -0.96310693025588992 -0.17427997291088104 0.20506478846073152
vn -0.96282327175140384 -0.171571284532547 0.20864935219287872
vn -0.96652102470397952 0.19088007509708404 0.17146986722946166
vn -0.966572105884552 0.19076065719127656 0.17131499946117402
vn -0.85015147924423216 -0.46175342798233032 0.25303399562835692
vn -0.83918243646621712 -0.4969598054885864 0.2209157794713974
vn -0.41166329383850096 -0.57609272003173832 0.70615190267562864
vn -0.35804077982902528 -0.55363929271698 0.75185793638229376
vn -0.88291358947753904 -0.45969578623771664 -0.09562106430530548
vn -0.57627028226852416 -0.8153581619262696 -0.05571074783802032
vn -0.60421365499496456 -0.56323999166488648 0.56363695859909056
vn -0.61502933502197264 -0.56402927637100216 0.5510080456733704
vn -0.78407233953475952 0.45898005366325376 0.41781321167945864
vn -0.77560865879058832 0.46316254138946536 0.42884910106658936
vn -0.46233275532722472 0.51563435792922976 0.72136652469635008
vn -0.46770054101943968 0.51711481809616088 0.71683216094970704
vn -0.49592086672782896 -0.11822453886270524 0.86028218269348144
vn -0.48829305171966552 -0.11356978118419648 0.86525821685791008
vn -0.9765896201133728 -0.03897476196289062 0.2115507125854492
vn -0.82231837511062624 -0.5519709587097168 0.13827687501907348
vn -0.6342995762825012 -0.76303166151046752 0.12428457289934158
vn -0.64951491355896 -0.75192087888717648 0.11289571970701218
vn -0.64624667167663576 -0.75440305471420288 0.1150711327791214
vn -0.42270171642303464 0.88480013608932496 0.19609197974205016
vn -0.83656054735183712 0.54780203104019168 0.00891339778900146
vn -0.955816388130188 0.226778581738472 0.18704670667648316
vn -0.91506546735763552 0.37035578489303592 0.15966132283210754
vn -0.65444427728652952 0.7415249943733216 0.1477946937084198
vn -0.69268238544464112 0.70348072052001952 0.15907889604568482
vn -0.0211783517152071 0.97920846939086912 0.20174825191497804
vn -0.01047074887901544 0.97809171676635744 0.2079108953475952
vn -0.2170143872499466 0.54520523548126224 0.80972588062286384
vn -0.23934806883335112 0.5306881070137024 0.81306988000869744
vn -0.3323456346988678 0.89665645360946656 0.29249539971351624
vn -0.4879993200302124 0.81456571817398064 0.31359100341796876
vn -0.00192068226169794 0.93146324157714848 0.3638304769992828
vn -0.15903811156749726 0.94663274288177488 0.28034526109695436
vn 0.11700554937124252 0.35316792130470276 0.92821449041366576
vn 0.22876955568790436 0.53196632862091064 0.81527692079544064
vn -0.63949555158615112 0.75530058145523072 0.1434100717306137
vn -0.6813578009605408 0.71163135766983032 0.17126698791980744
vn -0.6471072435379028 0.75029855966568 0.13529384136199952
vn -0.63970297574996952 0.75911593437194832 0.12051203846931458
vn -0.87289130687713616 0.46118292212486264 0.159282848238945
vn -0.827036201953888 0.5165880918502808 0.2216927856206894
vn -0.90215915441513056 -0.37449845671653744 0.21414884924888612
vn -0.90572386980056768 -0.36882340908050536 0.20888629555702208
vn -0.96099042892456048 -0.19217710196971892 0.19891034066677092
vn -0.95998758077621456 -0.19425681233406068 0.20171290636062624
vn -0.99170649051666256 0.04647206515073776 0.11982756108045578
vn -0.97989106178283696 -0.01334582641720771 0.1990865170955658
vn -0.82553583383560176 0.54851192235946656 0.13276013731956482
vn -0.80057275295257568 0.59452521800994872 0.07498674094676971
vn -0.02504758536815643 -0.99694085121154784 0.07403759658336639
vn -0.04280968382954597 -0.99732089042663568 0.05931703746318817
vn 0.58526760339736936 -0.80333477258682256 -0.11006862670183182
vn 0.56459057331085208 -0.81471306085586544 -0.1322125643491745
vn 0.92934364080429072 -0.32649376988410948 -0.1724013090133667
vn 0.91834056377410896 -0.344952791929245 -0.19405709207057952
vn 0.04538370668888092 0.80231320858001712 0.59517544507980344
vn -0.73190474510192864 0.672818660736084 0.10784506052732468
vn -0.66824895143508912 0.74360811710357664 -0.02214189246296882
vn -0.46352303028106688 -0.8731651306152344 0.1507619321346283
vn -0.48404774069786072 -0.8579623699188232 0.17204175889492034
vn -0.7836254239082336 -0.52760446071624752 0.32797053456306456
vn -0.7961191534996032 -0.51319867372512816 0.32065770030021668
vn -0.55379766225814816 -0.78858447074890144 0.2672874927520752
vn -0.50962018966674808 -0.82882171869277952 0.23095837235450744
vn 0.99237251281738288 0.10752204805612564 0.0602969117462635
vn 0.9905151724815368 0.1134355440735817 0.07753785699605942
vn 0.99135106801986688 0.10609888285398484 0.07724166661500931
vn 0.98817187547683712 0.11518597602844238 0.10123581439256668
vn 0.9860877990722656 -0.13312199711799622 0.09954579919576644
vn 0.98490273952484128 -0.11620758473873138 0.12830539047718048
vn 0.9919044971466064 -0.12196917086839676 0.03534033522009849
vn 0.9923909306526184 -0.11475308239459992 0.04463223367929458
vn 0.93367266654968256 0.35493195056915284 -0.04773443192243576
vn 0.93258303403854368 0.35652661323547364 -0.05636993050575256
vn 0.75838917493820192 0.65136110782623288 0.0239714402705431
vn 0.72227293252944944 0.68527323007583616 0.09339255839586258
vn 0.99604862928390496 0.04311136528849601 -0.07764407247304916
vn 0.9966264963150024 0.04124270379543304 -0.07095550745725632
vn 0.96264123916625984 -0.26335585117340088 -0.0629732608795166
vn 0.96289622783660896 -0.25971761345863344 -0.073331318795681
vn 0.8753586411476136 -0.47598457336425784 -0.08476969599723816
vn 0.92304956912994384 -0.37384843826293944 0.09064803272485734
vn -0.72361665964126592 0.6901534795761108 0.0081893503665924
vn -0.7503992319107056 0.65046703815460208 -0.11744646728038788
vn -0.7391665577888488 0.62309461832046512 0.25570687651634216
vn -0.75539070367813104 0.61548388004302976 0.2248656451702118
vn -0.86961102485656736 0.41112229228019712 0.27341404557228088
vn -0.85942268371582032 0.41990968585014344 0.29166510701179504
vn -0.96056455373764032 0.05623361468315125 0.27231153845787048
vn -0.95333373546600336 0.06358251720666885 0.29514750838279724
vn -0.93921720981597904 -0.19537380337715148 0.28231212496757508
vn -0.93946433067321776 -0.19550654292106628 0.28139662742614748
vn -0.87522065639495856 -0.3708921670913696 0.31052833795547484
vn -0.87857776880264288 -0.37253773212432864 0.2988591492176056
vn -0.95323503017425536 0.27767288684844972 0.11933379620313644
vn -0.954698383808136 0.26752349734306336 0.13031621277332306
vn -0.84970515966415408 -0.48767593502998352 0.20043292641639708
vn -0.85019320249557488 -0.48698362708091736 0.20004622638225556
vn -0.70028698444366456 0.47342336177825928 0.53429245948791504
vn -0.70200645923614504 0.54286909103393552 0.46095553040504456
vn 0.89215272665023808 -0.4071016013622284 0.19578489661216736
vn 0.87241107225418096 -0.48595005273818968 0.05245362967252731
vn 0.76955562829971312 -0.43864572048187256 0.4640841484069824
vn 0.77402746677398688 -0.41528671979904176 0.47793132066726688
vn 0.80737596750259392 -0.50271159410476688 0.30890941619873048
vn 0.80365628004074096 -0.51154762506484984 0.30406534671783448
vn 0.2289206236600876 0.9103248715400696 0.34482467174530028
vn 0.26153117418289184 0.9090984463691712 0.32425516843795776
vn 0.20163266360759736 0.956157386302948 0.2123848646879196
vn 0.21544612944126128 0.95528864860534672 0.2025006413459778
vn 0.22945754230022432 0.96858888864517216 0.09583757817745208
vn 0.2176349312067032 0.96988832950592048 0.10932330787181854
vn 0.19255051016807556 0.97764605283737184 -0.08445467799901962
vn 0.21184550225734712 0.9687772989273072 -0.12881030142307282
vn -0.06706199049949646 0.98880469799041744 -0.13329650461673736
vn -0.05683761090040207 0.9898625016212464 -0.13016052544116974
vn -0.52290046215057376 0.85176438093185424 -0.03274906426668167
vn -0.50879013538360592 0.85839301347732544 -0.06552932411432266
vn -0.53226864337921144 0.84101301431655888 0.09688730537891388
vn -0.51779764890670776 0.85229551792144768 0.07401320338249207
vn 0.00310027529485523 0.9994363188743592 0.03343003243207931
vn -0.00440466869622468 0.99963289499282832 0.02673225663602352
vn -0.02231941185891628 0.98186922073364256 0.18824058771133424
vn -0.01939857937395572 0.98156213760375984 0.19015614688396452
vn -0.52652674913406376 0.83696204423904416 0.1492113173007965
vn -0.53008323907852176 0.83428037166595456 0.15161806344985962
vn -0.7111226320266724 0.67212939262390136 0.2062682956457138
vn -0.20719327032566072 0.95002597570419312 0.23349836468696596
vn -0.68118584156036376 0.71467357873916624 0.15883196890354156
vn -0.69268357753753664 0.70517086982727048 0.15140528976917266
vn -0.87457275390624992 0.4696878492832184 0.12048128247261048
vn -0.88030266761779792 0.45824739336967472 0.12278644740581512
vn -0.86797440052032464 0.46093082427978512 0.18483273684978484
vn -0.85096144676208496 0.5060357451438904 0.14068558812141418
vn -0.86305570602416992 0.38699629902839664 0.32460540533065796
vn -0.83023971319198608 0.43198674917221072 0.35226327180862428
vn -0.87138414382934576 0.46016681194305416 0.17010609805583954
vn -0.86918705701828 0.46353241801261904 0.1721964180469513
vn -0.88869053125381472 0.39784893393516544 0.22791549563407896
vn -0.88864743709564208 0.398015022277832 0.22779321670532228
vn 0.55946141481399536 -0.8287351727485656 -0.01417440176010131
vn 0.56996870040893552 -0.82113760709762576 -0.02947423420846462
vn 0.57365441322326664 -0.79900950193405152 0.18028974533081056
vn 0.55418747663497928 -0.80996441841125488 0.1919216960668564
vn 0.18655863404273988 -0.97523683309555056 0.11878138035535812
vn 0.19532959163188936 -0.97271406650543216 0.1251939833164215
vn 0.604215145111084 -0.69886577129364016 0.3827670216560364
vn 0.55319136381149288 -0.72827172279357904 0.40447440743446352
vn 0.24662782251834868 -0.93298822641372688 0.26212149858474732
vn 0.21375361084938048 -0.94681447744369504 0.24052380025386812
vn -0.05387762188911438 -0.98363012075424192 0.17195647954940796
vn -0.03528016433119774 -0.98812711238861088 0.14953309297561646
vn -0.09446794539690018 -0.98109757900238032 0.1688881665468216
vn -0.07468140125274658 -0.9851344227790832 0.15470297634601594
vn -0.36129772663116456 -0.91045004129409792 0.20135734975337984
vn -0.34345602989196776 -0.91462492942810064 0.2133053243160248
vn 0.03776516765356064 -0.97155880928039552 0.23376740515232088
vn -0.0614127404987812 -0.96570372581481936 0.2522791028022766
vn -0.37543088197708128 -0.91335755586624144 0.15757441520690918
vn -0.3961104452610016 -0.90690451860427856 0.14359922707080842
vn -0.2005959004163742 -0.92709589004516608 0.31662994623184204
vn -0.27188622951507568 -0.92584890127182 0.26245322823524476
vn -0.62556755542755128 -0.7360005974769592 0.2587822675704956
vn -0.56268620491027832 -0.7982370853424072 0.21494621038436888
vn -0.79647821187973024 -0.52648758888244632 0.2973772883415222
vn -0.8020638823509216 -0.51596820354461672 0.30078282952308656
vn -0.75935930013656624 -0.56147861480712888 0.32880899310112
vn -0.812004029750824 -0.50323951244354248 0.2956339716911316
vn -0.85301595926284784 -0.38180667161941528 0.3557913303375244
vn -0.85288530588150032 -0.38248515129089352 0.35537546873092652
vn -0.9253394603729248 -0.31750789284706116 0.20720911026000976
vn -0.92647367715835568 -0.3157411515712738 0.20482686161994936
vn -0.86238348484039312 -0.4728412926197052 0.18087552487850188
vn -0.88522243499755856 -0.41322001814842224 0.21361277997493744
vn -0.9135414361953736 -0.3110157549381256 0.26212823390960692
vn -0.9095807671546936 -0.31723374128341676 0.268375962972641
vn -0.27949178218841552 -0.57964241504669192 0.76544034481048576
vn -0.22695721685886384 -0.54683542251586912 0.80589175224304192
vn -0.93163418769836432 0.05114766955375671 0.35978004336357116
vn -0.92682337760925296 0.07506182044744492 0.36791864037513736
vn -0.91512548923492432 -0.17839659750461578 0.36155217885971072
vn -0.91631627082824704 -0.19202539324760436 0.35141253471374512
vn -0.98055833578109744 -0.04727267846465111 0.19044837355613708
vn -0.9776437282562256 -0.05595995113253593 0.2026851773262024
vn -0.97574621438980096 0.17993304133415222 0.12467365711927414
vn -0.97233170270919792 0.1921682506799698 0.1328248679637909
vn -0.97051542997360224 -0.176164910197258 0.16451676189899444
vn -0.97030740976333616 -0.18001660704612732 0.16154752671718598
vn -0.96680414676666256 -0.02193336747586727 0.25457537174224852
vn -0.96610987186431888 -0.02443068102002144 0.2569725513458252
vn -0.17372243106365204 0.26032844185829164 0.94976288080215456
vn -0.10839349776506424 0.22702112793922424 0.96783900260925296
vn -0.37794786691665648 -0.1021406278014183 0.92017531394958496
vn -0.36045873165130616 -0.08756058663129807 0.92865639925003056
vn -0.34558188915252684 0.5228261947631836 0.77924704551696784
vn -0.3127925395965576 0.53852021694183352 0.78240454196929936
vn 0.82048428058624272 -0.38960948586463928 0.41834187507629392
vn 0.83737385272979744 -0.36780494451522824 0.40438151359558104
vn 0.92402529716491696 -0.34079262614250184 0.17331363260746002
vn 0.91662472486495968 -0.3560267388820648 0.18178027868270876
vn 0.9570640325546264 -0.13703568279743194 0.25543993711471556
vn 0.95696753263473504 -0.12886141240596772 0.2600151002407074
vn 0.94073897600173952 -0.33803611993789672 -0.02723276242613792
vn 0.94862526655197136 -0.312223881483078 -0.05124809592962265
vn 0.97802662849426272 -0.11335541307926178 -0.17496992647647858
vn 0.9878125190734864 -0.07254766672849655 -0.13770662248134614
vn 0.96232599020004272 0.05946523323655128 -0.26531589031219484
vn 0.9681783318519592 0.04446520283818245 -0.24627937376499176
vn 0.47740703821182248 0.46977430582046512 0.742559552192688
vn 0.47746905684471128 0.46615538001060488 0.74479693174362176
vn 0.3950669467449188 0.23516044020652772 0.88804376125335696
vn 0.37889477610588072 0.24406033754348756 0.89267760515213008
vn 0.9205575585365296 0.04466312006115913 0.38804519176483152
vn 0.91916185617446896 0.03169794008135795 0.3926023244857788
vn 0.977783203125 0.01308566890656948 0.20921015739440916
vn 0.98080372810363776 0.04661422595381737 0.18934378027915956
vn 0.94604623317718512 0.11032216995954514 0.30467289686203004
vn 0.9416173696517944 0.11910828202962876 0.31491258740425108
vn 0.97790974378585808 0.14260610938072204 -0.15282657742500306
vn 0.97886681556701664 0.15863856673240662 -0.12904831767082214
vn 0.9962992072105408 0.05993084236979485 -0.06161296367645264
vn 0.99790114164352416 0.04447416216135025 -0.04706844687461853
vn 0.88661921024322512 0.281932532787323 0.36663386225700376
vn 0.88811904191970832 0.235331654548645 0.39479562640190128
vn 0.7390176057815552 0.37818425893783568 0.55752092599868776
vn 0.78311163187026976 0.33768370747566224 0.52221244573593136
vn 0.61127364635467528 0.72257536649703984 0.3228459656238556
vn 0.55460429191589352 0.7885140180587768 0.26581901311874388
vn 0.89890736341476448 0.37886044383049008 0.2200690358877182
vn 0.90699350833892816 0.33475285768508912 0.25554510951042176
vn 0.76678007841110224 0.56498515605926512 0.30469655990600584
vn 0.83926981687545776 0.49204930663108824 0.23133009672164916
vn 0.53346246480941776 0.82866030931472784 0.16952857375144958
vn 0.51192581653594968 0.84642302989959712 0.14662881195545196
vn 0.89879298210144048 0.428583025932312 -0.09212899208068848
vn 0.90324735641479488 0.4209468066692352 -0.08335567265748978
vn 0.73893141746520992 0.67212957143783568 0.04714129120111465
vn 0.73196285963058464 0.67752778530120848 0.07201797515153885
vn 0.51988238096237184 0.85210269689559936 -0.06035988032817841
vn 0.53144371509552 0.84574866294860832 -0.0477152019739151
vn 0.80046188831329344 0.47853681445121768 -0.36092010140419008
vn 0.83728063106536864 0.45474538207054136 -0.30359157919883728
vn 0.71200633049011232 0.67531245946884152 -0.19235430657863616
vn 0.71389198303222656 0.670770525932312 -0.20106016099452972
vn 0.46900156140327456 0.83720964193344112 -0.28127825260162352
vn 0.45727390050888064 0.84020310640335088 -0.29147779941558836
vn 0.68588548898696896 -0.10920470207929612 0.7194688320159912
vn 0.68495655059814456 -0.11120475083589554 0.7200472354888916
vn 0.64087194204330448 0.13186456263065338 0.7562373876571656
vn 0.63709712028503416 0.1204218566417694 0.76131850481033328
vn 0.8337615728378296 0.06006131693720818 0.54884803295135496
vn 0.83662647008895872 0.05684789270162582 0.54481595754623416
vn 0.04881393536925316 -0.25830331444740296 0.96482986211776736
vn 0.0223974660038948 -0.25333750247955324 0.9671186208724976
vn 0.1713651716709137 -0.01047856733202934 0.9851518869400024
vn 0.1577630639076233 -0.02972338907420635 0.9870295524597168
vn 0.48463094234466552 -0.09457994997501374 0.86959046125411984
vn 0.48018282651901248 -0.0926203802227974 0.87226480245590208
vn 0.32056331634521484 -0.80321329832077024 0.50208324193954464
vn 0.28148141503334044 -0.83491873741149904 0.47294706106185912
vn 0.1183195784687996 -0.72114789485931392 0.68260246515274048
vn 0.14208394289016724 -0.7234796285629272 0.67556595802307128
vn 0.2641025185585022 -0.40864422917366024 0.873647391796112
vn 0.27009332180023192 -0.3992678225040436 0.87614774703979488
vn 0.45976063609123232 -0.52270132303237912 0.71791601181030272
vn 0.4451671838760376 -0.52309107780456544 0.72677499055862432
vn 0.93063628673553472 0.20499497652053832 -0.30313867330551148
vn 0.92482870817184448 0.19454148411750792 -0.326872318983078
vn 0.66225224733352664 0.67073708772659304 -0.33396661281585692
vn 0.66174978017807008 0.6648907661437988 -0.3464209735393524
vn 0.6907126307487488 0.6852320432662964 -0.23102603852748872
vn 0.7121416926383972 0.68559134006500248 -0.151058629155159
vn 0.87558114528656 0.45144957304000856 -0.17190399765968322
vn 0.79385340213775632 0.4751664698123932 -0.37949126958847048
vn 0.91391938924789424 -0.1915277987718582 -0.35786646604537964
vn 0.93632483482360832 -0.17229945957660676 -0.30595535039901732
vn 0.86027485132217408 0.07930703461170197 -0.50362449884414672
vn 0.88810330629348752 0.06428740918636322 -0.45512604713439944
vn 0.11207269132137298 0.98231041431427008 -0.150020033121109
vn 0.12169411778450012 0.97311812639236448 -0.19552908837795256
vn 0.96340501308441168 -0.13255037367343902 -0.23298317193984984
vn 0.9638478755950928 -0.1319250613451004 -0.23150178790092468
vn 0.9439231753349304 0.16576378047466278 -0.28553730249404908
vn 0.96159219741821296 0.18899703025817872 -0.19904939830303192
vn 0.71533465385437008 0.68165493011474608 -0.1537625640630722
vn 0.71127432584762576 0.6792428493499756 -0.18088091909885408
vn -0.99706727266311648 -0.05415165796875954 -0.05407864972949028
vn -0.88405728340148928 -0.44812330603599552 -0.1327713131904602
vn -0.84595656394958496 0.51025253534317016 0.15491865575313568
vn -0.86378717422485344 0.46054741740226744 0.20437179505825044
vn -0.46417269110679624 0.79098397493362432 0.39860758185386656
vn -0.3580482006072998 0.78156608343124384 0.51083838939666752
vn -0.64160144329071048 0.7466480135917664 0.17568255960941314
vn -0.71272510290145872 0.70048731565475464 0.03661277890205383
vn -0.9357153177261352 -0.29256904125213624 0.19707895815372468
vn -0.92909014225006096 -0.30214062333106996 0.21331377327442168
vn -0.97759473323822016 -0.05500775575637817 0.20318134129047392
vn -0.98088055849075312 -0.04666062444448471 0.1889343708753586
vn -0.80689859390258784 0.1394205391407013 0.57400059700012208
vn -0.827344000339508 0.14008182287216186 0.54394751787185672
vn -0.80957931280136112 -0.1379593312740326 0.57056862115859984
vn -0.80995303392410272 -0.1381160020828247 0.57000005245208744
vn -0.61612582206726072 -0.7087653875350952 0.34357035160064696
vn -0.67423927783966064 -0.68299615383148192 0.2809230089187622
vn -0.72433167695999152 -0.38576862215995792 0.5714247822761536
vn -0.73210966587066656 -0.39616191387176512 0.5541400909423828
vn -0.97499036788940432 0.02653244324028492 0.22065764665603636
vn -0.97566705942153936 -0.12467826902866364 0.18035845458507536
vn -0.6570154428482056 -0.45971608161926272 0.59748786687850952
vn -0.6847186088562012 -0.46134951710700992 0.56419593095779416
vn -0.42516028881073 -0.39974808692932128 0.81205922365188592
vn -0.45761850476264952 -0.40027025341987608 0.79395782947540288
vn -0.32893452048301696 -0.75944954156875616 0.56128287315368656
vn -0.24688012897968292 -0.78204339742660528 0.57223969697952272
vn -0.82505172491073616 -0.56218963861465456 -0.05685373768210411
vn -0.96656543016433712 -0.22704823315143584 -0.11916563659906388
vn -0.608600914478302 -0.69248569011688232 0.38738673925399784
vn -0.54377245903015136 -0.7187326550483704 0.43328386545181272
vn -0.81361722946166992 -0.51801300048828128 0.26398763060569764
vn -0.80067306756973264 -0.52214556932449344 0.29374587535858156
vn -0.83384716510772704 0.14999143779277802 0.53122639656066896
vn -0.83477360010147088 0.14977598190307618 0.52983033657073976
vn -0.89094781875610352 0.396634578704834 0.22111766040325164
vn -0.91027611494064336 0.37375429272651672 0.17805884778499604
vn -0.52152913808822632 0.21961364150047304 0.8244860768318176
vn -0.5184937119483948 0.21898326277732848 0.82656550407409664
vn -0.92292100191116336 -0.21918682754039764 0.3165026903152466
vn -0.92329967021942144 -0.21943324804306032 0.31522497534751892
vn -0.96967869997024544 -0.23497068881988524 -0.06717056781053543
vn -0.95605230331420896 -0.28100800514221192 -0.0836571678519249
vn -0.59503728151321408 -0.8029708862304688 0.03418171405792236
vn -0.62075066566467288 -0.78318154811859136 0.03599002584815025
vn -0.94884169101715088 -0.30177775025367736 0.09289529919624328
vn -0.92831587791442864 -0.35171729326248168 0.1205182522535324
vn -0.98172855377197264 0.16392074525356292 -0.09663908183574676
vn -0.90556067228317264 0.42157453298568728 -0.04727291315793991
vn -0.97093027830123904 0.07924275100231171 0.22586487233638764
vn -0.95941698551177984 -0.05065169557929039 0.2774048149585724
vn -0.92661809921264656 0.36940568685531616 0.07013121992349625
vn -0.83358275890350336 0.54602038860321048 0.08367543667554855
vn -0.50366419553756712 0.84373509883880608 0.18556258082389832
vn -0.65459847450256344 0.74363416433334352 0.13604846596717834
vn -0.47551575303077696 0.86099177598953248 0.18049368262290956
vn -0.50874501466751096 0.83926683664321904 0.19185854494571684
vn -0.0112128322944045 0.97698843479156496 0.21299745142459868
vn 0.01041510794311761 0.97477835416793824 0.22293229401111604
vn -0.26953881978988648 0.76529228687286384 0.58453106880187992
vn -0.29434385895729064 0.76801681518554688 0.56878107786178592
vn -0.3639205992221832 0.86994165182113648 0.3328111171722412
vn -0.40449789166450504 0.84665906429290768 0.34575974941253664
vn -0.05037751048803329 0.7939993739128112 0.60582762956619264
vn -0.05933068320155144 0.79603290557861328 0.60233837366104128
vn -0.16250373423099518 0.49485209584236144 0.8536474108695984
vn -0.1111999824643135 0.54488927125930784 0.83110189437866208
vn -0.64385759830474856 0.757843554019928 0.10545361042022706
vn -0.64417946338653568 0.75761711597442624 0.10511470586061478
vn -0.78192722797393792 0.60631191730499264 0.14482970535755158
vn -0.81349509954452512 0.5558403134346008 0.17107698321342468
vn -0.614933967590332 0.775855541229248 0.14108307659626008
vn -0.6463013291358948 0.75066697597503664 0.13709001243114472
vn -0.75116723775863648 0.6333270072937012 0.18613068759441376
vn -0.75398790836334224 0.62592017650604248 0.19931405782699584
vn -0.82877248525619504 0.50293618440628048 0.24533936381340028
vn -0.77729403972625728 0.56954884529113768 0.26726028323173524
vn -0.76791995763778688 0.63767188787460328 0.06060820445418358
vn -0.7419316172599792 0.67042070627212528 0.00856877956539392
vn -0.74050009250640864 -0.4961684346199036 0.45329511165618896
vn -0.77661603689193728 -0.47594982385635376 0.41272187232971192
vn -0.83303952217102048 -0.31231525540351868 0.45662263035774232
vn -0.8264217376708984 -0.31722018122673036 0.46518650650978088
vn -0.89658260345458992 -0.04975930601358414 0.4400722086429596
vn -0.89850419759750368 -0.04706844687461853 0.43643420934677128
vn -0.84840339422225952 0.23170511424541472 0.47594588994979856
vn -0.85601592063903808 0.30956009030342104 0.4140159487724304
vn -0.52664935588836672 0.56871348619461056 0.63182711601257328
vn -0.53348946571350096 0.64832329750061032 0.54319959878921512
vn -0.33853182196617128 -0.93134009838104256 0.13417120277881622
vn -0.350955992937088 -0.92820590734481808 0.12354650348424912
vn 0.2442821115255356 -0.96969109773635872 0.00505061540752649
vn 0.21561241149902344 -0.97621923685073856 -0.0225236602127552
vn 0.87917101383209232 -0.32135668396949768 -0.35183560848236084
vn 0.87924975156784064 -0.34316596388816832 -0.33038923144340516
vn 0.5810798406600952 -0.77011412382125856 -0.2631928324699402
vn 0.57286590337753296 -0.78258067369461056 -0.24370484054088592
vn 0.8423314690589904 -0.5018271207809448 -0.19658927619457244
vn 0.8507176041603088 -0.49304047226905824 -0.18218281865119936
vn -0.36621621251106264 0.7655882835388184 0.52892369031906128
vn -0.366220623254776 0.76350057125091552 0.53192985057830808
vn -0.72030663490295408 -0.66331100463867184 0.20292077958583832
vn -0.67876052856445312 -0.69787830114364624 0.22858269512653352
vn -0.75539129972457888 -0.5605313181877136 0.33939447999000548
vn -0.77363395690917968 -0.52389895915985104 0.35639899969100952
vn -0.76605486869812016 -0.55651241540908816 0.32164248824119568
vn -0.84493726491928096 -0.45919418334960936 0.2742658257484436
vn -0.50357991456985472 -0.81958609819412224 0.27328750491142272
vn -0.47860017418861392 -0.84201508760452272 0.24890254437923432
vn -0.760891318321228 -0.5527576804161072 0.33985796570777892
vn -0.71461397409439088 -0.63107818365097048 0.301773339509964
vn 0.8192583918571472 -0.46848440170288088 -0.33066317439079284
vn 0.8167667984962464 -0.47031641006469728 -0.33420726656913756
vn -0.74103987216949456 0.63806891441345216 0.2091122716665268
vn -0.72783297300338752 0.65929764509201048 0.18864199519157408
vn -0.77868539094924928 0.6164231300354004 0.1169254332780838
vn -0.29979655146598816 0.75642621517181392 0.58132725954055784
vn -0.29388681054115296 0.7604380249977112 0.57910674810409544
vn -0.47579532861709592 0.85512375831604 0.20586903393268584
vn -0.4215766191482544 0.8866954445838928 0.1898537427186966
vn -0.99732536077499392 0.00282452069222927 0.0730348601937294
vn -0.98155105113983152 0.17488615214824676 0.07728181779384613
vn -0.95147454738616944 -0.2976117730140686 -0.07825195789337158
vn -0.9541538953781128 0.08638706803321838 0.28657907247543336
vn -0.95019012689590448 0.09080104529857636 0.29815074801445008
vn -0.85549259185791008 -0.50807046890258792 0.09998437762260438
vn -0.77976739406585696 -0.58337640762329104 0.2272328734397888
vn -0.83422619104385376 -0.470795214176178 0.28708639740943908
vn -0.82729893922805792 -0.46997705101966856 0.30773067474365236
vn -0.56802648305892944 -0.55108135938644408 0.61127346754074096
vn -0.55862361192703248 -0.4818687736988068 0.67508679628372192
vn -0.81894928216934208 -0.0262139867991209 0.57326674461364744
vn -0.82064998149871824 -0.02678093686699867 0.57080334424972536
vn -0.78012216091156 -0.24753995239734648 0.5745723247528076
vn -0.80212754011154176 -0.25874638557434084 0.53818362951278688
vn -0.75268095731735232 0.6581305265426636 0.0183212049305439
vn -0.82192504405975344 0.51983124017715456 -0.23284028470516204
vn -0.73550802469253536 0.36488866806030272 0.57086259126663208
vn -0.7196994423866272 0.34126433730125428 0.6046249270439148
vn -0.96769058704376224 -0.23637329041957856 -0.08776423335075378
vn -0.99952071905136112 0.00715203443542122 -0.03012352250516414
vn 0.86659502983093264 -0.17028330266475678 -0.46905940771102904
vn 0.70730084180831912 0.67864674329757688 -0.19789908826351164
vn 0.67117804288864136 0.67681217193603512 -0.30239939689636232
vn 0.9063333868980408 0.182435005903244 -0.38115248084068296
vn 0.86380463838577264 0.19881017506122588 -0.46294283866882328
vn 0.31614550948143004 -0.63048261404037472 0.70890313386917112
vn 0.27794882655143736 -0.62555950880050656 0.72898548841476448
vn 0.21189539134502412 -0.20120745897293092 0.95635557174682624
vn 0.22383658587932588 -0.20526890456676484 0.95276534557342528
vn 0.6724989414215088 -0.00418362068012356 0.74008625745773312
vn 0.6770154237747192 -0.00726861879229545 0.7359328866004944
vn 0.6700167655944824 0.65993416309356688 -0.33994752168655396
vn 0.65963393449783328 0.66337394714355472 -0.35329601168632508
vn 0.73051559925079344 0.67696446180343624 -0.08981174975633621
vn 0.73677670955657952 0.67124938964843752 -0.08114471286535263
vn 0.78842794895172112 0.57112407684326168 0.22847016155719756
vn 0.74407756328582768 0.65136945247650144 0.14854753017425538
vn 0.83247458934783936 0.40808555483818056 0.3747695088386536
vn 0.81148034334182736 0.48632541298866272 0.3240172564983368
vn 0.98955708742141728 0.12937158346176148 -0.06355991214513779
vn 0.98749971389770512 0.13899222016334534 -0.07433377951383591
vn 0.9681881666183472 0.1240660697221756 0.2173001915216446
vn 0.9661090970039368 0.0938429906964302 0.24047179520130156
vn 0.91532343626022336 0.09242420643568038 0.39197042584419248
vn 0.91754996776580816 0.10668645799160004 0.38304069638252256
vn 0.5796838998794556 0.278035044670105 0.76593935489654544
vn 0.575762152671814 0.28077319264411928 0.7678959965705872
vn 0.9343030452728272 -0.11100131273269654 -0.33875742554664612
vn 0.94403731822967536 -0.17521904408931732 -0.27944907546043396
vn 0.99475550651550288 -0.09872042387723922 -0.02675539068877697
vn 0.9962060451507568 -0.07418880611658096 -0.04549364745616913
vn 0.97725951671600336 -0.12136677652597428 0.17387904226779938
vn 0.97385573387146 -0.13740867376327514 0.18089760839939116
vn 0.91530406475067136 -0.15206770598888398 0.3729528486728668
vn 0.93308144807815552 0.19482679665088652 -0.30232685804367064
vn 0.95746111869812016 0.1597868800163269 -0.24028404057025908
vn -0.4028941094875336 0.23349992930889128 0.88495993614196784
vn -0.38969314098358152 0.24245144426822664 0.88845741748809808
vn -0.9862292408943176 -0.04874567687511444 0.15803708136081696
vn -0.9894206523895264 -0.03145702928304672 0.14162363111972808
vn -0.93734544515609744 -0.01700627990067005 0.3479861617088318
vn -0.929137110710144 -0.0380038172006607 0.36777696013450624
vn -0.3187565505504608 -0.35537457466125488 0.87869393825531008
vn -0.30984514951705932 -0.35652169585227968 0.88141274452209472
vn -0.93910652399063104 -0.30348971486091612 0.16116109490394592
vn -0.93458485603332512 -0.31243857741355896 0.17009760439395904
vn -0.88100564479827888 -0.31588581204414368 0.3522004783153534
vn -0.87543749809265136 -0.32330107688903808 0.35928472876548768
vn -0.76670974493026736 -0.5667144060134888 0.30164703726768492
vn -0.67616808414459232 -0.69418436288833616 0.24678903818130492
vn -0.85232955217361456 -0.46054494380950928 0.24785631895065308
vn -0.89524906873703008 -0.34694287180900572 0.27957078814506532
vn -0.16169793903827668 -0.77928858995437616 0.6054444909095764
vn -0.21666677296161652 -0.80146288871765136 0.55741608142852784
vn -0.28545886278152464 -0.94509208202362064 0.15910404920578002
vn -0.38027337193489072 -0.91990685462951664 0.0957266390323639
vn -0.39296320080757144 -0.90093058347702032 0.18413016200065612
vn -0.36107370257377624 -0.90989613533020016 0.2042420506477356
vn -0.34247770905494688 -0.91236269474029536 0.22428390383720396
vn -0.33981734514236452 -0.91290450096130368 0.22611857950687408
vn 0.2953185737133026 -0.88840550184249872 0.35145798325538636
vn 0.24160122871398924 -0.91724884510040288 0.3166755437850952
vn 0.214959517121315 -0.96219438314437872 0.16725529730319976
vn 0.1896923929452896 -0.97027361392974848 0.15028585493564606
vn 0.18822930753231048 -0.97994297742843632 0.06543272733688354
vn 0.22554439306259156 -0.9695888757705688 0.09501148015260696
vn -0.8731709718704224 0.4735872447490692 0.1152718961238861
vn -0.90154069662094112 0.39817854762077328 0.16934655606746674
vn -0.86918991804122928 0.40214186906814576 0.28773400187492372
vn -0.80951362848281856 0.48374792933464048 0.33267956972122192
vn -0.81426101922988896 0.56294816732406616 0.14166320860385894
vn -0.87101501226425168 0.46018013358116152 0.1719508320093155
vn -0.7216641902923584 0.68755960464477536 0.08039009571075439
vn -0.88100224733352656 0.45965746045112608 0.11202747374773026
vn -0.50768512487411496 0.84437304735183712 0.171143040060997
vn -0.52801525592803952 0.83006918430328368 0.17940154671669006
vn -0.5335606932640076 0.84061729907989504 0.09314216673374176
vn -0.53427684307098392 0.84002929925918576 0.09433534741401672
vn -0.51563578844070432 0.8531824350357056 0.07873696833848953
vn -0.49309581518173216 0.86856591701507568 0.04949339479207993
vn 0.13113829493522644 0.97945779561996464 -0.15318307280540466
vn 0.15652023255825042 0.96386677026748656 -0.21555116772651672
vn 0.23456610739231108 0.97203582525253296 -0.01118652150034904
vn 0.2292204201221466 0.97337269783020016 -0.00190459948498755
vn 0.20958720147609712 0.96176564693450928 0.17629538476467132
vn 0.20773187279701232 0.9618693590164184 0.1779177337884903
vn 0.20670983195304872 0.94676738977432256 0.2467845529317856
vn 0.25233849883079528 0.94199973344802864 0.22127318382263184
vn 0.19928242266178132 0.7890180945396424 0.58115136623382568
vn -0.23233313858509064 0.77401840686798096 0.58899646997451784
vn -0.26067557930946352 0.7807732224464416 0.5678392052650452
vn 0.79052871465682976 -0.4501061737537384 0.41529348492622376
vn 0.77506762742996208 -0.49023959040641784 0.39866682887077328
vn 0.87676209211349488 -0.47862765192985536 -0.0469437800347805
vn 0.85801559686660768 -0.50689923763275144 -0.08284012228250504
vn 0.84516733884811408 -0.49694952368736264 0.196807861328125
vn 0.83717495203018192 -0.51501417160034176 0.1841154396533966
vn 0.66772216558456424 -0.35214629769325256 0.65585058927536008
vn 0.08657495677471161 0.24405319988727568 0.96588969230651856
vn 0.03348864614963531 0.17823126912117004 0.98341864347457888
vn -0.78833121061325072 -0.5006481409072876 0.35761046409606932
vn -0.78794407844543456 -0.50156134366989136 0.35718393325805664
vn -0.88650196790695184 0.32364624738693236 0.33070755004882812
vn -0.81732785701751712 -0.49551218748092648 0.29401162266731264
vn -0.90366303920745856 -0.31858098506927492 0.28618043661117552
vn -0.89751666784286496 -0.32099655270576476 0.30236586928367616
vn -0.95762580633163456 -0.0547136664390564 0.28277075290679932
vn -0.96120965480804448 -0.05329053103923798 0.27062186598777772
vn -0.9088445901870728 0.29242032766342164 0.29747596383094788
vn -0.91771656274795536 0.29651474952697752 0.26433932781219484
vn -0.79806321859359744 0.530084490776062 0.28654062747955324
vn -0.8053560256958008 0.53176385164260864 0.261971116065979
vn -0.71972197294235232 0.69423359632492064 0.0063264793716371
vn -0.69856029748916624 0.68804395198822024 0.19649177789688112
vn -0.54137200117111208 0.81809324026107792 -0.19401030242443084
vn 0.86171102523803712 -0.33157405257225036 -0.38407403230667112
vn 0.94964075088500976 -0.26635316014289856 -0.16504105925559998
vn 0.94542717933654784 -0.26711642742156984 -0.1865912228822708
vn 0.85037773847579952 -0.50716191530227664 -0.14015886187553406
vn 0.52278488874435424 0.85012388229370112 0.06312968581914902
vn 0.59484523534774784 0.80337631702423088 -0.02730434574186802
vn 0.56339645385742184 -0.82124298810958864 0.09024611860513688
vn 0.56516021490097048 -0.81965816020965584 0.09356508404016494
vn 0.81884670257568352 -0.33109179139137268 0.4689012169837952
vn -0.71088111400604248 -0.56349629163742064 0.42085623741149904
vn -0.96715575456619264 0.02514483220875263 0.25293770432472228
vn -0.82834291458129888 0.50308001041412352 0.24649226665496828
vn -0.87339645624160768 0.47117251157760624 0.12318700551986694
vn -0.81967818737030032 -0.55634862184524536 0.13639634847640992
vn -0.1071215197443962 0.95237958431243904 -0.28547877073287964
vn -0.17439116537570954 0.98126661777496336 -0.08187469840049744
vn -0.89430415630340576 0.44339546561241152 0.06017072126269341
vn -0.99471586942672736 0.08208097517490387 0.06166889518499374
vn 0.43123498558998104 0.8180049657821656 -0.38066285848617552
vn 0.69916832447052 0.668257474899292 0.2541567087173462
vn -0.28580358624458312 -0.95768642425537104 0.03395562246441841
vn -0.81475400924682624 -0.56867098808288576 0.1130896881222725
# 787 vertex normals

g obj_10986602
s 1
f 1//1 2//1 3//1
f 1//2 3//2 4//2
f 5//3 6//3 7//3
f 5//4 7//4 8//4
f 9//5 10//5 11//5
f 9//6 11//6 12//6
f 13//7 14//7 15//7
f 13//8 15//8 16//8
f 17//9 18//9 19//9
f 17//10 19//10 20//10
f 21//11 22//11 23//11
f 21//12 23//12 24//12
f 25//13 26//13 27//13
f 25//14 27//14 28//14
f 29//15 30//15 31//15
f 29//16 31//16 32//16
f 33//17 34//17 35//17
f 33//18 35//18 36//18
f 37//19 38//19 39//19
f 37//20 39//20 40//20
f 41//21 42//21 43//21
f 41//22 43//22 44//22
f 45//23 46//23 47//23
f 45//24 47//24 48//24
f 49//25 50//25 51//25
f 49//26 51//26 52//26
f 14//27 13//27 45//27
f 14//28 45//28 48//28
f 38//29 37//29 6//29
f 38//30 6//30 5//30
f 5//31 8//31 1//31
f 5//32 1//32 4//32
f 22//33 21//33 7//33
f 22//34 7//34 6//34
f 8//35 7//35 18//35
f 8//36 18//36 17//36
f 9//37 12//37 15//37
f 9//38 15//38 14//38
f 17//39 20//39 50//39
f 17//40 50//40 49//40
f 13//41 16//41 30//41
f 13//42 30//42 29//42
f 26//43 25//43 19//43
f 26//44 19//44 18//44
f 20//45 19//45 16//45
f 20//46 16//46 15//46
f 37//47 40//47 23//47
f 37//48 23//48 22//48
f 21//49 24//49 27//49
f 21//50 27//50 26//50
f 53//51 54//51 24//51
f 53//52 24//52 23//52
f 25//53 28//53 31//53
f 25//54 31//54 30//54
f 55//55 56//55 28//55
f 55//56 28//56 27//56
f 29//57 32//57 46//57
f 29//58 46//58 45//58
f 57//59 58//59 32//59
f 57//60 32//60 31//60
f 34//61 33//61 39//61
f 34//62 39//62 38//62
f 40//63 39//63 59//63
f 40//64 59//64 60//64
f 61//65 62//65 47//65
f 61//66 47//66 46//66
f 48//67 47//67 42//67
f 48//68 42//68 41//68
f 41//69 44//69 10//69
f 41//70 10//70 9//70
f 49//71 52//71 2//71
f 49//72 2//72 1//72
f 12//73 11//73 51//73
f 12//74 51//74 50//74
f 4//75 3//75 35//75
f 4//76 35//76 34//76
f 43//77 42//77 47//77
f 43//78 47//78 62//78
f 58//79 61//79 46//79
f 58//80 46//80 32//80
f 56//81 57//81 31//81
f 56//82 31//82 28//82
f 54//83 55//83 27//83
f 54//84 27//84 24//84
f 60//85 53//85 23//85
f 60//86 23//86 40//86
f 19//87 25//87 30//87
f 19//88 30//88 16//88
f 50//89 20//89 15//89
f 50//90 15//90 12//90
f 7//91 21//91 26//91
f 7//92 26//92 18//92
f 1//93 8//93 17//93
f 1//94 17//94 49//94
f 6//95 37//95 22//95
f 34//96 38//96 5//96
f 34//97 5//97 4//97
f 45//98 13//98 29//98
f 9//99 14//99 48//99
f 9//100 48//100 41//100
f 59//101 39//101 33//101
f 59//102 33//102 36//102
f 63//103 3//103 2//103
f 63//104 2//104 64//104
f 65//105 35//105 3//105
f 65//106 3//106 63//106
f 66//107 36//107 35//107
f 66//108 35//108 65//108
f 64//109 2//109 52//109
f 64//110 52//110 67//110
f 67//111 52//111 51//111
f 67//112 51//112 68//112
f 68//113 51//113 11//113
f 68//114 11//114 69//114
f 69//115 11//115 10//115
f 69//116 10//116 70//116
f 70//117 10//117 44//117
f 70//118 44//118 71//118
f 71//119 44//119 43//119
f 71//120 43//120 72//120
f 73//121 74//121 75//121
f 73//122 75//122 76//122
f 77//123 78//123 79//123
f 77//124 79//124 80//124
f 81//125 82//125 83//125
f 84//126 85//126 86//126
f 87//127 88//127 85//127
f 87//128 85//128 79//128
f 89//129 80//129 84//129
f 89//130 84//130 90//130
f 91//131 92//131 78//131
f 91//132 78//132 75//132
f 93//133 94//133 76//133
f 93//134 76//134 77//134
f 95//135 96//135 82//135
f 95//136 82//136 73//136
f 97//137 74//137 81//137
f 97//138 81//138 98//138
f 99//139 100//139 101//139
f 99//140 101//140 102//140
f 103//141 104//141 105//141
f 103//142 105//142 106//142
f 107//143 108//143 109//143
f 107//144 109//144 110//144
f 111//145 112//145 113//145
f 111//146 113//146 114//146
f 115//147 116//147 117//147
f 115//148 117//148 118//148
f 119//149 120//149 121//149
f 119//150 121//150 122//150
f 123//151 124//151 125//151
f 123//152 125//152 126//152
f 127//153 128//153 129//153
f 127//154 129//154 130//154
f 56//155 55//155 131//155
f 56//156 131//156 132//156
f 61//157 133//157 134//157
f 61//158 134//158 62//158
f 135//159 136//159 137//159
f 135//160 137//160 138//160
f 139//161 140//161 141//161
f 139//162 141//162 142//162
f 143//163 83//163 144//163
f 145//164 146//164 147//164
f 145//165 147//165 148//165
f 149//166 150//166 151//166
f 149//167 151//167 152//167
f 153//168 154//168 155//168
f 153//169 155//169 156//169
f 157//170 158//170 159//170
f 157//171 159//171 160//171
f 161//172 162//172 163//172
f 161//173 163//173 164//173
f 165//174 166//174 167//174
f 165//175 167//175 168//175
f 169//176 170//176 171//176
f 169//177 171//177 172//177
f 173//178 174//178 175//178
f 173//179 175//179 176//179
f 177//180 178//180 179//180
f 177//181 179//181 180//181
f 181//182 182//182 183//182
f 181//183 183//183 184//183
f 185//184 186//184 187//184
f 185//185 187//185 188//185
f 189//186 190//186 191//186
f 189//187 191//187 192//187
f 86//188 193//188 194//188
f 195//189 196//189 197//189
f 195//190 197//190 198//190
f 199//191 200//191 201//191
f 199//192 201//192 202//192
f 203//193 204//193 205//193
f 203//194 205//194 206//194
f 207//195 208//195 209//195
f 207//196 209//196 210//196
f 211//197 212//197 213//197
f 211//198 213//198 214//198
f 215//199 216//199 217//199
f 215//200 217//200 218//200
f 219//201 220//201 221//201
f 219//202 221//202 222//202
f 223//203 224//203 225//203
f 223//204 225//204 226//204
f 227//205 228//205 229//205
f 227//206 229//206 230//206
f 231//207 232//207 233//207
f 231//208 233//208 234//208
f 235//209 236//209 237//209
f 235//210 237//210 238//210
f 239//211 240//211 241//211
f 239//212 241//212 242//212
f 243//213 244//213 245//213
f 246//214 247//214 248//214
f 246//215 248//215 249//215
f 250//216 251//216 252//216
f 253//217 254//217 255//217
f 253//218 255//218 256//218
f 257//219 258//219 259//219
f 257//220 259//220 260//220
f 261//221 262//221 263//221
f 261//222 263//222 264//222
f 265//223 266//223 267//223
f 265//224 267//224 268//224
f 269//225 270//225 271//225
f 269//226 271//226 272//226
f 59//227 273//227 274//227
f 59//228 274//228 60//228
f 54//229 53//229 275//229
f 54//230 275//230 276//230
f 58//231 57//231 277//231
f 58//232 277//232 278//232
f 279//233 280//233 281//233
f 279//234 281//234 282//234
f 283//235 284//235 285//235
f 283//236 285//236 286//236
f 287//237 288//237 289//237
f 287//238 289//238 290//238
f 291//239 292//239 293//239
f 294//240 295//240 296//240
f 294//241 296//241 297//241
f 298//242 299//242 300//242
f 298//243 300//243 301//243
f 302//244 303//244 304//244
f 302//245 304//245 305//245
f 306//246 307//246 308//246
f 306//247 308//247 309//247
f 310//248 311//248 312//248
f 310//249 312//249 313//249
f 314//250 315//250 316//250
f 314//251 316//251 317//251
f 318//252 319//252 320//252
f 318//253 320//253 321//253
f 322//254 323//254 324//254
f 322//255 324//255 325//255
f 326//256 327//256 328//256
f 326//257 328//257 329//257
f 330//258 331//258 332//258
f 330//259 332//259 333//259
f 334//260 335//260 336//260
f 334//261 336//261 337//261
f 338//262 339//262 340//262
f 338//263 340//263 341//263
f 342//264 343//264 344//264
f 342//265 344//265 345//265
f 346//266 347//266 348//266
f 346//267 348//267 349//267
f 350//268 351//268 352//268
f 350//269 352//269 353//269
f 354//270 355//270 356//270
f 354//271 356//271 357//271
f 358//272 359//272 360//272
f 358//273 360//273 361//273
f 362//274 363//274 364//274
f 362//275 364//275 365//275
f 366//276 367//276 368//276
f 366//277 368//277 369//277
f 370//278 371//278 372//278
f 373//279 374//279 375//279
f 373//280 375//280 376//280
f 377//281 378//281 379//281
f 377//282 379//282 380//282
f 381//283 382//283 383//283
f 381//284 383//284 384//284
f 385//285 386//285 387//285
f 385//286 387//286 388//286
f 87//287 79//287 78//287
f 87//288 78//288 92//288
f 93//289 77//289 80//289
f 93//290 80//290 89//290
f 91//291 75//291 74//291
f 91//292 74//292 97//292
f 95//293 73//293 76//293
f 95//294 76//294 94//294
f 79//295 85//295 84//295
f 79//296 84//296 80//296
f 86//297 389//297 90//297
f 86//298 90//298 84//298
f 75//299 78//299 77//299
f 75//300 77//300 76//300
f 73//301 82//301 81//301
f 73//302 81//302 74//302
f 83//303 143//303 98//303
f 83//304 98//304 81//304
f 100//305 99//305 375//305
f 100//306 375//306 374//306
f 104//307 103//307 354//307
f 104//308 354//308 357//308
f 107//309 110//309 124//309
f 107//310 124//310 123//310
f 112//311 111//311 352//311
f 112//312 352//312 351//312
f 116//313 115//313 346//313
f 116//314 346//314 349//314
f 120//315 119//315 342//315
f 120//316 342//316 345//316
f 351//317 350//317 125//317
f 351//318 125//318 124//318
f 127//319 130//319 343//319
f 127//320 343//320 342//320
f 103//321 106//321 108//321
f 103//322 108//322 107//322
f 390//323 83//323 82//323
f 390//324 82//324 96//324
f 221//325 220//325 391//325
f 221//326 391//326 203//326
f 170//327 169//327 146//327
f 170//328 146//328 145//328
f 181//329 184//329 322//329
f 181//330 322//330 325//330
f 189//331 192//331 310//331
f 189//332 310//332 313//332
f 392//333 194//333 140//333
f 392//334 140//334 139//334
f 199//335 202//335 135//335
f 199//336 135//336 138//336
f 393//337 394//337 136//337
f 393//338 136//338 135//338
f 374//339 373//339 394//339
f 374//340 394//340 372//340
f 335//341 334//341 137//341
f 335//342 137//342 136//342
f 138//343 137//343 141//343
f 138//344 141//344 140//344
f 139//345 142//345 311//345
f 139//346 311//346 310//346
f 331//347 330//347 142//347
f 331//348 142//348 141//348
f 319//349 318//349 300//349
f 319//350 300//350 299//350
f 330//351 333//351 306//351
f 330//352 306//352 309//352
f 307//353 306//353 395//353
f 307//354 395//354 305//354
f 123//355 126//355 355//355
f 123//356 355//356 354//356
f 163//357 162//357 126//357
f 163//358 126//358 125//358
f 339//359 338//359 302//359
f 339//360 302//360 395//360
f 162//361 161//361 338//361
f 162//362 338//362 341//362
f 143//363 144//363 362//363
f 143//364 362//364 365//364
f 145//365 148//365 396//365
f 145//366 396//366 390//366
f 144//367 396//367 150//367
f 144//368 150//368 149//368
f 220//369 219//369 147//369
f 220//370 147//370 146//370
f 148//371 147//371 154//371
f 148//372 154//372 153//372
f 149//373 152//373 358//373
f 149//374 358//374 361//374
f 153//375 156//375 151//375
f 153//376 151//376 150//376
f 152//377 151//377 385//377
f 152//378 385//378 388//378
f 224//379 223//379 155//379
f 224//380 155//380 154//380
f 156//381 155//381 295//381
f 156//382 295//382 294//382
f 223//383 226//383 291//383
f 223//384 291//384 293//384
f 294//385 297//385 386//385
f 294//386 386//386 385//386
f 397//387 289//387 381//387
f 397//388 381//388 384//388
f 382//389 381//389 158//389
f 382//390 158//390 157//390
f 157//391 160//391 344//391
f 157//392 344//392 343//392
f 345//393 344//393 347//393
f 345//394 347//394 346//394
f 266//395 265//395 159//395
f 266//396 159//396 158//396
f 160//397 159//397 166//397
f 160//398 166//398 165//398
f 228//399 227//399 270//399
f 228//400 270//400 269//400
f 350//401 353//401 398//401
f 350//402 398//402 163//402
f 165//403 168//403 348//403
f 165//404 348//404 347//404
f 349//405 348//405 353//405
f 349//406 353//406 352//406
f 161//407 164//407 262//407
f 161//408 262//408 261//408
f 258//409 257//409 167//409
f 258//410 167//410 166//410
f 168//411 167//411 164//411
f 168//412 164//412 398//412
f 316//413 315//413 211//413
f 316//414 211//414 214//414
f 212//415 211//415 284//415
f 212//416 284//416 283//416
f 279//417 282//417 315//417
f 279//418 315//418 314//418
f 169//419 172//419 204//419
f 169//420 204//420 391//420
f 96//421 95//421 171//421
f 96//422 171//422 170//422
f 172//423 171//423 174//423
f 172//424 174//424 173//424
f 368//425 367//425 97//425
f 368//426 97//426 98//426
f 367//427 366//427 177//427
f 367//428 177//428 180//428
f 178//429 177//429 240//429
f 178//430 240//430 239//430
f 327//431 326//431 182//431
f 327//432 182//432 181//432
f 216//433 215//433 326//433
f 216//434 326//434 329//434
f 173//435 176//435 205//435
f 173//436 205//436 204//436
f 94//437 93//437 175//437
f 94//438 175//438 174//438
f 176//439 175//439 186//439
f 176//440 186//440 185//440
f 196//441 195//441 179//441
f 196//442 179//442 178//442
f 180//443 179//443 92//443
f 180//444 92//444 91//444
f 185//445 188//445 207//445
f 185//446 207//446 210//446
f 208//447 207//447 183//447
f 208//448 183//448 182//448
f 184//449 183//449 190//449
f 184//450 190//450 189//450
f 89//451 90//451 187//451
f 89//452 187//452 186//452
f 188//453 187//453 191//453
f 188//454 191//454 190//454
f 192//455 191//455 389//455
f 192//456 389//456 392//456
f 195//457 198//457 88//457
f 195//458 88//458 87//458
f 85//459 88//459 193//459
f 85//460 193//460 86//460
f 194//461 193//461 200//461
f 194//462 200//462 199//462
f 236//463 235//463 197//463
f 236//464 197//464 196//464
f 198//465 197//465 201//465
f 198//466 201//466 200//466
f 202//467 201//467 399//467
f 202//468 399//468 243//468
f 203//469 206//469 231//469
f 203//470 231//470 234//470
f 215//471 218//471 209//471
f 215//472 209//472 208//472
f 210//473 209//473 206//473
f 210//474 206//474 205//474
f 227//475 230//475 213//475
f 227//476 213//476 212//476
f 214//477 213//477 217//477
f 214//478 217//478 216//478
f 218//479 217//479 232//479
f 218//480 232//480 231//480
f 219//481 222//481 225//481
f 219//482 225//482 224//482
f 226//483 225//483 229//483
f 226//484 229//484 228//484
f 230//485 229//485 233//485
f 230//486 233//486 232//486
f 234//487 233//487 222//487
f 234//488 222//488 221//488
f 239//489 242//489 237//489
f 239//490 237//490 236//490
f 235//491 238//491 400//491
f 235//492 400//492 399//492
f 244//493 400//493 251//493
f 244//494 251//494 250//494
f 253//495 256//495 238//495
f 253//496 238//496 237//496
f 401//497 402//497 241//497
f 401//498 241//498 240//498
f 242//499 241//499 246//499
f 242//500 246//500 249//500
f 243//501 245//501 370//501
f 243//502 370//502 393//502
f 402//503 403//503 247//503
f 402//504 247//504 246//504
f 249//505 248//505 254//505
f 249//506 254//506 253//506
f 256//507 255//507 252//507
f 256//508 252//508 251//508
f 36//509 66//509 273//509
f 36//510 273//510 59//510
f 261//511 264//511 303//511
f 261//512 303//512 302//512
f 299//513 298//513 280//513
f 299//514 280//514 279//514
f 58//515 278//515 133//515
f 58//516 133//516 61//516
f 265//517 268//517 259//517
f 265//518 259//518 258//518
f 257//519 260//519 263//519
f 257//520 263//520 262//520
f 264//521 263//521 69//521
f 264//522 69//522 70//522
f 67//523 68//523 260//523
f 67//524 260//524 259//524
f 289//525 288//525 267//525
f 289//526 267//526 266//526
f 268//527 267//527 63//527
f 268//528 63//528 64//528
f 66//529 65//529 288//529
f 66//530 288//530 287//530
f 54//531 276//531 131//531
f 54//532 131//532 55//532
f 283//533 286//533 271//533
f 283//534 271//534 270//534
f 269//535 272//535 404//535
f 269//536 404//536 291//536
f 405//537 404//537 274//537
f 405//538 274//538 273//538
f 60//539 274//539 275//539
f 60//540 275//540 53//540
f 276//541 275//541 272//541
f 276//542 272//542 271//542
f 56//543 132//543 277//543
f 56//544 277//544 57//544
f 278//545 277//545 281//545
f 278//546 281//546 280//546
f 282//547 281//547 285//547
f 282//548 285//548 284//548
f 286//549 285//549 132//549
f 286//550 132//550 131//550
f 287//551 290//551 292//551
f 287//552 292//552 405//552
f 293//553 292//553 296//553
f 293//554 296//554 295//554
f 297//555 296//555 290//555
f 297//556 290//556 397//556
f 298//557 301//557 134//557
f 298//558 134//558 133//558
f 71//559 72//559 304//559
f 71//560 304//560 303//560
f 305//561 304//561 301//561
f 305//562 301//562 300//562
f 318//563 321//563 308//563
f 318//564 308//564 307//564
f 309//565 308//565 312//565
f 309//566 312//566 311//566
f 313//567 312//567 323//567
f 313//568 323//568 322//568
f 314//569 317//569 320//569
f 314//570 320//570 319//570
f 321//571 320//571 324//571
f 321//572 324//572 323//572
f 325//573 324//573 328//573
f 325//574 328//574 327//574
f 329//575 328//575 317//575
f 329//576 317//576 316//576
f 334//577 337//577 332//577
f 334//578 332//578 331//578
f 333//579 332//579 340//579
f 333//580 340//580 339//580
f 373//581 376//581 336//581
f 373//582 336//582 335//582
f 337//583 336//583 406//583
f 337//584 406//584 340//584
f 341//585 406//585 356//585
f 341//586 356//586 355//586
f 357//587 356//587 376//587
f 357//588 376//588 375//588
f 119//589 122//589 407//589
f 119//590 407//590 127//590
f 115//591 118//591 121//591
f 115//592 121//592 120//592
f 111//593 114//593 117//593
f 111//594 117//594 116//594
f 110//595 109//595 113//595
f 110//596 113//596 112//596
f 99//597 102//597 105//597
f 99//598 105//598 104//598
f 379//599 378//599 359//599
f 379//600 359//600 358//600
f 361//601 360//601 363//601
f 361//602 363//602 362//602
f 366//603 369//603 408//603
f 366//604 408//604 401//604
f 409//605 410//605 364//605
f 409//606 364//606 363//606
f 365//607 364//607 369//607
f 365//608 369//608 368//608
f 372//609 371//609 101//609
f 372//610 101//610 100//610
f 377//611 380//611 129//611
f 377//612 129//612 128//612
f 130//613 129//613 383//613
f 130//614 383//614 382//614
f 384//615 383//615 387//615
f 384//616 387//616 386//616
f 388//617 387//617 380//617
f 388//618 380//618 379//618
f 387//619 383//619 129//619
f 387//620 129//620 380//620
f 364//621 410//621 408//621
f 364//622 408//622 369//622
f 356//623 406//623 336//623
f 356//624 336//624 376//624
f 340//625 332//625 337//625
f 328//626 324//626 320//626
f 328//627 320//627 317//627
f 323//628 312//628 308//628
f 323//629 308//629 321//629
f 304//630 72//630 134//630
f 304//631 134//631 301//631
f 296//632 292//632 290//632
f 285//633 281//633 277//633
f 285//634 277//634 132//634
f 275//635 274//635 404//635
f 275//636 404//636 272//636
f 271//637 286//637 131//637
f 271//638 131//638 276//638
f 65//639 63//639 267//639
f 65//640 267//640 288//640
f 68//641 69//641 263//641
f 68//642 263//642 260//642
f 64//643 67//643 259//643
f 64//644 259//644 268//644
f 278//645 280//645 298//645
f 278//646 298//646 133//646
f 264//647 70//647 71//647
f 264//648 71//648 303//648
f 405//649 273//649 66//649
f 405//650 66//650 287//650
f 246//651 241//651 402//651
f 256//652 251//652 400//652
f 256//653 400//653 238//653
f 249//654 253//654 237//654
f 249//655 237//655 242//655
f 233//656 229//656 225//656
f 233//657 225//657 222//657
f 217//658 213//658 230//658
f 217//659 230//659 232//659
f 209//660 218//660 231//660
f 209//661 231//661 206//661
f 201//662 197//662 235//662
f 201//663 235//663 399//663
f 193//664 88//664 198//664
f 193//665 198//665 200//665
f 191//666 187//666 90//666
f 191//667 90//667 389//667
f 183//668 207//668 188//668
f 183//669 188//669 190//669
f 87//670 92//670 179//670
f 87//671 179//671 195//671
f 186//672 175//672 93//672
f 186//673 93//673 89//673
f 210//674 205//674 176//674
f 210//675 176//675 185//675
f 215//676 208//676 182//676
f 215//677 182//677 326//677
f 177//678 366//678 401//678
f 177//679 401//679 240//679
f 91//680 97//680 367//680
f 91//681 367//681 180//681
f 174//682 171//682 95//682
f 174//683 95//683 94//683
f 204//684 172//684 173//684
f 239//685 236//685 196//685
f 239//686 196//686 178//686
f 282//687 284//687 211//687
f 282//688 211//688 315//688
f 167//689 257//689 262//689
f 167//690 262//690 164//690
f 348//691 168//691 398//691
f 348//692 398//692 353//692
f 270//693 227//693 212//693
f 270//694 212//694 283//694
f 159//695 265//695 258//695
f 159//696 258//696 166//696
f 344//697 160//697 165//697
f 344//698 165//698 347//698
f 158//699 381//699 289//699
f 158//700 289//700 266//700
f 384//701 386//701 297//701
f 384//702 297//702 397//702
f 269//703 291//703 226//703
f 269//704 226//704 228//704
f 155//705 223//705 293//705
f 155//706 293//706 295//706
f 151//707 156//707 294//707
f 151//708 294//708 385//708
f 358//709 152//709 388//709
f 358//710 388//710 379//710
f 147//711 219//711 224//711
f 147//712 224//712 154//712
f 396//713 148//713 153//713
f 396//714 153//714 150//714
f 362//715 144//715 149//715
f 362//716 149//716 361//716
f 161//717 261//717 302//717
f 161//718 302//718 338//718
f 162//719 341//719 355//719
f 162//720 355//720 126//720
f 306//721 333//721 339//721
f 306//722 339//722 395//722
f 305//723 300//723 318//723
f 305//724 318//724 307//724
f 330//725 309//725 311//725
f 330//726 311//726 142//726
f 141//727 137//727 334//727
f 141//728 334//728 331//728
f 373//729 335//729 136//729
f 373//730 136//730 394//730
f 202//731 243//731 393//731
f 202//732 393//732 135//732
f 194//733 199//733 138//733
f 194//734 138//734 140//734
f 192//735 392//735 139//735
f 192//736 139//736 310//736
f 184//737 189//737 313//737
f 184//738 313//738 322//738
f 327//739 181//739 325//739
f 279//740 314//740 319//740
f 279//741 319//741 299//741
f 169//742 391//742 220//742
f 169//743 220//743 146//743
f 368//744 98//744 143//744
f 368//745 143//745 365//745
f 145//746 390//746 96//746
f 145//747 96//747 170//747
f 203//748 234//748 221//748
f 316//749 214//749 216//749
f 316//750 216//750 329//750
f 382//751 157//751 343//751
f 382//752 343//752 130//752
f 125//753 350//753 163//753
f 342//754 119//754 127//754
f 346//755 115//755 120//755
f 346//756 120//756 345//756
f 352//757 111//757 116//757
f 352//758 116//758 349//758
f 124//759 110//759 112//759
f 124//760 112//760 351//760
f 354//761 103//761 107//761
f 354//762 107//762 123//762
f 375//763 99//763 104//763
f 375//764 104//764 357//764
f 100//765 374//765 372//765
f 402//766 401//766 408//766
f 402//767 408//767 411//767
f 411//768 403//768 402//768
f 411//769 408//769 410//769
f 194//770 392//770 389//770
f 194//771 389//771 86//771
f 83//772 390//772 396//772
f 83//773 396//773 144//773
f 203//774 391//774 204//774
f 127//775 407//775 128//775
f 163//776 398//776 164//776
f 340//777 406//777 341//777
f 305//778 395//778 302//778
f 289//779 397//779 290//779
f 372//780 394//780 393//780
f 372//781 393//781 370//781
f 62//782 134//782 72//782
f 62//783 72//783 43//783
f 243//784 399//784 400//784
f 243//785 400//785 244//785
f 291//786 404//786 405//786
f 291//787 405//787 292//787
#787 polygons

